<?xml version="1.0" encoding="utf-8"?>
<!-- Generator: Adobe Illustrator 17.0.0, SVG Export Plug-In . SVG Version: 6.00 Build 0)  -->
<!DOCTYPE svg PUBLIC "-//W3C//DTD SVG 1.1//EN" "http://www.w3.org/Graphics/SVG/1.1/DTD/svg11.dtd">
<svg version="1.1" id="Layer_1" xmlns="http://www.w3.org/2000/svg" xmlns:xlink="http://www.w3.org/1999/xlink" x="0px" y="0px"
	 width="150px" height="100px" viewBox="0 0 150 100" enable-background="new 0 0 150 100" xml:space="preserve">
<g>
	<g>
		<path fill="#9B7221" d="M116.05,67.908c0,0.043-0.012,0.082-0.036,0.116c-0.024,0.035-0.067,0.062-0.129,0.084
			s-0.145,0.039-0.248,0.052s-0.235,0.019-0.394,0.019c-0.155,0-0.284-0.006-0.387-0.019c-0.103-0.013-0.185-0.03-0.245-0.052
			c-0.06-0.021-0.103-0.049-0.129-0.084c-0.026-0.034-0.039-0.073-0.039-0.116v-6.797h-0.013l-2.421,6.791
			c-0.017,0.056-0.045,0.102-0.084,0.139s-0.091,0.066-0.158,0.087c-0.067,0.021-0.152,0.036-0.255,0.042s-0.228,0.01-0.374,0.01
			s-0.271-0.005-0.374-0.016s-0.188-0.028-0.255-0.052c-0.067-0.024-0.119-0.053-0.158-0.087c-0.039-0.034-0.065-0.075-0.077-0.123
			l-2.337-6.791h-0.013v6.797c0,0.043-0.012,0.082-0.036,0.116c-0.024,0.035-0.068,0.062-0.132,0.084
			c-0.065,0.022-0.147,0.039-0.249,0.052c-0.101,0.013-0.231,0.019-0.39,0.019c-0.155,0-0.284-0.006-0.387-0.019
			c-0.103-0.013-0.186-0.03-0.249-0.052c-0.062-0.021-0.105-0.049-0.129-0.084c-0.024-0.034-0.035-0.073-0.035-0.116v-7.443
			c0-0.219,0.058-0.387,0.174-0.503c0.116-0.116,0.271-0.174,0.465-0.174h1.11c0.198,0,0.368,0.016,0.51,0.048
			c0.142,0.032,0.265,0.086,0.368,0.161s0.189,0.174,0.258,0.297s0.129,0.274,0.181,0.455l1.807,4.977h0.026l1.872-4.964
			c0.056-0.181,0.117-0.333,0.184-0.458s0.144-0.226,0.232-0.303c0.088-0.077,0.193-0.132,0.313-0.165
			c0.12-0.032,0.26-0.048,0.42-0.048h1.143c0.116,0,0.216,0.015,0.3,0.045s0.153,0.074,0.207,0.132s0.095,0.129,0.123,0.213
			s0.042,0.18,0.042,0.287v7.443H116.05z"/>
		<path fill="#9B7221" d="M123.596,64.984c0,0.491-0.065,0.938-0.194,1.343s-0.325,0.753-0.587,1.046
			c-0.263,0.293-0.592,0.519-0.988,0.678c-0.396,0.159-0.859,0.239-1.388,0.239c-0.512,0-0.958-0.071-1.336-0.213
			c-0.379-0.142-0.693-0.349-0.942-0.62c-0.25-0.271-0.435-0.605-0.555-1.001c-0.121-0.396-0.181-0.848-0.181-1.356
			c0-0.491,0.066-0.939,0.197-1.346c0.131-0.407,0.328-0.755,0.591-1.046c0.262-0.29,0.591-0.515,0.984-0.675
			c0.394-0.159,0.855-0.239,1.385-0.239c0.516,0,0.964,0.07,1.343,0.21c0.379,0.14,0.692,0.345,0.939,0.616s0.431,0.605,0.552,1.001
			C123.536,64.018,123.596,64.472,123.596,64.984z M121.924,65.049c0-0.284-0.023-0.545-0.068-0.784s-0.122-0.446-0.229-0.623
			c-0.108-0.176-0.251-0.314-0.429-0.413c-0.179-0.099-0.403-0.148-0.675-0.148c-0.241,0-0.452,0.044-0.633,0.132
			s-0.329,0.217-0.445,0.387c-0.116,0.17-0.203,0.374-0.261,0.613c-0.058,0.239-0.087,0.511-0.087,0.817
			c0,0.284,0.024,0.545,0.071,0.784s0.124,0.447,0.229,0.623c0.105,0.177,0.249,0.313,0.429,0.41
			c0.181,0.097,0.404,0.145,0.671,0.145c0.245,0,0.458-0.044,0.639-0.132c0.181-0.088,0.329-0.216,0.445-0.384
			s0.202-0.371,0.258-0.61C121.896,65.626,121.924,65.354,121.924,65.049z"/>
		<path fill="#9B7221" d="M130.342,67.921c0,0.047-0.011,0.087-0.032,0.119c-0.022,0.032-0.058,0.059-0.11,0.081
			c-0.052,0.021-0.122,0.036-0.21,0.045c-0.088,0.009-0.197,0.013-0.326,0.013c-0.138,0-0.25-0.004-0.336-0.013
			s-0.156-0.024-0.21-0.045c-0.054-0.021-0.093-0.048-0.116-0.081c-0.024-0.032-0.035-0.072-0.035-0.119v-0.639
			c-0.297,0.319-0.608,0.566-0.933,0.742c-0.325,0.176-0.685,0.265-1.081,0.265c-0.439,0-0.81-0.085-1.114-0.255
			c-0.303-0.17-0.551-0.399-0.742-0.687c-0.191-0.288-0.33-0.625-0.416-1.01s-0.129-0.791-0.129-1.217
			c0-0.512,0.055-0.972,0.165-1.381s0.27-0.757,0.481-1.046c0.211-0.288,0.473-0.51,0.788-0.665
			c0.314-0.155,0.676-0.232,1.084-0.232c0.323,0,0.615,0.066,0.878,0.197c0.262,0.131,0.523,0.324,0.781,0.578v-3.118
			c0-0.043,0.012-0.082,0.035-0.116c0.024-0.034,0.067-0.063,0.129-0.087c0.062-0.024,0.145-0.042,0.249-0.055
			c0.103-0.013,0.234-0.019,0.394-0.019c0.159,0,0.29,0.006,0.394,0.019c0.103,0.013,0.185,0.031,0.245,0.055
			c0.06,0.024,0.103,0.053,0.129,0.087c0.026,0.035,0.039,0.073,0.039,0.116L130.342,67.921L130.342,67.921z M128.728,64.074
			c-0.232-0.293-0.455-0.516-0.668-0.671c-0.213-0.155-0.436-0.232-0.668-0.232c-0.211,0-0.393,0.053-0.546,0.158
			c-0.153,0.106-0.275,0.246-0.368,0.423c-0.093,0.177-0.161,0.373-0.207,0.591c-0.045,0.217-0.068,0.44-0.068,0.668
			c0,0.241,0.019,0.476,0.058,0.704c0.039,0.228,0.102,0.432,0.19,0.61c0.088,0.179,0.205,0.322,0.352,0.429
			c0.146,0.108,0.331,0.161,0.555,0.161c0.112,0,0.22-0.016,0.326-0.048c0.105-0.032,0.213-0.085,0.323-0.158
			c0.11-0.073,0.223-0.169,0.339-0.287c0.116-0.118,0.243-0.264,0.381-0.436L128.728,64.074L128.728,64.074z"/>
		<path fill="#9B7221" d="M136.881,67.94c0,0.06-0.022,0.108-0.065,0.142c-0.043,0.035-0.111,0.059-0.203,0.074
			c-0.093,0.015-0.229,0.023-0.41,0.023c-0.194,0-0.335-0.008-0.423-0.023s-0.151-0.04-0.187-0.074
			c-0.037-0.034-0.055-0.082-0.055-0.142v-0.458c-0.237,0.254-0.507,0.452-0.81,0.594s-0.64,0.213-1.01,0.213
			c-0.306,0-0.586-0.04-0.842-0.119c-0.256-0.08-0.478-0.198-0.665-0.355c-0.187-0.157-0.332-0.352-0.436-0.584
			c-0.103-0.232-0.155-0.503-0.155-0.813c0-0.336,0.066-0.627,0.197-0.875c0.131-0.247,0.327-0.452,0.587-0.613
			c0.26-0.161,0.584-0.281,0.972-0.358c0.387-0.077,0.837-0.116,1.349-0.116h0.562v-0.349c0-0.181-0.018-0.339-0.055-0.474
			c-0.037-0.136-0.097-0.249-0.181-0.339s-0.196-0.157-0.336-0.2s-0.313-0.065-0.52-0.065c-0.271,0-0.513,0.03-0.726,0.09
			s-0.401,0.127-0.565,0.2s-0.3,0.14-0.41,0.2s-0.199,0.09-0.268,0.09c-0.047,0-0.089-0.015-0.126-0.045s-0.067-0.073-0.09-0.129
			c-0.024-0.056-0.042-0.125-0.055-0.207c-0.013-0.082-0.019-0.172-0.019-0.271c0-0.133,0.011-0.239,0.032-0.316
			c0.021-0.077,0.062-0.147,0.123-0.21c0.06-0.062,0.166-0.131,0.316-0.207c0.151-0.075,0.327-0.145,0.529-0.21
			c0.202-0.065,0.423-0.117,0.662-0.158s0.485-0.061,0.739-0.061c0.452,0,0.838,0.044,1.159,0.132s0.584,0.224,0.791,0.407
			c0.207,0.183,0.357,0.419,0.452,0.707c0.095,0.288,0.142,0.63,0.142,1.026L136.881,67.94L136.881,67.94z M135.286,65.475h-0.62
			c-0.263,0-0.486,0.019-0.671,0.058c-0.185,0.039-0.336,0.097-0.452,0.174s-0.201,0.171-0.255,0.281s-0.081,0.236-0.081,0.378
			c0,0.241,0.076,0.43,0.229,0.568s0.365,0.207,0.636,0.207c0.228,0,0.438-0.058,0.629-0.174c0.191-0.116,0.386-0.286,0.584-0.51
			L135.286,65.475L135.286,65.475z"/>
		<path fill="#9B7221" d="M142.555,66.294c0,0.327-0.061,0.615-0.184,0.865s-0.296,0.458-0.52,0.626s-0.488,0.294-0.794,0.378
			s-0.637,0.126-0.994,0.126c-0.215,0-0.421-0.016-0.617-0.048s-0.371-0.073-0.526-0.123c-0.155-0.049-0.284-0.1-0.387-0.152
			s-0.179-0.1-0.226-0.145s-0.084-0.116-0.11-0.213s-0.039-0.24-0.039-0.429c0-0.125,0.004-0.225,0.013-0.3
			c0.009-0.075,0.021-0.136,0.039-0.181c0.017-0.045,0.039-0.075,0.065-0.09s0.058-0.023,0.097-0.023
			c0.047,0,0.117,0.027,0.21,0.081s0.208,0.113,0.345,0.178c0.138,0.065,0.298,0.125,0.481,0.181s0.391,0.084,0.623,0.084
			c0.146,0,0.276-0.015,0.391-0.045c0.114-0.03,0.213-0.073,0.297-0.129s0.147-0.127,0.19-0.213s0.065-0.185,0.065-0.297
			c0-0.129-0.04-0.24-0.119-0.332c-0.08-0.092-0.185-0.173-0.316-0.242s-0.28-0.133-0.445-0.194c-0.166-0.06-0.336-0.127-0.51-0.2
			s-0.344-0.157-0.51-0.252s-0.314-0.211-0.445-0.349c-0.131-0.138-0.237-0.303-0.316-0.497c-0.08-0.194-0.119-0.426-0.119-0.697
			c0-0.275,0.054-0.528,0.161-0.758s0.262-0.427,0.465-0.591c0.202-0.163,0.449-0.29,0.739-0.381c0.29-0.09,0.617-0.136,0.978-0.136
			c0.181,0,0.356,0.013,0.526,0.039s0.324,0.058,0.462,0.097s0.254,0.081,0.349,0.126s0.162,0.084,0.203,0.116
			s0.07,0.065,0.087,0.097s0.03,0.071,0.039,0.116c0.009,0.045,0.016,0.101,0.023,0.168c0.006,0.067,0.01,0.15,0.01,0.249
			c0,0.116-0.003,0.211-0.01,0.284c-0.006,0.073-0.017,0.131-0.032,0.174s-0.035,0.072-0.061,0.087
			c-0.026,0.015-0.056,0.023-0.09,0.023c-0.039,0-0.099-0.023-0.181-0.068c-0.082-0.045-0.184-0.094-0.307-0.145
			c-0.123-0.052-0.265-0.1-0.426-0.145c-0.161-0.045-0.345-0.068-0.552-0.068c-0.146,0-0.273,0.015-0.381,0.045
			s-0.196,0.073-0.265,0.129s-0.121,0.122-0.155,0.197c-0.035,0.075-0.052,0.156-0.052,0.242c0,0.133,0.041,0.245,0.123,0.336
			c0.082,0.09,0.189,0.17,0.323,0.239c0.133,0.069,0.285,0.133,0.455,0.194c0.17,0.06,0.342,0.126,0.516,0.197
			s0.346,0.154,0.516,0.249c0.17,0.095,0.322,0.211,0.455,0.349s0.241,0.302,0.323,0.494
			C142.514,65.805,142.555,66.032,142.555,66.294z"/>
	</g>
	<g id="_x32_60x60.psd_1_">
		<g>
			<defs>
				<rect id="SVGID_1_" x="7.039" y="31.711" width="135.922" height="26.429"/>
			</defs>
			<clipPath id="SVGID_2_">
				<use xlink:href="#SVGID_1_"  overflow="visible"/>
			</clipPath>
			<g clip-path="url(#SVGID_2_)">
				
					<image overflow="visible" enable-background="new    " width="4286" height="851" id="Layer_3" xlink:href="NNN/60310495.png"  transform="matrix(0.0315 0 0 0.0315 7.5172 31.6131)">
				</image>
			</g>
		</g>
	</g>
</g>
</svg>
