<?xml version="1.0" encoding="utf-8"?>
<!-- Generator: Adobe Illustrator 17.0.0, SVG Export Plug-In . SVG Version: 6.00 Build 0)  -->
<!DOCTYPE svg PUBLIC "-//W3C//DTD SVG 1.1//EN" "http://www.w3.org/Graphics/SVG/1.1/DTD/svg11.dtd">
<svg version="1.1" id="Layer_1" xmlns="http://www.w3.org/2000/svg" xmlns:xlink="http://www.w3.org/1999/xlink" x="0px" y="0px"
	 width="150px" height="100px" viewBox="0 0 150 100" enable-background="new 0 0 150 100" xml:space="preserve">
<g>
	<g>
		<g>
			<path fill="#A70E13" d="M46.638,41.794C34.951,40.71,27.194,34.624,29.311,28.2c1.054-3.197,4.359-5.875,8.852-7.625
				c-5.852,1.723-10.274,4.811-11.532,8.629c-2.186,6.629,5.96,12.923,18.191,14.057c11.592,1.074,22.68-2.871,25.673-8.926
				C66.825,39.506,56.929,42.748,46.638,41.794z"/>
			<path fill="#A70E13" d="M52.167,28.47c7.855-3.208,19.302-2.307,25.569,2.009c3.119,2.148,4.363,4.739,3.861,7.195
				c1.301-2.884,0.208-6.072-3.518-8.638c-6.467-4.453-18.373-5.345-26.592-1.987c-7.79,3.181-9.463,9.03-4.12,13.424
				C43.432,36.356,45.251,31.294,52.167,28.47z"/>
			<path fill="#426AB3" d="M67.091,29.444c-5.281,4.449-16.609,5.701-25.302,2.799c-4.327-1.445-7.181-3.648-8.309-6.044
				c0.656,2.945,3.758,5.735,8.926,7.46c8.969,2.997,20.722,1.65,26.249-3.005c5.238-4.413,2.999-10.207-4.876-13.353
				C70.152,20.443,71.741,25.527,67.091,29.444z"/>
		</g>
		<g>
			<path fill="#A70E13" d="M49.912,78.647h-2.304c-3.359,0-6.197-1.119-8.513-3.357c-1.979-2.316-3.946-4.631-5.898-6.947
				c-2.708-2.836-5.961-4.722-9.762-5.659c-5.832,6.992-9.869,10.488-12.107,10.488c-0.52,0-0.891-0.117-1.113-0.351
				c-0.221-0.234-0.332-0.572-0.332-1.013c0-0.884,0.441-1.56,1.327-2.028c1.328-0.65,2.657-1.3,3.985-1.949
				c2.186-1.3,4.36-3.106,6.521-5.419c-0.338-0.221-0.794-0.407-1.367-0.558c-0.572-0.152-1.133-0.228-1.679-0.228
				c-0.755,0-1.458,0.093-2.109,0.277c-0.651,0.185-1.548,0.568-2.694,1.149c0.65-0.65,1.347-1.111,2.089-1.384
				c0.742-0.273,1.594-0.41,2.559-0.41c0.572,0,1.294,0.016,2.166,0.046c0.873,0.031,1.373,0.077,1.504,0.138
				c1.666-1.855,3.515-4.442,5.546-7.761c2.343-3.868,4.022-7.357,5.039-10.467c0.469,4.38,1.419,8.891,2.851,13.532
				c1.614,5.189,3.554,9.634,5.819,13.336C44.042,74.332,46.866,77.187,49.912,78.647z M33.431,65.123
				c-0.286-0.599-0.878-2.695-1.777-6.291c-0.898-3.595-1.413-5.822-1.542-6.682l-5.936,9.476L33.431,65.123z"/>
			<path fill="#A70E13" d="M59.597,54.469c0,0.651-0.17,1.238-0.507,1.759c-0.548,0.834-1.889,2.358-4.025,4.574
				c0.102-0.339,0.204-0.788,0.306-1.348c0.102-0.561,0.154-1.127,0.154-1.701c0-0.651-0.085-1.166-0.253-1.544
				c-0.17-0.378-0.476-0.567-0.917-0.567c-0.286,0-0.625,0.195-1.015,0.587c-0.546,0.548-1.535,1.772-2.967,3.674v7.037
				c-1.014,0.86-1.726,1.414-2.142,1.661c-0.415,0.248-0.949,0.45-1.598,0.606l-0.078-13.63c0-0.338-0.286-0.507-0.86-0.507
				c-0.52,0-1.184,0.404-1.992,1.211c0-0.523,0.661-1.404,1.985-2.646c1.324-1.241,2.268-1.862,2.835-1.862
				c0.539,0,0.983,0.372,1.33,1.113c0.346,0.742,0.52,1.972,0.52,3.69c0,0.391,0,0.723,0,0.996c0,0.273,0,0.514,0,0.722
				c1.719-2.733,3.088-4.543,4.104-5.428c0.834-0.729,1.76-1.094,2.776-1.094c0.677,0,1.238,0.235,1.68,0.704
				C59.376,52.944,59.597,53.609,59.597,54.469z"/>
			<path fill="#A70E13" d="M71.452,64.479c-0.861,1.274-1.853,2.359-2.976,3.255c-1.123,0.897-2.076,1.345-2.859,1.345
				c-0.575,0-1.039-0.266-1.392-0.799c-0.352-0.532-0.528-1.253-0.528-2.162V53.577H61.26c0-0.392,0.374-0.878,1.124-1.454
				c2.017-1.545,3.62-3.825,4.81-6.838v6.498h3.4c-0.29,0.509-0.686,0.935-1.186,1.279c-0.502,0.344-1.081,0.515-1.739,0.515
				c-0.211,0-0.369,0-0.474,0v12.537c0.131,0.208,0.394,0.338,0.788,0.39c0.421,0,0.907-0.149,1.459-0.448
				C69.993,65.757,70.663,65.231,71.452,64.479z"/>
		</g>
		<g>
			<path fill="#426AB3" d="M88.796,48.227c0.273-0.064,0.772,0.057,1.496,0.362c0.418,0.177,0.615,0.378,0.591,0.603
				c-0.024,0.226,0.036,0.459,0.181,0.699c0.193,0.241,0.385,0.483,0.578,0.724c0,0.049-0.112,0.109-0.338,0.181
				c-0.224,0.073-0.474,0.274-0.747,0.603c-0.273,0.33-0.49,0.495-0.651,0.495c-0.032,0-0.112-0.016-0.241-0.048
				c-0.226-0.081-0.483-0.121-0.772-0.121c-0.177,0-0.434,0.032-0.772,0.096c-0.338,0.065-0.602,0.096-0.795,0.096
				c-0.177,0-0.367-0.024-0.568-0.072c-0.201-0.048-0.519-0.249-0.953-0.603c-0.354-0.289-0.683-0.402-0.989-0.338
				c-1.624,0.354-2.983,1.616-4.075,3.787c-0.998,1.978-1.496,4.061-1.496,6.247c0,1.367,0.233,2.486,0.7,3.354
				c0.466,0.868,1.173,1.302,2.122,1.302c1.801,0,3.28-0.635,4.439-1.906c0.788-0.868,1.439-2.05,1.954-3.546
				c0.418-1.238,0.651-1.857,0.7-1.857c0.208,0.032,0.345,0.056,0.41,0.072c0.45,0.113,0.756,0.169,0.917,0.169
				c0.224,0,0.434-0.032,0.627-0.096c-0.177,0.917-0.345,1.834-0.506,2.75c-0.306,1.142-0.828,2.928-1.568,5.355
				c-0.579,1.929-0.877,2.894-0.893,2.894c-0.322,0.225-0.837,0.498-1.544,0.82c-0.226,0.096-0.53,0.234-0.916,0.41
				c-0.049-0.016-0.221-0.077-0.519-0.181c-0.298-0.105-0.415-0.237-0.351-0.398c0.21-0.483,0.411-0.973,0.604-1.471
				c0.354-0.933,0.53-1.544,0.53-1.834c0-0.112-0.032-0.169-0.096-0.169c-0.033,0-0.089,0.024-0.168,0.073
				c-0.371,0.29-0.693,0.491-0.966,0.603c-0.273,0.113-0.515,0.169-0.723,0.169c-0.273-0.016-0.483-0.024-0.627-0.024
				c-0.21,0-0.427,0.04-0.651,0.121c-0.917,0.369-1.794,0.555-2.631,0.555c-1.672,0-2.902-0.876-3.69-2.629
				c-0.563-1.254-0.844-2.758-0.844-4.511c0-1.157,0.103-2.042,0.313-2.654c0.273-0.707,0.555-1.415,0.844-2.123
				c0.065-0.209,0.273-0.459,0.627-0.748c0.21-0.16,0.354-0.309,0.434-0.446c0.081-0.137,0.17-0.378,0.266-0.724
				c0.096-0.346,0.233-0.599,0.41-0.76c0.08-0.064,0.177-0.128,0.29-0.193c0.338-0.177,0.53-0.281,0.578-0.313
				c0.129-0.112,0.27-0.293,0.423-0.543c0.152-0.249,0.277-0.431,0.374-0.543c0.691-0.819,1.705-1.527,3.04-2.123
				c0.996-0.45,2.138-0.82,3.424-1.11C87.316,48.541,88.055,48.388,88.796,48.227z"/>
			<path fill="#426AB3" d="M94.444,60.092c0.032-0.209,0.101-0.515,0.206-0.917c0.105-0.402,0.157-0.747,0.157-1.037
				c0-0.225-0.076-0.53-0.229-0.916c-0.154-0.386-0.23-0.628-0.23-0.724c0-0.096,0.032-0.177,0.096-0.241
				c0.242-0.208,0.434-0.369,0.579-0.482c0.45-0.354,0.763-0.554,0.942-0.603c0.144-0.032,0.497,0.145,1.061,0.531
				c0.177,0.129,0.45,0.338,0.819,0.627c-0.032,0.065-0.065,0.121-0.096,0.169c-0.354,0.145-0.515,0.257-0.482,0.338
				c0.016,0.209,0.032,0.422,0.047,0.639c0.016,0.217,0.096,0.39,0.241,0.519c0.065,0.065,0.137,0.096,0.217,0.096
				c0.128,0,0.329-0.329,0.604-0.989c0.16-0.385,0.321-0.643,0.482-0.772c0.434-0.369,0.796-0.643,1.085-0.82
				c0.418-0.257,0.756-0.386,1.013-0.386c0.081,0,0.152,0.017,0.217,0.048c0.208,0.113,0.425,0.378,0.651,0.796
				c0.032,0.065,0.081,0.161,0.145,0.289c-0.226,0.178-0.338,0.346-0.338,0.507c0,0.081,0.04,0.185,0.121,0.314
				c0.08,0.129,0.103,0.241,0.072,0.337c-0.208,0.531-0.394,0.893-0.555,1.086c-0.257,0.322-0.602,0.482-1.036,0.482
				c-0.257,0-0.499-0.04-0.725-0.121c-0.434-0.144-1.036,0.438-1.808,1.75c-0.772,1.311-1.159,2.513-1.159,3.606
				c0,0.74,0.121,1.359,0.362,1.857c0.081,0.161,0.201,0.338,0.362,0.53c-0.306,0.193-0.552,0.435-0.736,0.724
				c-0.185,0.29-0.326,0.434-0.423,0.434c-0.177-0.032-0.322-0.048-0.434-0.048c-0.273,0-0.528,0.032-0.76,0.097
				c-0.233,0.064-0.486,0.193-0.759,0.385c-0.129,0.081-0.226,0.121-0.289,0.121c-0.145,0-0.262-0.097-0.351-0.289
				c-0.089-0.193-0.132-0.45-0.132-0.772c0-0.257,0.04-0.547,0.121-0.869c0.144-0.482,0.305-1.467,0.482-2.955
				C94.162,61.946,94.316,60.833,94.444,60.092z"/>
			<path fill="#426AB3" d="M109.299,55.542l2.894-0.097c0.257,0.515,0.443,0.941,0.555,1.279c0.369,1.046,0.555,2.051,0.555,3.015
				c0,1.737-0.499,3.346-1.495,4.825c-1.206,1.255-2.412,2.509-3.618,3.763c-0.049-0.032-0.082-0.048-0.098-0.048
				c-0.177-0.08-0.369-0.121-0.578-0.121c-0.275,0-0.532,0.072-0.772,0.217c-0.114,0.065-0.423-0.072-0.929-0.41
				c-0.507-0.338-0.953-0.699-1.34-1.085c-0.112-0.112-0.213-0.502-0.302-1.17c-0.088-0.667-0.132-1.355-0.132-2.063
				c0-0.852,0.137-1.607,0.411-2.267c0.224-0.53,0.651-1.238,1.278-2.123c0.515-0.772,1.036-1.544,1.568-2.316
				C108.02,56.008,108.687,55.542,109.299,55.542z M109.588,57.303c-0.434,0.418-0.765,0.755-0.989,1.013
				c-0.707,0.804-1.101,1.48-1.182,2.026c-0.017,0.065-0.009,0.129,0.023,0.193c0.032,0.081,0.049,0.137,0.049,0.169
				c-0.08,0.466-0.201,1.037-0.362,1.713c-0.209,0.837-0.313,1.263-0.313,1.279c-0.016,0.112,0.007,0.285,0.072,0.518
				c0.065,0.234,0.089,0.407,0.073,0.519c-0.016,0.065-0.024,0.169-0.024,0.313c0,0.322,0.069,0.587,0.206,0.796
				c0.137,0.209,0.325,0.313,0.566,0.313c0.369,0,0.755-0.281,1.157-0.845c0.499-0.691,0.982-1.744,1.448-3.16
				c0.112-0.338,0.17-0.667,0.17-0.989c0-0.225-0.02-0.462-0.06-0.712c-0.04-0.249-0.078-0.503-0.109-0.76
				c-0.145-1.109-0.249-1.768-0.313-1.978C109.853,57.584,109.716,57.448,109.588,57.303z"/>
			<path fill="#426AB3" d="M120.813,66.375c-0.418,0.226-0.957,0.551-1.617,0.978c-0.66,0.426-1.029,0.687-1.11,0.784
				c-0.081,0.096-0.217,0.144-0.41,0.144c-0.483,0-1.009-0.234-1.58-0.699c-0.571-0.466-0.817-0.933-0.736-1.399
				c0.193-0.836,0.354-1.56,0.483-2.171c0.482-2.186,0.723-3.955,0.723-5.307c0-0.161,0-0.273,0-0.338c0-0.129,0-0.225,0-0.29
				c0-0.434-0.02-0.768-0.06-1.001c-0.04-0.233-0.148-0.511-0.325-0.833c0.273-0.257,0.49-0.45,0.651-0.579
				c0.497-0.402,0.875-0.627,1.133-0.676c0.112-0.016,0.226-0.007,0.338,0.024c0.112,0.032,0.193,0.048,0.242,0.048
				c0.112,0,0.21-0.008,0.29-0.024c0.224-0.032,0.392,0.069,0.506,0.302c0.112,0.234,0.157,0.459,0.132,0.676
				c-0.024,0.217-0.02,0.446,0.013,0.687c0.096,0.74,0.144,1.118,0.144,1.134c0,0.161-0.024,0.289-0.072,0.385
				c-0.161,0.322-0.369,1.022-0.627,2.099c-0.322,1.336-0.483,2.445-0.483,3.329c0,0.515,0.052,0.921,0.157,1.218
				c0.105,0.298,0.293,0.479,0.566,0.543c0.065,0.016,0.17,0.024,0.315,0.024c0.949,0,1.857-0.892,2.726-2.677
				c0.804-1.656,1.206-3.216,1.206-4.68c0-0.434-0.069-0.791-0.206-1.073c-0.137-0.282-0.262-0.551-0.374-0.809
				c0.208-0.305,0.611-0.598,1.206-0.88c0.595-0.282,0.998-0.406,1.206-0.374c0.226,0.049,0.523,0.29,0.893,0.724
				c0.112,0.145,0.282,0.37,0.507,0.676c-0.257,0.032-0.628,1.431-1.11,4.197c-0.306,1.754-0.548,3.008-0.724,3.763
				c-0.032,0.193-0.047,0.322-0.047,0.386c0,0.29,0.063,0.543,0.193,0.76c0.128,0.217,0.338,0.414,0.627,0.591
				c0.128,0.081,0.193,0.193,0.193,0.338c0,0.113-0.047,0.193-0.144,0.241c-0.257,0.113-0.431,0.254-0.519,0.423
				c-0.089,0.169-0.181,0.29-0.277,0.362c-0.096,0.073-0.318,0.157-0.664,0.253c-0.345,0.096-0.631,0.297-0.855,0.603
				c-0.049,0.048-0.129,0.073-0.241,0.073c-0.114,0-0.282-0.02-0.507-0.06c-0.224-0.04-0.345-0.06-0.361-0.06
				c-0.129,0-0.193-0.346-0.193-1.037c0-0.691-0.033-1.053-0.098-1.085c-0.208-0.08-0.361-0.121-0.457-0.121
				c-0.114,0-0.239,0.06-0.375,0.181C120.952,66.267,120.86,66.343,120.813,66.375z"/>
			<path fill="#426AB3" d="M140.117,58.199c-0.033,0.113-0.057,0.322-0.073,0.627c-0.016,0.306-0.023,0.563-0.023,0.772
				c0,0.225,0,0.394,0,0.506c0,0.869-0.033,1.512-0.098,1.93c-0.112,0.724-0.338,1.351-0.674,1.882
				c-0.257,0.403-0.539,0.756-0.845,1.062c-0.065,0.065-0.41,0.362-1.036,0.893c-0.676,0.611-1.344,1.222-2.002,1.833
				c-0.74,0.563-1.568,0.845-2.486,0.845c-0.418,0-0.667,0.108-0.747,0.326c-0.081,0.217-0.145,0.349-0.193,0.398l-1.085,4.559
				c-0.226,0.048-0.418,0.073-0.579,0.073c-0.242,0-0.438-0.057-0.591-0.169c-0.152-0.113-0.282-0.258-0.387-0.434
				c-0.105-0.178-0.168-0.346-0.193-0.507c-0.024-0.162-0.036-0.298-0.036-0.41c0-0.257,0.045-0.643,0.132-1.158
				c0.089-0.515,0.141-0.88,0.157-1.098c0.016-0.217,0.089-0.587,0.217-1.109c0.129-0.523,0.217-0.921,0.266-1.195
				c0.016-0.177-0.056-0.306-0.217-0.386c-0.161-0.08-0.362-0.121-0.604-0.121c-0.177,0-0.338,0.024-0.482,0.073
				c-0.033-0.032-0.056-0.064-0.072-0.096c0.032-0.209,0.104-0.37,0.217-0.483c0.047-0.047,0.292-0.128,0.735-0.241
				c0.443-0.112,0.704-0.298,0.785-0.555c0.224-0.707,0.53-2.107,0.916-4.198c0.129-0.691,0.306-1.656,0.532-2.894
				c-0.275,0-0.523-0.032-0.749-0.096c-0.627-0.177-0.949-0.266-0.965-0.266c-0.112,0.017-0.181-0.036-0.206-0.157
				c-0.024-0.121-0.036-0.293-0.036-0.518c0.016-0.193,0.443-0.426,1.279-0.7c0.611-0.208,1.052-0.377,1.327-0.506
				c0.096-0.643,0.168-1.126,0.217-1.448c0.16-0.98,0.296-1.535,0.41-1.664c0.112-0.129,0.24-0.193,0.385-0.193
				c0.177,0.032,0.322,0.048,0.436,0.048c0.273,0,0.594,0.169,0.965,0.507c0.112,0.112,0.273,0.289,0.482,0.53
				c0.081,0.081,0.089,0.214,0.024,0.398c-0.065,0.185-0.072,0.318-0.024,0.398c0.049,0.097,0.17,0.17,0.362,0.218
				c0.193,0.048,0.401,0.072,0.627,0.072c0.21,0,0.398-0.008,0.568-0.024c0.168-0.016,0.325-0.04,0.47-0.073
				c0.177,0.226,0.7,0.74,1.568,1.544C139.079,57.266,139.522,57.669,140.117,58.199z M136.86,59.791
				c-0.112-0.627-0.306-1.057-0.579-1.29c-0.273-0.233-0.571-0.35-0.891-0.35c-0.161,0-0.322,0.029-0.483,0.085
				c-0.161,0.056-0.25,0.084-0.266,0.084c-0.385,1.302-0.667,2.308-0.844,3.015c-0.579,2.187-0.868,3.618-0.868,4.294
				c0,0.242,0.032,0.394,0.096,0.459c0.145,0.145,0.329,0.217,0.555,0.217c0.241,0,0.495-0.064,0.76-0.193
				c0.265-0.129,0.551-0.306,0.855-0.531c1.351-1.013,2.027-2.412,2.027-4.198c0-0.257-0.053-0.551-0.157-0.88
				C136.96,60.173,136.891,59.936,136.86,59.791z"/>
		</g>
	</g>
	<g>
		<path fill="#6D6E71" d="M55.586,73.573l-1.226,3.08l2.074-0.024c0.076,0,0.114,0.033,0.114,0.099c0,0.062-0.06,0.113-0.18,0.151
			c-0.119,0.038-0.319,0.073-0.599,0.107c-0.278,0.034-0.812,0.091-1.598,0.171c-0.252,0.562-0.519,1.122-0.801,1.682
			c-0.283,0.561-0.563,1.046-0.84,1.457c-0.277,0.411-0.497,0.617-0.661,0.617c-0.108,0-0.239-0.11-0.393-0.327
			c-0.154-0.219-0.232-0.392-0.232-0.52c0-0.065,0.017-0.097,0.05-0.097c0.02,0,0.075,0.031,0.167,0.095
			c0.092,0.063,0.165,0.095,0.219,0.095c0.116,0,0.302-0.145,0.556-0.433c0.254-0.289,0.527-0.664,0.816-1.125
			c0.29-0.461,0.54-0.925,0.75-1.392c-0.086,0-0.212,0.004-0.379,0.012c-0.167,0.009-0.293,0.012-0.377,0.012
			c-0.269,0-0.47-0.061-0.605-0.184c-0.134-0.122-0.2-0.367-0.2-0.734c0-0.08,0.01-0.121,0.031-0.121
			c0.008,0.01,0.037,0.038,0.087,0.083c0.049,0.046,0.137,0.096,0.262,0.15c0.126,0.055,0.306,0.101,0.542,0.142
			c0.236,0.041,0.529,0.06,0.879,0.06c0.586-1.286,1.063-2.377,1.429-3.274c-0.059-0.164-0.133-0.285-0.224-0.366
			c-0.09-0.079-0.217-0.17-0.381-0.275c-0.162-0.102-0.27-0.194-0.323-0.272c0.02-0.071,0.105-0.107,0.255-0.107
			c0.192,0,0.384,0.027,0.58,0.081c0.196,0.053,0.345,0.118,0.448,0.192c0.118,0.081,0.27,0.376,0.459,0.887
			c0.188,0.512,0.443,1.259,0.765,2.246c0.323,0.986,0.583,1.745,0.781,2.276c0.198,0.531,0.371,0.87,0.519,1.019
			c0.093,0,0.14,0.03,0.14,0.09c0,0.065-0.069,0.152-0.207,0.263c-0.139,0.111-0.267,0.167-0.385,0.167
			c-0.077,0-0.156-0.097-0.237-0.291c-0.081-0.193-0.221-0.589-0.417-1.189c-0.197-0.599-0.425-1.263-0.685-1.992
			C56.299,75.355,55.975,74.517,55.586,73.573z"/>
		<path fill="#6D6E71" d="M62.143,76.502c0-0.764-0.005-1.411-0.014-1.941c-0.009-0.53-0.021-0.975-0.036-1.335
			c-0.015-0.36-0.027-0.637-0.035-0.831c-0.009-0.194-0.013-0.354-0.013-0.481c0-0.063,0.028-0.095,0.083-0.095
			c0.069,0,0.151,0.019,0.243,0.057c0.093,0.039,0.172,0.092,0.237,0.158c0.066,0.066,0.099,0.141,0.099,0.223
			c0,0.146-0.02,0.535-0.06,1.167c-0.039,0.632-0.072,1.231-0.099,1.798c-0.027,0.566-0.042,1.184-0.048,1.856
			c0,0.6,0.006,1.179,0.017,1.738c0.011,0.559,0.017,0.964,0.017,1.216c0,0.008-0.003,0.017-0.007,0.029
			c-0.004,0.011-0.013,0.017-0.028,0.017c-0.077,0-0.164-0.042-0.26-0.125c-0.098-0.085-0.145-0.206-0.145-0.365v-0.906
			c-0.157,0.133-0.322,0.254-0.495,0.362c-0.173,0.108-0.365,0.209-0.577,0.303c-0.213,0.093-0.417,0.165-0.614,0.214
			c-0.196,0.047-0.384,0.075-0.563,0.081c-0.245,0-0.455-0.078-0.631-0.233c-0.176-0.156-0.264-0.416-0.264-0.781
			c0-0.39,0.105-0.806,0.316-1.25c0.211-0.443,0.484-0.814,0.819-1.111c0.334-0.298,0.672-0.447,1.014-0.447
			C61.475,75.82,61.822,76.047,62.143,76.502z M62.143,76.777c-0.14-0.201-0.326-0.351-0.56-0.448
			c-0.233-0.098-0.479-0.146-0.735-0.146c-0.213,0-0.417,0.076-0.616,0.23c-0.198,0.153-0.36,0.381-0.485,0.682
			c-0.125,0.3-0.187,0.657-0.187,1.07c0,0.361,0.073,0.621,0.222,0.783c0.148,0.16,0.364,0.241,0.647,0.241
			c0.245,0,0.527-0.079,0.843-0.236c0.317-0.157,0.591-0.339,0.822-0.544L62.143,76.777z"/>
		<path fill="#6D6E71" d="M64.729,79.844c-0.068,0-0.136-0.107-0.205-0.32c-0.068-0.213-0.184-0.621-0.346-1.226
			c-0.162-0.603-0.307-1.082-0.434-1.435c-0.126-0.353-0.253-0.579-0.38-0.677c-0.044-0.032-0.066-0.072-0.066-0.118
			c0-0.063,0.041-0.095,0.123-0.095c0.358,0,0.579,0.047,0.661,0.141c0.023,0.029,0.116,0.352,0.279,0.968
			c0.163,0.616,0.303,1.12,0.419,1.512c0.116,0.391,0.203,0.587,0.259,0.587c0.085,0,0.231-0.196,0.435-0.59
			c0.204-0.392,0.387-0.849,0.547-1.371c0.159-0.521,0.239-0.983,0.239-1.386c0-0.048-0.006-0.088-0.016-0.118
			c0.018-0.11,0.039-0.165,0.064-0.165c0.061,0,0.142,0.12,0.242,0.36c0.1,0.24,0.15,0.419,0.15,0.539
			c0,0.264-0.142,0.662-0.426,1.195c-0.283,0.533-0.593,1.033-0.929,1.499C65.011,79.611,64.805,79.844,64.729,79.844z"/>
		<path fill="#6D6E71" d="M67.193,78.603c0-0.169,0.036-0.399,0.108-0.692c0.072-0.293,0.192-0.592,0.361-0.899
			c0.168-0.306,0.403-0.566,0.702-0.781c0.301-0.214,0.665-0.322,1.096-0.322c0.252,0,0.433,0.036,0.545,0.107
			c0.112,0.072,0.183,0.192,0.216,0.359c0.033,0.167,0.052,0.445,0.059,0.836c0.055,0.026,0.083,0.068,0.083,0.128
			c0,0.059-0.09,0.114-0.269,0.163l-2.354,0.573c0,0.463,0.113,0.79,0.342,0.982c0.228,0.194,0.551,0.289,0.967,0.289
			c0.32,0,0.596-0.034,0.827-0.107c0.232-0.07,0.438-0.155,0.617-0.253c0.178-0.098,0.275-0.148,0.291-0.148
			c0.037,0,0.055,0.04,0.055,0.12c0,0.08-0.014,0.128-0.04,0.143c-0.342,0.2-0.727,0.351-1.156,0.453
			c-0.429,0.102-0.808,0.154-1.138,0.154c-0.45,0-0.781-0.074-0.992-0.223C67.298,79.336,67.193,79.041,67.193,78.603z
			 M67.755,77.784l1.632-0.374c0.183-0.041,0.293-0.086,0.331-0.131c0.038-0.046,0.057-0.147,0.057-0.303
			c0-0.53-0.195-0.796-0.586-0.796c-0.248,0.009-0.48,0.086-0.697,0.235c-0.217,0.147-0.391,0.342-0.523,0.586
			C67.839,77.243,67.767,77.505,67.755,77.784z"/>
		<path fill="#6D6E71" d="M71.639,79.312c0-0.034,0.016-0.257,0.049-0.669c0.033-0.412,0.05-0.788,0.05-1.129
			c0-0.308-0.009-0.603-0.026-0.886c-0.017-0.284-0.026-0.442-0.026-0.472c0-0.126,0.052-0.187,0.157-0.187
			c0.069,0,0.155,0.037,0.254,0.112c0.101,0.075,0.151,0.167,0.151,0.277c0,0.108-0.008,0.248-0.022,0.42
			c-0.015,0.172-0.039,0.416-0.071,0.731c-0.032,0.315-0.064,0.641-0.097,0.975l0.017,0.026c0.067-0.21,0.143-0.414,0.229-0.614
			c0.085-0.2,0.165-0.374,0.239-0.521c0.074-0.146,0.162-0.311,0.263-0.493c0.101-0.182,0.201-0.36,0.3-0.534
			c0-0.2,0.044-0.402,0.13-0.604c0.088-0.204,0.19-0.305,0.307-0.305c0.028,0,0.042,0.031,0.042,0.093
			c0,0.098,0.021,0.257,0.062,0.479c0.042,0.222,0.103,0.426,0.185,0.615c0.082,0.187,0.178,0.292,0.288,0.313
			c0.066,0.023,0.099,0.054,0.099,0.095c0,0.057-0.045,0.106-0.136,0.148c-0.091,0.043-0.175,0.063-0.253,0.063
			c-0.143,0-0.28-0.057-0.409-0.171c-0.13-0.114-0.218-0.258-0.265-0.431c-0.141,0.285-0.273,0.549-0.395,0.792
			c-0.122,0.243-0.235,0.481-0.34,0.716c-0.104,0.233-0.19,0.451-0.257,0.655c-0.067,0.202-0.109,0.388-0.123,0.555
			c-0.012,0.126-0.039,0.19-0.083,0.19c-0.083,0-0.156-0.021-0.218-0.066C71.682,79.437,71.647,79.38,71.639,79.312z"/>
		<path fill="#6D6E71" d="M75.521,76.198c0.293-0.009,0.529-0.024,0.711-0.043c0.182-0.019,0.278-0.029,0.29-0.029
			c0.044,0,0.065,0.039,0.065,0.118c0,0.135-0.35,0.241-1.051,0.32c-0.013,0.161-0.024,0.331-0.031,0.509
			c-0.007,0.179-0.014,0.396-0.02,0.654c-0.006,0.257-0.011,0.447-0.015,0.571c0.012,0.329,0.018,0.75,0.018,1.26
			c0,0.094-0.044,0.141-0.131,0.141c-0.078,0-0.155-0.023-0.23-0.069c-0.074-0.046-0.111-0.101-0.111-0.167
			c0-0.013,0.017-0.282,0.052-0.805c0.035-0.524,0.054-0.982,0.054-1.374v-0.696h-0.629c-0.06,0-0.113-0.054-0.157-0.162
			s-0.066-0.2-0.066-0.277c0-0.06,0.019-0.092,0.058-0.092c0.023,0,0.116,0.015,0.277,0.044c0.161,0.03,0.333,0.054,0.517,0.074
			V75.69c0-0.376-0.006-0.754-0.017-1.134c-0.011-0.377-0.016-0.596-0.016-0.652c0-0.116,0.027-0.176,0.082-0.176
			c0.083,0,0.188,0.041,0.311,0.123c0.124,0.082,0.187,0.186,0.187,0.313c0,0.031-0.012,0.136-0.035,0.318
			c-0.024,0.18-0.046,0.41-0.067,0.687C75.545,75.446,75.53,75.789,75.521,76.198z"/>
		<path fill="#6D6E71" d="M77.03,75.799c0-0.046,0.021-0.069,0.063-0.069c0.097,0,0.221,0.04,0.372,0.12
			c0.151,0.08,0.226,0.177,0.226,0.292c0,0.18-0.015,0.605-0.045,1.275c-0.03,0.67-0.045,1.132-0.045,1.387
			c0,0.132,0.003,0.289,0.008,0.468c0.005,0.18,0.009,0.295,0.009,0.345c0,0.061-0.028,0.092-0.08,0.092
			c-0.083,0-0.165-0.029-0.251-0.086c-0.084-0.059-0.126-0.138-0.126-0.242v-2.226c0-0.356-0.01-0.624-0.029-0.802
			c-0.018-0.178-0.04-0.31-0.065-0.397C77.042,75.869,77.03,75.816,77.03,75.799z M77.209,73.325c0.054,0,0.135,0.03,0.239,0.09
			c0.105,0.059,0.161,0.112,0.169,0.158c0.016,0.032,0.024,0.297,0.024,0.793c0,0.212-0.019,0.318-0.056,0.318
			c-0.057,0-0.127-0.023-0.211-0.068c-0.085-0.045-0.146-0.109-0.181-0.192c-0.009-0.032-0.02-0.183-0.032-0.45
			c-0.012-0.267-0.018-0.459-0.018-0.577C77.144,73.348,77.166,73.325,77.209,73.325z"/>
		<path fill="#6D6E71" d="M79.268,76.807c0,0.191,0.081,0.314,0.245,0.372c0.162,0.058,0.44,0.115,0.829,0.174
			c0.389,0.059,0.681,0.146,0.879,0.261c0.196,0.114,0.294,0.31,0.294,0.586c0,0.332-0.087,0.611-0.262,0.838
			c-0.175,0.227-0.398,0.396-0.673,0.506c-0.274,0.11-0.552,0.166-0.834,0.166c-0.228,0-0.417-0.016-0.566-0.046
			c-0.149-0.031-0.267-0.099-0.355-0.201c-0.087-0.102-0.13-0.253-0.13-0.453c0-0.166,0.016-0.25,0.048-0.25
			c0.011,0,0.101,0.056,0.271,0.166c0.17,0.111,0.359,0.209,0.565,0.295c0.208,0.086,0.426,0.128,0.659,0.128
			c0.227,0,0.409-0.054,0.547-0.164c0.137-0.11,0.206-0.353,0.206-0.728c0-0.234-0.091-0.382-0.272-0.448
			c-0.18-0.067-0.459-0.115-0.834-0.146c-0.377-0.032-0.66-0.094-0.853-0.185c-0.192-0.092-0.288-0.275-0.288-0.548
			c0-0.347,0.116-0.626,0.349-0.835c0.233-0.208,0.499-0.354,0.799-0.437c0.299-0.083,0.564-0.125,0.792-0.125
			c0.534,0,0.8,0.188,0.8,0.566c0,0.069-0.01,0.136-0.028,0.204c-0.018,0.066-0.042,0.1-0.072,0.1c-0.01,0-0.072-0.048-0.186-0.146
			c-0.116-0.097-0.258-0.181-0.426-0.254c-0.168-0.072-0.379-0.108-0.634-0.108c-0.246,0-0.452,0.055-0.619,0.167
			C79.351,76.371,79.268,76.553,79.268,76.807z"/>
		<path fill="#6D6E71" d="M82.505,75.799c0-0.046,0.021-0.069,0.063-0.069c0.097,0,0.22,0.04,0.371,0.12
			c0.151,0.08,0.227,0.177,0.227,0.292c0,0.18-0.015,0.605-0.045,1.275c-0.03,0.67-0.045,1.132-0.045,1.387
			c0,0.132,0.003,0.289,0.008,0.468c0.006,0.18,0.009,0.295,0.009,0.345c0,0.061-0.027,0.092-0.08,0.092
			c-0.082,0-0.165-0.029-0.25-0.086c-0.085-0.059-0.127-0.138-0.127-0.242v-2.226c0-0.356-0.01-0.624-0.028-0.802
			c-0.019-0.178-0.041-0.31-0.066-0.397C82.517,75.869,82.505,75.816,82.505,75.799z M82.684,73.325c0.055,0,0.135,0.03,0.24,0.09
			c0.105,0.059,0.161,0.112,0.169,0.158c0.016,0.032,0.024,0.297,0.024,0.793c0,0.212-0.02,0.318-0.057,0.318
			c-0.056,0-0.127-0.023-0.211-0.068c-0.085-0.045-0.145-0.109-0.181-0.192c-0.009-0.032-0.02-0.183-0.032-0.45
			c-0.012-0.267-0.017-0.459-0.017-0.577C82.619,73.348,82.641,73.325,82.684,73.325z"/>
		<path fill="#6D6E71" d="M84.314,75.752c0-0.06,0.016-0.09,0.048-0.09c0.073,0,0.181,0.043,0.322,0.128
			c0.141,0.086,0.212,0.165,0.212,0.238c0,0.147-0.026,0.518-0.075,1.113c-0.05,0.595-0.097,1.076-0.137,1.441h0.016
			c0.39-1.13,0.75-1.861,1.082-2.194c0.331-0.333,0.598-0.501,0.798-0.501c0.148,0,0.258,0.076,0.33,0.23
			c0.072,0.153,0.137,0.406,0.195,0.758l0.289,1.869c0.036,0.306,0.112,0.459,0.228,0.459c0.022,0,0.034,0.017,0.034,0.05
			c0,0.09-0.073,0.188-0.221,0.296c-0.147,0.108-0.252,0.161-0.315,0.161c-0.05,0-0.085-0.03-0.103-0.088
			c-0.017-0.059-0.046-0.19-0.085-0.396l-0.337-2.003c-0.04-0.228-0.095-0.409-0.163-0.543c-0.069-0.134-0.142-0.199-0.221-0.199
			c-0.156,0-0.33,0.136-0.524,0.409c-0.195,0.274-0.378,0.626-0.551,1.059c-0.174,0.433-0.309,0.868-0.405,1.31
			c-0.006,0.022-0.012,0.044-0.017,0.069c-0.005,0.025-0.013,0.045-0.022,0.06c-0.01,0.016-0.024,0.024-0.044,0.024
			c-0.064,0-0.139-0.028-0.224-0.082c-0.086-0.055-0.128-0.127-0.128-0.215c0-0.048,0.008-0.17,0.023-0.368
			c0.015-0.198,0.03-0.442,0.041-0.731c0.012-0.288,0.019-0.638,0.019-1.047c0-0.317-0.011-0.608-0.033-0.873
			C84.324,75.83,84.314,75.716,84.314,75.752z"/>
		<path fill="#6D6E71" d="M91.275,76.564c0.285-0.292,0.465-0.439,0.538-0.439c0.023,0,0.034,0.056,0.034,0.165
			c-0.013,0.522-0.018,1.288-0.018,2.302c-0.009,0.572-0.056,1.104-0.143,1.597c-0.087,0.492-0.219,0.927-0.398,1.304
			c-0.179,0.378-0.409,0.673-0.69,0.886c-0.281,0.213-0.615,0.32-1.003,0.32c-0.246,0-0.47-0.073-0.669-0.22
			c-0.201-0.146-0.357-0.321-0.47-0.523c-0.113-0.201-0.168-0.374-0.168-0.517c0-0.108,0.047-0.266,0.14-0.475
			c0.093-0.209,0.173-0.319,0.241-0.33c0.022,0,0.034,0.016,0.034,0.046c0,0.529,0.125,0.937,0.375,1.225
			c0.251,0.289,0.574,0.432,0.969,0.432c0.333,0,0.594-0.16,0.785-0.48c0.191-0.32,0.32-0.713,0.389-1.178
			c0.069-0.466,0.105-0.952,0.105-1.46c0-0.175-0.004-0.351-0.01-0.527c-0.007-0.177-0.009-0.289-0.009-0.337
			c-0.274,0.38-0.601,0.683-0.982,0.908c-0.381,0.226-0.758,0.352-1.131,0.379c-0.289,0-0.521-0.098-0.695-0.294
			c-0.174-0.196-0.261-0.491-0.261-0.883c0-0.364,0.102-0.749,0.306-1.153c0.205-0.405,0.454-0.743,0.748-1.016
			c0.293-0.271,0.559-0.408,0.796-0.408C90.524,75.887,90.921,76.113,91.275,76.564z M91.291,77.954
			c0.022-0.062,0.034-0.177,0.034-0.339c0-0.15-0.014-0.319-0.038-0.51c-0.026-0.191-0.057-0.31-0.095-0.355
			c-0.075-0.113-0.233-0.208-0.476-0.288c-0.243-0.08-0.466-0.121-0.669-0.121c-0.284,0-0.571,0.124-0.865,0.369
			c-0.293,0.245-0.44,0.628-0.44,1.15c0,0.48,0.105,0.806,0.315,0.98c0.21,0.173,0.433,0.26,0.669,0.26
			c0.263,0,0.554-0.103,0.876-0.311C90.923,78.58,91.153,78.301,91.291,77.954z"/>
		<path fill="#6D6E71" d="M95.018,77.326h2.499c0.037,0,0.069,0.054,0.097,0.162c0.028,0.109,0.042,0.2,0.042,0.275
			c0,0.048-0.222,0.079-0.664,0.089c-0.443,0.012-0.999,0.018-1.669,0.018c-0.101,0-0.185-0.053-0.253-0.159
			c-0.067-0.106-0.101-0.206-0.101-0.3C94.968,77.354,94.985,77.326,95.018,77.326z"/>
		<path fill="#6D6E71" d="M101.528,73.048c-0.218,0.082-0.428,0.192-0.626,0.327c-0.199,0.136-0.308,0.204-0.328,0.204
			c-0.033,0-0.084-0.062-0.153-0.186c-0.068-0.123-0.104-0.223-0.104-0.3c0-0.11,0.072-0.187,0.215-0.23
			c0.143-0.045,0.475-0.128,0.996-0.252v-0.334c0-0.215,0.028-0.323,0.081-0.323c0.081,0,0.168,0.056,0.263,0.167
			c0.093,0.112,0.144,0.248,0.151,0.409c0.143-0.046,0.379-0.092,0.709-0.132c0.329-0.042,0.659-0.063,0.989-0.063
			c0.482,0,0.908,0.036,1.279,0.108c0.371,0.072,0.68,0.222,0.926,0.45c0.245,0.229,0.369,0.558,0.369,0.988
			c0,0.611-0.176,1.184-0.53,1.72c-0.353,0.536-0.774,0.965-1.262,1.285c-0.489,0.321-0.904,0.481-1.248,0.481
			c-0.184-0.008-0.357-0.053-0.518-0.136s-0.292-0.181-0.391-0.295c-0.1-0.114-0.149-0.218-0.149-0.312
			c0-0.111,0.044-0.167,0.132-0.167c0.024,0,0.105,0.029,0.243,0.085c0.138,0.057,0.285,0.106,0.441,0.148
			c0.156,0.041,0.344,0.066,0.562,0.073c0.374,0,0.71-0.096,1.008-0.288c0.299-0.192,0.533-0.475,0.703-0.849
			c0.17-0.375,0.255-0.825,0.255-1.351c0-0.588-0.181-1.007-0.545-1.261c-0.363-0.251-0.865-0.378-1.502-0.378
			c-0.163,0-0.342,0.014-0.533,0.043c-0.192,0.029-0.37,0.061-0.535,0.096c-0.164,0.036-0.309,0.068-0.433,0.097
			c-0.033,1.17-0.049,2.334-0.049,3.495c0,0.267-0.005,0.468-0.016,0.603c0.005,0.521,0.017,1.059,0.035,1.611
			c0.02,0.554,0.029,0.956,0.029,1.205c0,0.038-0.016,0.058-0.05,0.058c-0.098,0-0.236-0.046-0.416-0.139
			c-0.179-0.095-0.269-0.184-0.269-0.272c0-0.095,0.046-1.011,0.137-2.749C101.483,74.945,101.528,73.733,101.528,73.048z"/>
		<path fill="#6D6E71" d="M106.701,78.515c0-0.082,0.022-0.42,0.065-1.014c0.043-0.594,0.065-1.062,0.065-1.404
			c0-0.094,0.022-0.141,0.066-0.141c0.053,0,0.148,0.051,0.286,0.153c0.136,0.102,0.206,0.177,0.206,0.222
			c0,0.009-0.028,0.137-0.081,0.387c-0.055,0.249-0.103,0.508-0.145,0.779c-0.042,0.269-0.063,0.515-0.063,0.737
			c0,0.518,0.124,0.777,0.372,0.777c0.188,0,0.385-0.109,0.59-0.327c0.205-0.218,0.389-0.498,0.554-0.839
			c0.164-0.341,0.282-0.678,0.351-1.01c0.046-0.235,0.094-0.381,0.141-0.436c0.048-0.057,0.16-0.095,0.337-0.118
			c0,0.037-0.004,0.084-0.01,0.144c-0.006,0.059-0.009,0.111-0.009,0.153c0,0.269,0.027,0.621,0.081,1.057
			c0.054,0.436,0.12,0.815,0.196,1.14c0.076,0.323,0.146,0.485,0.209,0.485c0.089,0,0.132,0.034,0.132,0.104
			c0,0.037-0.054,0.1-0.164,0.191c-0.048,0.037-0.103,0.081-0.164,0.136c-0.062,0.054-0.111,0.093-0.148,0.119
			c-0.037,0.026-0.067,0.039-0.09,0.039c-0.056,0-0.114-0.16-0.173-0.481c-0.059-0.321-0.154-1.003-0.286-2.045h-0.019
			c-0.095,0.294-0.215,0.576-0.36,0.846c-0.144,0.27-0.3,0.509-0.468,0.718c-0.169,0.208-0.338,0.373-0.508,0.491
			c-0.17,0.118-0.324,0.177-0.463,0.177C106.867,79.552,106.701,79.206,106.701,78.515z"/>
		<path fill="#6D6E71" d="M110.747,77.217c0-0.417,0.003-0.75,0.008-0.998c0.005-0.247,0.019-0.737,0.041-1.468
			c0.022-0.73,0.037-1.285,0.046-1.663c0.008-0.378,0.013-0.769,0.013-1.174c0-0.063,0.033-0.095,0.099-0.095
			c0.117,0,0.225,0.049,0.324,0.146c0.099,0.097,0.148,0.242,0.148,0.432c0,0.25-0.037,0.76-0.109,1.529
			c-0.072,0.768-0.126,1.378-0.16,1.831c-0.035,0.452-0.052,0.939-0.052,1.457h0.008c0.108-0.151,0.264-0.324,0.466-0.52
			c0.202-0.197,0.432-0.369,0.688-0.517c0.257-0.148,0.513-0.222,0.768-0.222c0.198,0,0.373,0.046,0.523,0.138
			c0.149,0.091,0.265,0.222,0.345,0.393c0.081,0.17,0.121,0.373,0.121,0.605c0,0.463-0.132,0.897-0.396,1.3
			c-0.265,0.405-0.59,0.725-0.974,0.963c-0.383,0.237-0.738,0.355-1.062,0.355h-0.016c-0.191,0-0.346-0.071-0.465-0.212
			c-0.12-0.14-0.21-0.393-0.272-0.759C110.778,78.374,110.747,77.867,110.747,77.217z M111.104,77.484
			c0,0.471,0.056,0.832,0.168,1.087c0.112,0.253,0.251,0.422,0.415,0.503c0.165,0.082,0.351,0.123,0.558,0.123
			c0.239,0,0.447-0.086,0.625-0.257c0.178-0.17,0.312-0.391,0.405-0.662c0.092-0.27,0.138-0.55,0.138-0.839
			c0-0.344-0.064-0.616-0.193-0.818c-0.129-0.201-0.293-0.302-0.492-0.302c-0.148,0-0.318,0.049-0.512,0.147
			c-0.193,0.097-0.386,0.235-0.579,0.411C111.444,77.051,111.267,77.254,111.104,77.484z"/>
		<path fill="#6D6E71" d="M115.019,74.287c0-0.729-0.017-1.305-0.049-1.728c-0.033-0.424-0.049-0.639-0.049-0.645
			c0-0.063,0.028-0.095,0.082-0.095c0.101,0,0.222,0.053,0.364,0.157c0.141,0.104,0.216,0.207,0.223,0.304
			c0-0.026-0.018,0.653-0.054,2.04c-0.035,1.385-0.054,2.49-0.054,3.31c0,0.577,0.008,1.051,0.025,1.422
			c0.017,0.372,0.025,0.56,0.025,0.565c0,0.061-0.032,0.093-0.097,0.093c-0.097,0-0.19-0.027-0.28-0.082
			c-0.091-0.055-0.135-0.13-0.135-0.224V74.287z"/>
		<path fill="#6D6E71" d="M116.774,75.799c0-0.046,0.021-0.069,0.063-0.069c0.097,0,0.222,0.04,0.373,0.12
			c0.151,0.08,0.226,0.177,0.226,0.292c0,0.18-0.015,0.605-0.045,1.275c-0.03,0.67-0.045,1.132-0.045,1.387
			c0,0.132,0.003,0.289,0.008,0.468c0.005,0.18,0.008,0.295,0.008,0.345c0,0.061-0.027,0.092-0.08,0.092
			c-0.082,0-0.165-0.029-0.25-0.086c-0.085-0.059-0.127-0.138-0.127-0.242v-2.226c0-0.356-0.01-0.624-0.029-0.802
			c-0.019-0.178-0.04-0.31-0.065-0.397C116.786,75.869,116.774,75.816,116.774,75.799z M116.954,73.325
			c0.054,0,0.134,0.03,0.239,0.09c0.105,0.059,0.161,0.112,0.169,0.158c0.016,0.032,0.024,0.297,0.024,0.793
			c0,0.212-0.018,0.318-0.056,0.318c-0.056,0-0.127-0.023-0.211-0.068c-0.085-0.045-0.145-0.109-0.18-0.192
			c-0.01-0.032-0.02-0.183-0.032-0.45c-0.012-0.267-0.018-0.459-0.018-0.577C116.889,73.348,116.911,73.325,116.954,73.325z"/>
		<path fill="#6D6E71" d="M119.011,76.807c0,0.191,0.082,0.314,0.245,0.372c0.164,0.058,0.441,0.115,0.83,0.174
			c0.388,0.059,0.682,0.146,0.878,0.261c0.196,0.114,0.294,0.31,0.294,0.586c0,0.332-0.086,0.611-0.261,0.838
			c-0.175,0.227-0.399,0.396-0.674,0.506c-0.274,0.11-0.551,0.166-0.835,0.166c-0.228,0-0.416-0.016-0.565-0.046
			c-0.15-0.031-0.268-0.099-0.354-0.201c-0.088-0.102-0.131-0.253-0.131-0.453c0-0.166,0.016-0.25,0.048-0.25
			c0.01,0,0.101,0.056,0.272,0.166c0.169,0.111,0.358,0.209,0.564,0.295c0.207,0.086,0.426,0.128,0.659,0.128
			c0.227,0,0.409-0.054,0.547-0.164c0.136-0.11,0.204-0.353,0.204-0.728c0-0.234-0.091-0.382-0.271-0.448
			c-0.181-0.067-0.46-0.115-0.836-0.146c-0.375-0.032-0.66-0.094-0.851-0.185c-0.193-0.092-0.289-0.275-0.289-0.548
			c0-0.347,0.117-0.626,0.349-0.835c0.233-0.208,0.499-0.354,0.799-0.437c0.3-0.083,0.564-0.125,0.793-0.125
			c0.533,0,0.8,0.188,0.8,0.566c0,0.069-0.009,0.136-0.027,0.204c-0.018,0.066-0.042,0.1-0.072,0.1
			c-0.009,0-0.071-0.048-0.187-0.146c-0.115-0.097-0.256-0.181-0.424-0.254c-0.168-0.072-0.379-0.108-0.634-0.108
			c-0.247,0-0.454,0.055-0.62,0.167C119.095,76.371,119.011,76.553,119.011,76.807z"/>
		<path fill="#6D6E71" d="M122.174,79.522c0.026-0.788,0.04-1.879,0.04-3.273c0-1.14-0.007-2.002-0.02-2.587
			c-0.014-0.584-0.028-1.012-0.045-1.281c-0.017-0.269-0.025-0.425-0.025-0.467c0-0.063,0.021-0.095,0.064-0.095
			c0.11,0,0.235,0.052,0.378,0.156c0.143,0.104,0.215,0.207,0.215,0.306c0,0.456-0.013,1.086-0.038,1.889
			c-0.024,0.804-0.055,1.687-0.09,2.649c-0.037,0.963-0.058,1.574-0.063,1.836h0.016c0.096-0.325,0.234-0.703,0.418-1.132
			c0.183-0.43,0.392-0.81,0.627-1.139c0.234-0.331,0.462-0.496,0.68-0.496c0.138,0,0.245,0.044,0.322,0.132
			c0.075,0.088,0.145,0.268,0.205,0.536c0.061,0.27,0.134,0.715,0.217,1.334c0.065,0.537,0.133,0.943,0.202,1.219
			c0.069,0.275,0.128,0.451,0.177,0.53c0.049,0.077,0.098,0.13,0.145,0.159c0.046,0.029,0.07,0.069,0.07,0.121
			c0,0.04-0.035,0.101-0.105,0.183c-0.069,0.081-0.149,0.156-0.237,0.223c-0.09,0.067-0.158,0.1-0.204,0.1
			c-0.069,0-0.136-0.15-0.2-0.45c-0.064-0.299-0.154-0.791-0.27-1.474c-0.116-0.682-0.218-1.198-0.307-1.547
			c-0.088-0.348-0.185-0.523-0.288-0.523c-0.136,0-0.313,0.189-0.533,0.568c-0.22,0.379-0.421,0.83-0.606,1.356
			c-0.184,0.525-0.294,0.978-0.331,1.355C122.409,79.69,122.271,79.627,122.174,79.522z"/>
		<path fill="#6D6E71" d="M126.36,75.799c0-0.046,0.02-0.069,0.062-0.069c0.098,0,0.22,0.04,0.371,0.12
			c0.151,0.08,0.227,0.177,0.227,0.292c0,0.18-0.015,0.605-0.045,1.275c-0.03,0.67-0.045,1.132-0.045,1.387
			c0,0.132,0.003,0.289,0.008,0.468c0.005,0.18,0.008,0.295,0.008,0.345c0,0.061-0.026,0.092-0.079,0.092
			c-0.083,0-0.166-0.029-0.251-0.086c-0.084-0.059-0.127-0.138-0.127-0.242v-2.226c0-0.356-0.009-0.624-0.028-0.802
			c-0.019-0.178-0.04-0.31-0.065-0.397C126.371,75.869,126.36,75.816,126.36,75.799z M126.538,73.325c0.055,0,0.135,0.03,0.24,0.09
			c0.105,0.059,0.161,0.112,0.169,0.158c0.016,0.032,0.024,0.297,0.024,0.793c0,0.212-0.02,0.318-0.057,0.318
			c-0.056,0-0.127-0.023-0.211-0.068c-0.085-0.045-0.145-0.109-0.181-0.192c-0.009-0.032-0.019-0.183-0.031-0.45
			c-0.012-0.267-0.017-0.459-0.017-0.577C126.474,73.348,126.495,73.325,126.538,73.325z"/>
		<path fill="#6D6E71" d="M128.168,75.752c0-0.06,0.016-0.09,0.048-0.09c0.073,0,0.18,0.043,0.322,0.128
			c0.141,0.086,0.211,0.165,0.211,0.238c0,0.147-0.025,0.518-0.075,1.113c-0.05,0.595-0.097,1.076-0.137,1.441h0.016
			c0.389-1.13,0.75-1.861,1.082-2.194c0.331-0.333,0.597-0.501,0.798-0.501c0.149,0,0.258,0.076,0.331,0.23
			c0.072,0.153,0.137,0.406,0.194,0.758l0.289,1.869c0.036,0.306,0.113,0.459,0.228,0.459c0.022,0,0.034,0.017,0.034,0.05
			c0,0.09-0.073,0.188-0.22,0.296c-0.147,0.108-0.252,0.161-0.315,0.161c-0.05,0-0.085-0.03-0.103-0.088
			c-0.017-0.059-0.046-0.19-0.086-0.396l-0.337-2.003c-0.04-0.228-0.095-0.409-0.163-0.543c-0.069-0.134-0.143-0.199-0.221-0.199
			c-0.156,0-0.33,0.136-0.524,0.409c-0.194,0.274-0.378,0.626-0.551,1.059c-0.174,0.433-0.308,0.868-0.404,1.31
			c-0.006,0.022-0.011,0.044-0.017,0.069c-0.005,0.025-0.012,0.045-0.021,0.06c-0.01,0.016-0.024,0.024-0.044,0.024
			c-0.064,0-0.139-0.028-0.224-0.082c-0.085-0.055-0.129-0.127-0.129-0.215c0-0.048,0.008-0.17,0.023-0.368
			c0.015-0.198,0.029-0.442,0.041-0.731c0.012-0.288,0.018-0.638,0.018-1.047c0-0.317-0.011-0.608-0.032-0.873
			C128.179,75.83,128.168,75.716,128.168,75.752z"/>
		<path fill="#6D6E71" d="M135.13,76.564c0.285-0.292,0.464-0.439,0.537-0.439c0.023,0,0.034,0.056,0.034,0.165
			c-0.013,0.522-0.018,1.288-0.018,2.302c-0.008,0.572-0.055,1.104-0.142,1.597c-0.088,0.492-0.219,0.927-0.398,1.304
			c-0.18,0.378-0.409,0.673-0.691,0.886c-0.281,0.213-0.615,0.32-1.002,0.32c-0.246,0-0.471-0.073-0.67-0.22
			c-0.201-0.146-0.357-0.321-0.47-0.523c-0.113-0.201-0.169-0.374-0.169-0.517c0-0.108,0.047-0.266,0.14-0.475
			c0.094-0.209,0.174-0.319,0.241-0.33c0.023,0,0.034,0.016,0.034,0.046c0,0.529,0.125,0.937,0.375,1.225
			c0.251,0.289,0.574,0.432,0.969,0.432c0.334,0,0.594-0.16,0.786-0.48c0.19-0.32,0.319-0.713,0.388-1.178
			c0.069-0.466,0.105-0.952,0.105-1.46c0-0.175-0.004-0.351-0.009-0.527c-0.007-0.177-0.009-0.289-0.009-0.337
			c-0.274,0.38-0.602,0.683-0.983,0.908c-0.381,0.226-0.757,0.352-1.131,0.379c-0.289,0-0.521-0.098-0.695-0.294
			c-0.173-0.196-0.261-0.491-0.261-0.883c0-0.364,0.103-0.749,0.306-1.153c0.205-0.405,0.455-0.743,0.748-1.016
			c0.294-0.271,0.559-0.408,0.796-0.408C134.378,75.887,134.775,76.113,135.13,76.564z M135.145,77.954
			c0.022-0.062,0.034-0.177,0.034-0.339c0-0.15-0.013-0.319-0.038-0.51c-0.026-0.191-0.056-0.31-0.095-0.355
			c-0.074-0.113-0.233-0.208-0.476-0.288c-0.243-0.08-0.466-0.121-0.67-0.121c-0.283,0-0.571,0.124-0.864,0.369
			c-0.294,0.245-0.441,0.628-0.441,1.15c0,0.48,0.106,0.806,0.316,0.98c0.209,0.173,0.433,0.26,0.669,0.26
			c0.263,0,0.554-0.103,0.875-0.311C134.778,78.58,135.007,78.301,135.145,77.954z"/>
	</g>
</g>
</svg>
