<?xml version="1.0" encoding="utf-8"?>
<!-- Generator: Adobe Illustrator 17.0.0, SVG Export Plug-In . SVG Version: 6.00 Build 0)  -->
<!DOCTYPE svg PUBLIC "-//W3C//DTD SVG 1.1//EN" "http://www.w3.org/Graphics/SVG/1.1/DTD/svg11.dtd">
<svg version="1.1" id="Layer_1" xmlns="http://www.w3.org/2000/svg" xmlns:xlink="http://www.w3.org/1999/xlink" x="0px" y="0px"
	 width="150px" height="100px" viewBox="0 0 150 100" enable-background="new 0 0 150 100" xml:space="preserve">
<g>
	<g>
		<path fill-rule="evenodd" clip-rule="evenodd" fill="#3A2221" d="M103.682,81.339c0.781-0.097,1.546,0.31,1.892,1.216
			c0.383,0.998-0.33,2.084-1.238,2.273c-0.612,0.128-1.269-0.109-1.525-0.908c-0.138-0.433-0.003-1.035,0.518-1.455
			c0.223-0.181,0.495-0.265,0.759-0.215c0.582,0.111,0.936,0.937,0.415,1.422c-0.296,0.275-0.764,0.314-0.998-0.327
			c0.128,0.621,0.639,0.72,1.006,0.483c0.756-0.488,0.335-1.665-0.408-1.767c-0.266-0.037-0.561,0.027-0.822,0.178
			c-0.517,0.302-0.872,0.996-0.719,1.731c0.155,0.746,0.862,1.361,1.843,1.167c1.576-0.311,1.974-2.053,1.309-3.175
			c-0.375-0.633-1.136-1.183-2.068-1.077"/>
	</g>
	<g>
		<circle fill-rule="evenodd" clip-rule="evenodd" fill="#ED1C24" cx="104.042" cy="83.243" r="0.552"/>
	</g>
	<g>
		<g>
			<path fill-rule="evenodd" clip-rule="evenodd" fill="#3A2221" d="M117.832,84.41c0.39,0.01,1.296,0.088,1.634,0.996
				c0.383,0.998-0.33,2.084-1.238,2.273c-0.612,0.127-1.269-0.109-1.526-0.909c-0.138-0.433-0.003-1.035,0.519-1.455
				c0.223-0.181,0.494-0.265,0.76-0.215c0.582,0.111,0.936,0.937,0.415,1.422c-0.297,0.276-0.764,0.314-0.999-0.327
				c0.129,0.621,0.64,0.72,1.006,0.483c0.757-0.489,0.336-1.665-0.408-1.767c-0.266-0.037-0.561,0.026-0.822,0.178
				c-0.517,0.302-0.872,0.996-0.719,1.731c0.155,0.746,0.862,1.36,1.843,1.166c1.576-0.311,1.974-2.053,1.309-3.174
				c-0.375-0.634-1.395-1.3-2.126-1.037"/>
		</g>
		<g>
			<circle fill-rule="evenodd" clip-rule="evenodd" fill="#ED1C24" cx="117.933" cy="86.096" r="0.551"/>
		</g>
	</g>
	<g>
		<path fill-rule="evenodd" clip-rule="evenodd" fill="#3A2221" d="M111.122,88.652c0.121,1.123-0.383,2.223-1.505,2.722
			c-1.236,0.551-2.58-0.475-2.814-1.782c-0.158-0.88,0.136-1.826,1.124-2.194c0.536-0.199,1.282-0.005,1.801,0.746
			c0.224,0.321,0.328,0.711,0.267,1.092c-0.138,0.838-1.16,1.347-1.761,0.598c-0.341-0.426-0.389-1.099,0.405-1.436
			c-0.769,0.185-0.891,0.921-0.598,1.448c0.605,1.089,2.061,0.484,2.189-0.586c0.045-0.382-0.034-0.808-0.221-1.183
			c-0.374-0.744-1.233-1.254-2.143-1.034c-0.924,0.223-1.685,1.241-1.445,2.653c0.386,2.268,2.541,2.839,3.929,1.883
			c0.784-0.539,1.464-1.634,1.333-2.976"/>
		<path fill="#3A2221" d="M106.3,89.715c-0.033-0.187-0.047-0.366-0.047-0.538l0,0c0-1.19,0.717-2.046,1.584-2.255l0,0
			c0.154-0.038,0.308-0.056,0.458-0.056l0,0c0.794,0.001,1.49,0.49,1.825,1.154l0,0c0.16,0.322,0.246,0.68,0.246,1.023l0,0
			c0,0.077-0.004,0.153-0.013,0.229l0,0c-0.092,0.738-0.742,1.266-1.396,1.269l0,0c-0.388,0.002-0.781-0.198-1.022-0.638l0,0
			c-0.106-0.189-0.162-0.401-0.163-0.612l0,0c-0.005-0.44,0.268-0.882,0.84-1.015l0,0l0.077,0.233
			c-0.43,0.186-0.561,0.442-0.564,0.701l0,0c-0.001,0.188,0.079,0.385,0.207,0.545l0,0c0.185,0.229,0.398,0.317,0.613,0.318l0,0
			c0.416,0.003,0.852-0.364,0.931-0.858l0,0c0.011-0.067,0.016-0.134,0.016-0.2l0,0c0-0.281-0.094-0.562-0.262-0.803l0,0
			c-0.375-0.542-0.862-0.766-1.282-0.767l0,0c-0.133,0-0.26,0.023-0.375,0.066l0,0c-0.771,0.289-1.081,0.934-1.085,1.635l0,0
			c0,0.14,0.013,0.282,0.039,0.423l0,0c0.177,1.005,1.061,1.837,1.987,1.832l0,0c0.217-0.001,0.437-0.044,0.656-0.141l0,0
			c0.967-0.432,1.448-1.322,1.449-2.286l0,0c0-0.103-0.005-0.207-0.016-0.31l0,0l0.245-0.026c0.012,0.112,0.018,0.225,0.018,0.337
			l0,0c0.002,1.046-0.536,2.039-1.595,2.511l0,0c-0.25,0.111-0.506,0.162-0.756,0.162l0,0c-1.074-0.004-2.028-0.923-2.229-2.035l0,0
			c-0.028-0.154-0.042-0.31-0.043-0.466l0,0c-0.004-0.772,0.369-1.542,1.246-1.865l0,0c0.143-0.053,0.299-0.081,0.46-0.081l0,0
			c0.508,0,1.072,0.274,1.485,0.872l0,0c0.075,0.107,0.137,0.221,0.185,0.341l0,0c-0.032-0.097-0.071-0.192-0.116-0.284l0,0
			c-0.295-0.587-0.914-1.019-1.605-1.019l0,0c-0.131,0-0.265,0.015-0.4,0.049l0,0c-0.747,0.181-1.395,0.926-1.396,2.016l0,0
			c0,0.158,0.013,0.323,0.043,0.496l0,0c0.262,1.517,1.317,2.22,2.383,2.224l0,0c0.473,0.001,0.949-0.142,1.356-0.421l0,0
			c0.687-0.472,1.297-1.399,1.296-2.544l0,0c0-0.105-0.005-0.211-0.015-0.318l0,0l0.245-0.024c0.011,0.116,0.016,0.229,0.016,0.342
			l0,0c-0.001,1.235-0.652,2.23-1.402,2.747l0,0c-0.449,0.308-0.972,0.465-1.495,0.465l0,0c-0.003,0-0.006,0-0.008,0l0,0
			C107.742,92.143,106.571,91.333,106.3,89.715L106.3,89.715z M111,88.665C111,88.665,111,88.665,111,88.665L111,88.665L111,88.665
			L111,88.665L111,88.665z"/>
	</g>
	<g>
		<ellipse fill-rule="evenodd" clip-rule="evenodd" fill="#ED1C24" cx="108.608" cy="88.843" rx="0.578" ry="0.672"/>
	</g>
	<g>
		<g>
			<path fill="#3A2221" d="M99.545,80.537h5.824v1.253h-4.429v3.845h4.092v1.235h-4.092v5.236h-1.395V80.537z"/>
		</g>
		<g>
			<path fill="#3A2221" d="M110.647,86.819v-0.172c0-0.686-0.176-1.922-1.765-1.922c-0.722,0-1.476,0.24-2.022,0.618l-0.32-0.995
				c0.643-0.447,1.572-0.738,2.551-0.738c2.375,0,2.952,1.733,2.952,3.399v3.106c0,0.721,0.032,1.425,0.129,1.992h-1.284
				l-0.151-0.942l-0.01-0.105 M110.68,89.308v-1.442"/>
		</g>
		<g>
			<path fill="#3A2221" d="M114.321,86.389c0-0.977-0.015-1.82-0.064-2.591h1.236l0.048,1.63h0.063
				c0.503-1.125,1.194-1.603,2.15-1.7c0.16-0.016,0.251,0.006,0.38,0.039l0.039,0.663c-0.146-0.058-0.351-0.019-0.546,0.01
				c-0.984,0.147-1.654,1.401-1.846,2.534c-0.032,0.205-0.065,0.447-0.065,0.704v4.429h-1.396V86.389z"/>
		</g>
		<g>
			<path fill="#3A2221" d="M120.255,86.047c0-0.858-0.015-1.562-0.064-2.249h1.235l0.065,1.339h0.047
				c0.434-0.79,1.155-1.528,2.439-1.528c1.059,0,1.861,0.687,2.199,1.665h0.032c0.24-0.462,0.545-0.823,0.866-1.081
				c0.466-0.377,0.979-0.583,1.717-0.583c1.027,0,2.551,0.721,2.551,3.605v4.892h-1.38v-4.704c0-1.596-0.546-2.558-1.684-2.558
				c-0.804,0-1.428,0.635-1.669,1.374c-0.064,0.207-0.113,0.481-0.113,0.755v5.133h-1.379v-4.977c0-1.322-0.545-2.284-1.62-2.284
				c-0.883,0-1.524,0.755-1.75,1.511c-0.079,0.224-0.112,0.481-0.112,0.738v5.013h-1.38V86.047z"/>
		</g>
	</g>
	<g>
		<g>
			<path fill="#3A2221" d="M24.723,91.617c-0.37,0.206-1.188,0.497-2.231,0.497c-2.342,0-3.867-1.717-3.867-4.257
				c0-2.558,1.636-4.412,4.171-4.412c0.834,0,1.573,0.224,1.958,0.43l-0.321,1.167c-0.337-0.206-0.866-0.395-1.637-0.395
				c-1.78,0-2.743,1.407-2.743,3.141c0,1.922,1.155,3.107,2.696,3.107c0.802,0,1.332-0.222,1.733-0.412L24.723,91.617z"/>
		</g>
		<g>
			<path fill="#3A2221" d="M26.374,79.738h1.412v5.183h0.033c0.224-0.428,0.577-0.806,1.011-1.064
				c0.417-0.257,0.915-0.429,1.444-0.429c1.043,0,2.711,0.686,2.711,3.553v4.943h-1.412v-4.772c0-1.339-0.465-2.471-1.797-2.471
				c-0.915,0-1.637,0.686-1.894,1.51c-0.08,0.207-0.097,0.429-0.097,0.721v5.013h-1.412V79.738z"/>
		</g>
		<g>
			<path fill="#3A2221" d="M49.622,91.617c-0.369,0.206-1.187,0.497-2.23,0.497c-2.342,0-3.867-1.717-3.867-4.257
				c0-2.558,1.637-4.412,4.172-4.412c0.834,0,1.573,0.224,1.958,0.43l-0.321,1.167c-0.337-0.206-0.867-0.395-1.637-0.395
				c-1.781,0-2.744,1.407-2.744,3.141c0,1.922,1.156,3.107,2.697,3.107c0.802,0,1.332-0.222,1.732-0.412L49.622,91.617z"/>
		</g>
		<g>
			<path fill="#3A2221" d="M59.986,79.738h1.413v12.187h-1.413V79.738z"/>
		</g>
		<g>
			<path fill="#3A2221" d="M73.141,81.626v1.991h2.022v1.15h-2.022v4.48c0,1.029,0.273,1.613,1.059,1.613
				c0.385,0,0.61-0.035,0.818-0.103l0.064,1.132c-0.272,0.12-0.706,0.223-1.251,0.223c-0.657,0-1.187-0.24-1.524-0.652
				c-0.401-0.446-0.545-1.184-0.545-2.162v-4.532h-1.203v-1.15h1.203V82.09L73.141,81.626z"/>
		</g>
		<g id="XMLID_6_">
			<g>
				<path fill="#3A2221" d="M82.931,86.725c0,0.307-0.033,0.551-0.047,0.708H77.43c-0.241,2.903,1.263,3.497,2.674,3.497
					c1.016,0,1.17-0.079,1.491-0.329l0.227,0.965c-0.234,0.2-0.675,0.544-1.905,0.544c-2.393,0-3.851-1.695-3.824-4.205
					c0.033-3.526,1.317-4.82,3.576-4.82C82.203,83.085,82.931,85.202,82.931,86.725z M81.568,86.346
					c0.02-0.958-0.354-2.074-1.946-2.074c-1.424,0-2.072,0.601-2.179,2.074H81.568z"/>
			</g>
		</g>
	</g>
	<g>
		<g id="XMLID_5_">
			<g>
				<path fill="#3A2221" d="M54.915,83.804c2.233,0,3.737,1.731,3.737,4.277c0,3.068-1.985,4.405-3.864,4.405
					c-2.106,0-3.724-1.645-3.724-4.269C51.064,85.435,52.762,83.804,54.915,83.804z M57.268,87.952c0-1.409-0.655-3.197-2.326-3.197
					c-1.664,0-2.386,1.652-2.386,3.233c0,1.817,0.976,3.19,2.353,3.19C56.258,91.178,57.268,89.819,57.268,87.952z"/>
			</g>
		</g>
		<g id="XMLID_4_">
			<g>
				<path fill="#3A2221" d="M38.691,83.793c2.233,0,3.737,1.731,3.737,4.277c0,3.068-1.986,4.405-3.864,4.405
					c-2.106,0-3.723-1.645-3.723-4.269C34.84,85.424,36.538,83.793,38.691,83.793z M40.984,88.12c0-1.409-0.655-3.197-2.326-3.197
					c-1.664,0-2.386,1.652-2.386,3.232c0,1.817,0.976,3.19,2.353,3.19C39.974,91.345,40.984,89.986,40.984,88.12z"/>
			</g>
		</g>
	</g>
	<g>
		<g>
			<path fill-rule="evenodd" clip-rule="evenodd" fill="#3A2221" d="M41.055,89.584c-0.447,0.887-1.357,1.508-2.526,1.126
				c-0.632-0.207-1.194-0.911-1.172-1.94c0.009-0.442,0.174-0.86,0.489-1.15c0.693-0.638,1.988-0.355,2.041,0.732
				c0.03,0.619-0.379,1.243-1.345,0.973c0.839,0.386,1.449-0.172,1.532-0.845c0.171-1.388-1.591-1.895-2.431-1.046
				c-0.3,0.304-0.513,0.733-0.592,1.197c-0.154,0.92,0.301,1.981,1.296,2.437c1.01,0.463,2.402,0.113,3.131-1.299"/>
		</g>
		<g>
			
				<ellipse transform="matrix(-0.6087 0.7934 -0.7934 -0.6087 132.9128 111.5576)" fill-rule="evenodd" clip-rule="evenodd" fill="#ED1C24" cx="38.945" cy="88.557" rx="0.879" ry="0.801"/>
		</g>
	</g>
	<g>
		<g>
			<path fill-rule="evenodd" clip-rule="evenodd" fill="#3A2221" d="M57.431,89.584c-0.447,0.887-1.357,1.508-2.526,1.126
				c-0.632-0.207-1.194-0.911-1.172-1.94c0.009-0.442,0.174-0.86,0.489-1.15c0.693-0.638,1.988-0.355,2.041,0.732
				c0.03,0.619-0.379,1.243-1.345,0.973c0.839,0.386,1.449-0.172,1.532-0.845c0.171-1.388-1.592-1.895-2.431-1.046
				c-0.3,0.304-0.513,0.733-0.592,1.197c-0.154,0.92,0.3,1.981,1.296,2.437c1.01,0.463,2.402,0.113,3.131-1.299"/>
		</g>
		<g>
			
				<ellipse transform="matrix(-0.6087 0.7934 -0.7934 -0.6087 159.257 98.564)" fill-rule="evenodd" clip-rule="evenodd" fill="#ED1C24" cx="55.321" cy="88.557" rx="0.879" ry="0.801"/>
		</g>
	</g>
	<g>
		<g>
			<path fill-rule="evenodd" clip-rule="evenodd" fill="#3A2221" d="M80.713,91.505c0.659-0.303,1.207-1.122,1.107-2.207
				c-0.042-0.467-0.25-0.886-0.607-1.152c-0.787-0.583-2.148-0.112-2.124,1.045c0.014,0.658,0.496,1.264,1.507,0.851
				c-0.867,0.519-1.56,0.011-1.698-0.691c-0.285-1.445,1.544-2.275,2.502-1.488c0.343,0.281,0.616,0.766,0.734,1.247
				c0.233,0.952-0.173,2.135-1.202,2.749"/>
		</g>
		<g>
			
				<ellipse transform="matrix(0.6828 0.7306 -0.7306 0.6828 90.6971 -30.223)" fill-rule="evenodd" clip-rule="evenodd" fill="#ED1C24" cx="80.155" cy="89.341" rx="0.927" ry="0.896"/>
		</g>
	</g>
	<g>
		<path fill-rule="evenodd" clip-rule="evenodd" fill="#3A2221" d="M105.37,80.537c0,0,1.216,2.031,0.378,3.649
			c0.039,0.02-0.019-1.852-0.321-2.183c-0.302-0.331-0.507-0.77-0.507-0.77L105.37,80.537z"/>
	</g>
	<g>
		<path fill-rule="evenodd" clip-rule="evenodd" fill="#3A2221" d="M105.37,80.537c0,0-2.785-1.394-5.824,0"/>
	</g>
	<g>
		<path fill-rule="evenodd" clip-rule="evenodd" fill="#3A2221" d="M68.172,88.54c0.121,1.123-0.383,2.223-1.504,2.722
			c-1.236,0.55-2.58-0.475-2.814-1.782c-0.159-0.88,0.136-1.826,1.124-2.194c0.536-0.199,1.282-0.005,1.801,0.746
			c0.224,0.322,0.328,0.712,0.266,1.092c-0.137,0.838-1.16,1.347-1.761,0.598c-0.341-0.426-0.389-1.099,0.405-1.436
			c-0.769,0.185-0.891,0.92-0.598,1.448c0.605,1.089,2.061,0.484,2.188-0.586c0.045-0.382-0.034-0.807-0.221-1.183
			c-0.374-0.744-1.233-1.254-2.143-1.034c-0.924,0.223-1.685,1.241-1.445,2.653c0.385,2.268,2.541,2.839,3.929,1.883
			c0.785-0.539,1.464-1.634,1.333-2.975"/>
		<path fill="#3A2221" d="M63.35,89.603c-0.032-0.187-0.048-0.366-0.048-0.538l0,0c0-1.19,0.717-2.046,1.584-2.255l0,0
			c0.154-0.038,0.308-0.055,0.458-0.055l0,0c0.794,0.001,1.49,0.49,1.824,1.155l0,0c0.16,0.323,0.246,0.68,0.246,1.023l0,0
			c0,0.076-0.004,0.153-0.012,0.229l0,0c-0.092,0.738-0.742,1.267-1.397,1.27l0,0c-0.388,0.002-0.78-0.199-1.022-0.638l0,0
			c-0.105-0.19-0.162-0.401-0.162-0.612l0,0c-0.005-0.44,0.267-0.882,0.839-1.015l0,0l0.076,0.233
			c-0.43,0.187-0.561,0.442-0.564,0.702l0,0c-0.001,0.187,0.079,0.385,0.207,0.544l0,0c0.185,0.229,0.398,0.317,0.613,0.318l0,0
			c0.416,0.003,0.852-0.364,0.93-0.857l0,0c0.011-0.068,0.016-0.135,0.017-0.201l0,0c0-0.28-0.094-0.561-0.262-0.802l0,0
			c-0.376-0.542-0.862-0.766-1.282-0.767l0,0c-0.133,0-0.26,0.023-0.375,0.066l0,0c-0.771,0.289-1.081,0.933-1.085,1.635l0,0
			c0,0.14,0.013,0.283,0.039,0.423l0,0c0.177,1.005,1.061,1.837,1.987,1.833l0,0c0.217,0,0.437-0.044,0.656-0.141l0,0
			c0.966-0.432,1.447-1.322,1.449-2.286l0,0c0-0.103-0.005-0.207-0.017-0.311l0,0l0.245-0.027c0.012,0.113,0.018,0.226,0.018,0.338
			l0,0c0.002,1.046-0.536,2.039-1.595,2.51l0,0c-0.249,0.111-0.505,0.162-0.756,0.162l0,0c-1.074-0.005-2.029-0.923-2.229-2.035l0,0
			c-0.028-0.154-0.043-0.311-0.043-0.467l0,0c-0.004-0.772,0.369-1.542,1.246-1.865l0,0c0.143-0.053,0.299-0.081,0.461-0.081l0,0
			c0.508,0,1.071,0.273,1.484,0.873l0,0c0.074,0.106,0.136,0.22,0.184,0.338l0,0c-0.032-0.096-0.07-0.19-0.115-0.281l0,0
			C66.654,87.432,66.035,87,65.344,87l0,0c-0.131,0-0.264,0.015-0.4,0.048l0,0c-0.747,0.181-1.395,0.926-1.396,2.016l0,0
			c0,0.158,0.013,0.324,0.043,0.497l0,0c0.262,1.517,1.317,2.22,2.383,2.224l0,0c0.474,0,0.949-0.143,1.356-0.421l0,0
			c0.687-0.472,1.297-1.399,1.296-2.544l0,0c0-0.105-0.005-0.211-0.014-0.319l0,0l0.244-0.024c0.011,0.115,0.016,0.229,0.017,0.342
			l0,0c-0.001,1.234-0.652,2.229-1.403,2.746l0,0c-0.448,0.308-0.973,0.465-1.495,0.465l0,0c-0.003,0-0.006,0-0.009,0l0,0
			C64.791,92.032,63.621,91.221,63.35,89.603L63.35,89.603z M68.05,88.553C68.05,88.553,68.05,88.553,68.05,88.553L68.05,88.553
			L68.05,88.553L68.05,88.553L68.05,88.553z"/>
	</g>
	<g>
		<ellipse fill-rule="evenodd" clip-rule="evenodd" fill="#ED1C24" cx="65.619" cy="88.727" rx="0.578" ry="0.673"/>
	</g>
	<g>
		<path fill="#3A2221" d="M67.697,86.707v-0.172c0-0.686-0.176-1.922-1.765-1.922c-0.722,0-1.476,0.24-2.022,0.618l-0.32-0.995
			c0.643-0.447,1.572-0.738,2.551-0.738c2.376,0,2.952,1.733,2.952,3.399v3.106c0,0.721,0.032,1.425,0.129,1.991h-1.284l-0.15-0.942
			l-0.01-0.105 M67.73,89.197v-1.442"/>
	</g>
	<g>
		<path fill="#3A2221" d="M81.823,91.565c0,0,1.277-1.624-0.072-3.274c-0.029,0.088,0.117,0.575,0.117,0.575l-0.048,0.431
			c0,0,0.334,2.519-2.901,1.453c-3.235-1.066-0.39,0.364-0.39,0.364l2.066,0.338L81.823,91.565z"/>
	</g>
	<g>
		<g>
			<path fill-rule="evenodd" clip-rule="evenodd" fill="#3A2221" d="M114.389,53.227c2.103,2.792,1.95,6.354,0.809,8.84
				c-2.022,4.407-7.905,6.637-11.847,2.183c-2.455-2.773-2.006-6.294-0.11-8.299c1.868-1.976,4.591-2.232,6.468-1.174
				c0.947,0.534,1.701,1.358,2.104,2.29c1.127,2.606-1.521,6.337-4.411,4.882c-1.403-0.706-2.092-2.555-0.513-4.22
				c-1.436,2.049-0.424,3.48,0.956,3.879c2.425,0.702,4.175-2.108,3.383-4.209c-0.361-0.957-1.13-1.659-2.091-2.017
				c-2.233-0.833-4.266-0.054-5.271,1.265c-1.859,2.438-1.292,5.038,0.259,6.755c2.298,2.544,6.86,2.651,9.059-0.595
				c1.996-2.946,1.723-6.235-0.061-8.555c-1.395-1.815-3.21-2.742-5.234-3.017c-5.272-0.717-9.351,2.614-12.224,6.752l-0.657-1.731
				c2.286-3.068,5.343-5.613,8.934-6.473c1.473-0.353,2.966-0.378,4.449-0.771c3.628-0.962,6.548-2.827,7.776-6.074
				c0.629-1.664,0.703-3.403-0.035-5.139c-0.942-2.221-3.2-3.626-6.138-3.153c-3.236,0.521-5.023,4.084-4.13,6.782
				c0.604,1.822,2.244,3.204,4.761,2.653c1.361-0.298,2.752-1.586,3.065-3.613c0.134-0.873-0.057-1.721-0.599-2.348
				c-1.19-1.375-3.928-1.043-4.414,1.085c-0.276,1.211,0.341,2.512,2.403,2.147c-1.845,0.616-2.896-0.589-2.831-1.928
				c0.134-2.76,3.903-3.452,5.32-1.635c0.507,0.65,0.793,1.531,0.791,2.456c-0.006,1.835-1.303,3.845-3.489,4.571
				c-2.219,0.737-4.938-0.195-5.933-3.098c-1.597-4.662,2.413-8.397,6.414-8.36c2.093,0.019,4.505,1.032,5.763,3.282
				c0.031-0.096,0.065-0.192,0.1-0.287c0.52-1.388,1.392-2.791,2.973-3.826c3.311-2.167,7.821-1.293,10.028,2.05
				c1.644,2.49,1.584,5.689-0.446,7.998c-1.134,1.29-2.742,2.096-4.352,2.166c-1.466,0.064-2.935-0.49-4.017-1.701
				c-2.607-2.916-1.546-6.17,0.584-7.646c1.837-1.273,4.078-0.913,5.38,0.29c1.521,1.407,1.888,3.921-0.189,5.422
				c-1.176,0.849-2.851,0.927-3.933-0.48c-0.779-1.014-0.779-2.505,0.718-3.321c-1.246,0.739-1.272,2.237-0.521,3.201
				c2.325,2.82,6.869-1.637,3.629-4.476c-1.234-1.082-3.291-1.225-4.637-0.222c-1.564,1.165-3.171,3.962-0.472,6.76
				c2.586,2.226,5.387,1.321,7.083-0.549c1.349-1.485,1.603-3.245,1.341-4.673c-0.755-4.112-6.729-6.8-10.553-2.629
				c-1.019,1.111-1.561,2.385-1.75,3.754c-0.099,0.718-0.015,1.39-0.042,2.105c-0.043,1.165-0.345,2.318-0.852,3.435
				c-0.438,0.967-1.021,1.811-1.723,2.542c1.797-0.829,3.673-1.114,5.552-0.575c1.817,0.521,3.319,1.583,4.181,3.346
				c0.991,2.03,0.358,4.199-0.777,5.559c-2.012,2.411-6.284,2.911-8.26-0.415c-1.23-2.071-0.405-4.17,1.164-5.122
				c1.546-0.939,3.407-0.692,4.507,0.237c0.555,0.469,0.937,1.088,1.067,1.721c0.366,1.771-1.964,3.674-3.682,2.349
				c-0.834-0.642-1.02-1.882,0.286-2.673c-1.267,1.048-0.803,2.079,0.061,2.529c1.52,0.792,3.11-0.677,2.893-2.088
				c-0.099-0.642-0.51-1.188-1.1-1.551c-1.372-0.844-2.849-0.666-3.719-0.004c-1.608,1.225-1.616,2.908-0.834,4.195
				c1.16,1.907,4.199,2.649,6.156,0.979c1.776-1.516,2.083-3.581,1.235-5.273c-1.946-3.881-5.603-3.898-8.913-2.543
				c-0.974,0.399-1.787,0.969-2.712,1.447c-0.948,0.489-1.986,0.88-3.088,1.185C111.367,50.38,113.056,51.456,114.389,53.227z"/>
		</g>
		<g>
			<path fill-rule="evenodd" clip-rule="evenodd" fill="#3A2221" d="M82.526,54.589c-2.015,0.683-3.045,2.546-3.202,4.207
				c-0.278,2.944,2.222,6.132,5.756,5.247c2.2-0.551,3.057-2.496,2.653-4.177c-0.398-1.656-1.798-2.737-3.148-2.856
				c-0.682-0.06-1.349,0.096-1.859,0.428c-1.427,0.931-1.154,3.75,0.872,4.021c0.982,0.132,1.935-0.567,1.597-1.965
				c0.14,1.543-0.857,1.915-1.731,1.636c-1.538-0.491-1.61-2.529-0.523-3.319c0.495-0.36,1.133-0.448,1.767-0.295
				c1.474,0.357,2.335,1.463,2.469,2.484c0.248,1.888-0.872,3.01-2.252,3.34c-2.044,0.489-4.557-1.05-4.738-3.466
				c-0.164-2.193,1.012-3.769,2.706-4.324c6.009-1.969,8.554,4.927,8.747,9.485c0.086-4.203-0.932-8.098-4.104-9.872
				C85.982,54.296,84.277,53.996,82.526,54.589z"/>
		</g>
		<g>
			<path fill-rule="evenodd" clip-rule="evenodd" fill="#3A2221" d="M91.797,21.474c1.243-1.499,1.825-3.246,2.75-4.92
				c1.869-3.384,4.41-6.184,7.953-5.807c4.756,0.507,5.927,5.918,3.51,8.495c-0.839,0.896-2.163,1.605-3.85,1.434
				c-2.122-0.215-4.144-1.666-3.929-4.541c0.548-3.24,3.256-3.551,4.834-3.074c1.356,0.412,2.292,1.883,2.176,3.265
				c-0.304,3.628-5.615,2.775-4.865-0.22c0.279-0.994,1.309-1.728,2.438-1.252c-1.306-0.609-2.32,0.14-2.618,1.178
				c-0.414,1.442,0.481,2.542,1.648,2.915c2.063,0.659,3.588-0.853,3.78-2.593c0.165-1.488-0.715-3.193-2.502-3.803
				c-2.074-0.707-4.819,0.204-5.492,3.441c-0.28,1.344,0.081,2.621,0.859,3.585c0.856,1.06,2.212,1.748,3.657,1.872
				c2.589,0.221,4.795-1.344,5.663-3.711c1.165-3.178-0.505-6.684-3.64-7.847c-1.497-0.555-2.889-0.444-4.094-0.101
				c-2.618,0.746-4.565,3.254-5.995,6.136c0.046-1.264-0.173-2.624-0.923-3.99c-1.95-3.551-6.448-4.931-10.049-2.972
				c-2.684,1.46-4.169,4.38-3.445,7.444c0.404,1.712,1.47,3.214,2.891,4.052c1.294,0.763,2.889,0.969,4.449,0.395
				c3.76-1.381,4.366-4.833,3.151-7.192c-1.048-2.035-3.248-2.787-5.002-2.326c-2.051,0.539-3.593,2.635-2.438,4.991
				c0.655,1.333,2.132,2.21,3.786,1.459c1.192-0.542,1.91-1.89,0.95-3.347c0.77,1.268,0.073,2.633-1.069,3.143
				c-3.459,1.43-5.421-4.784-1.127-5.792c1.637-0.384,3.566,0.477,4.299,2.03c0.853,1.806,0.96,5.107-2.826,6.337
				c-3.408,0.768-5.504-1.398-6.138-3.904c-0.505-1.991,0.112-3.704,1.035-4.869c2.661-3.353,9.354-2.908,10.804,2.701
				c0.704,2.721-0.282,5.172-2.085,7.335c-1.49,1.789-3.308,2.984-4.459,5.099c-4.304,7.909,3.155,20.962,6.997,27.069l-0.102-0.221
				c-1.686-4.159-2.213-11.173,3.871-11.93c1.739-0.216,3.446,0.691,4.219,2.711c0.852,2.225-0.737,4.646-2.759,5.067
				c-1.366,0.285-2.832-0.244-3.403-2.026c-0.308-0.964-0.006-2.308,1.155-3.243c0.499-0.403,1.103-0.591,1.694-0.479
				c1.298,0.247,2.087,2.09,0.926,3.171c-0.66,0.615-1.703,0.701-2.226-0.729c0.286,1.384,1.426,1.606,2.244,1.077
				c1.687-1.089,0.749-3.711-0.91-3.94c-0.593-0.082-1.251,0.059-1.832,0.398c-1.152,0.671-1.943,2.219-1.602,3.859
				c0.345,1.664,1.921,3.034,4.109,2.602c3.514-0.694,4.4-4.576,2.919-7.078c-0.835-1.412-2.532-2.636-4.611-2.399
				c-1.805,0.206-3.196,1.187-4.213,2.611c-1.845,2.584-1.477,5.942-0.083,9.255c-3.596-7.661-10.205-21.195-2.57-27.479
				c5.93-4.88,13.449-0.137,13.684,5.532c0.082,1.969-0.594,4.285-2.687,6.026c-2.634,2.191-6.57,2.877-9.622-0.604
				c-3.098-4.271-0.408-7.725,1.913-8.995c1.998-1.093,4.735-0.511,6.189,1.176c3.816,4.429-3.133,9.557-5.724,5.328
				c-0.826-1.437-0.508-3.445,1.307-4.203c-2.167,0.812-2.449,2.817-1.594,4.327c1.186,2.096,3.453,2.308,5.195,1.39
				c3.076-1.623,3.058-5.072,1.28-7.25c-1.521-1.863-4.464-2.771-7.174-1.409c-3.143,1.581-5.184,5.753-2.232,10.165
				c1.225,1.832,3.094,2.855,5.076,3.047c2.177,0.211,4.49-0.568,6.259-2.087c2.094-1.799,3.103-4.284,3.043-6.82
				c0.324,0.352,0.68,0.672,1.066,0.956c1.229,0.904,2.771,1.624,4.716,1.627c4.074,0.006,7.472-3.286,7.494-7.41
				c0.017-3.073-1.835-5.797-4.885-6.647c-1.704-0.474-3.544-0.265-4.972,0.581c-1.299,0.77-2.254,2.074-2.507,3.727
				c-0.608,3.982,2.137,6.191,4.806,6.266c2.3,0.064,4.031-1.508,4.476-3.277c0.52-2.069-0.577-4.444-3.213-4.569
				c-1.492-0.071-2.982,0.805-3.122,2.627c-0.102,1.313,0.738,2.599,2.489,2.46c-1.491,0.063-2.355-1.213-2.25-2.468
				c0.419-3.739,6.844-2.453,5.648,1.819c-0.456,1.628-2.149,2.909-3.874,2.801c-2.004-0.125-4.964-1.633-4.211-5.565
				c0.978-3.374,3.902-4.17,6.418-3.512c1.999,0.522,3.208,1.896,3.785,3.276c1.664,3.971-1.977,9.65-7.621,8.205
				c-1.672-0.428-2.95-1.362-3.926-2.625c-1.003-1.297-1.476-2.86-2.528-4.136C99.869,21.497,95.636,20.246,91.797,21.474z"/>
		</g>
		<g>
			<path fill-rule="evenodd" clip-rule="evenodd" fill="#3A2221" d="M66.406,17.483c-0.214-0.452-0.382-0.921-0.497-1.407
				c-0.33-1.396-0.385-2.994,0.327-4.677c1.493-3.526,5.589-5.254,9.164-3.757c2.663,1.116,4.338,3.719,3.952,6.669
				c-0.217,1.648-1.074,3.163-2.33,4.086c-1.144,0.841-2.623,1.188-4.146,0.798c-3.667-0.939-4.568-4.126-3.651-6.46
				c0.791-2.013,2.786-2.932,4.48-2.666c1.981,0.311,3.631,2.134,2.77,4.459c-0.488,1.316-1.792,2.282-3.42,1.734
				c-1.172-0.395-1.977-1.594-1.212-3.056c-0.603,1.266,0.183,2.483,1.305,2.853c3.388,1.013,4.639-5.017,0.505-5.553
				c-1.575-0.205-3.306,0.789-3.847,2.32c-0.629,1.779-0.414,4.893,3.264,5.687c3.278,0.396,5.041-1.841,5.398-4.258
				c0.283-1.92-0.461-3.472-1.441-4.478c-2.822-2.898-9.072-1.839-9.899,3.574c-0.303,1.983,0.285,3.729,1.41,5.266
				c0.77,1.052,1.564,1.824,2.225,2.977c0.329,0.574,0.615,1.183,0.858,1.821c0.096,0.251,0.173,0.492,0.233,0.726
				c0.027-0.06,0.053-0.12,0.083-0.179c0.83-1.683,2.131-2.962,4.005-3.492c2.157-0.61,4.163,0.391,5.292,1.739
				c1.999,2.39,1.733,6.65-1.862,7.992c-2.239,0.836-4.144-0.341-4.797-2.041c-0.644-1.675-0.074-3.449,1.027-4.359
				c0.556-0.459,1.228-0.722,1.869-0.738c1.794-0.045,3.241,2.566,1.645,4.01c-0.774,0.701-2.018,0.664-2.559-0.751
				c0.8,1.422,1.887,1.151,2.48,0.386c1.041-1.344-0.113-3.157-1.529-3.193c-0.645-0.017-1.25,0.287-1.708,0.799
				c-1.067,1.19-1.154,2.664-0.661,3.631c0.912,1.786,2.555,2.091,3.95,1.554c2.066-0.796,3.327-3.632,2.041-5.837
				c-1.168-2.002-3.129-2.667-4.931-2.137c-1.41,0.415-2.42,1.318-3.111,2.519c-2.601,4.523,1.011,10.297,5.268,14.764
				c-0.529-0.87-0.807-1.821-0.721-2.846c0.097-1.158,0.558-2.191,1.518-2.922c1.107-0.841,2.49-0.718,3.447-0.196
				c1.695,0.925,2.507,3.443,0.738,5.032c-1.102,0.989-2.467,0.742-3.23-0.09c-0.75-0.82-0.825-1.973-0.395-2.747
				c0.217-0.391,0.545-0.695,0.911-0.85c1.025-0.433,2.451,0.745,1.858,1.94c-0.287,0.58-1.014,0.84-1.647,0.147
				c0.784,0.639,1.35,0.236,1.519-0.34c0.295-1.012-0.78-1.795-1.606-1.496c-0.375,0.137-0.656,0.45-0.804,0.849
				c-0.345,0.928-0.061,1.798,0.442,2.244c0.931,0.824,1.948,0.627,2.631,0.001c1.011-0.927,1.096-2.85-0.146-3.83
				c-1.127-0.89-2.409-0.829-3.329-0.115c-1.98,1.538-1.724,3.579-0.681,5.341c0.481,0.814,1.07,1.457,1.76,2.087
				c1.699,1.548,3.346,2.825,4.602,3.672c-4.299-2.205-12.754-9.377-13.886-16.074c-0.248-1.467-0.093-2.669-0.571-4.141
				c-0.769-2.37-2.512-4.387-5.65-5.638c-2.828-1.128-6.095-0.353-8.281,2.702c-2.409,3.365-0.803,8.133,2.412,9.73
				c2.169,1.078,4.867,0.834,6.609-1.911c0.942-1.485,1.025-3.876-0.515-5.959c-0.663-0.895-1.595-1.478-2.637-1.549
				c-2.29-0.155-4.427,2.595-2.95,4.923c0.841,1.324,2.554,1.926,4.061-0.248c-1.088,2.201-3.101,2.073-4.244,0.825
				c-2.357-2.573,0.372-6.567,3.261-6.223c1.033,0.123,2.077,0.65,2.905,1.475c1.64,1.635,2.29,4.584,0.997,7.19
				c-1.311,2.645-4.562,4.255-8.049,2.567c-5.6-2.711-5.385-9.625-1.797-13.18c2.025-2.005,5.415-3.317,8.803-2.006
				C65.934,17.268,66.174,17.372,66.406,17.483z"/>
		</g>
		<g>
			<path fill-rule="evenodd" clip-rule="evenodd" fill="#3A2221" d="M74.939,61.017c2.743,1.197,4.482,4.131,3.987,7.241
				c-0.437,2.746-2.49,4.906-5.338,5.217c-1.591,0.173-3.203-0.284-4.353-1.249c-1.048-0.878-1.708-2.183-1.691-3.696
				c0.042-3.645,2.818-5.214,5.211-4.888c2.063,0.281,3.377,1.938,3.514,3.583c0.161,1.924-1.168,3.883-3.539,3.607
				c-1.343-0.156-2.543-1.156-2.401-2.803c0.102-1.187,1.041-2.212,2.583-1.831c-1.322-0.276-2.281,0.738-2.372,1.872
				c-0.175,3.4,5.75,3.195,5.31-0.794c-0.168-1.52-1.491-2.913-3.047-3.07c-1.808-0.182-4.671,0.729-4.576,4.35
				c0.377,3.156,2.872,4.296,5.214,4.078c1.861-0.173,3.143-1.222,3.861-2.368c1.82-2.906,0.166-7.596-3.838-8.364
				c-1.108-0.212-2.232-0.031-3.35-0.135c-4.747-0.439-7.581-4.57-7.3-8.804c-0.526,0.581-1.091,1.1-1.696,1.542
				c-0.78,0.57-1.619,0.955-2.321,1.644c-0.767,0.753-1.291,1.661-1.459,2.753c-0.15,0.973,0.009,1.923,0.607,2.779
				c0.765,1.094,2.148,1.597,3.685,1.005c1.693-0.653,2.253-2.787,1.46-4.146c-0.535-0.917-1.582-1.478-2.881-0.891
				c-0.704,0.317-1.309,1.173-1.246,2.307c0.027,0.488,0.228,0.925,0.593,1.203c0.802,0.609,2.247,0.116,2.266-1.093
				c0.011-0.687-0.472-1.321-1.548-0.887c0.929-0.545,1.636-0.013,1.754,0.72c0.244,1.51-1.717,2.316-2.693,1.495
				c-0.349-0.294-0.605-0.738-0.709-1.24c-0.207-0.994,0.265-2.231,1.366-2.875c1.118-0.653,2.697-0.46,3.568,0.998
				c1.399,2.342-0.345,4.823-2.515,5.261c-1.225,0.248-2.783-0.088-3.709-1.385c-0.804-1.126-0.959-2.414-0.671-3.716
				c0.211-0.955,0.678-1.77,1.331-2.461c-1.371,0.361-2.913,0.456-4.591-0.021c-4.408-1.253-7.065-5.864-5.815-10.331
				c0.356-1.272,0.992-2.404,1.841-3.317c1.077-1.159,2.336-1.531,3.476-2.541c0.52-0.46,0.978-0.998,1.338-1.598
				c0.718-1.197,1.017-2.529,0.69-3.974c-0.419-1.846-1.967-3.246-4.302-3.291c-2.572-0.049-4.449,2.454-4.135,4.663
				c0.212,1.492,1.287,2.787,3.307,2.713c1.093-0.04,2.347-0.841,2.871-2.364c0.225-0.655,0.196-1.337-0.136-1.897
				c-0.727-1.228-2.889-1.354-3.561,0.223c-0.382,0.896-0.086,1.987,1.558,1.993c-1.511,0.218-2.155-0.859-1.918-1.884
				c0.487-2.114,3.495-2.123,4.336-0.521c0.301,0.573,0.399,1.293,0.269,2.008c-0.26,1.416-1.542,2.788-3.332,3.044
				c-1.817,0.26-3.788-0.839-4.152-3.219c-0.584-3.824,3.035-6.15,6.119-5.563c1.741,0.331,3.607,1.605,4.13,3.803
				c0.453,1.909-0.033,3.683-1.107,5.239c-0.207,0.3-0.432,0.578-0.674,0.835c0.236-0.021,0.475-0.03,0.719-0.029
				c1.989,0.014,3.915,0.809,5.198,2.165c1.167,1.234,1.797,2.94,1.559,4.806c-0.574,4.494-4.227,6.035-7.135,5.29
				c-2.507-0.642-3.893-2.877-3.827-4.928c0.076-2.398,1.998-4.627,4.888-3.948c1.635,0.384,2.975,1.792,2.564,3.805
				c-0.296,1.451-1.601,2.583-3.451,1.892c1.592,0.529,2.922-0.585,3.197-1.973c0.703-4.173-6.644-4.768-6.671,0.22
				c-0.011,1.901,1.425,3.81,3.324,4.227c2.206,0.484,5.872-0.231,6.273-4.716c-0.013-3.951-2.931-5.716-5.854-5.783
				c-2.322-0.053-4.056,1.059-5.107,2.372c-3.026,3.78-0.845,11.047,5.706,11.231c2.056,0.057,3.807-0.636,5.311-1.819
				c1.962-1.543,2.713-3.52,4.235-5.33c1.019-1.212,2.361-2.287,4.001-3.088c-2.895,0.042-5.494-0.719-7.227-2.78
				c-1.217-1.447-1.869-3.166-1.599-5.11c0.311-2.238,2.048-3.683,3.749-4.178c3.015-0.876,6.838,1.095,6.62,4.957
				c-0.136,2.405-1.993,3.685-3.827,3.599c-1.806-0.085-3.212-1.329-3.606-2.714c-0.198-0.699-0.169-1.426,0.076-2.024
				c0.686-1.674,3.681-1.951,4.367,0.107c0.333,0.998-0.205,2.131-1.731,2.057c1.636-0.162,1.827-1.276,1.361-2.132
				c-0.818-1.506-2.959-1.175-3.566,0.116c-0.277,0.589-0.241,1.27,0.045,1.901c0.667,1.466,1.99,2.144,3.083,2.08
				c2.018-0.117,2.965-1.509,3.034-3.014c0.103-2.229-2.003-4.542-4.559-4.249c-2.32,0.266-3.728,1.807-3.97,3.684
				c-0.189,1.469,0.235,2.767,1.064,3.891c1.613,2.19,4.209,2.981,7.149,2.942c0.929-0.012,1.836-0.141,2.742-0.275
				c2.363-0.35,4.595-0.433,6.973-0.023C89,44.878,95.283,56.111,96.659,65.044c1.32,8.564-0.724,17.691-4.018,26.075
				c-0.422,1.072-2.259,1.664-4.453,1.763c-1.936,0.087-4.351-0.142-3.467-1.714c4.302-7.644,8.434-16.94,8.111-25.847
				c-0.289-7.991-5.463-18-13.718-20.246c-5.742-1.562-14.491,1.376-14.63,8.762c-0.084,4.519,4.654,7.323,8.829,6.342
				c2.819-0.662,5.266-2.799,5.118-6.326c-0.08-1.908-1.597-3.95-4.477-4.573c-1.239-0.268-2.529-0.083-3.586,0.606
				c-2.319,1.514-2.55,5.328,0.433,6.199c1.696,0.496,3.757-0.235,3.763-3.119c0.417,2.607-1.616,3.944-3.556,3.729
				c-3.997-0.444-4.023-5.714-0.999-7.501c1.082-0.639,2.444-0.951,3.795-0.86c2.679,0.18,5.276,2.16,5.766,5.249
				C80.01,56.362,78.434,59.559,74.939,61.017z"/>
		</g>
		<g>
			<circle fill-rule="evenodd" clip-rule="evenodd" fill="#ED1C24" cx="125.016" cy="37.986" r="1.925"/>
		</g>
		<g>
			<circle fill-rule="evenodd" clip-rule="evenodd" fill="#ED1C24" cx="86.351" cy="14.895" r="2.096"/>
		</g>
		<g>
			<circle fill-rule="evenodd" clip-rule="evenodd" fill="#ED1C24" cx="73.38" cy="13.592" r="1.926"/>
		</g>
		<g>
			<circle fill-rule="evenodd" clip-rule="evenodd" fill="#ED1C24" cx="62.619" cy="25.487" r="2.152"/>
		</g>
		<g>
			<circle fill-rule="evenodd" clip-rule="evenodd" fill="#ED1C24" cx="50.442" cy="35.399" r="1.189"/>
		</g>
		<g>
			<circle fill-rule="evenodd" clip-rule="evenodd" fill="#ED1C24" cx="55.346" cy="47.236" r="1.925"/>
		</g>
		<g>
			<circle fill-rule="evenodd" clip-rule="evenodd" fill="#ED1C24" cx="72.588" cy="53.24" r="2.266"/>
		</g>
		<g>
			<circle fill-rule="evenodd" clip-rule="evenodd" fill="#ED1C24" cx="95.923" cy="30.811" r="2.945"/>
		</g>
		<g>
			<circle fill-rule="evenodd" clip-rule="evenodd" fill="#ED1C24" cx="77.459" cy="25.713" r="1.303"/>
		</g>
		<g>
			<circle fill-rule="evenodd" clip-rule="evenodd" fill="#ED1C24" cx="72.361" cy="67.286" r="1.473"/>
		</g>
		<g>
			<circle fill-rule="evenodd" clip-rule="evenodd" fill="#ED1C24" cx="60.637" cy="59.64" r="0.963"/>
		</g>
		<g>
			<circle fill-rule="evenodd" clip-rule="evenodd" fill="#ED1C24" cx="84.199" cy="59.98" r="1.303"/>
		</g>
		<g>
			<circle fill-rule="evenodd" clip-rule="evenodd" fill="#ED1C24" cx="107.591" cy="58.677" r="1.926"/>
		</g>
		<g>
			<circle fill-rule="evenodd" clip-rule="evenodd" fill="#ED1C24" cx="120.108" cy="51.711" r="1.303"/>
		</g>
		<g>
			<circle fill-rule="evenodd" clip-rule="evenodd" fill="#ED1C24" cx="110.99" cy="25.033" r="1.982"/>
		</g>
		<g>
			<circle fill-rule="evenodd" clip-rule="evenodd" fill="#ED1C24" cx="102.38" cy="15.971" r="1.699"/>
		</g>
		<g>
			<circle fill-rule="evenodd" clip-rule="evenodd" fill="#ED1C24" cx="65.791" cy="37.154" r="1.359"/>
		</g>
		<g>
			<circle fill-rule="evenodd" clip-rule="evenodd" fill="#ED1C24" cx="81.197" cy="35.795" r="0.963"/>
		</g>
		<g>
			<circle fill-rule="evenodd" clip-rule="evenodd" fill="#ED1C24" cx="97.17" cy="45.763" r="1.246"/>
		</g>
		<g>
			<circle fill-rule="evenodd" clip-rule="evenodd" fill="#ED1C24" cx="110.536" cy="40.213" r="1.359"/>
		</g>
	</g>
</g>
</svg>
