<?xml version="1.0" encoding="utf-8"?>
<!-- Generator: Adobe Illustrator 17.0.0, SVG Export Plug-In . SVG Version: 6.00 Build 0)  -->
<!DOCTYPE svg PUBLIC "-//W3C//DTD SVG 1.1//EN" "http://www.w3.org/Graphics/SVG/1.1/DTD/svg11.dtd">
<svg version="1.1" id="Layer_1" xmlns="http://www.w3.org/2000/svg" xmlns:xlink="http://www.w3.org/1999/xlink" x="0px" y="0px"
	 width="150px" height="100px" viewBox="0 0 150 100" enable-background="new 0 0 150 100" xml:space="preserve">
<g>
	<g>
		<path fill="#EC1E53" d="M130.247,14.832c-8.318-5.456-60.54,11.717-64.694,17.977c-6.25,9.418,7.911,51.437,9.115,53.414
			c4.278-6.102,51.523-15.682,63.345-20.331C149.353,61.436,136.324,18.818,130.247,14.832z M67.729,37.768
			c-0.977,0-1.768-0.791-1.768-1.768c0-0.976,0.791-1.768,1.768-1.768c0.976,0,1.767,0.792,1.767,1.768
			C69.496,36.977,68.705,37.768,67.729,37.768z"/>
	</g>
	<g>
		<g id="Kuwait">
			<path fill="#FFFFFF" d="M20.029,37.127h-2.78l-7.694,7.684v-7.684h-2.05v15.495h2.05v-5.369l2.537-2.474l5.517,7.843h2.706
				l-6.786-9.217L20.029,37.127z M26.936,47.412c0,0.958-0.104,1.689-0.312,2.193s-0.562,0.903-1.062,1.194
				c-0.5,0.292-1.036,0.439-1.606,0.439c-0.571,0-1.05-0.143-1.437-0.428c-0.387-0.285-0.641-0.679-0.761-1.179
				c-0.078-0.345-0.116-1.015-0.116-2.008v-6.225h-1.903v6.955c0,0.81,0.039,1.402,0.117,1.776c0.112,0.556,0.308,1.027,0.587,1.411
				c0.278,0.384,0.705,0.702,1.279,0.956s1.193,0.38,1.855,0.38c1.501,0,2.688-0.635,3.562-1.903v1.649h1.702V41.397h-1.903v6.015
				H26.936z M42.924,41.397L41,47.887l-0.645,2.167l-0.56-2.146l-1.68-6.511H36.16l-1.786,6.575
				c-0.359,1.424-0.553,2.195-0.581,2.315l-0.666-2.41l-1.786-6.479h-1.966l3.435,11.225h1.987l2.272-8.635l0.433,1.913l1.786,6.723
				h1.977l3.509-11.225h-1.85V41.397z M53.952,47.918v-2.536c0-0.846-0.032-1.431-0.095-1.755c-0.113-0.521-0.31-0.953-0.592-1.295
				c-0.282-0.341-0.723-0.625-1.321-0.851c-0.599-0.226-1.378-0.338-2.336-0.338c-0.965,0-1.814,0.132-2.547,0.396
				s-1.293,0.641-1.68,1.131c-0.388,0.49-0.666,1.133-0.836,1.929l1.861,0.254c0.204-0.796,0.52-1.351,0.946-1.665
				s1.087-0.47,1.982-0.47c0.958,0,1.68,0.215,2.167,0.645c0.359,0.317,0.539,0.863,0.539,1.638c0,0.07-0.004,0.236-0.011,0.497
				c-0.726,0.253-1.857,0.472-3.393,0.655c-0.754,0.092-1.318,0.188-1.691,0.285c-0.507,0.141-0.964,0.349-1.369,0.624
				s-0.733,0.64-0.983,1.094c-0.25,0.454-0.375,0.957-0.375,1.506c0,0.938,0.331,1.707,0.994,2.31
				c0.662,0.602,1.61,0.904,2.843,0.904c0.747,0,1.446-0.123,2.098-0.37c0.652-0.247,1.33-0.67,2.034-1.268
				c0.056,0.528,0.183,0.989,0.381,1.384h1.987c-0.24-0.43-0.4-0.879-0.481-1.348C53.992,50.807,53.952,49.687,53.952,47.918z
				 M52.028,47.686c0,0.839-0.102,1.473-0.307,1.902c-0.268,0.557-0.687,0.996-1.258,1.316c-0.571,0.321-1.223,0.481-1.955,0.481
				c-0.74,0-1.302-0.169-1.686-0.508c-0.384-0.338-0.576-0.761-0.576-1.268c0-0.331,0.088-0.633,0.264-0.904s0.426-0.477,0.75-0.618
				s0.877-0.268,1.66-0.381c1.381-0.196,2.417-0.436,3.107-0.718v0.698H52.028z M55.333,52.622h1.902V41.397h-1.902V52.622z
				 M55.333,39.315h1.902v-2.188h-1.902V39.315z M63.203,50.921c-0.345,0.049-0.623,0.074-0.835,0.074
				c-0.282,0-0.499-0.047-0.65-0.138c-0.152-0.091-0.261-0.215-0.328-0.37c-0.067-0.155-0.1-0.503-0.1-1.046v-6.564h1.913v-1.48
				H61.29v-3.921l-1.892,1.142v2.78h-1.395v1.48h1.395v6.458c0,1.142,0.077,1.891,0.232,2.246c0.155,0.356,0.423,0.643,0.804,0.861
				c0.38,0.218,0.916,0.328,1.606,0.328c0.423,0,0.902-0.057,1.437-0.169L63.203,50.921z"/>
		</g>
		<g>
			<path fill="#EC1E53" d="M68.584,35.836c0.038-0.102,0.361-1.034-0.182-2.225c-0.622-1.367-2.094-2.49-4.375-3.339
				c-0.119-0.044-11.998-4.354-13.471-0.917c-0.219,0.51-0.209,1.076,0.029,1.636c1.011,2.382,6.136,4.355,6.354,4.437
				c5.555,2.113,9.201,2.626,10.836,1.524c0.804-0.541,0.859-1.259,0.862-1.397L68.584,35.836z M57.543,33.84
				c-2.288-0.87-4.931-2.422-5.394-3.513c-0.081-0.189-0.046-0.269-0.032-0.303c0.362-0.845,6.276-0.036,11.317,1.841
				c4.078,1.517,3.575,3.319,3.551,3.395l-0.038,0.122c-0.009,0.027-0.009,0.155-0.009,0.155c0.002-0.09,0.011-0.115,0.012-0.117
				C66.945,35.438,65.906,37.02,57.543,33.84z"/>
		</g>
		<path fill="#FFFFFF" d="M88.479,44.478c-1.367-0.715-2.176-1.214-2.429-1.496c-0.253-0.282-0.38-0.557-0.38-0.827
			c0-0.317,0.195-0.613,0.585-0.889c0.39-0.275,0.8-0.414,1.232-0.414c0.43,0,0.82,0.083,1.17,0.25
			c0.349,0.167,0.629,0.352,0.839,0.553c0.209,0.202,0.36,0.476,0.454,0.82c0.093,0.346,0.196,0.587,0.31,0.723
			c0.113,0.137,0.308,0.204,0.583,0.204c0.191,0,0.349-0.094,0.475-0.281c0.126-0.188,0.188-0.405,0.188-0.651
			c0-0.198-0.028-0.462-0.085-0.791c-0.056-0.329-0.085-0.604-0.085-0.827c0-0.38-0.446-0.741-1.339-1.079
			c-0.893-0.338-1.807-0.507-2.746-0.507c-1.128,0-2.117,0.313-2.967,0.938c-0.852,0.626-1.277,1.4-1.277,2.32
			c0,0.697,0.196,1.343,0.592,1.939c0.395,0.597,1.247,1.206,2.561,1.827c1.313,0.621,2.116,1.117,2.411,1.486
			c0.294,0.371,0.441,0.766,0.441,1.189c0,0.645-0.214,1.173-0.642,1.584c-0.429,0.411-0.951,0.616-1.564,0.616
			c-0.498,0-0.947-0.138-1.346-0.412c-0.4-0.275-0.738-0.784-1.016-1.531c-0.278-0.746-0.486-1.185-0.619-1.316
			c-0.135-0.131-0.282-0.197-0.443-0.197c-0.552,0-0.829,0.295-0.829,0.884c0,0.289,0.03,0.671,0.086,1.146
			c0.057,0.475,0.085,0.876,0.085,1.2c0,0.395,0.431,0.786,1.296,1.174c0.864,0.388,1.731,0.582,2.6,0.582
			c1.574,0,2.857-0.354,3.85-1.063s1.49-1.661,1.49-2.855c0-0.767-0.239-1.496-0.716-2.188
			C90.766,45.898,89.844,45.194,88.479,44.478z M94.61,50.626c-0.193,0.354-0.598,0.566-1.212,0.638
			c-0.616,0.07-0.982,0.171-1.099,0.3c-0.117,0.128-0.176,0.297-0.176,0.505c0,0.44,0.415,0.661,1.243,0.661
			c0.331,0,0.816-0.038,1.456-0.114s1.124-0.113,1.456-0.113c0.356,0,0.882,0.037,1.581,0.113c0.698,0.075,1.225,0.114,1.581,0.114
			c0.675,0,1.012-0.196,1.012-0.588c0-0.22-0.066-0.404-0.196-0.551c-0.131-0.148-0.495-0.261-1.094-0.345
			c-0.598-0.082-0.987-0.239-1.164-0.469c-0.179-0.231-0.266-0.51-0.266-0.841V28.65c0-0.637-0.08-1.032-0.24-1.186
			c-0.159-0.153-0.368-0.23-0.626-0.23c-0.188,0-0.474,0.052-0.857,0.155c-0.383,0.105-0.681,0.156-0.893,0.156
			c-0.2,0-0.507-0.023-0.919-0.071c-0.413-0.047-0.718-0.071-0.918-0.071c-0.696,0-1.043,0.21-1.043,0.629
			c0,0.12,0.055,0.233,0.165,0.341s0.456,0.263,1.036,0.463c0.58,0.201,0.969,0.42,1.166,0.655c0.196,0.236,0.296,0.502,0.296,0.796
			v19.1C94.901,49.86,94.803,50.273,94.61,50.626z M74.39,39.249c-1.903,0-3.621,0.625-5.152,1.873
			c-1.531,1.249-2.296,2.751-2.296,4.506c0,1.92,0.698,3.575,2.094,4.965c1.396,1.389,3.118,2.085,5.166,2.085
			c1.384,0,2.73-0.303,4.037-0.907c1.308-0.603,1.962-1.126,1.962-1.566c0-0.184-0.062-0.337-0.186-0.459
			c-0.125-0.123-0.292-0.184-0.503-0.184c-0.142,0-0.443,0.125-0.903,0.375c-1.203,0.657-2.323,0.985-3.361,0.985
			c-1.368,0-2.603-0.497-3.705-1.491c-1.103-0.993-1.654-2.114-1.654-3.361c0-1.705,0.522-3.023,1.567-3.952
			c1.044-0.929,2.057-1.394,3.038-1.394c1.417,0,2.476,0.388,3.179,1.163c0.703,0.776,1.054,1.61,1.054,2.5
			c0,0.243-0.047,0.412-0.142,0.504c-0.095,0.093-0.278,0.139-0.548,0.139h-5.648c-0.685,0-1.027,0.24-1.027,0.718
			c0,0.504,0.329,0.755,0.99,0.755h8.11c0.506,0,0.852-0.045,1.042-0.133c0.189-0.089,0.283-0.322,0.283-0.699
			c0-1.757-0.615-3.266-1.845-4.529C78.711,39.88,76.861,39.249,74.39,39.249z M121.266,41.345
			c-1.457-1.348-3.164-2.022-5.122-2.022c-2.441,0-4.309,0.677-5.601,2.031s-1.937,2.929-1.937,4.726
			c0,1.88,0.734,3.453,2.203,4.717c1.468,1.265,3.123,1.898,4.963,1.898c2.336,0,4.199-0.621,5.59-1.862
			c1.392-1.241,2.089-2.85,2.089-4.824C123.451,44.248,122.723,42.693,121.266,41.345z M119.401,49.644
			c-0.812,0.977-1.897,1.464-3.259,1.464c-1.303,0-2.374-0.47-3.215-1.411c-0.841-0.941-1.261-2.218-1.261-3.829
			c0-1.459,0.379-2.65,1.136-3.573c0.537-0.654,1.235-1.064,2.081-1.255c0.197-0.032,0.389-0.058,0.578-0.082
			c0.178-0.018,0.349-0.048,0.538-0.048c1.338,0,2.442,0.471,3.313,1.412c0.051,0.055,0.086,0.12,0.135,0.177
			c0.142,0.254,0.275,0.527,0.401,0.83c0.51,1.395,0.174,3.147-1.202,3.93c-0.574,0.336-1.168,0.513-1.828,0.437
			c-0.501-0.096-0.908-0.351-1.316-0.606c-0.452-0.347-0.63-0.827-0.945-1.241c-0.436,0.269-0.125,1.024,0.054,1.391
			c0.668,1.488,3.22,2.041,4.798,1.556c0.241-0.071,0.458-0.17,0.67-0.273C119.896,48.925,119.682,49.306,119.401,49.644z
			 M137.066,41.209c-1.282-1.219-2.87-1.829-4.765-1.829c-0.621,0-1.361,0.18-2.222,0.538c-0.86,0.359-1.289,0.708-1.289,1.049
			c0,0.159,0.063,0.292,0.193,0.402c0.128,0.11,0.274,0.165,0.44,0.165c0.163,0,0.506-0.114,1.027-0.34
			c0.52-0.227,1.091-0.34,1.712-0.34c1.031,0,1.934,0.5,2.713,1.501c0.778,1.001,1.168,2.141,1.168,3.423
			c0,1.083-0.227,2.053-0.679,2.911c-0.453,0.859-1.082,1.515-1.887,1.968c-0.806,0.453-1.468,0.679-1.985,0.679
			c-1.071,0-2.005-0.372-2.804-1.118c-0.801-0.745-1.2-1.751-1.2-3.021V38.94c0-0.294-0.042-0.511-0.126-0.651
			c-0.083-0.141-0.286-0.211-0.608-0.211c-0.12,0-0.424,0.066-0.913,0.198c-0.489,0.133-0.812,0.199-0.966,0.199
			c-0.144,0-0.496-0.057-1.058-0.17c-0.561-0.114-0.913-0.17-1.055-0.17c-0.74,0-1.11,0.236-1.11,0.709
			c0,0.182,0.08,0.334,0.239,0.455c0.16,0.121,0.505,0.224,1.036,0.309c0.696,0.118,1.154,0.285,1.372,0.502
			c0.218,0.218,0.339,0.473,0.363,0.767c0.071,2.819,0.107,7.001,0.107,8.468c0,3.042-0.036,4.898-0.106,5.567
			c0,0.528-0.13,1.1-0.389,1.717c-0.258,0.615-0.74,1.119-1.444,1.506c-0.295,0.156-0.441,0.302-0.441,0.435
			c0,0.314,0.326,0.471,0.977,0.471c0.437,0,0.891-0.12,1.359-0.361s0.945-0.65,1.431-1.225c0.486-0.576,0.829-1.256,1.03-2.036
			c0.201-0.782,0.302-1.919,0.302-3.414c0-0.602,0.047-0.903,0.142-0.903c1.035,0.686,1.875,1.121,2.516,1.31
			c0.642,0.189,1.323,0.283,2.042,0.283c1.872,0,3.474-0.68,4.806-2.041c1.331-1.361,1.996-2.853,1.996-4.475
			C138.988,44.085,138.347,42.428,137.066,41.209z M108.011,51.312c-0.59-0.075-0.977-0.27-1.161-0.582
			c-0.185-0.311-0.277-0.679-0.277-1.102c0-0.177,0.009-0.762,0.027-1.755c0.017-0.994,0.026-1.843,0.026-2.55
			c0-1.657-0.06-2.627-0.177-2.91c-0.223-0.624-0.662-1.147-1.317-1.57c-0.656-0.424-1.342-0.636-2.055-0.636
			c-0.738,0-1.718,0.35-2.942,1.048c-1.224,0.699-1.835,1.358-1.835,1.977c0,0.134,0.063,0.268,0.192,0.401
			c0.128,0.134,0.249,0.2,0.367,0.2c0.231,0,0.58-0.174,1.046-0.523c0.744-0.558,1.407-0.837,1.99-0.837
			c0.581,0,1.031,0.152,1.352,0.453c0.319,0.302,0.48,0.73,0.48,1.286c0,0.616,0.012,1.527,0.035,2.735
			c0.023,1.207,0.035,2.119,0.035,2.734c0,0.402-0.097,0.752-0.291,1.047c-0.195,0.296-0.588,0.476-1.184,0.542
			c-0.595,0.065-0.951,0.156-1.068,0.273c-0.117,0.117-0.176,0.266-0.176,0.449c0,0.528,0.379,0.791,1.137,0.791
			c0.331,0,0.824-0.038,1.475-0.112c0.652-0.077,1.144-0.114,1.476-0.114c0.296,0,0.758,0.028,1.386,0.085s1.096,0.085,1.405,0.085
			c0.509,0,0.851-0.031,1.022-0.091c0.172-0.062,0.258-0.233,0.258-0.514c0-0.196-0.057-0.361-0.17-0.496
			C108.951,51.494,108.601,51.389,108.011,51.312z M118.725,54.626c-0.22,0-0.435,0.032-0.646,0.097
			c-0.211,0.064-0.413,0.147-0.606,0.248c-0.192,0.103-0.373,0.219-0.542,0.35c-0.168,0.131-0.32,0.261-0.454,0.389
			c-0.171-0.337-0.423-0.601-0.758-0.795c-0.334-0.193-0.751-0.289-1.248-0.289c-0.203,0-0.397,0.025-0.582,0.073
			c-0.184,0.048-0.36,0.11-0.525,0.184c-0.166,0.074-0.319,0.162-0.458,0.261c-0.139,0.099-0.263,0.196-0.377,0.292l-0.033-0.657
			h-1.492v6.589h1.541v-4.767c0.079-0.075,0.179-0.156,0.296-0.245c0.118-0.088,0.247-0.17,0.389-0.245s0.293-0.139,0.454-0.188
			c0.161-0.051,0.323-0.077,0.489-0.077c0.365,0,0.636,0.124,0.815,0.373c0.18,0.249,0.27,0.607,0.27,1.071v4.077h1.549v-4.125
			c0-0.075-0.005-0.168-0.012-0.277c-0.009-0.11-0.018-0.194-0.029-0.253c0.07-0.085,0.163-0.179,0.278-0.281
			c0.115-0.102,0.244-0.196,0.39-0.282c0.144-0.085,0.3-0.157,0.469-0.216c0.169-0.06,0.344-0.089,0.525-0.089
			c0.354,0,0.621,0.124,0.798,0.373c0.18,0.249,0.27,0.607,0.27,1.071v4.077h1.549V57.24c0-0.83-0.188-1.473-0.565-1.93
			C120.102,54.855,119.517,54.626,118.725,54.626z M108.12,55.533c-0.287-0.295-0.638-0.519-1.055-0.675
			c-0.419-0.153-0.897-0.232-1.437-0.232c-0.561,0-1.066,0.08-1.514,0.237c-0.446,0.158-0.825,0.388-1.138,0.69
			s-0.552,0.67-0.718,1.103c-0.166,0.433-0.249,0.926-0.249,1.477c0,0.514,0.081,0.979,0.244,1.397
			c0.163,0.416,0.395,0.771,0.695,1.063c0.299,0.292,0.663,0.517,1.087,0.679c0.426,0.16,0.9,0.24,1.425,0.24
			c0.545,0,1.036-0.083,1.473-0.248c0.435-0.166,0.807-0.401,1.11-0.703c0.306-0.303,0.541-0.667,0.708-1.096
			c0.165-0.428,0.249-0.901,0.249-1.42c0-0.535-0.076-1.014-0.226-1.438C108.623,56.185,108.406,55.827,108.12,55.533z
			 M106.968,59.724c-0.322,0.384-0.79,0.577-1.405,0.577c-0.306,0-0.58-0.051-0.822-0.152c-0.245-0.103-0.451-0.248-0.623-0.437
			c-0.171-0.191-0.303-0.423-0.393-0.7c-0.093-0.274-0.138-0.586-0.138-0.935c0-0.728,0.174-1.28,0.521-1.66
			c0.349-0.381,0.832-0.571,1.454-0.571c0.615,0,1.082,0.184,1.405,0.554c0.321,0.369,0.481,0.918,0.481,1.645
			C107.449,58.779,107.289,59.337,106.968,59.724z M98.397,54.626c-0.487,0-0.95,0.076-1.388,0.225
			c-0.439,0.151-0.822,0.372-1.149,0.666c-0.326,0.295-0.586,0.659-0.778,1.097c-0.193,0.435-0.289,0.942-0.289,1.52
			c0,0.53,0.082,1.004,0.244,1.421c0.163,0.417,0.389,0.772,0.678,1.063c0.291,0.292,0.636,0.514,1.04,0.667
			s0.847,0.229,1.328,0.229c0.519,0,0.979-0.057,1.38-0.173c0.402-0.114,0.763-0.282,1.084-0.502v-1.261
			c-0.337,0.198-0.689,0.365-1.056,0.502c-0.366,0.136-0.786,0.205-1.263,0.205c-0.24,0-0.475-0.04-0.703-0.12
			c-0.227-0.081-0.426-0.208-0.598-0.382c-0.171-0.174-0.309-0.396-0.412-0.665c-0.105-0.27-0.157-0.593-0.157-0.968
			c0-0.411,0.055-0.763,0.163-1.051c0.11-0.289,0.257-0.525,0.442-0.71c0.184-0.184,0.402-0.318,0.651-0.402
			c0.248-0.082,0.509-0.124,0.782-0.124c0.385,0,0.755,0.056,1.111,0.168c0.357,0.113,0.703,0.276,1.04,0.49v-1.332
			c-0.316-0.198-0.665-0.341-1.047-0.43C99.117,54.67,98.749,54.626,98.397,54.626z M93.947,59.714
			c-0.096-0.09-0.21-0.161-0.341-0.212c-0.131-0.051-0.274-0.077-0.429-0.077c-0.15,0-0.29,0.025-0.421,0.077
			c-0.131,0.051-0.246,0.122-0.346,0.212c-0.099,0.091-0.176,0.197-0.232,0.316c-0.056,0.122-0.084,0.254-0.084,0.398
			c0,0.138,0.028,0.271,0.084,0.393c0.056,0.123,0.133,0.232,0.232,0.325c0.1,0.094,0.215,0.166,0.346,0.221
			c0.131,0.053,0.271,0.081,0.421,0.081c0.155,0,0.298-0.028,0.429-0.081c0.131-0.054,0.245-0.127,0.341-0.221
			c0.097-0.093,0.173-0.203,0.229-0.325c0.055-0.122,0.083-0.255,0.083-0.393c0-0.144-0.028-0.276-0.083-0.398
			C94.12,59.911,94.044,59.805,93.947,59.714z"/>
	</g>
</g>
</svg>
