<?xml version="1.0" encoding="utf-8"?>
<!-- Generator: Adobe Illustrator 17.0.0, SVG Export Plug-In . SVG Version: 6.00 Build 0)  -->
<!DOCTYPE svg PUBLIC "-//W3C//DTD SVG 1.1//EN" "http://www.w3.org/Graphics/SVG/1.1/DTD/svg11.dtd">
<svg version="1.1" id="Layer_1" xmlns="http://www.w3.org/2000/svg" xmlns:xlink="http://www.w3.org/1999/xlink" x="0px" y="0px"
	 width="150px" height="100px" viewBox="0 0 150 100" enable-background="new 0 0 150 100" xml:space="preserve">
<g>
	
		<radialGradient id="SVGID_1_" cx="498.8866" cy="-167.9477" r="14.2333" gradientTransform="matrix(0.5559 0 0 -0.5501 -164.5951 -47.883)" gradientUnits="userSpaceOnUse">
		<stop  offset="0" style="stop-color:#63C29D"/>
		<stop  offset="0.1964" style="stop-color:#60BC98"/>
		<stop  offset="0.3576" style="stop-color:#58AF8B"/>
		<stop  offset="0.5063" style="stop-color:#4A9C79"/>
		<stop  offset="0.6476" style="stop-color:#378462"/>
		<stop  offset="0.7836" style="stop-color:#1C6847"/>
		<stop  offset="0.9138" style="stop-color:#004A2C"/>
		<stop  offset="1" style="stop-color:#00361A"/>
	</radialGradient>
	<path fill="url(#SVGID_1_)" d="M120.235,49.887l2.28-5.729c0,0-4.385-0.391-6.271-2.821c0,0-3.991,1.345-6.534-1.823
		c0,0-5.35,0.651-6.358-0.391l-0.395,8.55C102.957,47.674,113.788,41.294,120.235,49.887z"/>
	
		<radialGradient id="SVGID_2_" cx="503.4831" cy="-146.7294" r="24.5964" gradientTransform="matrix(0.5559 0 0 -0.5501 -164.5951 -47.883)" gradientUnits="userSpaceOnUse">
		<stop  offset="0" style="stop-color:#63C29D"/>
		<stop  offset="0.1964" style="stop-color:#60BC98"/>
		<stop  offset="0.3576" style="stop-color:#58AF8B"/>
		<stop  offset="0.5063" style="stop-color:#4A9C79"/>
		<stop  offset="0.6476" style="stop-color:#378462"/>
		<stop  offset="0.7836" style="stop-color:#1C6847"/>
		<stop  offset="0.9138" style="stop-color:#004A2C"/>
		<stop  offset="1" style="stop-color:#00361A"/>
	</radialGradient>
	<path fill="url(#SVGID_2_)" d="M131.68,33.352c-1.973-9.938-11.562-7.103-11.562-7.103c-4.575-6.394-9.837-2.098-9.837-2.098
		c-7.762-2.17-10.153,2.414-10.153,2.414c-3.178,5.832,0.637,9.694,0.637,9.694c3.555,3.82,9.012,1.665,9.012,1.665
		c2.654,4.095,6.467,2.024,6.467,2.024c3.464,3.472,8.156,2.951,8.156,2.951C132.689,41.598,131.68,33.352,131.68,33.352z
		 M105.145,37.187c-1.91-0.6-3.131-1.644-3.348-1.913l4.966,1.268C106.763,36.543,107.055,37.788,105.145,37.187z M128.629,38.366
		c0,0,0.449-5.339-1.461-7.295c-1.799-1.842-3.753-2.936-5.416-3.292c0,0,6.764-0.267,8.292,4.915
		C130.045,32.695,130.921,35.475,128.629,38.366z"/>
	
		<linearGradient id="SVGID_3_" gradientUnits="userSpaceOnUse" x1="464.8877" y1="-182.2794" x2="515.3194" y2="-182.2794" gradientTransform="matrix(0.5559 0 0 -0.5501 -164.5951 -47.883)">
		<stop  offset="0" style="stop-color:#F15B40"/>
		<stop  offset="0.7235" style="stop-color:#8B221B"/>
		<stop  offset="1" style="stop-color:#6B0B0C"/>
	</linearGradient>
	<path fill="url(#SVGID_3_)" d="M93.836,47.37c0,0,2.035,1.865,6.198,1.736c0,0,4.61-1.201,7.016-2.199s5.762-1.291,8.361-0.029
		c2.218,1.077,3.015,1.916,4.608,5.198c0,0-2.673-3.057-6.041-3.462c-1.214-0.146-3.321-0.097-4.882,0.289
		c-1.561,0.386-5.889,1.628-7.905,1.306c0,0,2.89,0.282,5.654,0.024c2.764-0.257,4.856-1.076,7.874-0.475
		c3.038,0.605,5.234,1.689,6.536,4.699c0.427,0.988,0.91,3.089,0.39,4.28c0,0-2.04-4.752-4.552-5.374
		c-2.519-0.624-10.664-1.073-14.503-0.322C99.757,53.596,94.844,50.427,93.836,47.37z"/>
	<g>
		
			<radialGradient id="SVGID_4_" cx="111.875" cy="26.8968" r="8.3651" gradientTransform="matrix(1 0 0 -1 0 101)" gradientUnits="userSpaceOnUse">
			<stop  offset="0" style="stop-color:#63C29D"/>
			<stop  offset="0.1964" style="stop-color:#60BC98"/>
			<stop  offset="0.3576" style="stop-color:#58AF8B"/>
			<stop  offset="0.5063" style="stop-color:#4A9C79"/>
			<stop  offset="0.6476" style="stop-color:#378462"/>
			<stop  offset="0.7836" style="stop-color:#1C6847"/>
			<stop  offset="0.9138" style="stop-color:#004A2C"/>
			<stop  offset="1" style="stop-color:#00361A"/>
		</radialGradient>
		<path fill="url(#SVGID_4_)" d="M111.614,77.261c-6.608,0-10.876-4.865-10.94-4.939c-0.299-0.35-0.258-0.877,0.093-1.177
			c0.35-0.298,0.876-0.258,1.176,0.092l0,0c0.345,0.4,8.56,9.685,19.956-0.048c0.351-0.299,0.877-0.257,1.177,0.093
			c0.299,0.35,0.258,0.877-0.093,1.177C118.768,76.056,114.901,77.261,111.614,77.261z"/>
	</g>
	<g>
		<path fill="#6B0B0C" d="M15.117,59.914c-0.047,0.081-0.107,0.22-0.18,0.418c-0.073,0.198-0.149,0.426-0.228,0.685
			c-0.079,0.259-0.158,0.532-0.237,0.821s-0.152,0.559-0.219,0.811c-0.067,0.252-0.125,0.474-0.171,0.665
			c-0.047,0.191-0.076,0.317-0.087,0.378c-0.012,0.074-0.034,0.185-0.066,0.333c-0.032,0.148-0.06,0.275-0.083,0.383
			c0.655-0.255,1.303-0.467,1.943-0.634c0.641-0.168,1.283-0.252,1.926-0.252c0.099,0,0.231,0.004,0.394,0.01
			c0.164,0.007,0.325,0.032,0.483,0.076c0.158,0.044,0.294,0.112,0.408,0.206c0.114,0.094,0.171,0.229,0.171,0.403
			c0,0.007-0.003,0.049-0.008,0.126c-0.006,0.077-0.023,0.166-0.053,0.267c-0.029,0.101-0.074,0.201-0.136,0.302
			c-0.061,0.101-0.145,0.175-0.25,0.221c-0.065-0.007-0.127-0.01-0.188-0.01c-0.061,0-0.125,0-0.188,0
			c-0.415,0-0.832,0.042-1.251,0.126c-0.418,0.085-0.839,0.198-1.263,0.343c-0.424,0.144-0.847,0.316-1.268,0.514
			s-0.842,0.408-1.263,0.629l-0.886,4.403c-0.012,0.114-0.06,0.217-0.145,0.308c-0.085,0.091-0.168,0.136-0.25,0.136h-0.211
			c-0.222,0-0.376-0.104-0.46-0.312s-0.127-0.477-0.127-0.806c0-0.275,0.02-0.576,0.061-0.902c0.041-0.325,0.088-0.643,0.14-0.952
			c0.053-0.308,0.1-0.591,0.141-0.846c0.04-0.255,0.061-0.45,0.061-0.584c-0.07-0.114-0.14-0.235-0.211-0.363
			c-0.07-0.128-0.105-0.286-0.105-0.473c0-0.295,0.067-0.531,0.201-0.706c0.134-0.174,0.313-0.346,0.535-0.514
			c0.023-0.02,0.048-0.057,0.074-0.111c0.027-0.054,0.05-0.114,0.07-0.182c0.02-0.067,0.038-0.134,0.053-0.201
			c0.014-0.067,0.027-0.124,0.039-0.171l0.36-1.491c0.14-0.585,0.266-1.096,0.377-1.537c0.111-0.44,0.214-0.834,0.307-1.184
			c0.094-0.349,0.18-0.663,0.259-0.942c0.079-0.279,0.156-0.549,0.233-0.811c0.023-0.087,0.063-0.212,0.118-0.373
			c0.056-0.161,0.123-0.319,0.202-0.473s0.168-0.289,0.267-0.403c0.1-0.114,0.208-0.171,0.325-0.171c0.263,0,0.443,0.025,0.54,0.076
			s0.159,0.116,0.188,0.197l0.079,0.221c0.093-0.013,0.227-0.038,0.399-0.075c0.173-0.037,0.351-0.079,0.535-0.126
			c0.185-0.047,0.355-0.092,0.513-0.136s0.272-0.079,0.342-0.106c0.392-0.121,0.751-0.225,1.079-0.312
			c0.327-0.087,0.637-0.159,0.93-0.217c0.293-0.057,0.573-0.099,0.842-0.126c0.269-0.027,0.541-0.04,0.816-0.04
			c0.128,0,0.248,0.007,0.36,0.02c0.111,0.014,0.206,0.039,0.285,0.076s0.142,0.091,0.188,0.161c0.047,0.07,0.07,0.163,0.07,0.277
			c0,0.061-0.012,0.136-0.035,0.227s-0.061,0.181-0.114,0.272c-0.052,0.091-0.124,0.176-0.215,0.257s-0.203,0.141-0.338,0.181
			c-0.041,0.014-0.114,0.032-0.22,0.055c-0.105,0.024-0.226,0.049-0.364,0.076s-0.284,0.055-0.439,0.086
			c-0.155,0.03-0.303,0.059-0.443,0.085c-0.222,0.061-0.473,0.126-0.75,0.197c-0.278,0.07-0.567,0.149-0.869,0.237
			c-0.301,0.087-0.604,0.181-0.908,0.282c-0.304,0.101-0.591,0.205-0.859,0.312c-0.269,0.108-0.511,0.218-0.724,0.333
			C15.407,59.676,15.239,59.793,15.117,59.914z"/>
		<path fill="#6B0B0C" d="M25.013,70.361c0-0.195,0.02-0.428,0.061-0.7s0.061-0.61,0.061-1.013c-0.193,0.161-0.406,0.353-0.64,0.574
			c-0.234,0.222-0.477,0.433-0.728,0.634c-0.252,0.201-0.501,0.371-0.75,0.509s-0.481,0.207-0.698,0.207
			c-0.175,0-0.342-0.03-0.5-0.091s-0.293-0.141-0.404-0.242c-0.31-0.282-0.534-0.564-0.671-0.846
			c-0.138-0.282-0.206-0.611-0.206-0.987c0-0.168,0.013-0.342,0.039-0.524s0.066-0.39,0.119-0.625
			c0.222-1.062,0.604-2.043,1.145-2.947c0.541-0.903,1.212-1.674,2.013-2.312c0.31-0.248,0.619-0.408,0.93-0.479
			c0.31-0.07,0.617-0.106,0.921-0.106c0.134,0,0.285,0.01,0.452,0.03c0.166,0.02,0.317,0.04,0.452,0.061
			c0.134-0.034,0.244-0.057,0.329-0.07c0.085-0.013,0.174-0.02,0.268-0.02c0.175,0,0.321,0.027,0.438,0.081s0.211,0.126,0.281,0.216
			s0.121,0.195,0.153,0.312c0.033,0.118,0.048,0.24,0.048,0.368c0,0.175-0.023,0.341-0.07,0.499
			c-0.047,0.158-0.094,0.317-0.141,0.479l-1.158,5.309c-0.023,0.289-0.044,0.554-0.061,0.796s-0.053,0.467-0.105,0.675
			c-0.018,0.061-0.04,0.136-0.066,0.227c-0.027,0.091-0.069,0.178-0.127,0.262c-0.059,0.083-0.132,0.156-0.22,0.216
			c-0.087,0.06-0.201,0.091-0.342,0.091c-0.182,0-0.327-0.014-0.434-0.04c-0.109-0.027-0.192-0.065-0.25-0.116
			c-0.059-0.05-0.097-0.111-0.114-0.181C25.022,70.537,25.013,70.455,25.013,70.361z M22.101,67.319
			c-0.023,0.094-0.048,0.228-0.075,0.403c-0.026,0.175-0.039,0.349-0.039,0.524c0,0.181,0.023,0.344,0.07,0.488
			c0.047,0.145,0.149,0.217,0.307,0.217c0.246,0,0.475-0.063,0.689-0.186c0.213-0.125,0.413-0.274,0.601-0.449
			c0.252-0.235,0.507-0.499,0.768-0.791c0.26-0.292,0.505-0.599,0.737-0.921c0.231-0.323,0.436-0.653,0.614-0.992
			c0.178-0.34,0.308-0.677,0.39-1.013c0.047-0.195,0.087-0.42,0.119-0.675s0.048-0.483,0.048-0.685c0-0.087-0.018-0.173-0.053-0.257
			s-0.102-0.126-0.201-0.126c-0.287,0-0.574,0.064-0.864,0.191c-0.29,0.127-0.569,0.299-0.838,0.514s-0.526,0.468-0.768,0.761
			s-0.464,0.604-0.662,0.937c-0.199,0.333-0.37,0.675-0.513,1.028C22.286,66.639,22.176,66.983,22.101,67.319z"/>
		<path fill="#6B0B0C" d="M35.515,71.369c-0.363,0-0.612-0.091-0.746-0.272c-0.135-0.182-0.202-0.43-0.202-0.746
			c0-0.168,0.015-0.349,0.044-0.544s0.067-0.396,0.114-0.604c0.082-0.356,0.173-0.71,0.276-1.063
			c0.102-0.353,0.204-0.709,0.306-1.068s0.202-0.719,0.299-1.078s0.183-0.721,0.259-1.083c0.006-0.034,0.008-0.077,0.008-0.131
			c0-0.094-0.02-0.168-0.061-0.222s-0.102-0.081-0.184-0.081c-0.129,0-0.268,0.03-0.417,0.091c-0.149,0.06-0.273,0.127-0.372,0.201
			c-0.392,0.302-0.736,0.601-1.031,0.897c-0.295,0.295-0.566,0.604-0.812,0.927c-0.246,0.322-0.478,0.666-0.698,1.033
			c-0.219,0.366-0.449,0.767-0.689,1.204c-0.205,0.437-0.357,0.808-0.456,1.113c-0.099,0.306-0.192,0.553-0.276,0.741
			c-0.085,0.188-0.18,0.324-0.286,0.408c-0.105,0.083-0.263,0.126-0.473,0.126c-0.234,0-0.4-0.078-0.496-0.231
			c-0.097-0.155-0.145-0.356-0.145-0.604c0-0.195,0.027-0.413,0.079-0.655l2.896-13.318c0.018-0.081,0.046-0.168,0.087-0.262
			s0.097-0.181,0.167-0.262s0.153-0.148,0.25-0.201c0.097-0.054,0.207-0.081,0.329-0.081c0.093,0,0.193,0.005,0.298,0.015
			c0.106,0.01,0.201,0.03,0.286,0.06c0.085,0.03,0.155,0.079,0.211,0.146c0.055,0.067,0.083,0.155,0.083,0.262
			c0,0.027-0.007,0.082-0.018,0.166c-0.012,0.084-0.029,0.18-0.053,0.287c-0.316,1.458-0.654,2.976-1.013,4.554
			c-0.36,1.578-0.724,3.173-1.092,4.785c0.357-0.503,0.728-0.965,1.114-1.385c0.386-0.42,0.782-0.781,1.189-1.083
			c0.406-0.302,0.827-0.539,1.263-0.71c0.436-0.171,0.887-0.257,1.356-0.257c0.299,0,0.529,0.109,0.693,0.327
			s0.246,0.495,0.246,0.831c0,0.155-0.018,0.306-0.053,0.453c-0.07,0.309-0.149,0.613-0.237,0.912s-0.179,0.599-0.272,0.902
			c-0.094,0.302-0.188,0.609-0.281,0.921c-0.094,0.312-0.175,0.633-0.246,0.962c-0.093,0.423-0.158,0.824-0.193,1.204
			s-0.058,0.683-0.07,0.912c-0.012,0.194-0.038,0.383-0.079,0.564s-0.101,0.341-0.18,0.479c-0.079,0.138-0.179,0.248-0.299,0.333
			C35.82,71.326,35.679,71.369,35.515,71.369z"/>
		<path fill="#6B0B0C" d="M39.322,68.951c0.088-0.39,0.193-0.843,0.316-1.36s0.253-1.065,0.391-1.642
			c0.138-0.578,0.276-1.168,0.417-1.773c0.141-0.604,0.272-1.192,0.395-1.763c0.006-0.027,0.026-0.072,0.061-0.136
			s0.085-0.127,0.149-0.191c0.064-0.064,0.146-0.119,0.246-0.166c0.099-0.047,0.216-0.07,0.351-0.07c0.099,0,0.196,0.012,0.29,0.035
			c0.093,0.023,0.177,0.059,0.25,0.106s0.132,0.109,0.175,0.186c0.044,0.077,0.066,0.166,0.066,0.267c0,0.02,0,0.042,0,0.066
			c0,0.023-0.003,0.045-0.008,0.065l-0.246,1.068c-0.275,1.196-0.554,2.394-0.838,3.597c-0.284,1.202-0.56,2.408-0.829,3.617
			c-0.012,0.04-0.029,0.091-0.053,0.151c-0.023,0.061-0.056,0.121-0.097,0.182c-0.041,0.06-0.091,0.111-0.149,0.151
			c-0.059,0.04-0.128,0.061-0.211,0.061c-0.152,0-0.286-0.035-0.404-0.106c-0.117-0.07-0.216-0.16-0.298-0.267
			c-0.082-0.108-0.143-0.225-0.185-0.352c-0.041-0.128-0.061-0.248-0.061-0.363c0-0.033,0-0.063,0-0.091
			c0-0.027,0.006-0.057,0.018-0.091L39.322,68.951z M41.612,58.524c0.029-0.141,0.082-0.312,0.158-0.514
			c0.076-0.201,0.211-0.383,0.404-0.544c0.093-0.06,0.207-0.116,0.342-0.166c0.134-0.051,0.231-0.076,0.29-0.076
			c0.058,0,0.118,0.023,0.18,0.07c0.061,0.047,0.115,0.097,0.162,0.151c0.058,0.067,0.114,0.141,0.166,0.221
			c0.146,0.014,0.241,0.074,0.286,0.182c0.044,0.107,0.065,0.235,0.065,0.383c0,0.108-0.008,0.205-0.026,0.292
			c-0.018,0.087-0.032,0.158-0.044,0.212c-0.035,0.141-0.102,0.271-0.202,0.388c-0.099,0.117-0.213,0.218-0.342,0.302
			c-0.129,0.084-0.263,0.149-0.404,0.196s-0.263,0.071-0.368,0.071c-0.135,0-0.239-0.027-0.312-0.081
			c-0.073-0.053-0.166-0.168-0.276-0.342c-0.065-0.101-0.101-0.18-0.11-0.237s-0.013-0.106-0.013-0.146
			c0-0.074,0.004-0.14,0.013-0.197C41.59,58.633,41.6,58.578,41.612,58.524z"/>
		<path fill="#6B0B0C" d="M45.139,67.661c0-0.564,0.055-1.15,0.167-1.758c0.111-0.608,0.228-1.191,0.351-1.748
			c-0.152-0.007-0.307-0.034-0.465-0.081c-0.158-0.047-0.301-0.111-0.43-0.191c-0.129-0.081-0.234-0.18-0.316-0.297
			s-0.123-0.253-0.123-0.408c0-0.061,0.012-0.138,0.035-0.232c0.023-0.094,0.057-0.186,0.1-0.277
			c0.044-0.091,0.101-0.168,0.171-0.232s0.149-0.096,0.237-0.096h1.176c0.111,0,0.187-0.055,0.228-0.166
			c0.04-0.111,0.073-0.22,0.097-0.327c0.076-0.39,0.147-0.727,0.215-1.013c0.068-0.285,0.125-0.527,0.171-0.725
			c0.047-0.198,0.083-0.359,0.11-0.483s0.04-0.223,0.04-0.297c0-0.087-0.003-0.171-0.009-0.252
			c-0.006-0.081-0.008-0.191-0.008-0.333v-0.101c0-0.054,0.004-0.124,0.013-0.212c0.008-0.087,0.037-0.212,0.083-0.373
			c0.035-0.127,0.099-0.248,0.193-0.363c0.093-0.114,0.231-0.171,0.412-0.171c0.158,0,0.293,0.037,0.404,0.111
			s0.202,0.171,0.272,0.292s0.123,0.259,0.158,0.413c0.035,0.155,0.053,0.309,0.053,0.463c0,0.168-0.014,0.319-0.044,0.453
			l-0.64,2.821c0.316-0.06,0.597-0.117,0.842-0.171c0.246-0.054,0.492-0.107,0.737-0.161c0.269-0.061,0.501-0.118,0.697-0.171
			s0.364-0.099,0.505-0.136c0.14-0.037,0.259-0.067,0.355-0.091c0.097-0.023,0.177-0.035,0.241-0.035
			c0.093,0,0.188,0.008,0.285,0.025c0.097,0.017,0.181,0.045,0.254,0.086c0.073,0.04,0.133,0.097,0.18,0.171s0.07,0.171,0.07,0.292
			c0,0.161-0.028,0.304-0.083,0.428c-0.055,0.125-0.127,0.232-0.215,0.322c-0.087,0.091-0.187,0.165-0.298,0.222
			s-0.222,0.099-0.333,0.126c-0.094,0.02-0.215,0.051-0.364,0.091s-0.313,0.084-0.491,0.131c-0.179,0.047-0.364,0.097-0.557,0.151
			s-0.38,0.108-0.561,0.161c-0.269,0.081-0.499,0.148-0.689,0.201c-0.19,0.054-0.353,0.094-0.487,0.121
			c-0.134,0.027-0.245,0.047-0.329,0.06c-0.085,0.014-0.154,0.02-0.207,0.02c-0.111,0.383-0.207,0.759-0.29,1.128
			c-0.082,0.37-0.151,0.714-0.206,1.033s-0.097,0.604-0.123,0.856c-0.027,0.252-0.04,0.449-0.04,0.589
			c0,0.181,0.015,0.354,0.044,0.519c0.029,0.164,0.079,0.307,0.149,0.428s0.166,0.217,0.286,0.288
			c0.119,0.07,0.27,0.106,0.451,0.106c0.31,0,0.614-0.097,0.913-0.292c0.298-0.195,0.584-0.441,0.855-0.741
			c0.272-0.299,0.529-0.626,0.772-0.982s0.466-0.695,0.671-1.018c0.07-0.121,0.161-0.181,0.272-0.181
			c0.035,0,0.078,0.007,0.127,0.02c0.05,0.014,0.098,0.037,0.145,0.07c0.047,0.034,0.087,0.078,0.119,0.131
			c0.032,0.054,0.048,0.117,0.048,0.192c0,0.053-0.003,0.094-0.008,0.121c-0.094,0.417-0.239,0.835-0.434,1.255
			c-0.196,0.419-0.396,0.841-0.601,1.264c-0.07,0.147-0.162,0.292-0.276,0.433c-0.114,0.141-0.239,0.277-0.373,0.408
			s-0.275,0.255-0.421,0.373c-0.146,0.117-0.284,0.223-0.412,0.317c-0.222,0.161-0.465,0.272-0.728,0.333s-0.518,0.091-0.764,0.091
			c-0.38,0-0.718-0.079-1.013-0.237c-0.295-0.158-0.544-0.373-0.745-0.645c-0.202-0.272-0.355-0.589-0.461-0.952
			C45.192,68.467,45.139,68.078,45.139,67.661z"/>
		<path fill="#6B0B0C" d="M57.632,70.361c0-0.195,0.021-0.428,0.061-0.7c0.041-0.272,0.062-0.61,0.062-1.013
			c-0.193,0.161-0.407,0.353-0.641,0.574c-0.233,0.222-0.477,0.433-0.728,0.634c-0.252,0.201-0.502,0.371-0.75,0.509
			s-0.481,0.207-0.698,0.207c-0.175,0-0.342-0.03-0.499-0.091c-0.158-0.061-0.293-0.141-0.404-0.242
			c-0.31-0.282-0.534-0.564-0.672-0.846s-0.206-0.611-0.206-0.987c0-0.168,0.013-0.342,0.04-0.524
			c0.026-0.181,0.066-0.39,0.118-0.625c0.222-1.062,0.604-2.043,1.145-2.947c0.541-0.903,1.212-1.674,2.013-2.312
			c0.31-0.248,0.62-0.408,0.93-0.479c0.31-0.07,0.617-0.106,0.921-0.106c0.134,0,0.286,0.01,0.452,0.03
			c0.167,0.02,0.318,0.04,0.452,0.061c0.134-0.034,0.245-0.057,0.329-0.07c0.085-0.013,0.173-0.02,0.267-0.02
			c0.175,0,0.321,0.027,0.439,0.081c0.117,0.054,0.211,0.126,0.28,0.216c0.07,0.091,0.121,0.195,0.154,0.312
			c0.032,0.118,0.048,0.24,0.048,0.368c0,0.175-0.023,0.341-0.07,0.499s-0.093,0.317-0.14,0.479l-1.158,5.309
			c-0.023,0.289-0.044,0.554-0.061,0.796s-0.053,0.467-0.106,0.675c-0.018,0.061-0.039,0.136-0.066,0.227
			c-0.026,0.091-0.068,0.178-0.127,0.262c-0.059,0.083-0.132,0.156-0.219,0.216c-0.088,0.06-0.202,0.091-0.342,0.091
			c-0.181,0-0.326-0.014-0.434-0.04s-0.192-0.065-0.25-0.116c-0.059-0.05-0.097-0.111-0.114-0.181
			C57.641,70.537,57.632,70.455,57.632,70.361z M54.719,67.319c-0.023,0.094-0.048,0.228-0.074,0.403
			c-0.027,0.175-0.04,0.349-0.04,0.524c0,0.181,0.023,0.344,0.07,0.488c0.047,0.145,0.149,0.217,0.307,0.217
			c0.246,0,0.475-0.063,0.689-0.186c0.213-0.125,0.414-0.274,0.601-0.449c0.251-0.235,0.507-0.499,0.767-0.791
			s0.506-0.599,0.737-0.921c0.231-0.323,0.436-0.653,0.614-0.992c0.179-0.34,0.308-0.677,0.391-1.013
			c0.047-0.195,0.086-0.42,0.119-0.675c0.032-0.255,0.048-0.483,0.048-0.685c0-0.087-0.018-0.173-0.053-0.257
			s-0.102-0.126-0.202-0.126c-0.286,0-0.574,0.064-0.864,0.191c-0.29,0.127-0.569,0.299-0.838,0.514s-0.525,0.468-0.767,0.761
			c-0.243,0.292-0.464,0.604-0.662,0.937c-0.199,0.333-0.37,0.675-0.513,1.028C54.905,66.639,54.796,66.983,54.719,67.319z"/>
		<path fill="#6B0B0C" d="M62.291,69.011c0.047,0,0.089,0.007,0.127,0.02c0.038,0.014,0.08,0.029,0.127,0.046
			c0.047,0.016,0.1,0.032,0.158,0.045c0.059,0.014,0.135,0.02,0.228,0.02c0.275,0,0.58-0.033,0.917-0.1
			c0.336-0.067,0.654-0.155,0.952-0.262c0.299-0.108,0.554-0.23,0.767-0.368c0.214-0.138,0.335-0.28,0.364-0.428
			c0.018-0.08,0.026-0.151,0.026-0.211c0-0.114-0.048-0.224-0.145-0.327c-0.096-0.104-0.218-0.203-0.364-0.297
			c-0.147-0.094-0.304-0.181-0.474-0.262c-0.17-0.08-0.327-0.155-0.473-0.222l-0.299-0.141c-0.152-0.067-0.301-0.149-0.447-0.247
			c-0.146-0.097-0.282-0.209-0.408-0.337s-0.237-0.277-0.333-0.449c-0.097-0.171-0.168-0.368-0.215-0.589
			c-0.023-0.094-0.042-0.188-0.057-0.282c-0.015-0.094-0.022-0.195-0.022-0.302c0-0.174,0.052-0.374,0.154-0.599
			s0.239-0.448,0.412-0.67c0.173-0.222,0.368-0.433,0.588-0.635c0.219-0.201,0.449-0.369,0.689-0.504
			c0.175-0.141,0.345-0.269,0.509-0.383s0.329-0.212,0.496-0.292c0.167-0.081,0.336-0.144,0.509-0.192
			c0.172-0.047,0.355-0.07,0.548-0.07c0.175,0,0.365,0.01,0.57,0.03s0.392,0.067,0.562,0.141c0.17,0.074,0.311,0.183,0.425,0.328
			c0.114,0.144,0.171,0.337,0.171,0.579c0,0.074-0.009,0.171-0.027,0.292s-0.047,0.242-0.087,0.363
			c-0.041,0.121-0.091,0.225-0.149,0.312c-0.059,0.087-0.129,0.131-0.211,0.131c-0.135,0-0.246-0.03-0.333-0.091
			c-0.088-0.061-0.167-0.126-0.237-0.197c-0.07-0.07-0.143-0.136-0.219-0.196c-0.076-0.061-0.17-0.091-0.281-0.091
			c-0.134,0-0.291,0.029-0.469,0.086c-0.179,0.057-0.361,0.134-0.548,0.232c-0.188,0.097-0.37,0.21-0.548,0.337
			c-0.179,0.128-0.34,0.259-0.483,0.393c-0.143,0.135-0.259,0.267-0.347,0.398c-0.087,0.131-0.132,0.25-0.132,0.358
			c0,0.114,0.032,0.208,0.097,0.282s0.146,0.138,0.246,0.191c0.128,0.081,0.276,0.161,0.443,0.242
			c0.166,0.08,0.334,0.161,0.504,0.242c0.17,0.081,0.335,0.161,0.496,0.242c0.161,0.08,0.3,0.155,0.417,0.221
			c0.158,0.095,0.299,0.186,0.425,0.277s0.233,0.19,0.32,0.297c0.088,0.108,0.155,0.228,0.202,0.363
			c0.046,0.135,0.07,0.292,0.07,0.474c0,0.087-0.006,0.175-0.018,0.261c-0.012,0.087-0.029,0.188-0.052,0.303
			c-0.018,0.1-0.048,0.218-0.093,0.353c-0.044,0.134-0.091,0.267-0.14,0.398c-0.05,0.131-0.101,0.248-0.153,0.353
			c-0.053,0.104-0.096,0.173-0.132,0.206c-0.228,0.242-0.497,0.469-0.807,0.68c-0.31,0.212-0.633,0.396-0.97,0.554
			c-0.336,0.158-0.672,0.284-1.009,0.378c-0.336,0.095-0.645,0.141-0.926,0.141c-0.14,0-0.295-0.032-0.465-0.096
			c-0.17-0.064-0.326-0.147-0.469-0.252c-0.143-0.104-0.263-0.224-0.359-0.358c-0.097-0.134-0.145-0.269-0.145-0.403
			c0-0.067,0.018-0.142,0.052-0.226c0.035-0.084,0.079-0.162,0.132-0.232s0.11-0.131,0.171-0.181
			C62.181,69.037,62.238,69.011,62.291,69.011z"/>
		<path fill="#00361A" d="M73.69,62.352c-0.263-0.826-0.395-1.609-0.395-2.347c0-1.041,0.402-1.961,1.206-2.76
			s1.809-1.199,3.014-1.199c0.649,0,1.243,0.26,1.781,0.781c0.539,0.521,0.807,1.127,0.807,1.819c0,0.82-0.334,1.556-1.004,2.211
			s-1.789,1.375-3.356,2.161c0.415,0.927,1.176,2.115,2.281,3.567c1-1.035,1.743-2.092,2.229-3.174
			c0.111-0.302,0.313-0.453,0.605-0.453c0.199,0,0.388,0.082,0.566,0.247c0.179,0.165,0.268,0.358,0.268,0.579
			c0,0.168-0.061,0.386-0.185,0.655c-0.123,0.269-0.412,0.714-0.869,1.335c-0.456,0.621-1,1.264-1.632,1.929
			c0.749,0.712,1.553,1.118,2.413,1.219c0.526,0.054,0.79,0.417,0.79,1.088c0,0.235-0.072,0.432-0.215,0.589
			c-0.143,0.158-0.329,0.237-0.557,0.237c-1.153,0-2.375-0.651-3.668-1.955c-0.713,0.618-1.483,1.098-2.308,1.441
			c-0.824,0.342-1.605,0.514-2.342,0.514c-0.837,0-1.639-0.358-2.409-1.073c-0.769-0.715-1.153-1.573-1.153-2.574
			c0-0.96,0.344-1.844,1.031-2.65C71.275,63.732,72.309,63.004,73.69,62.352z M74.234,63.763l-0.035,0.02
			c-1.03,0.504-1.775,1.026-2.237,1.567s-0.693,1.153-0.693,1.839c0,0.584,0.209,1.046,0.627,1.385
			c0.418,0.339,0.879,0.509,1.382,0.509c1.071,0,2.225-0.453,3.466-1.359C75.625,66.325,74.789,65.005,74.234,63.763z
			 M75.216,61.637c1.111-0.564,1.925-1.077,2.443-1.537s0.777-0.945,0.777-1.456c0-0.242-0.085-0.453-0.254-0.635
			c-0.17-0.181-0.392-0.272-0.667-0.272c-0.76,0-1.374,0.206-1.843,0.619c-0.468,0.413-0.702,0.962-0.702,1.647
			C74.97,60.475,75.052,61.019,75.216,61.637z"/>
		<path fill="#6B0B0C" d="M84.156,70.049c0-0.235,0.029-0.484,0.087-0.746c0.199-0.913,0.432-1.808,0.698-2.684
			c0.266-0.877,0.507-1.748,0.724-2.615c0.216-0.866,0.396-1.597,0.539-2.191s0.271-1.105,0.382-1.531s0.213-0.794,0.307-1.103
			c0.093-0.309,0.196-0.615,0.307-0.917c0.07-0.182,0.147-0.369,0.232-0.564s0.177-0.374,0.276-0.539s0.203-0.299,0.312-0.403
			c0.108-0.104,0.22-0.156,0.338-0.156c0.239,0,0.423,0.045,0.548,0.136c0.126,0.091,0.203,0.173,0.232,0.247l0.079,0.413
			c0.088-0.007,0.202-0.025,0.342-0.055s0.282-0.062,0.426-0.096c0.143-0.034,0.276-0.067,0.399-0.101s0.216-0.064,0.281-0.091
			c0.386-0.121,0.743-0.225,1.07-0.312s0.639-0.16,0.934-0.217s0.578-0.099,0.846-0.126c0.269-0.027,0.541-0.04,0.816-0.04
			c0.269,0,0.488,0.017,0.658,0.051s0.304,0.079,0.404,0.136c0.099,0.057,0.168,0.124,0.206,0.201s0.057,0.16,0.057,0.247
			c0,0.081-0.02,0.166-0.057,0.257s-0.101,0.176-0.188,0.257c-0.088,0.081-0.202,0.151-0.342,0.212
			c-0.14,0.06-0.316,0.101-0.526,0.121c-0.053,0.013-0.174,0.039-0.364,0.076c-0.19,0.037-0.396,0.077-0.618,0.121
			c-0.222,0.044-0.433,0.086-0.632,0.126c-0.199,0.04-0.336,0.07-0.412,0.091h0.008c-0.035,0.007-0.119,0.032-0.25,0.075
			c-0.132,0.044-0.291,0.094-0.479,0.151s-0.391,0.123-0.61,0.197c-0.219,0.074-0.436,0.146-0.649,0.216
			c-0.213,0.07-0.411,0.138-0.592,0.201s-0.327,0.116-0.439,0.156c-0.357,0.161-0.636,0.375-0.838,0.64
			c-0.201,0.265-0.361,0.563-0.478,0.892c-0.023,0.06-0.059,0.163-0.105,0.307c-0.047,0.145-0.098,0.309-0.154,0.494
			c-0.055,0.185-0.115,0.381-0.18,0.589c-0.064,0.208-0.126,0.407-0.184,0.595c-0.059,0.188-0.11,0.359-0.154,0.514
			s-0.074,0.269-0.092,0.342c-0.018,0.067-0.029,0.128-0.035,0.181c-0.006,0.054-0.008,0.094-0.008,0.121
			c0,0.04,0.008,0.061,0.026,0.061c0.088,0,0.271-0.045,0.548-0.136c0.278-0.091,0.602-0.203,0.974-0.337
			c0.371-0.134,0.769-0.278,1.193-0.433s0.83-0.299,1.219-0.433s0.735-0.247,1.039-0.337c0.305-0.091,0.524-0.136,0.658-0.136
			c0.205,0,0.342,0.039,0.413,0.116c0.07,0.077,0.105,0.163,0.105,0.257c0,0.242-0.074,0.453-0.224,0.635
			c-0.149,0.181-0.334,0.339-0.557,0.473c-0.07,0.04-0.201,0.099-0.391,0.176s-0.394,0.156-0.614,0.237
			c-0.219,0.081-0.428,0.158-0.627,0.232c-0.199,0.074-0.342,0.127-0.43,0.161c-0.573,0.255-1.04,0.465-1.399,0.63
			c-0.36,0.165-0.651,0.299-0.873,0.403s-0.394,0.183-0.513,0.237c-0.12,0.054-0.231,0.099-0.334,0.136
			c-0.102,0.037-0.215,0.072-0.338,0.106c-0.123,0.034-0.292,0.081-0.509,0.141c-0.053,0.141-0.114,0.355-0.185,0.64
			c-0.07,0.285-0.137,0.581-0.201,0.886c-0.065,0.306-0.119,0.589-0.162,0.852c-0.044,0.262-0.066,0.443-0.066,0.544
			c0,0.121,0.014,0.21,0.044,0.267c0.029,0.057,0.065,0.095,0.106,0.115s0.082,0.031,0.123,0.031s0.073,0,0.096,0
			c0.281,0,0.619-0.047,1.013-0.141c0.395-0.094,0.786-0.218,1.172-0.372c0.368-0.148,0.69-0.309,0.965-0.484
			c0.275-0.175,0.533-0.338,0.776-0.488c0.243-0.151,0.48-0.279,0.711-0.383c0.231-0.104,0.484-0.159,0.759-0.166
			c0.059,0,0.127,0.007,0.206,0.02c0.08,0.014,0.154,0.039,0.224,0.076c0.07,0.037,0.127,0.086,0.171,0.146
			c0.044,0.061,0.06,0.138,0.048,0.232c-0.023,0.195-0.108,0.386-0.254,0.574c-0.147,0.188-0.331,0.37-0.553,0.544
			c-0.222,0.175-0.471,0.342-0.746,0.503c-0.275,0.162-0.556,0.314-0.842,0.458c-0.287,0.145-0.568,0.276-0.842,0.393
			c-0.275,0.117-0.521,0.22-0.737,0.307c-0.539,0.215-1.062,0.373-1.571,0.473c-0.509,0.101-0.965,0.151-1.369,0.151
			c-0.445,0-0.785-0.096-1.022-0.287C84.274,70.809,84.156,70.492,84.156,70.049z"/>
		<path fill="#6B0B0C" d="M95.035,69.011c0.047,0,0.089,0.007,0.127,0.02c0.038,0.014,0.08,0.029,0.127,0.046
			c0.047,0.016,0.1,0.032,0.158,0.045c0.059,0.014,0.135,0.02,0.228,0.02c0.275,0,0.58-0.033,0.917-0.1
			c0.336-0.067,0.654-0.155,0.952-0.262c0.299-0.108,0.554-0.23,0.767-0.368c0.214-0.138,0.335-0.28,0.364-0.428
			c0.018-0.08,0.026-0.151,0.026-0.211c0-0.114-0.048-0.224-0.145-0.327c-0.097-0.104-0.218-0.203-0.364-0.297
			c-0.147-0.094-0.304-0.181-0.474-0.262c-0.17-0.08-0.327-0.155-0.473-0.222l-0.299-0.141c-0.152-0.067-0.301-0.149-0.447-0.247
			c-0.146-0.097-0.282-0.209-0.408-0.337s-0.237-0.277-0.333-0.449c-0.096-0.171-0.168-0.368-0.215-0.589
			c-0.023-0.094-0.042-0.188-0.057-0.282c-0.015-0.094-0.022-0.195-0.022-0.302c0-0.174,0.052-0.374,0.154-0.599
			s0.239-0.448,0.412-0.67c0.173-0.222,0.368-0.433,0.588-0.635c0.219-0.201,0.449-0.369,0.689-0.504
			c0.175-0.141,0.345-0.269,0.509-0.383s0.329-0.212,0.496-0.292c0.167-0.081,0.336-0.144,0.509-0.192
			c0.172-0.047,0.355-0.07,0.548-0.07c0.175,0,0.365,0.01,0.57,0.03s0.392,0.067,0.562,0.141c0.17,0.074,0.311,0.183,0.425,0.328
			c0.114,0.144,0.171,0.337,0.171,0.579c0,0.074-0.009,0.171-0.027,0.292s-0.047,0.242-0.087,0.363
			c-0.041,0.121-0.091,0.225-0.149,0.312c-0.059,0.087-0.129,0.131-0.211,0.131c-0.135,0-0.246-0.03-0.333-0.091
			c-0.088-0.061-0.167-0.126-0.237-0.197c-0.07-0.07-0.143-0.136-0.219-0.196c-0.076-0.061-0.17-0.091-0.281-0.091
			c-0.134,0-0.291,0.029-0.469,0.086c-0.179,0.057-0.361,0.134-0.548,0.232c-0.188,0.097-0.37,0.21-0.548,0.337
			c-0.179,0.128-0.34,0.259-0.483,0.393c-0.143,0.135-0.259,0.267-0.347,0.398c-0.087,0.131-0.132,0.25-0.132,0.358
			c0,0.114,0.032,0.208,0.097,0.282s0.146,0.138,0.246,0.191c0.128,0.081,0.276,0.161,0.443,0.242
			c0.166,0.08,0.334,0.161,0.504,0.242c0.17,0.081,0.335,0.161,0.496,0.242c0.161,0.08,0.3,0.155,0.417,0.221
			c0.158,0.095,0.299,0.186,0.425,0.277s0.233,0.19,0.32,0.297c0.088,0.108,0.155,0.228,0.202,0.363
			c0.046,0.135,0.07,0.292,0.07,0.474c0,0.087-0.006,0.175-0.018,0.261c-0.012,0.087-0.029,0.188-0.052,0.303
			c-0.018,0.1-0.048,0.218-0.093,0.353c-0.044,0.134-0.091,0.267-0.14,0.398c-0.05,0.131-0.101,0.248-0.153,0.353
			c-0.053,0.104-0.097,0.173-0.132,0.206c-0.228,0.242-0.498,0.469-0.807,0.68c-0.31,0.212-0.633,0.396-0.97,0.554
			c-0.336,0.158-0.672,0.284-1.009,0.378c-0.336,0.095-0.645,0.141-0.926,0.141c-0.14,0-0.295-0.032-0.465-0.096
			s-0.326-0.147-0.469-0.252c-0.143-0.104-0.263-0.224-0.359-0.358s-0.145-0.269-0.145-0.403c0-0.067,0.018-0.142,0.052-0.226
			c0.035-0.084,0.079-0.162,0.132-0.232s0.11-0.131,0.171-0.181C94.925,69.037,94.982,69.011,95.035,69.011z"/>
		<path fill="#6B0B0C" d="M103.905,71.721c-0.147,0-0.276-0.032-0.391-0.095c-0.114-0.064-0.211-0.151-0.29-0.262
			s-0.14-0.237-0.185-0.378c-0.044-0.141-0.066-0.293-0.066-0.454c0-0.114,0.012-0.24,0.035-0.378s0.059-0.304,0.106-0.499
			c0.018-0.087,0.044-0.218,0.079-0.393c0.035-0.174,0.07-0.372,0.105-0.594s0.072-0.456,0.11-0.706
			c0.038-0.248,0.073-0.49,0.106-0.725c0.032-0.235,0.057-0.453,0.074-0.655c0.018-0.201,0.027-0.37,0.027-0.504
			c0-0.087-0.003-0.144-0.009-0.171c-0.012-0.1-0.074-0.17-0.188-0.206c-0.114-0.037-0.237-0.078-0.368-0.121
			c-0.132-0.044-0.252-0.114-0.36-0.211c-0.108-0.098-0.162-0.257-0.162-0.479c0-0.181,0.037-0.353,0.11-0.514
			s0.168-0.275,0.286-0.343c0.134-0.074,0.285-0.114,0.452-0.121c0.166-0.007,0.332-0.027,0.496-0.06
			c0.093-0.013,0.159-0.077,0.198-0.191c0.038-0.114,0.068-0.225,0.092-0.333c0.07-0.309,0.146-0.643,0.228-1.003
			c0.082-0.359,0.177-0.725,0.285-1.098s0.228-0.737,0.36-1.093c0.131-0.356,0.279-0.685,0.443-0.987
			c0.263-0.409,0.545-0.793,0.847-1.149c0.301-0.356,0.623-0.666,0.965-0.932c0.342-0.265,0.704-0.474,1.088-0.625
			c0.383-0.151,0.791-0.227,1.224-0.227c0.52,0,0.945,0.101,1.272,0.302c0.327,0.201,0.593,0.504,0.799,0.907
			c0.046,0.094,0.079,0.19,0.096,0.287s0.026,0.196,0.026,0.297c0,0.181-0.022,0.351-0.066,0.509
			c-0.044,0.158-0.104,0.295-0.18,0.413c-0.076,0.117-0.165,0.21-0.267,0.277s-0.209,0.101-0.32,0.101
			c-0.158,0-0.281-0.037-0.368-0.111c-0.088-0.074-0.16-0.164-0.215-0.272c-0.055-0.107-0.1-0.227-0.132-0.358
			c-0.032-0.131-0.067-0.25-0.105-0.358c-0.038-0.107-0.089-0.198-0.154-0.272c-0.065-0.074-0.155-0.111-0.272-0.111
			c-0.117,0-0.25,0.017-0.399,0.05c-0.149,0.034-0.291,0.091-0.426,0.171c-0.357,0.215-0.687,0.455-0.991,0.72
			s-0.587,0.603-0.847,1.013s-0.5,0.91-0.719,1.501s-0.423,1.32-0.61,2.186c-0.006,0.013-0.012,0.03-0.018,0.05
			s-0.009,0.034-0.009,0.04c0,0.013,0.023,0.02,0.07,0.02c0.175,0,0.344-0.012,0.505-0.036c0.16-0.023,0.32-0.05,0.478-0.081
			c0.158-0.03,0.318-0.057,0.478-0.081c0.161-0.023,0.332-0.035,0.514-0.035c0.134,0,0.26,0.007,0.377,0.02s0.218,0.042,0.303,0.085
			c0.085,0.044,0.152,0.106,0.202,0.186c0.05,0.081,0.074,0.188,0.074,0.322c0,0.081-0.01,0.18-0.031,0.297
			c-0.02,0.118-0.053,0.232-0.097,0.343s-0.1,0.21-0.167,0.297s-0.151,0.141-0.25,0.161c-0.175,0.04-0.357,0.073-0.544,0.096
			s-0.392,0.05-0.614,0.08s-0.468,0.074-0.737,0.131s-0.571,0.14-0.904,0.246c-0.106,0.457-0.186,0.909-0.241,1.355
			c-0.056,0.447-0.104,0.892-0.145,1.335s-0.087,0.888-0.136,1.335c-0.05,0.447-0.121,0.895-0.215,1.345
			c-0.017,0.087-0.048,0.174-0.092,0.261c-0.044,0.087-0.097,0.166-0.158,0.237s-0.132,0.128-0.211,0.171
			C104.076,71.699,103.992,71.721,103.905,71.721z"/>
		<path fill="#6B0B0C" d="M110.688,68.951c0.088-0.39,0.193-0.843,0.316-1.36s0.253-1.065,0.391-1.642s0.276-1.168,0.417-1.773
			c0.141-0.604,0.272-1.192,0.395-1.763c0.006-0.027,0.026-0.072,0.061-0.136s0.085-0.127,0.149-0.191
			c0.064-0.064,0.146-0.119,0.246-0.166c0.099-0.047,0.216-0.07,0.351-0.07c0.099,0,0.196,0.012,0.29,0.035
			c0.093,0.023,0.177,0.059,0.25,0.106s0.132,0.109,0.175,0.186c0.044,0.077,0.066,0.166,0.066,0.267c0,0.02,0,0.042,0,0.066
			c0,0.023-0.003,0.045-0.008,0.065l-0.246,1.068c-0.275,1.196-0.554,2.394-0.838,3.597c-0.284,1.202-0.56,2.408-0.829,3.617
			c-0.012,0.04-0.029,0.091-0.053,0.151c-0.023,0.061-0.056,0.121-0.097,0.182c-0.041,0.06-0.091,0.111-0.149,0.151
			c-0.059,0.04-0.128,0.061-0.211,0.061c-0.152,0-0.286-0.035-0.404-0.106c-0.117-0.07-0.216-0.16-0.298-0.267
			c-0.082-0.108-0.143-0.225-0.185-0.352c-0.041-0.128-0.061-0.248-0.061-0.363c0-0.033,0-0.063,0-0.091
			c0-0.027,0.006-0.057,0.018-0.091L110.688,68.951z M112.978,58.524c0.029-0.141,0.082-0.312,0.158-0.514
			c0.076-0.201,0.211-0.383,0.404-0.544c0.093-0.06,0.207-0.116,0.342-0.166c0.134-0.051,0.231-0.076,0.29-0.076
			c0.058,0,0.118,0.023,0.18,0.07c0.061,0.047,0.115,0.097,0.162,0.151c0.058,0.067,0.114,0.141,0.166,0.221
			c0.146,0.014,0.241,0.074,0.286,0.182c0.044,0.107,0.065,0.235,0.065,0.383c0,0.108-0.008,0.205-0.026,0.292
			c-0.018,0.087-0.032,0.158-0.044,0.212c-0.035,0.141-0.102,0.271-0.202,0.388c-0.099,0.117-0.213,0.218-0.342,0.302
			c-0.129,0.084-0.263,0.149-0.404,0.196s-0.263,0.071-0.368,0.071c-0.135,0-0.239-0.027-0.312-0.081
			c-0.073-0.053-0.166-0.168-0.276-0.342c-0.065-0.101-0.101-0.18-0.11-0.237s-0.013-0.106-0.013-0.146
			c0-0.074,0.004-0.14,0.013-0.197C112.956,58.633,112.966,58.578,112.978,58.524z"/>
		<path fill="#6B0B0C" d="M119.969,71.369c-0.363,0-0.611-0.091-0.746-0.272c-0.134-0.182-0.201-0.43-0.201-0.746
			c0-0.168,0.014-0.349,0.044-0.544s0.067-0.396,0.114-0.604c0.082-0.356,0.174-0.71,0.276-1.063
			c0.102-0.353,0.205-0.709,0.307-1.068s0.201-0.719,0.298-1.078c0.096-0.359,0.183-0.721,0.259-1.083
			c0.006-0.034,0.009-0.077,0.009-0.131c0-0.094-0.021-0.168-0.061-0.222c-0.041-0.054-0.102-0.081-0.185-0.081
			c-0.128,0-0.267,0.03-0.417,0.091c-0.149,0.06-0.273,0.127-0.373,0.201c-0.392,0.302-0.735,0.601-1.031,0.897
			c-0.295,0.295-0.566,0.604-0.812,0.927c-0.245,0.322-0.478,0.666-0.697,1.033c-0.22,0.366-0.449,0.767-0.689,1.204
			c-0.205,0.437-0.357,0.808-0.456,1.113c-0.1,0.306-0.192,0.553-0.276,0.741c-0.085,0.188-0.18,0.324-0.285,0.408
			c-0.106,0.083-0.263,0.126-0.474,0.126c-0.234,0-0.399-0.078-0.496-0.231c-0.096-0.155-0.145-0.356-0.145-0.604
			c0-0.195,0.026-0.413,0.079-0.655l2.895-13.318c0.018-0.081,0.047-0.168,0.088-0.262c0.04-0.094,0.097-0.181,0.166-0.262
			c0.07-0.081,0.154-0.148,0.25-0.201c0.096-0.054,0.206-0.081,0.329-0.081c0.094,0,0.194,0.005,0.299,0.015s0.2,0.03,0.285,0.06
			c0.085,0.03,0.155,0.079,0.211,0.146c0.055,0.067,0.083,0.155,0.083,0.262c0,0.027-0.006,0.082-0.018,0.166
			s-0.029,0.18-0.053,0.287c-0.316,1.458-0.653,2.976-1.013,4.554c-0.359,1.578-0.724,3.173-1.092,4.785
			c0.357-0.503,0.728-0.965,1.114-1.385c0.386-0.42,0.782-0.781,1.189-1.083s0.827-0.539,1.264-0.71
			c0.436-0.171,0.887-0.257,1.356-0.257c0.298,0,0.529,0.109,0.692,0.327c0.164,0.218,0.246,0.495,0.246,0.831
			c0,0.155-0.018,0.306-0.052,0.453c-0.07,0.309-0.149,0.613-0.237,0.912c-0.087,0.299-0.179,0.599-0.272,0.902
			c-0.093,0.302-0.187,0.609-0.28,0.921c-0.094,0.312-0.176,0.633-0.246,0.962c-0.094,0.423-0.158,0.824-0.193,1.204
			s-0.059,0.683-0.07,0.912c-0.012,0.194-0.038,0.383-0.079,0.564s-0.101,0.341-0.18,0.479s-0.179,0.248-0.298,0.333
			C120.275,71.326,120.132,71.369,119.969,71.369z"/>
		<path fill="#6B0B0C" d="M128.058,70.361c0-0.195,0.02-0.428,0.061-0.7s0.061-0.61,0.061-1.013
			c-0.193,0.161-0.406,0.353-0.64,0.574c-0.234,0.222-0.477,0.433-0.728,0.634c-0.252,0.201-0.501,0.371-0.75,0.509
			s-0.481,0.207-0.698,0.207c-0.175,0-0.342-0.03-0.5-0.091c-0.158-0.061-0.293-0.141-0.404-0.242
			c-0.31-0.282-0.534-0.564-0.671-0.846c-0.138-0.282-0.206-0.611-0.206-0.987c0-0.168,0.013-0.342,0.039-0.524
			c0.026-0.181,0.066-0.39,0.119-0.625c0.222-1.062,0.604-2.043,1.145-2.947c0.541-0.903,1.212-1.674,2.013-2.312
			c0.31-0.248,0.619-0.408,0.93-0.479c0.31-0.07,0.617-0.106,0.921-0.106c0.134,0,0.285,0.01,0.452,0.03
			c0.166,0.02,0.317,0.04,0.452,0.061c0.134-0.034,0.244-0.057,0.329-0.07s0.174-0.02,0.268-0.02c0.175,0,0.321,0.027,0.438,0.081
			s0.211,0.126,0.281,0.216s0.121,0.195,0.153,0.312c0.033,0.118,0.048,0.24,0.048,0.368c0,0.175-0.023,0.341-0.07,0.499
			c-0.047,0.158-0.094,0.317-0.141,0.479l-1.158,5.309c-0.023,0.289-0.044,0.554-0.061,0.796s-0.053,0.467-0.105,0.675
			c-0.018,0.061-0.04,0.136-0.066,0.227c-0.027,0.091-0.069,0.178-0.127,0.262c-0.059,0.083-0.132,0.156-0.22,0.216
			c-0.087,0.06-0.201,0.091-0.342,0.091c-0.182,0-0.327-0.014-0.434-0.04c-0.109-0.027-0.192-0.065-0.25-0.116
			c-0.059-0.05-0.096-0.111-0.114-0.181C128.066,70.537,128.058,70.455,128.058,70.361z M125.145,67.319
			c-0.023,0.094-0.048,0.228-0.075,0.403c-0.026,0.175-0.039,0.349-0.039,0.524c0,0.181,0.023,0.344,0.07,0.488
			c0.047,0.145,0.149,0.217,0.307,0.217c0.246,0,0.475-0.063,0.689-0.186c0.213-0.125,0.413-0.274,0.601-0.449
			c0.252-0.235,0.507-0.499,0.768-0.791c0.26-0.292,0.505-0.599,0.737-0.921c0.231-0.323,0.436-0.653,0.614-0.992
			c0.178-0.34,0.308-0.677,0.39-1.013c0.047-0.195,0.087-0.42,0.119-0.675s0.048-0.483,0.048-0.685c0-0.087-0.018-0.173-0.053-0.257
			c-0.035-0.084-0.102-0.126-0.201-0.126c-0.287,0-0.574,0.064-0.864,0.191c-0.29,0.127-0.569,0.299-0.838,0.514
			s-0.526,0.468-0.768,0.761c-0.243,0.292-0.464,0.604-0.662,0.937c-0.199,0.333-0.37,0.675-0.513,1.028
			C125.33,66.639,125.221,66.983,125.145,67.319z"/>
		<path fill="#6B0B0C" d="M132.716,69.011c0.047,0,0.089,0.007,0.128,0.02c0.038,0.014,0.08,0.029,0.127,0.046
			c0.046,0.016,0.099,0.032,0.158,0.045c0.058,0.014,0.134,0.02,0.228,0.02c0.275,0,0.58-0.033,0.917-0.1
			c0.336-0.067,0.653-0.155,0.952-0.262c0.298-0.108,0.554-0.23,0.767-0.368c0.213-0.138,0.334-0.28,0.364-0.428
			c0.018-0.08,0.027-0.151,0.027-0.211c0-0.114-0.048-0.224-0.145-0.327c-0.097-0.104-0.218-0.203-0.365-0.297
			s-0.304-0.181-0.473-0.262c-0.17-0.08-0.328-0.155-0.474-0.222l-0.298-0.141c-0.153-0.067-0.301-0.149-0.448-0.247
			c-0.146-0.097-0.282-0.209-0.408-0.337s-0.237-0.277-0.334-0.449c-0.097-0.171-0.168-0.368-0.215-0.589
			c-0.023-0.094-0.042-0.188-0.057-0.282c-0.014-0.094-0.022-0.195-0.022-0.302c0-0.174,0.051-0.374,0.153-0.599
			s0.24-0.448,0.413-0.67c0.172-0.222,0.368-0.433,0.587-0.635c0.219-0.201,0.449-0.369,0.689-0.504
			c0.175-0.141,0.346-0.269,0.509-0.383c0.164-0.114,0.329-0.212,0.496-0.292c0.167-0.081,0.336-0.144,0.509-0.192
			c0.173-0.047,0.355-0.07,0.548-0.07c0.175,0,0.366,0.01,0.571,0.03s0.392,0.067,0.561,0.141c0.17,0.074,0.312,0.183,0.426,0.328
			c0.114,0.144,0.171,0.337,0.171,0.579c0,0.074-0.008,0.171-0.026,0.292s-0.047,0.242-0.088,0.363s-0.091,0.225-0.149,0.312
			s-0.128,0.131-0.211,0.131c-0.134,0-0.245-0.03-0.333-0.091c-0.087-0.061-0.167-0.126-0.237-0.197
			c-0.07-0.07-0.143-0.136-0.22-0.196c-0.076-0.061-0.17-0.091-0.28-0.091c-0.135,0-0.291,0.029-0.469,0.086
			c-0.179,0.057-0.361,0.134-0.548,0.232c-0.187,0.097-0.37,0.21-0.548,0.337c-0.179,0.128-0.339,0.259-0.482,0.393
			c-0.143,0.135-0.259,0.267-0.346,0.398c-0.088,0.131-0.132,0.25-0.132,0.358c0,0.114,0.032,0.208,0.096,0.282
			s0.146,0.138,0.246,0.191c0.128,0.081,0.276,0.161,0.443,0.242c0.167,0.08,0.335,0.161,0.505,0.242
			c0.17,0.081,0.334,0.161,0.496,0.242c0.161,0.08,0.299,0.155,0.417,0.221c0.158,0.095,0.3,0.186,0.426,0.277
			c0.125,0.091,0.232,0.19,0.32,0.297c0.087,0.108,0.155,0.228,0.201,0.363c0.047,0.135,0.07,0.292,0.07,0.474
			c0,0.087-0.006,0.175-0.018,0.261c-0.012,0.087-0.029,0.188-0.053,0.303c-0.018,0.1-0.048,0.218-0.092,0.353
			c-0.044,0.134-0.091,0.267-0.14,0.398c-0.05,0.131-0.101,0.248-0.154,0.353c-0.053,0.104-0.097,0.173-0.132,0.206
			c-0.228,0.242-0.497,0.469-0.807,0.68c-0.31,0.212-0.633,0.396-0.969,0.554s-0.673,0.284-1.009,0.378
			c-0.336,0.095-0.645,0.141-0.925,0.141c-0.141,0-0.295-0.032-0.465-0.096s-0.327-0.147-0.469-0.252
			c-0.143-0.104-0.263-0.224-0.36-0.358c-0.096-0.134-0.145-0.269-0.145-0.403c0-0.067,0.018-0.142,0.053-0.226
			c0.035-0.084,0.079-0.162,0.132-0.232c0.052-0.07,0.11-0.131,0.171-0.181C132.606,69.037,132.664,69.011,132.716,69.011z"/>
	</g>
</g>
</svg>
