<?xml version="1.0" encoding="utf-8"?>
<!-- Generator: Adobe Illustrator 17.0.0, SVG Export Plug-In . SVG Version: 6.00 Build 0)  -->
<!DOCTYPE svg PUBLIC "-//W3C//DTD SVG 1.1//EN" "http://www.w3.org/Graphics/SVG/1.1/DTD/svg11.dtd">
<svg version="1.1" id="Layer_1" xmlns="http://www.w3.org/2000/svg" xmlns:xlink="http://www.w3.org/1999/xlink" x="0px" y="0px"
	 width="150px" height="100px" viewBox="0 0 150 100" enable-background="new 0 0 150 100" xml:space="preserve">
<g>
	<g>
		<path fill="#FFC20E" d="M78.255,4.081c0,0-6.919,5.465-8.043,8.114c-0.4,0.941-0.236,3.973-0.236,3.973L59.014,27.129l0.848,0.848
			l10.92-10.92c0,0,3.146-0.15,4.061-0.615c2.54-1.291,8.022-8.099,8.022-8.099L82.399,6.87l-6.052,6.263l-0.82-0.82l6.018-5.803
			l-0.057-0.532l-0.543-0.068l-5.965,5.986l-0.404-0.432l5.894-5.894l0.093-0.492l-0.656-0.071l-5.796,5.796l-0.529-0.585
			l6.119-6.026L78.255,4.081z"/>
		<path fill="#FFC20E" d="M90.699,15.116c0.361-0.597,2.053-3.611-2.547-1.901c-6.656,2.475-9.465,7.222-11.783,9.769
			c-2.319,2.547-2.243,4.371-2.851,4.979c-0.608,0.608-4.105,3.725-4.105,3.725l1.748,2.357
			C71.162,34.045,89.825,16.56,90.699,15.116z"/>
		<path fill="#FFC20E" d="M94.196,22.072c1.587-0.171,4.761,0.655,2.775,5.892c-2.509,6.614-9.388,7.602-10.605,7.182l-6.576,7.832
			l-1.558-1.558l7.583-7.583c0,0-1.235-3.334,1.121-6.709C89.293,23.752,92.041,22.303,94.196,22.072z"/>
	</g>
	<path fill="#FFC20E" d="M59.428,86.712L26.504,53.788c-0.078-0.078-0.078-0.205,0-0.283l32.924-32.924
		c0.078-0.078,0.205-0.078,0.283,0l32.924,32.924c0.078,0.078,0.078,0.205,0,0.283L59.71,86.712
		C59.632,86.79,59.506,86.79,59.428,86.712z"/>
	<path fill="#FFC20E" d="M31.559,69.24c9.187,9.187,20.501,20.501,25.921,25.921c0.131,0.131,0.337,0.31,0.625,0.461
		c0.375,0.197,0.789,0.296,1.203,0.296c0.662,0,1.324-0.252,1.829-0.757l22.573-22.573l0.203-1.418l-1.064-0.302L59.848,93.871
		c-0.194,0.194-0.421,0.223-0.538,0.223c-0.118,0-0.344-0.029-0.538-0.223l-25.86-26.469l-1.346,0.396L31.559,69.24z"/>
	<path fill="#FFC20E" d="M22.637,48.427l1.346,0.396L59.058,13.14c0.194-0.194,0.421-0.223,0.538-0.223
		c0.118,0,0.344,0.029,0.538,0.223l5.31,5.31l1.064-0.302l-0.203-1.418l-4.88-4.88c-0.505-0.505-1.167-0.757-1.829-0.757
		c-0.414,0-0.828,0.099-1.203,0.296c-0.288,0.151-0.494,0.33-0.625,0.461c-5.42,5.42-25.949,25.949-35.136,35.136L22.637,48.427z"/>
	<polygon fill="#FFC20E" points="68.403,22.256 71.514,25.66 72.877,25.439 72.656,23.928 69.693,20.965 68.403,20.965 	"/>
	<polygon fill="#FFC20E" points="76.95,30.766 81.416,35.524 82.778,35.304 82.557,33.793 78.241,29.476 76.95,29.476 	"/>
	<polygon fill="#FFC20E" points="85.439,39.255 92.008,46.116 93.371,45.896 93.15,44.385 86.73,37.965 85.439,37.965 	"/>
	<path fill="#FFC20E" d="M36.011,68.293c9.187,9.187,16.037,16.008,21.457,21.429c0.131,0.131,0.337,0.31,0.625,0.461
		c0.375,0.197,0.789,0.296,1.203,0.296c0.662,0,1.324-0.252,1.829-0.757l20.794-20.794l0.216-0.886l-0.468-0.226L60.443,89.039
		c-0.194,0.194-0.684,0.482-1.147,0.482c-0.49,0-0.953-0.288-1.147-0.482L36.754,67.064l-0.86,0.273L36.011,68.293z"/>
	<polygon fill="#FFC20E" points="28.1,48.555 57,19.655 57.216,18.769 56.748,18.543 27.418,47.873 27.324,48.495 	"/>
	<rect x="49.308" y="65.128" fill="#FFC20E" width="60.611" height="7.758"/>
	<g>
		<path fill="#712014" d="M49.363,71.659h-0.849l-0.692-1.832h-1.13v1.832h-0.804v-4.459h1.934c0.538,0,0.933,0.121,1.186,0.364
			c0.253,0.243,0.379,0.557,0.379,0.942c0,0.573-0.268,0.967-0.804,1.182L49.363,71.659z M46.691,69.183h1
			c0.29,0,0.505-0.061,0.647-0.183c0.142-0.122,0.212-0.29,0.212-0.503c0-0.196-0.07-0.354-0.209-0.475
			c-0.139-0.121-0.334-0.181-0.585-0.181h-1.065V69.183z"/>
		<path fill="#712014" d="M53.084,71.659h-2.897v-4.459h2.868v0.663H50.99v1.209h1.659v0.647H50.99v1.248h2.094V71.659z"/>
		<path fill="#712014" d="M53.309,70.585l0.781-0.167c0.094,0.442,0.453,0.663,1.078,0.663c0.285,0,0.505-0.057,0.658-0.17
			c0.154-0.113,0.23-0.254,0.23-0.421c0-0.122-0.035-0.235-0.105-0.338c-0.07-0.103-0.219-0.185-0.447-0.243l-0.853-0.222
			c-0.292-0.076-0.507-0.163-0.647-0.26c-0.139-0.097-0.251-0.234-0.335-0.41c-0.084-0.176-0.126-0.365-0.126-0.565
			c0-0.399,0.148-0.718,0.444-0.959c0.296-0.241,0.675-0.361,1.137-0.361c0.383,0,0.726,0.084,1.027,0.252
			c0.302,0.168,0.494,0.405,0.577,0.712l-0.764,0.189c-0.118-0.338-0.392-0.506-0.823-0.506c-0.25,0-0.442,0.052-0.573,0.157
			c-0.132,0.105-0.198,0.237-0.198,0.399c0,0.255,0.207,0.433,0.621,0.536l0.758,0.189c0.459,0.115,0.768,0.286,0.924,0.511
			c0.157,0.225,0.235,0.474,0.235,0.746c0,0.438-0.165,0.782-0.495,1.034c-0.33,0.252-0.757,0.377-1.282,0.377
			c-0.442,0-0.829-0.093-1.161-0.278C53.638,71.265,53.418,70.977,53.309,70.585z"/>
		<path fill="#712014" d="M59.156,71.659h-0.862v-3.77h-1.186v-0.689h3.234v0.689h-1.186V71.659z"/>
		<path fill="#712014" d="M63.984,71.659h-0.859l-0.356-1.062h-1.715l-0.35,1.062h-0.686l1.48-4.459h0.99L63.984,71.659z
			 M62.553,69.954l-0.65-1.989l-0.65,1.989H62.553z"/>
		<path fill="#712014" d="M67.44,67.201v2.865c0,0.388-0.044,0.686-0.131,0.895c-0.087,0.209-0.255,0.389-0.505,0.541
			c-0.249,0.151-0.554,0.227-0.913,0.227c-0.364,0-0.663-0.065-0.897-0.196c-0.234-0.131-0.402-0.31-0.505-0.537
			c-0.102-0.228-0.154-0.518-0.154-0.871v-2.924h0.82v2.865c0,0.392,0.082,0.65,0.247,0.773c0.164,0.123,0.355,0.185,0.573,0.185
			c0.25,0,0.451-0.066,0.601-0.198c0.15-0.132,0.225-0.385,0.225-0.759v-2.865H67.44z"/>
		<path fill="#712014" d="M71.833,71.659h-0.849l-0.692-1.832h-1.13v1.832h-0.804v-4.459h1.934c0.538,0,0.933,0.121,1.186,0.364
			c0.253,0.243,0.379,0.557,0.379,0.942c0,0.573-0.268,0.967-0.804,1.182L71.833,71.659z M69.161,69.183h1
			c0.29,0,0.505-0.061,0.647-0.183c0.141-0.122,0.212-0.29,0.212-0.503c0-0.196-0.07-0.354-0.209-0.475
			c-0.139-0.121-0.334-0.181-0.585-0.181h-1.065V69.183z"/>
		<path fill="#712014" d="M76.155,71.659h-0.859l-0.356-1.062h-1.715l-0.35,1.062h-0.686l1.48-4.459h0.99L76.155,71.659z
			 M74.724,69.954l-0.65-1.989l-0.65,1.989H74.724z"/>
		<path fill="#712014" d="M80.058,71.659h-0.781l-1.692-2.848c-0.026-0.044-0.069-0.114-0.127-0.212
			c-0.026-0.044-0.066-0.112-0.121-0.206v3.266h-0.647v-4.459h0.888l1.561,2.626c0.013,0.022,0.108,0.182,0.284,0.48v-3.106h0.634
			V71.659z"/>
		<path fill="#712014" d="M82.596,71.659h-0.862v-3.77h-1.186v-0.689h3.234v0.689h-1.186V71.659z"/>
		<path fill="#712014" d="M87.169,71.659h-2.897v-4.459h2.868v0.663h-2.064v1.209h1.659v0.647h-1.659v1.248h2.094V71.659z"/>
		<path fill="#712014" d="M93.033,71.659h-0.859l-0.356-1.062h-1.715l-0.35,1.062h-0.686l1.48-4.459h0.99L93.033,71.659z
			 M91.602,69.954l-0.65-1.989l-0.65,1.989H91.602z M91.896,65.78l0.216,0.49l-1.362,0.575l-0.137-0.35L91.896,65.78z"/>
		<path fill="#712014" d="M97.044,71.659h-0.849l-0.692-1.832h-1.13v1.832h-0.804v-4.459h1.934c0.538,0,0.933,0.121,1.186,0.364
			c0.253,0.243,0.379,0.557,0.379,0.942c0,0.573-0.268,0.967-0.804,1.182L97.044,71.659z M94.372,69.183h1
			c0.29,0,0.505-0.061,0.647-0.183c0.141-0.122,0.212-0.29,0.212-0.503c0-0.196-0.07-0.354-0.209-0.475
			c-0.139-0.121-0.334-0.181-0.585-0.181h-1.065V69.183z"/>
		<path fill="#712014" d="M101.366,71.659h-0.859l-0.356-1.062h-1.715l-0.35,1.062H97.4l1.48-4.459h0.99L101.366,71.659z
			 M99.935,69.954l-0.65-1.989l-0.65,1.989H99.935z"/>
		<path fill="#712014" d="M101.901,71.659v-4.459h1.738c0.294,0,0.538,0.031,0.732,0.091s0.361,0.188,0.503,0.382
			c0.142,0.194,0.212,0.421,0.212,0.683c0,0.246-0.072,0.46-0.216,0.642c-0.144,0.182-0.342,0.298-0.594,0.348
			c0.314,0.054,0.551,0.182,0.712,0.382c0.161,0.2,0.242,0.438,0.242,0.712c0,0.344-0.113,0.633-0.338,0.867
			c-0.225,0.234-0.572,0.351-1.04,0.351H101.901z M102.662,69.072h0.98c0.2,0,0.359-0.06,0.475-0.18
			c0.116-0.12,0.175-0.272,0.175-0.457c0-0.205-0.066-0.355-0.199-0.452c-0.133-0.097-0.289-0.145-0.467-0.145h-0.964V69.072z
			 M102.662,70.99h1.039c0.22,0,0.394-0.058,0.521-0.173c0.127-0.115,0.191-0.271,0.191-0.467c0-0.187-0.065-0.341-0.194-0.461
			c-0.13-0.12-0.301-0.18-0.514-0.18h-1.042V70.99z"/>
		<path fill="#712014" d="M108.862,71.659h-2.897v-4.459h2.868v0.663h-2.064v1.209h1.659v0.647h-1.659v1.248h2.094V71.659z"/>
	</g>
	<g>
		<path fill="#712014" d="M53.378,39.223c1.924,0.356,2.906,1.52,2.946,3.492c-0.143,0.634-0.444,1.283-0.903,1.948
			c-1.259,1.489-3.001,2.233-5.226,2.233c-0.95-0.032-1.901-0.143-2.851-0.333c-1.077-0.19-2.993-0.665-5.749-1.425
			c-0.689-0.127-1.433-0.206-2.233-0.238c-1.6,0-2.677,0.602-3.231,1.806l-0.095,0.333v0.57c0,0.459,0.38,0.95,1.14,1.473
			c0.578,0.222,1.085,0.333,1.52,0.333h0.76c1.56-0.063,2.478-0.507,2.756-1.33l0.048-0.238v-0.143l-0.048-0.333h0.143l0.048,0.855
			c0,0.855-0.744,1.41-2.233,1.663l-0.903,0.048H39.03c-1.584,0-2.613-0.728-3.088-2.186l-0.048-0.38v-0.095
			c0-0.998,0.554-1.758,1.663-2.281c0.633-0.253,1.219-0.38,1.758-0.38h0.808c1.045,0,3.231,0.428,6.557,1.283
			c1.259,0.253,2.439,0.38,3.54,0.38c1.592,0,3.009-0.317,4.252-0.95c0.958-0.832,1.481-1.687,1.568-2.566
			c-0.008-1.829-0.942-2.87-2.803-3.124c-1.964,0.055-3.247,0.606-3.849,1.651c-0.095,0.206-0.143,0.428-0.143,0.665
			c0,0.618,0.317,1.03,0.95,1.235c0.293,0.095,0.562,0.143,0.808,0.143c0.99,0,1.702-0.301,2.138-0.903v-0.048h0.095v0.143
			c0,0.539-0.491,0.935-1.473,1.188l-0.665,0.095c-0.871,0-1.52-0.475-1.948-1.425l-0.048-0.475
			C49.102,40.158,50.528,39.263,53.378,39.223z M42.843,53.346l0.119,0.107h7.412v-3.801c0-1.37-0.519-2.055-1.556-2.055
			c-0.634,0-0.95-0.241-0.95-0.725v-0.226c0.071-0.372,0.257-0.558,0.558-0.558h7.364c0.301,0.135,0.451,0.356,0.451,0.665
			c0,0.562-0.412,0.843-1.235,0.843c-0.705,0.174-1.057,0.376-1.057,0.606c-0.158,0-0.249,0.634-0.273,1.901v9.372
			c0,1.307,0.333,1.96,0.998,1.96c1.077,0.119,1.615,0.341,1.615,0.665v0.333c-0.055,0.412-0.257,0.618-0.606,0.618h-3.385
			c-1.22-0.507-1.861-1.429-1.924-2.768v-4.989l-0.107-0.107h-7.305l-0.119,0.107v3.742c0,1.56,0.241,2.34,0.725,2.34
			c1.227,0.174,1.841,0.36,1.841,0.558l0.059,0.273v0.178c0,0.444-0.242,0.665-0.725,0.665h-7.258c-0.285,0-0.451-0.261-0.499-0.784
			c0-0.451,0.428-0.713,1.283-0.784c0.815-0.079,1.223-0.356,1.223-0.831l0.059-0.725v-10.5h0.012
			c-0.04-1.148-0.372-1.722-0.998-1.722c-1.077-0.119-1.615-0.34-1.615-0.665v-0.333c0.055-0.412,0.257-0.618,0.606-0.618h3.385
			c1.219,0.507,1.853,1.425,1.9,2.756V53.346z M56.253,55.472c-1.045,0.024-2.051-0.087-3.017-0.333v-2.233
			c0.53,0.855,1.053,1.425,1.568,1.71c0.404,0.254,0.958,0.38,1.663,0.38c0.855,0,1.441-0.317,1.758-0.95
			c0.048-0.214,0.063-0.435,0.048-0.665c-0.111-0.499-0.412-0.752-0.903-0.76c-0.436,0.024-0.677,0.289-0.725,0.796
			c0.04,0.396,0.233,0.669,0.582,0.82c-0.19,0.063-0.444,0.095-0.76,0.095c-0.729-0.166-1.093-0.705-1.093-1.615
			c-0.887-0.166-1.33-0.562-1.33-1.188c0.348,0.222,0.649,0.333,0.903,0.333c0.927-0.245,1.623-0.372,2.091-0.38
			c0.895,0.048,1.465,0.491,1.71,1.33c0.238,0.998-0.008,1.726-0.736,2.186C57.512,55.298,56.926,55.457,56.253,55.472z"/>
		<path fill="#712014" d="M62.311,51.481h0.059c2.423,0,3.939,1.303,4.549,3.908l0.048,0.855c-0.063,0.499-0.257,0.748-0.582,0.748
			h-6.474c0,2.027,0.693,3.294,2.079,3.801c0.325,0.143,0.772,0.214,1.342,0.214c1.172,0,2.079-0.253,2.72-0.76l0.226-0.048
			c0.301,0,0.53,0.249,0.689,0.748c-0.752,1.425-2.162,2.138-4.229,2.138h-0.107c-2.669,0-4.45-1.105-5.345-3.314
			c-0.285-0.863-0.428-1.702-0.428-2.518c0-2.36,1.089-4.141,3.267-5.345C60.925,51.624,61.654,51.481,62.311,51.481z
			 M60.018,55.496v0.048h4.003v-0.475c-0.158-1.425-0.764-2.138-1.817-2.138c-1.053,0-1.746,0.586-2.079,1.758L60.018,55.496z"/>
		<path fill="#712014" d="M72.336,60.057c0.103,1.948-0.63,2.978-2.197,3.088l-1.96-0.012c-0.285-0.119-0.428-0.352-0.428-0.701
			c0-0.443,0.447-0.713,1.342-0.808c0.293-0.19,0.44-0.443,0.44-0.76V50.222c-0.016-1.338-0.289-2.007-0.82-2.007
			c-0.586-0.048-0.879-0.241-0.879-0.582v-0.38c0.024-0.301,0.333-0.495,0.927-0.582l2.993-0.428
			c0.356,0.079,0.546,0.257,0.57,0.535L72.336,60.057z"/>
		<path fill="#712014" d="M73.88,51.624l2.019-0.012c1.093,0.135,1.774,0.701,2.043,1.699l1.615,5.369l2.708-6.842
			c0.15-0.143,0.333-0.214,0.546-0.214c0.38,0,0.693,0.459,0.938,1.378l2.292,5.5l1.295-4.727v-0.392
			c0-0.127-0.368-0.253-1.105-0.38c-0.214-0.174-0.321-0.396-0.321-0.665V52.23c0.071-0.404,0.253-0.606,0.546-0.606h0.107h3.92
			c0.333,0.166,0.499,0.388,0.499,0.665c0,0.546-0.333,0.82-0.998,0.82c-0.467,0.214-0.836,0.649-1.105,1.307l-2.756,8.73
			c-0.151,0.15-0.333,0.226-0.546,0.226c-0.467,0-0.764-0.368-0.891-1.105l-2.483-6.177l-2.649,6.676
			c-0.143,0.404-0.36,0.606-0.653,0.606h-0.059c-0.483,0-0.851-0.57-1.105-1.71l-2.589-7.555c-0.341-0.697-0.82-1.045-1.437-1.045
			c-0.182,0-0.329-0.241-0.44-0.725C73.274,51.862,73.476,51.624,73.88,51.624z"/>
		<path fill="#712014" d="M100.428,63.086h-0.665c-0.689,0-1.303-0.356-1.841-1.069c-0.903,0.713-1.992,1.069-3.267,1.069h-0.048
			c-1.394,0-2.34-0.55-2.839-1.651c-0.143-0.491-0.214-0.938-0.214-1.342c0-2.019,1.445-3.251,4.336-3.694l1.758-0.107v-0.855
			c0-1.671-0.606-2.506-1.817-2.506c-0.927,0.079-1.39,0.344-1.39,0.796v0.107l0.321,0.962c0,0.618-0.444,1.03-1.33,1.235h-0.166
			c-0.626,0-1.069-0.285-1.33-0.855l-0.059-0.38v-0.535c0-0.863,0.697-1.647,2.091-2.352c0.697-0.285,1.461-0.428,2.292-0.428
			c1.877,0,3.144,0.641,3.801,1.924c0.245,0.515,0.368,1.085,0.368,1.71V63.086z M94.441,59.82c0.063,0.895,0.42,1.342,1.069,1.342
			c0.919,0,1.631-0.285,2.138-0.855v-2.625C95.51,57.975,94.441,58.688,94.441,59.82z"/>
		<path fill="#712014" d="M105.464,59.998c0.103,1.948-0.63,2.978-2.197,3.088l-1.96-0.012c-0.285-0.119-0.428-0.352-0.428-0.701
			c0-0.443,0.447-0.713,1.342-0.808c0.293-0.19,0.44-0.443,0.44-0.76V55.14c0-1.117-0.38-1.675-1.14-1.675
			c-0.467,0-0.701-0.198-0.701-0.594v-0.107c0-0.467,0.305-0.701,0.915-0.701l3.076-0.428c0.435,0.095,0.653,0.309,0.653,0.641
			v0.546c1.022-0.903,2.083-1.354,3.183-1.354h0.107c1.845,0,3.033,0.883,3.563,2.649c0.111,0.586,0.166,1.109,0.166,1.568
			l-0.012,7.412h-1.473c-0.919,0.079-1.37-0.63-1.354-2.126v-4.751c0.04-1.164-0.15-1.936-0.57-2.316
			c-0.222-0.253-0.543-0.38-0.962-0.38c-1.275,0-2.107,0.594-2.494,1.782c-0.103,0.586-0.154,1.394-0.154,2.423V59.998z"/>
		<path fill="#712014" d="M121.951,58.311c0.309,2.898-0.911,5.682-3.658,8.35c-1.006,0.816-2.099,1.128-3.278,0.938
			c-0.863-0.111-1.564-0.451-2.102-1.022c-0.578-0.665-0.855-1.36-0.831-2.085c0.024-0.725,0.341-1.364,0.95-1.918
			c0.546-0.459,1.18-0.641,1.9-0.546c2.13,0.285,3.417,0.242,3.86-0.131c0.198,0.824,0.016,1.473-0.546,1.948
			c-0.467,0.388-0.994,0.622-1.58,0.701c-0.309,0.554-0.638,0.974-0.986,1.259c-0.824,0.301-1.481,0.111-1.972-0.57
			c0.301-0.016,0.614-0.135,0.938-0.356c0.435-0.372,0.439-0.812,0.012-1.318c-0.277-0.333-0.725-0.329-1.342,0.012
			c-0.855,0.713-0.927,1.497-0.214,2.352c0.618,0.728,1.283,1.12,1.996,1.176c1.069,0.016,1.885-0.349,2.447-1.093
			c0.483-0.317,1.033-1.049,1.651-2.197c0.618-1.148,0.772-2.34,0.463-3.575L121.951,58.311z M119.718,61.756
			c0.04-0.103,0.063-0.186,0.071-0.249l-4.193-8.101c-0.459-0.404-0.935-0.606-1.425-0.606c-0.143-0.15-0.214-0.289-0.214-0.416
			v-0.261c0.048-0.333,0.233-0.499,0.558-0.499l3.112,0.012c0.443,0.024,0.919,0.562,1.425,1.615l2.399,5.131l2.352-5.084
			c0-0.19-0.436-0.376-1.307-0.558c-0.127-0.127-0.218-0.293-0.273-0.499c0-0.412,0.241-0.618,0.725-0.618h3.908
			c0.277,0,0.447,0.166,0.511,0.499v0.214c0,0.325-0.376,0.542-1.128,0.653c-0.277,0.198-1.144,1.861-2.601,4.989
			c-0.721,1.41-1.374,2.669-1.96,3.777H119.718z"/>
	</g>
</g>
</svg>
