<?xml version="1.0" encoding="utf-8"?>
<!-- Generator: Adobe Illustrator 17.0.0, SVG Export Plug-In . SVG Version: 6.00 Build 0)  -->
<!DOCTYPE svg PUBLIC "-//W3C//DTD SVG 1.1//EN" "http://www.w3.org/Graphics/SVG/1.1/DTD/svg11.dtd">
<svg version="1.1" id="Layer_1" xmlns="http://www.w3.org/2000/svg" xmlns:xlink="http://www.w3.org/1999/xlink" x="0px" y="0px"
	 width="150px" height="100px" viewBox="0 0 150 100" enable-background="new 0 0 150 100" xml:space="preserve">
<g>
	<g>
		<g>
			<path fill="#FFFFFF" d="M34.535,91.687c0.315,0.193,0.776,0.355,1.261,0.355c0.718,0,1.139-0.38,1.139-0.929
				c0-0.51-0.291-0.801-1.026-1.083c-0.888-0.315-1.438-0.776-1.438-1.544c0-0.848,0.703-1.478,1.761-1.478
				c0.557,0,0.961,0.129,1.203,0.267l-0.194,0.574c-0.178-0.097-0.541-0.259-1.034-0.259c-0.743,0-1.026,0.444-1.026,0.816
				c0,0.51,0.331,0.759,1.082,1.05c0.921,0.355,1.39,0.799,1.39,1.599c0,0.841-0.623,1.567-1.907,1.567
				c-0.525,0-1.099-0.153-1.389-0.346L34.535,91.687z"/>
			<path fill="#FFFFFF" d="M39.032,90.717c0.016,0.961,0.63,1.358,1.341,1.358c0.509,0,0.816-0.089,1.082-0.202l0.121,0.508
				c-0.25,0.113-0.678,0.242-1.3,0.242c-1.204,0-1.923-0.792-1.923-1.97c0-1.18,0.695-2.11,1.834-2.11
				c1.276,0,1.616,1.123,1.616,1.842c0,0.146-0.016,0.259-0.025,0.331L39.032,90.717L39.032,90.717z M41.116,90.209
				c0.008-0.453-0.186-1.156-0.985-1.156c-0.719,0-1.034,0.663-1.091,1.156H41.116z"/>
			<path fill="#FFFFFF" d="M42.681,89.852c0-0.461-0.008-0.856-0.033-1.22h0.623l0.024,0.768h0.033
				c0.178-0.526,0.605-0.857,1.082-0.857c0.081,0,0.137,0.009,0.202,0.025v0.67c-0.073-0.016-0.146-0.024-0.242-0.024
				c-0.501,0-0.857,0.379-0.954,0.912c-0.016,0.097-0.032,0.211-0.032,0.331v2.085h-0.703V89.852z"/>
			<path fill="#FFFFFF" d="M45.798,88.632l0.767,2.197c0.129,0.357,0.234,0.679,0.315,1.001h0.024
				c0.089-0.322,0.202-0.645,0.331-1.001l0.76-2.197h0.743l-1.535,3.91h-0.679l-1.486-3.91H45.798z"/>
			<path fill="#FFFFFF" d="M50.199,87.535c0.008,0.242-0.17,0.435-0.452,0.435c-0.251,0-0.429-0.193-0.429-0.435
				c0-0.251,0.186-0.444,0.444-0.444C50.029,87.09,50.199,87.283,50.199,87.535z M49.407,92.543v-3.91h0.711v3.91H49.407z"/>
			<path fill="#FFFFFF" d="M54.083,92.397c-0.17,0.089-0.542,0.209-1.01,0.226l-0.209,0.324c0.299,0.04,0.565,0.25,0.565,0.557
				c0,0.477-0.396,0.654-0.84,0.654c-0.202,0-0.412-0.056-0.55-0.137l0.122-0.348c0.129,0.082,0.29,0.122,0.436,0.122
				c0.178,0,0.347-0.065,0.347-0.259c-0.007-0.211-0.25-0.308-0.63-0.34l0.339-0.59c-1.002-0.128-1.64-0.888-1.64-1.979
				c0-1.203,0.824-2.076,2.101-2.076c0.42,0,0.791,0.105,0.986,0.202l-0.162,0.55c-0.169-0.098-0.436-0.186-0.824-0.186
				c-0.897,0-1.382,0.661-1.382,1.478c0,0.905,0.582,1.462,1.357,1.462c0.404,0,0.671-0.105,0.873-0.195L54.083,92.397z"/>
			<path fill="#FFFFFF" d="M58.403,90.555c0,1.447-1.001,2.077-1.947,2.077c-1.058,0-1.874-0.776-1.874-2.012
				c0-1.309,0.857-2.077,1.939-2.077C57.644,88.543,58.403,89.361,58.403,90.555z M55.301,90.597c0,0.856,0.493,1.502,1.188,1.502
				c0.678,0,1.187-0.639,1.187-1.518c0-0.663-0.331-1.504-1.171-1.504C55.664,89.077,55.301,89.852,55.301,90.597z"/>
			<path fill="#FFFFFF" d="M59.2,91.816c0.21,0.137,0.582,0.282,0.938,0.282c0.517,0,0.759-0.259,0.759-0.582
				c0-0.339-0.202-0.524-0.727-0.719c-0.703-0.25-1.034-0.637-1.034-1.105c0-0.631,0.509-1.148,1.35-1.148
				c0.395,0,0.743,0.114,0.961,0.244l-0.178,0.517c-0.153-0.098-0.436-0.227-0.799-0.227c-0.42,0-0.654,0.242-0.654,0.533
				c0,0.324,0.234,0.469,0.743,0.663c0.679,0.259,1.026,0.597,1.026,1.18c0,0.686-0.533,1.171-1.462,1.171
				c-0.428,0-0.824-0.104-1.099-0.266L59.2,91.816z"/>
			<path fill="#FFFFFF" d="M67.64,92.543c-0.154-0.153-0.299-0.308-0.509-0.533c-0.469,0.437-0.994,0.623-1.592,0.623
				c-1.058,0-1.672-0.712-1.672-1.527c0-0.743,0.444-1.252,1.067-1.591v-0.024c-0.283-0.357-0.452-0.752-0.452-1.14
				c0-0.663,0.476-1.342,1.381-1.342c0.679,0,1.204,0.453,1.204,1.156c0,0.573-0.331,1.025-1.196,1.455v0.024
				c0.461,0.533,0.978,1.131,1.325,1.518c0.25-0.379,0.42-0.905,0.525-1.591h0.646c-0.146,0.856-0.38,1.535-0.784,2.012
				c0.29,0.308,0.573,0.614,0.897,0.961L67.64,92.543L67.64,92.543z M66.784,91.605c-0.323-0.355-0.929-1.018-1.535-1.712
				c-0.291,0.186-0.703,0.532-0.703,1.105c0,0.623,0.461,1.099,1.114,1.099C66.129,92.099,66.525,91.889,66.784,91.605z
				 M65.128,88.285c0,0.388,0.178,0.688,0.412,0.978c0.55-0.315,0.905-0.605,0.905-1.065c0-0.331-0.186-0.703-0.63-0.703
				C65.362,87.494,65.128,87.866,65.128,88.285z"/>
			<path fill="#FFFFFF" d="M75.416,90.152c-0.04-0.761-0.089-1.673-0.082-2.352H75.31c-0.186,0.639-0.412,1.318-0.686,2.068
				l-0.961,2.642H73.13l-0.881-2.593c-0.259-0.768-0.476-1.471-0.63-2.117h-0.016c-0.016,0.679-0.056,1.591-0.105,2.408
				l-0.146,2.334h-0.67l0.38-5.445h0.897l0.929,2.634c0.226,0.67,0.412,1.267,0.55,1.833h0.024c0.137-0.55,0.331-1.147,0.573-1.833
				l0.969-2.634h0.898l0.339,5.445h-0.687L75.416,90.152z"/>
			<path fill="#FFFFFF" d="M79.507,92.543l-0.056-0.493h-0.024c-0.218,0.308-0.639,0.582-1.196,0.582
				c-0.792,0-1.196-0.557-1.196-1.123c0-0.945,0.841-1.462,2.352-1.455v-0.08c0-0.324-0.089-0.905-0.888-0.905
				c-0.364,0-0.744,0.113-1.019,0.291l-0.16-0.469c0.322-0.209,0.79-0.348,1.284-0.348c1.196,0,1.487,0.817,1.487,1.6v1.462
				c0,0.34,0.016,0.672,0.064,0.938H79.507z M79.401,90.548c-0.776-0.016-1.655,0.122-1.655,0.881c0,0.461,0.306,0.677,0.67,0.677
				c0.51,0,0.832-0.322,0.945-0.654c0.025-0.073,0.04-0.153,0.04-0.226V90.548z"/>
			<path fill="#FFFFFF" d="M81.233,89.692c0-0.404-0.007-0.735-0.033-1.059h0.63l0.04,0.646h0.016
				c0.195-0.371,0.646-0.735,1.293-0.735c0.542,0,1.382,0.324,1.382,1.666v2.334h-0.71V90.29c0-0.63-0.235-1.156-0.905-1.156
				c-0.469,0-0.832,0.331-0.954,0.728c-0.033,0.089-0.049,0.209-0.049,0.331v2.35h-0.71C81.233,92.543,81.233,89.692,81.233,89.692z
				"/>
			<path fill="#FFFFFF" d="M88.986,91.476c0,0.404,0.009,0.759,0.033,1.067h-0.63l-0.04-0.639h-0.016
				c-0.186,0.316-0.599,0.728-1.293,0.728c-0.615,0-1.349-0.34-1.349-1.713v-2.287h0.71v2.165c0,0.744,0.226,1.245,0.872,1.245
				c0.477,0,0.808-0.331,0.938-0.646c0.04-0.105,0.065-0.235,0.065-0.364v-2.4h0.71C88.986,88.632,88.986,91.476,88.986,91.476z"/>
			<path fill="#FFFFFF" d="M91.018,87.509v1.123h1.018v0.542h-1.018v2.108c0,0.484,0.138,0.759,0.533,0.759
				c0.186,0,0.324-0.024,0.413-0.049l0.031,0.533c-0.137,0.056-0.355,0.097-0.63,0.097c-0.331,0-0.597-0.104-0.767-0.299
				c-0.202-0.209-0.275-0.557-0.275-1.018v-2.132h-0.606v-0.541h0.606v-0.938L91.018,87.509z"/>
			<path fill="#FFFFFF" d="M93.183,90.717c0.016,0.961,0.63,1.358,1.342,1.358c0.51,0,0.816-0.089,1.083-0.202l0.12,0.508
				c-0.25,0.113-0.679,0.242-1.3,0.242c-1.203,0-1.923-0.792-1.923-1.97c0-1.18,0.694-2.11,1.833-2.11
				c1.276,0,1.615,1.123,1.615,1.842c0,0.146-0.015,0.259-0.024,0.331L93.183,90.717L93.183,90.717z M95.268,90.209
				c0.009-0.453-0.186-1.156-0.985-1.156c-0.719,0-1.034,0.663-1.091,1.156H95.268z"/>
			<path fill="#FFFFFF" d="M96.832,89.692c0-0.404-0.009-0.735-0.033-1.059h0.63l0.042,0.646h0.015
				c0.195-0.371,0.646-0.735,1.293-0.735c0.542,0,1.382,0.324,1.382,1.666v2.334h-0.71V90.29c0-0.63-0.235-1.156-0.905-1.156
				c-0.469,0-0.832,0.331-0.954,0.728c-0.033,0.089-0.049,0.209-0.049,0.331v2.35h-0.71L96.832,89.692L96.832,89.692z"/>
			<path fill="#FFFFFF" d="M104.1,92.397c-0.169,0.089-0.541,0.209-1.01,0.226l-0.209,0.324c0.299,0.04,0.565,0.25,0.565,0.557
				c0,0.477-0.395,0.654-0.839,0.654c-0.202,0-0.412-0.056-0.55-0.137l0.122-0.348c0.129,0.082,0.291,0.122,0.435,0.122
				c0.178,0,0.348-0.065,0.348-0.259c-0.007-0.211-0.25-0.308-0.63-0.34l0.339-0.59c-1.001-0.128-1.639-0.888-1.639-1.979
				c0-1.203,0.823-2.076,2.099-2.076c0.42,0,0.792,0.105,0.987,0.202l-0.162,0.55c-0.169-0.098-0.437-0.186-0.825-0.186
				c-0.896,0-1.38,0.661-1.38,1.478c0,0.905,0.581,1.462,1.356,1.462c0.404,0,0.67-0.105,0.872-0.195L104.1,92.397z"/>
			<path fill="#FFFFFF" d="M108.419,90.555c0,1.447-1.003,2.077-1.948,2.077c-1.058,0-1.874-0.776-1.874-2.012
				c0-1.309,0.856-2.077,1.939-2.077C107.659,88.543,108.419,89.361,108.419,90.555z M105.317,90.597
				c0,0.856,0.492,1.502,1.187,1.502c0.679,0,1.187-0.639,1.187-1.518c0-0.663-0.331-1.504-1.171-1.504
				S105.317,89.852,105.317,90.597z"/>
			<path fill="#FFFFFF" d="M109.707,90.717c0.016,0.961,0.63,1.358,1.342,1.358c0.51,0,0.816-0.089,1.083-0.202l0.12,0.508
				c-0.25,0.113-0.679,0.242-1.3,0.242c-1.203,0-1.923-0.792-1.923-1.97c0-1.18,0.694-2.11,1.833-2.11
				c1.276,0,1.615,1.123,1.615,1.842c0,0.146-0.015,0.259-0.024,0.331L109.707,90.717L109.707,90.717z M111.792,90.209
				c0.009-0.453-0.186-1.156-0.985-1.156c-0.719,0-1.034,0.663-1.091,1.156H111.792z"/>
			<path fill="#FFFFFF" d="M113.26,91.816c0.209,0.137,0.581,0.282,0.936,0.282c0.517,0,0.761-0.259,0.761-0.582
				c0-0.339-0.202-0.524-0.728-0.719c-0.703-0.25-1.034-0.637-1.034-1.105c0-0.631,0.51-1.148,1.349-1.148
				c0.397,0,0.744,0.114,0.961,0.244l-0.177,0.517c-0.155-0.098-0.437-0.227-0.801-0.227c-0.419,0-0.654,0.242-0.654,0.533
				c0,0.324,0.235,0.469,0.743,0.663c0.679,0.259,1.027,0.597,1.027,1.18c0,0.686-0.533,1.171-1.462,1.171
				c-0.429,0-0.825-0.104-1.099-0.266L113.26,91.816z"/>
		</g>
		<g>
			<path fill="#FFFFFF" d="M105.385,87.899c-0.019-0.459,0.229-0.694,0.547-0.694c0.193,0,0.34,0.059,0.648,0.207
				c0.235,0.111,0.404,0.193,0.575,0.193c0.165,0,0.244-0.132,0.248-0.386h0.275c0.024,0.516-0.244,0.695-0.527,0.695
				c-0.184,0-0.351-0.056-0.667-0.204c-0.215-0.105-0.386-0.202-0.551-0.202c-0.166,0-0.267,0.116-0.276,0.391
				C105.657,87.899,105.385,87.899,105.385,87.899z"/>
		</g>
	</g>
	<g>
		<g>
			<path fill="#FAA61A" d="M25.521,68.11c-0.037,0.239-0.242,1.092-0.615,2.56c-0.178,0.692-0.293,1.273-0.348,1.744
				c-0.036,0.318-0.082,0.664-0.137,1.037c-0.245,1.566-0.367,2.636-0.367,3.211c0,0.863,0.052,1.71,0.156,2.542
				c0.061,0.483-0.025,0.832-0.257,1.046c-0.233,0.214-0.465,0.321-0.698,0.321c-0.33,0-0.559-0.186-0.688-0.556
				s-0.193-0.967-0.193-1.793c0-0.863,0.123-2.055,0.367-3.579c0.086-0.575,0.135-0.92,0.147-1.036
				c0.013-0.208,0.037-0.422,0.074-0.643c0.03-0.214,0.055-0.428,0.074-0.642c0.036-0.569,0.146-1.312,0.33-2.23
				c0.134-0.691,0.233-1.299,0.294-1.826c0.042-0.367,0.091-0.614,0.146-0.743c0.055-0.128,0.198-0.269,0.427-0.422
				s0.402-0.229,0.518-0.229c0.257,0,0.45,0.123,0.578,0.371C25.456,67.492,25.521,67.78,25.521,68.11z"/>
			<path fill="#FAA61A" d="M41.174,69.45c-0.605,0.673-1.541,1.875-2.808,3.606c-1.266,1.725-2.156,2.835-2.67,3.331
				c-0.513,0.495-0.935,0.743-1.266,0.743c-0.251,0-0.495-0.189-0.734-0.565c-0.238-0.376-0.547-1.137-0.927-2.279
				c-0.783-2.331-1.275-3.674-1.477-4.028c-0.074,0.208-0.156,0.547-0.248,1.018c-0.195,0.991-0.455,2.199-0.779,3.624
				c-0.631,2.735-0.988,4.545-1.074,5.432c-0.012,0.11-0.111,0.23-0.298,0.358c-0.186,0.129-0.338,0.193-0.454,0.193
				c-0.221,0-0.424-0.11-0.611-0.331c-0.186-0.22-0.279-0.434-0.279-0.642c0-0.538,0.177-1.477,0.532-2.817l0.799-3.009
				c0.489-1.897,0.792-3.291,0.908-4.184c0.117-0.893,0.175-1.597,0.175-2.111c0-0.532,0.419-0.798,1.257-0.798
				c0.178,0,0.364,0.155,0.559,0.464c0.196,0.309,0.325,0.579,0.386,0.811c0.079,0.233,0.175,0.493,0.285,0.78l1.229,3.441
				c0.483,1.407,0.782,2.2,0.894,2.382c0.114,0.18,0.207,0.27,0.28,0.27c0.312-0.067,1.416-1.41,3.312-4.028
				c2.11-2.906,3.315-4.359,3.615-4.359c0.244,0,0.516,0.097,0.812,0.29c0.296,0.193,0.445,0.36,0.445,0.501
				c0,0.061-0.178,1.403-0.532,4.028c-0.129,0.972-0.248,2.139-0.358,3.5s-0.165,2.126-0.165,2.298c0,0.312,0.055,0.66,0.165,1.046
				c0.098,0.342,0.147,0.617,0.147,0.825c0,0.166-0.031,0.406-0.092,0.721c-0.061,0.315-0.194,0.501-0.399,0.556
				c-0.205,0.055-0.368,0.082-0.491,0.082c-0.642,0-0.964-0.535-0.964-1.605c0-0.979,0.211-3.374,0.634-7.185
				c0.03-0.306,0.045-0.495,0.045-0.569c0-0.049,0.037-0.253,0.11-0.614c0.056-0.306,0.083-0.563,0.083-0.771
				C41.22,69.652,41.204,69.517,41.174,69.45z"/>
			<path fill="#FAA61A" d="M58.955,69.45c-0.605,0.673-1.541,1.875-2.808,3.606c-1.266,1.725-2.156,2.835-2.67,3.331
				c-0.513,0.495-0.935,0.743-1.266,0.743c-0.251,0-0.495-0.189-0.734-0.565c-0.238-0.376-0.547-1.137-0.927-2.279
				c-0.783-2.331-1.275-3.674-1.477-4.028c-0.074,0.208-0.156,0.547-0.248,1.018c-0.195,0.991-0.455,2.199-0.779,3.624
				c-0.631,2.735-0.988,4.545-1.074,5.432c-0.012,0.11-0.111,0.23-0.298,0.358c-0.186,0.129-0.338,0.193-0.454,0.193
				c-0.221,0-0.424-0.11-0.611-0.331c-0.186-0.22-0.279-0.434-0.279-0.642c0-0.538,0.177-1.477,0.532-2.817l0.799-3.009
				c0.489-1.897,0.792-3.291,0.908-4.184c0.117-0.893,0.175-1.597,0.175-2.111c0-0.532,0.419-0.798,1.257-0.798
				c0.178,0,0.364,0.155,0.559,0.464c0.196,0.309,0.325,0.579,0.386,0.811c0.079,0.233,0.175,0.493,0.285,0.78l1.229,3.441
				c0.483,1.407,0.782,2.2,0.894,2.382c0.114,0.18,0.207,0.27,0.28,0.27c0.312-0.067,1.416-1.41,3.312-4.028
				c2.11-2.906,3.315-4.359,3.615-4.359c0.244,0,0.516,0.097,0.812,0.29c0.296,0.193,0.445,0.36,0.445,0.501
				c0,0.061-0.178,1.403-0.532,4.028c-0.129,0.972-0.248,2.139-0.358,3.5s-0.165,2.126-0.165,2.298c0,0.312,0.055,0.66,0.165,1.046
				c0.098,0.342,0.147,0.617,0.147,0.825c0,0.166-0.031,0.406-0.092,0.721c-0.061,0.315-0.194,0.501-0.399,0.556
				c-0.205,0.055-0.368,0.082-0.491,0.082c-0.642,0-0.964-0.535-0.964-1.605c0-0.979,0.211-3.374,0.634-7.185
				c0.03-0.306,0.045-0.495,0.045-0.569c0-0.049,0.037-0.253,0.11-0.614c0.056-0.306,0.083-0.563,0.083-0.771
				C59.001,69.652,58.985,69.517,58.955,69.45z"/>
			<path fill="#FAA61A" d="M73.965,68.432c-0.018,0.006-0.186,0.003-0.501-0.01c-0.315-0.012-0.637,0.019-0.967,0.092
				c-0.331,0.08-0.624,0.129-0.881,0.147c-0.178,0.012-0.37,0.037-0.578,0.073c-0.263,0.049-0.783,0.077-1.56,0.083
				c-1.169,0.018-1.904,0.098-2.206,0.239c-0.303,0.14-0.472,0.431-0.51,0.871c-0.03,0.337-0.094,0.707-0.192,1.11
				c-0.3,1.206-0.449,2.007-0.449,2.404l0.137,0.01c0.287,0.018,0.868-0.022,1.744-0.12c0.874-0.097,1.529-0.195,1.963-0.293
				c0.893-0.214,1.575-0.321,2.046-0.321c0.764,0,1.146,0.205,1.146,0.614c0,0.502-0.254,0.81-0.765,0.923s-1.577,0.259-3.198,0.435
				c-1.981,0.221-3.038,0.417-3.17,0.593c-0.131,0.174-0.27,0.735-0.417,1.683s-0.22,1.554-0.22,1.817v0.1
				c0.03,0.306,0.226,0.481,0.587,0.524l0.165,0.009c0.337,0.018,0.738-0.009,1.202-0.083l1.762-0.257
				c0.654-0.092,1.318-0.199,1.991-0.321c0.838-0.177,1.37-0.266,1.596-0.266c0.172,0,0.363,0.071,0.575,0.215
				c0.211,0.144,0.316,0.371,0.316,0.683c0,0.227-0.055,0.382-0.166,0.468c-0.624,0.275-1.428,0.428-2.413,0.459
				c-0.85,0.03-2.177,0.174-3.982,0.431c-0.912,0.135-1.511,0.202-1.799,0.202c-0.715,0-1.163-0.056-1.344-0.169
				s-0.289-0.391-0.326-0.831l-0.036-0.312v-0.037c0-0.098,0.055-0.296,0.165-0.596c0.153-0.434,0.332-1.26,0.537-2.478
				c0.205-1.217,0.338-2.18,0.399-2.89c0.03-0.245,0.079-0.541,0.147-0.89c0.269-1.462,0.403-2.618,0.403-3.468
				c0-0.043-0.061-0.156-0.183-0.34c-0.03-0.036-0.052-0.067-0.064-0.092c-0.043-0.14-0.082-0.256-0.12-0.348
				c-0.043-0.086-0.064-0.187-0.064-0.303V68.1c0-0.134,0.082-0.254,0.247-0.358c0.166-0.104,0.325-0.156,0.477-0.156h0.028
				c0.256,0,0.55,0.019,0.88,0.055h0.037c0.14,0,0.819-0.058,2.037-0.174c1.217-0.116,2.67-0.318,4.358-0.605
				c0.177-0.031,0.284-0.046,0.321-0.046l0.137-0.009c0.478-0.031,0.807,0.016,0.987,0.141c0.181,0.126,0.293,0.368,0.336,0.729
				c0,0.172-0.08,0.337-0.239,0.496S74.058,68.419,73.965,68.432z"/>
			<path fill="#FAA61A" d="M81.49,80.91c-0.6,0-1.336-0.202-2.206-0.605c-0.872-0.404-1.538-1.089-1.995-2.056
				c-0.459-0.966-0.689-2.03-0.689-3.193c0-0.697,0.153-1.868,0.459-3.514c0.055-0.3,0.135-0.777,0.239-1.431
				c0.195-1.303,0.331-2.086,0.409-2.349c0.076-0.263,0.196-0.472,0.361-0.628c0.166-0.156,0.358-0.235,0.579-0.235
				c0.152,0,0.309,0.146,0.472,0.437c0.162,0.29,0.242,0.516,0.242,0.675c0,0.122-0.141,0.675-0.422,1.66
				c-0.147,0.496-0.306,1.373-0.477,2.63s-0.257,2.142-0.257,2.655c0,1.719,0.403,2.885,1.206,3.496
				c0.805,0.612,1.478,0.918,2.024,0.918c1.052,0,1.946-0.16,2.683-0.481c0.737-0.322,1.296-0.905,1.674-1.749
				c0.379-0.844,0.649-2.413,0.808-4.707c0.159-2.343,0.352-3.804,0.582-4.381c0.229-0.578,0.554-0.866,0.978-0.866
				c0.415,0,0.623,0.339,0.623,1.018c0,0.575-0.119,1.517-0.357,2.826c-0.153,0.808-0.266,1.753-0.34,2.835
				c-0.067,0.857-0.156,1.611-0.266,2.263c-0.11,0.651-0.291,1.195-0.541,1.628c-0.251,0.434-0.568,0.841-0.949,1.22
				c-0.383,0.38-0.782,0.713-1.198,1c-0.416,0.288-0.99,0.516-1.72,0.683C82.682,80.826,82.04,80.91,81.49,80.91z"/>
			<path fill="#FAA61A" d="M99.528,72.762c0,0.098,0.062,0.163,0.184,0.193c0.661,0.19,1.245,0.559,1.753,1.105
				c0.507,0.548,0.761,1.198,0.761,1.951c0,1.156-0.74,2.345-2.22,3.569c-1.481,1.223-3.037,1.835-4.671,1.835
				c-0.459,0-0.817-0.059-1.077-0.178c-0.26-0.12-0.391-0.259-0.391-0.417c0-0.771,0.545-1.157,1.633-1.157
				c0.153,0,0.391,0.007,0.712,0.019s0.691-0.065,1.11-0.235c0.419-0.168,0.828-0.385,1.226-0.651
				c0.397-0.266,0.738-0.542,1.022-0.826c0.285-0.284,0.514-0.585,0.688-0.903c0.175-0.318,0.261-0.639,0.261-0.964
				c0-0.526-0.227-0.994-0.683-1.404c-0.455-0.409-1.062-0.614-1.82-0.614c-0.123,0-0.413,0.098-0.872,0.293
				c-0.459,0.202-0.759,0.303-0.899,0.303c-0.477,0-0.776-0.061-0.894-0.183c-0.12-0.123-0.18-0.34-0.18-0.652
				c0-0.189,0.517-0.495,1.551-0.917c0.862-0.343,1.698-0.903,2.509-1.68c0.81-0.776,1.215-1.434,1.215-1.972
				c0-0.373-0.153-0.67-0.459-0.89s-0.734-0.331-1.284-0.331c-0.912,0-1.817,0.113-2.716,0.336s-1.394,0.432-1.483,0.628
				c-0.088,0.196-0.337,1.677-0.747,4.445s-0.615,4.368-0.615,4.803c0,0.428,0.01,0.828,0.028,1.198
				c0.018,0.37-0.048,0.688-0.198,0.954s-0.406,0.4-0.767,0.4c-0.33,0-0.585-0.131-0.765-0.391c-0.181-0.26-0.27-0.588-0.27-0.987
				c0-0.104,0.027-0.263,0.082-0.477c0.318-1.315,0.618-2.997,0.899-5.046c0.282-2.05,0.422-3.233,0.422-3.551
				c0-0.257-0.034-0.447-0.105-0.569c-0.07-0.123-0.23-0.184-0.481-0.184c-0.098,0-0.195,0.003-0.288,0.009
				c-0.095,0.007-0.19-0.052-0.285-0.174s-0.141-0.269-0.141-0.44c0-0.539,0.865-1.068,2.596-1.588s3.49-0.78,5.276-0.78
				c0.918,0,1.668,0.247,2.252,0.738c0.584,0.493,0.877,1.07,0.877,1.731c0,0.489-0.25,1.065-0.747,1.729
				C101.026,71.503,100.36,72.145,99.528,72.762z"/>
			<path fill="#FAA61A" d="M105.06,77.681c0-0.123,0.092-0.871,0.276-2.243c0.183-1.374,0.357-2.97,0.523-4.79
				c0.165-1.82,0.27-2.836,0.316-3.05c0.046-0.214,0.143-0.389,0.293-0.523c0.15-0.135,0.385-0.202,0.703-0.202
				c0.202,0,0.382,0.085,0.541,0.257c0.159,0.171,0.239,0.358,0.239,0.559c0,0.263-0.055,0.692-0.166,1.285
				c-0.159,0.814-0.389,2.465-0.692,4.955c-0.303,2.489-0.453,3.899-0.453,4.23c0,0.214,0.031,0.36,0.095,0.435
				c0.065,0.076,0.186,0.114,0.363,0.114c0.288,0,0.967-0.088,2.037-0.266c0.661-0.104,1.909-0.205,3.744-0.303
				c0.33-0.012,0.737-0.082,1.22-0.211c0.092-0.024,0.159-0.036,0.202-0.036c0.232,0,0.416,0.076,0.551,0.229
				c0.134,0.153,0.201,0.336,0.201,0.55c0,0.349-0.134,0.625-0.403,0.831c-0.269,0.205-0.569,0.308-0.899,0.308
				c-0.129,0-0.383-0.018-0.762-0.055c-0.385-0.03-0.673-0.046-0.863-0.046c-1.994,0-3.916,0.312-5.771,0.936
				c-0.312,0.104-0.593,0.156-0.844,0.156c-0.275,0-0.487-0.119-0.637-0.358c-0.15-0.238-0.226-0.471-0.226-0.697
				c0-0.135,0.059-0.428,0.175-0.881C104.95,78.332,105.03,77.937,105.06,77.681z"/>
			<path fill="#FAA61A" d="M127.009,68.432c-0.018,0.006-0.186,0.003-0.501-0.01c-0.315-0.012-0.637,0.019-0.967,0.092
				c-0.33,0.08-0.624,0.129-0.881,0.147c-0.177,0.012-0.37,0.037-0.578,0.073c-0.263,0.049-0.783,0.077-1.56,0.083
				c-1.168,0.018-1.903,0.098-2.206,0.239c-0.303,0.14-0.472,0.431-0.51,0.871c-0.03,0.337-0.095,0.707-0.193,1.11
				c-0.299,1.206-0.449,2.007-0.449,2.404l0.138,0.01c0.287,0.018,0.868-0.022,1.743-0.12c0.875-0.097,1.529-0.195,1.963-0.293
				c0.893-0.214,1.575-0.321,2.047-0.321c0.764,0,1.146,0.205,1.146,0.614c0,0.502-0.254,0.81-0.765,0.923s-1.576,0.259-3.197,0.435
				c-1.982,0.221-3.038,0.417-3.171,0.593c-0.132,0.174-0.27,0.735-0.417,1.683s-0.22,1.554-0.22,1.817v0.1
				c0.03,0.306,0.226,0.481,0.587,0.524l0.165,0.009c0.337,0.018,0.737-0.009,1.202-0.083l1.762-0.257
				c0.654-0.092,1.318-0.199,1.991-0.321c0.838-0.177,1.37-0.266,1.597-0.266c0.171,0,0.361,0.071,0.574,0.215
				c0.211,0.144,0.316,0.371,0.316,0.683c0,0.227-0.055,0.382-0.166,0.468c-0.624,0.275-1.428,0.428-2.413,0.459
				c-0.85,0.03-2.177,0.174-3.982,0.431c-0.911,0.135-1.511,0.202-1.798,0.202c-0.716,0-1.165-0.056-1.345-0.169
				c-0.181-0.113-0.29-0.391-0.325-0.831l-0.037-0.312v-0.037c0-0.098,0.055-0.296,0.165-0.596c0.153-0.434,0.331-1.26,0.536-2.478
				c0.205-1.217,0.339-2.18,0.4-2.89c0.031-0.245,0.08-0.541,0.147-0.89c0.269-1.462,0.404-2.618,0.404-3.468
				c0-0.043-0.062-0.156-0.184-0.34c-0.031-0.036-0.052-0.067-0.064-0.092c-0.043-0.14-0.083-0.256-0.119-0.348
				c-0.043-0.086-0.065-0.187-0.065-0.303V68.1c0-0.134,0.083-0.254,0.248-0.358c0.165-0.104,0.324-0.156,0.477-0.156h0.028
				c0.257,0,0.55,0.019,0.881,0.055h0.036c0.141,0,0.82-0.058,2.037-0.174s2.67-0.318,4.359-0.605
				c0.177-0.031,0.284-0.046,0.321-0.046l0.137-0.009c0.478-0.031,0.807,0.016,0.987,0.141c0.181,0.126,0.293,0.368,0.336,0.729
				c0,0.172-0.08,0.337-0.239,0.496C127.226,68.334,127.101,68.419,127.009,68.432z"/>
		</g>
	</g>
	<g>
		<path fill="#FBD404" d="M87.063,6.335C71.801,8.89,59.155,27.089,58.041,43.786c0.21,0,18.89-32.283,31.916-35.696
			c4.711-0.784,7.314,0.892,9.127,1.724c9.331,4.281,13.509,12.213,16.7,22.633c0.828,2.703,3.3,8.875,2.1,12.179
			c-6.326-3.097-14.512-1.917-21.418-0.21c-14.297,3.534-25.919,9.182-39.475,12.808c-5.499,1.471-24.793,6.125-25.197-0.21
			c-0.01-0.156,14.169-4.341,15.538-6.719c0.07-1.61,0.04-3.227,0.21-4.829c0.398-3.741,0.992-7.475,1.89-11.129
			c3.06-12.446,13.007-22.255,21.663-25.815C75.501,6.71,82.126,4.96,87.063,6.335z M116.624,49.456
			c-12.779,0.379-21.941,3.614-32.232,5.035c1.957-1.324,7.632-4.486,11.818-5.552c2.263-0.576,4.853-0.844,7.187-0.953
			C106.719,47.832,114.469,48.772,116.624,49.456z"/>
		<g>
			<path fill="#FAA61A" d="M116.044,42.498c0,0-1.311-15.985-9.037-21.006c-1.472-0.957-4.948-2.583-5.504,4.506
				c-0.3,3.831,0.167,8.25,4.458,14.708C105.961,40.706,112.127,39.873,116.044,42.498z"/>
			<path fill="#FAA61A" d="M93.917,8.939c0,0-11.74,3.736-18.143,11.486c-6.404,7.749-10.272,15.453-12.051,21.265
				s9.049-14.485,13.359-19.414C82.73,15.818,93.917,8.939,93.917,8.939z"/>
			<path fill="#FAA61A" d="M84.584,6.21c0,0-12.334,0-21.057,7.438c-4.646,3.961-7.711,7.347-9.487,12.185
				c-1.121,3.055,3.185,12.654,2.46,15.023c-1.779,5.812,7.773-19.03,12.083-23.958C74.231,10.44,84.584,6.21,84.584,6.21z"/>
		</g>
	</g>
</g>
</svg>
