<?xml version="1.0" encoding="utf-8"?>
<!-- Generator: Adobe Illustrator 17.0.0, SVG Export Plug-In . SVG Version: 6.00 Build 0)  -->
<!DOCTYPE svg PUBLIC "-//W3C//DTD SVG 1.1//EN" "http://www.w3.org/Graphics/SVG/1.1/DTD/svg11.dtd">
<svg version="1.1" id="Layer_1" xmlns="http://www.w3.org/2000/svg" xmlns:xlink="http://www.w3.org/1999/xlink" x="0px" y="0px"
	 width="150px" height="100px" viewBox="0 0 150 100" enable-background="new 0 0 150 100" xml:space="preserve">
<g>
	<path fill="#034EA2" d="M82.208,69.635c-13.795,0-24.978-11.867-24.978-26.507c0-10.323,5.564-19.261,13.681-23.638
		c-14.94,2.143-26.424,14.988-26.424,30.52c0,17.032,13.807,30.84,30.84,30.84c16.805,0,30.46-13.443,30.822-30.161
		C103.082,61.643,93.527,69.635,82.208,69.635z"/>
	<polygon fill="#034EA2" points="80.596,26.729 83.317,33.315 90.474,34.92 84.834,39.413 85.503,46.462 79.296,42.653 
		72.554,45.405 74.357,38.558 69.521,33.209 76.843,32.787 	"/>
	<g>
		<path fill="#034EA2" d="M33.247,36.09l2.204-5.777l1.489,0.568l-1.38,3.616l1.109,0.423l1.28-3.355l1.423,0.543l-1.28,3.355
			l1.376,0.525l1.419-3.721l1.58,0.603l-2.244,5.882L33.247,36.09z"/>
		<path fill="#034EA2" d="M40.604,31.077l1.062-1.926c0.326,0.151,0.607,0.216,0.843,0.193c0.382-0.038,0.692-0.244,0.929-0.616
			c0.176-0.278,0.248-0.534,0.213-0.767s-0.138-0.405-0.31-0.514c-0.164-0.104-0.355-0.125-0.575-0.064
			c-0.22,0.061-0.554,0.316-1,0.765c-0.735,0.732-1.377,1.178-1.927,1.34c-0.551,0.164-1.073,0.09-1.566-0.224
			c-0.324-0.206-0.57-0.494-0.739-0.865c-0.168-0.371-0.215-0.797-0.14-1.279c0.075-0.481,0.321-1.05,0.739-1.706
			c0.512-0.805,1.052-1.324,1.621-1.556c0.568-0.232,1.204-0.18,1.908,0.155l-1.06,1.903c-0.315-0.132-0.586-0.161-0.814-0.086
			c-0.228,0.074-0.43,0.249-0.605,0.524c-0.144,0.226-0.204,0.427-0.181,0.603c0.023,0.176,0.103,0.307,0.24,0.395
			c0.101,0.064,0.221,0.074,0.361,0.031c0.142-0.039,0.357-0.207,0.648-0.506c0.725-0.734,1.298-1.226,1.72-1.474
			c0.422-0.249,0.825-0.368,1.209-0.359c0.385,0.009,0.749,0.123,1.092,0.342c0.404,0.257,0.706,0.605,0.904,1.046
			c0.199,0.44,0.258,0.917,0.179,1.43c-0.079,0.513-0.313,1.075-0.701,1.685c-0.681,1.071-1.36,1.682-2.034,1.832
			C41.948,31.528,41.275,31.428,40.604,31.077z"/>
		<path fill="#034EA2" d="M48.129,20.374l1.852-1.016c0.31,0.494,0.498,0.978,0.565,1.453c0.067,0.475,0.018,0.934-0.147,1.379
			c-0.165,0.445-0.481,0.906-0.95,1.383c-0.568,0.579-1.116,0.97-1.645,1.172c-0.529,0.202-1.136,0.229-1.821,0.08
			c-0.685-0.149-1.359-0.548-2.02-1.196c-0.882-0.865-1.33-1.764-1.344-2.697c-0.014-0.934,0.4-1.83,1.242-2.688
			c0.658-0.672,1.312-1.067,1.96-1.184c0.649-0.118,1.346,0.005,2.091,0.37l-1.103,1.772c-0.212-0.109-0.383-0.172-0.513-0.19
			c-0.216-0.031-0.423-0.014-0.622,0.053c-0.199,0.067-0.379,0.183-0.54,0.347c-0.366,0.373-0.497,0.807-0.391,1.3
			c0.075,0.369,0.351,0.787,0.829,1.255c0.591,0.579,1.084,0.887,1.479,0.922c0.395,0.036,0.752-0.109,1.07-0.434
			c0.309-0.315,0.454-0.64,0.435-0.975S48.394,20.777,48.129,20.374z"/>
		<path fill="#034EA2" d="M50.06,17.623c-0.657-1.026-0.883-2.009-0.677-2.947c0.206-0.938,0.819-1.734,1.84-2.387
			c1.047-0.67,2.033-0.905,2.959-0.706c0.926,0.2,1.713,0.805,2.361,1.818c0.47,0.735,0.733,1.417,0.786,2.046
			c0.054,0.629-0.07,1.224-0.37,1.784c-0.3,0.561-0.799,1.065-1.497,1.512c-0.709,0.454-1.368,0.717-1.978,0.788
			c-0.61,0.072-1.215-0.044-1.817-0.349C51.067,18.878,50.53,18.358,50.06,17.623z M52.009,16.388
			c0.406,0.635,0.816,1.016,1.23,1.142c0.413,0.127,0.823,0.06,1.229-0.2c0.418-0.267,0.654-0.61,0.709-1.028
			c0.055-0.418-0.143-0.979-0.593-1.682c-0.379-0.592-0.775-0.948-1.189-1.068c-0.414-0.12-0.825-0.05-1.234,0.212
			c-0.392,0.251-0.618,0.591-0.678,1.02C51.424,15.213,51.598,15.748,52.009,16.388z"/>
		<path fill="#034EA2" d="M56.831,9.306l2.162-0.805l1.963,5.274l3.374-1.256l0.642,1.723l-5.537,2.061L56.831,9.306z"/>
		<path fill="#034EA2" d="M70.006,12.152l-2.59,0.391l-0.176,1.273l-2.329,0.352l1.66-7.802l2.488-0.376l3.889,6.964l-2.389,0.361
			L70.006,12.152z M69.291,10.627l-1.215-2.531l-0.406,2.776L69.291,10.627z"/>
		<path fill="#034EA2" d="M77.638,5.831l2.298,0.251l-0.811,7.422l-2.299-0.251L77.638,5.831z"/>
		<path fill="#034EA2" d="M80.772,11.128l2.153,0.448c-0.048,0.356-0.027,0.644,0.065,0.862c0.149,0.354,0.437,0.59,0.863,0.706
			c0.318,0.087,0.583,0.08,0.796-0.022c0.213-0.102,0.346-0.251,0.4-0.448c0.051-0.187,0.015-0.376-0.108-0.568
			c-0.124-0.192-0.465-0.435-1.025-0.73c-0.916-0.487-1.532-0.969-1.848-1.446c-0.32-0.478-0.403-0.999-0.248-1.562
			c0.101-0.37,0.305-0.69,0.609-0.961c0.305-0.27,0.698-0.44,1.18-0.511c0.482-0.07,1.098-0.003,1.848,0.203
			c0.92,0.252,1.575,0.616,1.964,1.09c0.389,0.475,0.528,1.098,0.415,1.869l-2.131-0.452c0.033-0.34-0.019-0.607-0.158-0.804
			c-0.138-0.196-0.364-0.337-0.679-0.423c-0.259-0.071-0.469-0.069-0.63,0.004c-0.161,0.074-0.263,0.189-0.306,0.346
			c-0.032,0.115-0.006,0.233,0.077,0.354c0.079,0.124,0.303,0.28,0.674,0.47c0.915,0.476,1.554,0.879,1.915,1.209
			c0.362,0.33,0.595,0.68,0.7,1.05s0.103,0.752-0.005,1.145c-0.127,0.462-0.371,0.853-0.733,1.172
			c-0.362,0.32-0.8,0.518-1.314,0.593c-0.514,0.076-1.119,0.018-1.817-0.173c-1.225-0.336-2.008-0.804-2.351-1.405
			C80.738,12.545,80.635,11.872,80.772,11.128z"/>
		<path fill="#034EA2" d="M90.755,8.987l2.061,1.036l-2.527,5.028l3.217,1.617l-0.826,1.643l-5.279-2.653L90.755,8.987z"/>
		<path fill="#034EA2" d="M97.643,20.565l-2.054-1.625l-1.05,0.741l-1.847-1.462l6.834-4.113l1.973,1.562l-2.434,7.596l-1.895-1.499
			L97.643,20.565z M98.27,19.002l1.019-2.616l-2.305,1.599L98.27,19.002z"/>
		<path fill="#034EA2" d="M105.196,18.903l1.862,2.396l-2.868,3.712l4.3-1.871l1.861,2.394l-5.895,4.582l-1.16-1.492l4.495-3.494
			l-5.389,2.345l-1.05-1.35l3.604-4.642l-4.495,3.494l-1.16-1.492L105.196,18.903z"/>
		<path fill="#034EA2" d="M111.528,27.904l1.057,2.056l-6.64,3.414l-1.057-2.056L111.528,27.904z"/>
		<path fill="#034EA2" d="M111.071,38.384l0.037,2.112c-0.582,0.044-1.098-0.014-1.549-0.176c-0.452-0.161-0.836-0.419-1.152-0.771
			c-0.317-0.353-0.577-0.848-0.782-1.484c-0.249-0.773-0.34-1.44-0.272-2.002c0.067-0.562,0.326-1.112,0.777-1.649
			c0.451-0.538,1.117-0.948,1.999-1.231c1.176-0.378,2.18-0.356,3.013,0.066c0.833,0.422,1.433,1.206,1.801,2.35
			c0.288,0.895,0.333,1.657,0.136,2.286c-0.197,0.629-0.631,1.188-1.301,1.678l-1.055-1.801c0.195-0.138,0.33-0.26,0.407-0.366
			c0.129-0.177,0.209-0.369,0.243-0.575c0.033-0.207,0.015-0.42-0.056-0.64c-0.16-0.498-0.483-0.815-0.968-0.951
			c-0.361-0.105-0.86-0.055-1.496,0.149c-0.788,0.253-1.289,0.547-1.504,0.88c-0.216,0.333-0.253,0.716-0.114,1.149
			c0.135,0.42,0.355,0.7,0.66,0.839C110.197,38.386,110.59,38.432,111.071,38.384z"/>
		<path fill="#034EA2" d="M110.549,46.443l-0.248-2.608l-1.261-0.246l-0.223-2.345l7.699,2.087l0.238,2.505l-7.167,3.5l-0.229-2.405
			L110.549,46.443z M112.11,45.814l2.594-1.074l-2.749-0.558L112.11,45.814z"/>
	</g>
	<g>
		<path fill="#034EA2" d="M47.071,70.149l2.611,3.911c0.435,0.652,0.621,1.251,0.558,1.798c-0.064,0.547-0.314,0.966-0.752,1.259
			c-0.367,0.245-0.765,0.331-1.194,0.257c-0.286-0.049-0.587-0.2-0.902-0.452c0.217,0.557,0.271,1.038,0.163,1.441
			c-0.108,0.403-0.36,0.737-0.755,1.001c-0.322,0.215-0.666,0.327-1.031,0.335c-0.366,0.009-0.718-0.079-1.056-0.261
			c-0.21-0.113-0.454-0.332-0.733-0.658c-0.371-0.433-0.607-0.726-0.71-0.879l-2.408-3.606L47.071,70.149z M43.602,75.512
			l0.711,1.065c0.24,0.36,0.468,0.574,0.684,0.644c0.216,0.069,0.422,0.038,0.62-0.094c0.184-0.123,0.282-0.294,0.296-0.515
			c0.014-0.22-0.101-0.514-0.345-0.879l-0.708-1.061L43.602,75.512z M46.042,73.883l0.607,0.908c0.217,0.326,0.42,0.518,0.609,0.577
			c0.188,0.059,0.38,0.023,0.574-0.107c0.181-0.12,0.28-0.279,0.296-0.474c0.017-0.195-0.081-0.452-0.292-0.768l-0.616-0.922
			L46.042,73.883z"/>
		<path fill="#034EA2" d="M46.838,82.469l4.841-5.684l3.187,2.714c0.591,0.503,1.003,0.934,1.236,1.294
			c0.233,0.359,0.338,0.746,0.315,1.161c-0.023,0.415-0.189,0.803-0.497,1.165c-0.268,0.315-0.573,0.525-0.915,0.629
			c-0.342,0.104-0.701,0.118-1.078,0.042c-0.24-0.049-0.528-0.164-0.863-0.347c0.168,0.264,0.275,0.475,0.32,0.633
			c0.03,0.106,0.048,0.293,0.051,0.559c0.004,0.267-0.008,0.46-0.033,0.581l-0.476,2.436l-2.161-1.84l0.457-2.608
			c0.062-0.335,0.071-0.579,0.027-0.733c-0.063-0.205-0.182-0.382-0.356-0.531l-0.169-0.144l-1.965,2.307L46.838,82.469z
			 M51.638,80.724l0.806,0.687c0.087,0.074,0.278,0.192,0.573,0.354c0.146,0.085,0.3,0.113,0.462,0.086
			c0.162-0.027,0.295-0.103,0.401-0.227c0.156-0.184,0.212-0.378,0.17-0.584c-0.043-0.206-0.239-0.458-0.588-0.755l-0.84-0.716
			L51.638,80.724z"/>
		<path fill="#034EA2" d="M59.728,89.695l-2.573-1.23l-0.889,0.941l-2.314-1.106l5.976-5.419l2.472,1.182l-0.464,8.054l-2.374-1.134
			L59.728,89.695z M59.954,88.014l0.348-2.809l-1.959,2.039L59.954,88.014z"/>
		<path fill="#034EA2" d="M63.87,90.082l2.367,0.354c-0.022,0.36,0.025,0.647,0.143,0.863c0.191,0.349,0.522,0.572,0.993,0.671
			c0.351,0.073,0.637,0.054,0.859-0.057c0.222-0.111,0.353-0.267,0.395-0.466c0.04-0.19-0.015-0.378-0.165-0.565
			c-0.149-0.188-0.54-0.416-1.17-0.687c-1.032-0.448-1.739-0.905-2.121-1.37c-0.386-0.466-0.52-0.984-0.4-1.556
			c0.078-0.375,0.271-0.705,0.578-0.99c0.307-0.285,0.718-0.472,1.234-0.564c0.515-0.092,1.188-0.051,2.017,0.123
			c1.017,0.212,1.755,0.549,2.216,1.007c0.461,0.459,0.663,1.078,0.606,1.857l-2.344-0.36c0.007-0.342-0.072-0.609-0.238-0.799
			c-0.166-0.191-0.422-0.322-0.77-0.395c-0.286-0.06-0.512-0.049-0.681,0.032c-0.168,0.081-0.268,0.201-0.302,0.361
			c-0.024,0.116,0.014,0.233,0.113,0.351c0.096,0.12,0.352,0.268,0.769,0.442c1.03,0.437,1.755,0.813,2.175,1.129
			c0.419,0.315,0.701,0.655,0.845,1.022c0.144,0.367,0.175,0.749,0.091,1.148c-0.098,0.469-0.329,0.871-0.694,1.208
			c-0.365,0.337-0.822,0.554-1.372,0.652c-0.549,0.099-1.209,0.067-1.98-0.094c-1.354-0.283-2.241-0.718-2.662-1.305
			C63.953,91.504,63.785,90.835,63.87,90.082z"/>
		<path fill="#034EA2" d="M73.003,86.598l2.516,0.086l-0.255,7.462l-2.516-0.086L73.003,86.598z"/>
		<path fill="#034EA2" d="M76.854,86.763l2.492-0.318l0.712,5.583l3.889-0.496l0.232,1.824l-6.38,0.813L76.854,86.763z"/>
		<path fill="#034EA2" d="M83.725,85.814l6.333-2.281l0.54,1.5l-3.965,1.428l0.402,1.117l3.678-1.325l0.516,1.433l-3.678,1.325
			l0.499,1.385l4.079-1.47l0.573,1.591l-6.448,2.323L83.725,85.814z"/>
		<path fill="#034EA2" d="M90.931,82.911l2.177-1.265l3.752,6.456l-2.177,1.265L90.931,82.911z"/>
		<path fill="#034EA2" d="M99.219,86.685l-4.941-5.598l3.139-2.77c0.582-0.514,1.068-0.86,1.456-1.04
			c0.388-0.18,0.786-0.229,1.194-0.147c0.407,0.082,0.769,0.301,1.083,0.657c0.275,0.311,0.439,0.642,0.493,0.995
			c0.055,0.353,0.018,0.71-0.111,1.073c-0.082,0.231-0.238,0.499-0.466,0.805c0.285-0.129,0.509-0.204,0.673-0.226
			c0.11-0.015,0.296-0.006,0.561,0.028c0.264,0.034,0.454,0.073,0.571,0.115l2.344,0.817l-2.128,1.878l-2.516-0.822
			c-0.323-0.109-0.563-0.152-0.722-0.131c-0.212,0.034-0.404,0.126-0.576,0.278l-0.166,0.147l2.005,2.272L99.219,86.685z
			 M98.172,81.686l0.794-0.701c0.086-0.076,0.23-0.248,0.431-0.517c0.105-0.133,0.155-0.281,0.15-0.445
			c-0.004-0.164-0.06-0.307-0.168-0.429c-0.16-0.181-0.344-0.264-0.555-0.251c-0.21,0.013-0.487,0.172-0.831,0.475l-0.827,0.73
			L98.172,81.686z"/>
		<path fill="#034EA2" d="M108.163,74.856l-1.538,2.401l0.824,0.998l-1.383,2.16l-4.64-6.599l1.477-2.307l7.935,1.454l-1.418,2.215
			L108.163,74.856z M106.522,74.424l-2.744-0.692l1.781,2.195L106.522,74.424z"/>
	</g>
</g>
</svg>
