<?xml version="1.0" encoding="utf-8"?>
<!-- Generator: Adobe Illustrator 17.0.0, SVG Export Plug-In . SVG Version: 6.00 Build 0)  -->
<!DOCTYPE svg PUBLIC "-//W3C//DTD SVG 1.1//EN" "http://www.w3.org/Graphics/SVG/1.1/DTD/svg11.dtd">
<svg version="1.1" id="Layer_1" xmlns="http://www.w3.org/2000/svg" xmlns:xlink="http://www.w3.org/1999/xlink" x="0px" y="0px"
	 width="150px" height="100px" viewBox="0 0 150 100" enable-background="new 0 0 150 100" xml:space="preserve">
<g>
	<g>
		<path fill="#72BF44" d="M100.712,40.167c0,0,4.532,3.729,4.437,9.393c-0.094,5.664-2.266,10.857-5.617,14.067
			c-3.351,3.21-7.458,6.278-8.355,6.75c0,0,7.883-5.806,10.762-13.642c0,0,2.077-4.248,1.322-9.252
			C102.505,42.48,100.853,40.827,100.712,40.167z"/>
		<path fill="#72BF44" d="M43.461,66.836c0,0-3.512-7.93-2.152-14.274s4.645-8.837,6.118-10.423s8.043-7.024,10.649-8.497
			c0,0-7.817,3.342-8.893,4.532c0,0,3.342-4.305,8.1-6.911s6.911-4.022,7.93-4.135c0,0-2.889-0.397-11.272,5.381
			c0,0-5.438,4.192-8.667,8.27s-4.985,6.911-5.778,10.592C38.703,55.054,37.344,61.228,43.461,66.836z"/>
		<g>
			<path fill="#72BF44" d="M74.914,84.792c0,0-0.479-0.018-1.283-0.079C74.117,84.785,74.554,84.817,74.914,84.792z"/>
			<path fill="#72BF44" d="M108.97,47.761c-1.78-8.034-11.412-14.653-11.412-14.653c2.145,3.606,5.506,4.692,8.014,11.501
				c1.37,3.718,1.421,10.64,0.065,13.764c-1.278,2.945-3.102,6.57-8.125,10.614c-3.028,2.438-10.596,7.325-15.88,8.76
				c-7.198,1.955-12.72,1.957-12.72,1.957c-0.203-2.635,2.623-2.494,4.697-2.805c2.436-0.366,2.348-3.131,1.109-3.457
				c-1.239-0.326-2.877-0.7-8.611,0.913c-4.006,1.127-7.763-0.196-9.524-0.457c-1.761-0.261-4.929-1.424-7.408-0.25
				c-2.479,1.174-1.648,2.555-0.55,3.12c1.114,0.573,4.371,0.522,4.371,0.522c0.672,0.52,1.207,1.674,6.153,3.982
				c1.66,0.775,3.75,1.508,5.852,2.143c4.368,1.319,8.864,1.203,10.385,1.319c-3.295-0.494-10.648-2.943-10.648-2.943
				c0.848,0.065,4.24-0.065,10.372-0.978c6.132-0.913,9.922-2.33,15.83-5.39c7.669-3.971,11.943-8.634,14.539-11.796
				C108.075,60.464,110.471,54.535,108.97,47.761z M68.256,77.728c-1.219,1.475-0.279,2.215-0.279,2.215s-4.262,0-4.697-0.261
				c-0.435-0.261-1.083-2.448-4.792-2.819c-4.648-0.465-4.881-0.358-7.994-0.747c-2.927-0.366-1.74-1.044-0.087-1.826
				c1.653-0.783,5.999,0.442,7.132,0.783c1.567,0.472,6.512,1.007,9.273,0.06c1.92-0.659,3.988-1.091,6.295-0.842
				c1.7,0.183,0.426,1.483-0.443,1.831C71.796,76.469,69.178,76.612,68.256,77.728z"/>
		</g>
		<g>
			<radialGradient id="SVGID_1_" cx="81.4855" cy="20.4745" r="16.497" gradientUnits="userSpaceOnUse">
				<stop  offset="0" style="stop-color:#7C6320"/>
				<stop  offset="1" style="stop-color:#311400"/>
			</radialGradient>
			<path fill="url(#SVGID_1_)" d="M68.936,29.784c0,0,10.959-6.306,23.918,6.088c0,0,0.217-5.914-0.348-7.089
				c0,0,4.001,0.348,5.523-3.001s1.131-6.175-0.174-8.437s-3.001-1.87-3.305-2.087c0,0,0.957-4.305-2.87-7.219
				s-8.393-1.174-10.263,0.391c0,0-1.609-3.827-6.784-3.305s-6.48,5.61-6.088,7.697c0,0-5.566,0.391-4.436,6.741
				c0,0,0.609,4.74,5.479,4.436c0,0-3.87-1.261-4.001-5.436s3.566-4.175,4.131-4.218c0,0-0.522-6.61,4.566-7.089
				s6.175,2.261,6.784,3.349c0,0,3.088-4.566,7.915-2.261c4.827,2.305,4.175,6.567,3.131,8.437c0,0,3.914-0.739,5.392,3.914
				c1.479,4.653-2.609,7.393-5.479,6.871l-0.739-2.392c0,0,0.87,6.784,0.522,7.132c0,0-3.131-1.886-3.523-2.392
				c0,0,2.305,0.783,2.827,0.522c0,0,0.522-1-3.392-3.479c0,0,0.435-0.565,1.783,0.348c0,0,1.044,0.304,1-0.565
				c0,0-1.609-3.044-3.566-3.436c0,0,3.305,3.262,2.522,3.044c-0.783-0.217-3.392-0.696-3.262-0.043
				c0.13,0.652,0.87,1.653,1.696,1.826c0.826,0.174,2.044,1.278,1.522,1.278s-3.218-0.973-4.001-1.278
				c-0.783-0.304-0.87,0.174-0.826,0.391c0.043,0.217-1.087-0.348-1.87-0.913c-0.783-0.565-5.61-0.261-7.741-0.261
				C72.85,27.348,69.328,28.957,68.936,29.784z"/>
			<radialGradient id="SVGID_2_" cx="79.8301" cy="21.5644" r="8.284" gradientUnits="userSpaceOnUse">
				<stop  offset="0" style="stop-color:#7C6320"/>
				<stop  offset="1" style="stop-color:#311400"/>
			</radialGradient>
			<path fill="url(#SVGID_2_)" d="M70.111,27.174c0,0,3.088-3.305,3.349-6.741c0,0,3.827-0.652,6.61-2.957
				c0,0,1.479,3.305,4.871,3.783c0,0,2.218-0.174,2.609,0.217c0.391,0.391,2.174,1.826,2.566,1.566c0,0-1.609-0.957-1.957-3.131
				c0,0-4.61,1.696-7.567-3.957c0,0-5.61,4.479-11.046,2.87c0,0,1.305,1.522,2.435,1.87C71.981,20.695,71.85,23.695,70.111,27.174z"
				/>
			<radialGradient id="SVGID_3_" cx="95.1314" cy="23.8915" r="1.9994" gradientUnits="userSpaceOnUse">
				<stop  offset="0" style="stop-color:#7C6320"/>
				<stop  offset="1" style="stop-color:#311400"/>
			</radialGradient>
			<path fill="url(#SVGID_3_)" d="M95.942,21.347c0,0-0.261,4.392-2.044,3.827c0,0,0.043,1.305,0.435,1.261
				S97.377,25.348,95.942,21.347z"/>
			<radialGradient id="SVGID_4_" cx="68.1425" cy="20.1012" r="1.6782" gradientUnits="userSpaceOnUse">
				<stop  offset="0" style="stop-color:#7C6320"/>
				<stop  offset="1" style="stop-color:#311400"/>
			</radialGradient>
			<path fill="url(#SVGID_4_)" d="M69.763,21.651c0,0-2.174-1.261-3.001-2.914c-0.826-1.653,0.696,2.74,1.348,3.001
				C68.762,21.999,69.763,21.651,69.763,21.651z"/>
			<radialGradient id="SVGID_5_" cx="69.9336" cy="32.4078" r="1.5883" gradientUnits="userSpaceOnUse">
				<stop  offset="0" style="stop-color:#7C6320"/>
				<stop  offset="1" style="stop-color:#311400"/>
			</radialGradient>
			<path fill="url(#SVGID_5_)" d="M71.676,31.001c0,0-2.479-0.261-3.479,1.783c0,0-0.087,1.392,0.391,0.957
				C69.067,33.306,69.763,31.784,71.676,31.001z"/>
			<radialGradient id="SVGID_6_" cx="82.475" cy="33.3711" r="1.4412" gradientUnits="userSpaceOnUse">
				<stop  offset="0" style="stop-color:#7C6320"/>
				<stop  offset="1" style="stop-color:#311400"/>
			</radialGradient>
			<path fill="url(#SVGID_6_)" d="M80.765,32.61c0,0,0.87-0.913,2.479,0.217c0,0,1.131,1.087,0.913,1.653
				c0,0-0.609-0.348-1.218-0.913S81.417,32.61,80.765,32.61z"/>
			<radialGradient id="SVGID_7_" cx="74.7387" cy="40.0485" r="5.4068" gradientUnits="userSpaceOnUse">
				<stop  offset="0" style="stop-color:#7C6320"/>
				<stop  offset="1" style="stop-color:#311400"/>
			</radialGradient>
			<path fill="url(#SVGID_7_)" d="M74.372,34.741c0,0-4.218,0.652-4.914,3.175s0.391,4.392,1.044,5.306
				c0.652,0.913,2.74,2.087,3.696,2.131c0.957,0.043,3.957-0.261,6.045-3.523c0,0-2.957,2.131-4.871,2.174
				c-1.913,0.043-4.088,0.087-4.958-2.827C69.545,38.264,73.807,34.741,74.372,34.741z"/>
			<radialGradient id="SVGID_8_" cx="86.1576" cy="43.1092" r="4.0915" gradientUnits="userSpaceOnUse">
				<stop  offset="0" style="stop-color:#7C6320"/>
				<stop  offset="1" style="stop-color:#311400"/>
			</radialGradient>
			<path fill="url(#SVGID_8_)" d="M90.767,39.612c0,0-1.065,2.414-3.588,2.718c-2.522,0.304-4.284,0.239-4.805,0.065
				c0,0,1.033,1.174,3.99,2.218c0,0-3.816,1.783-4.816,1.913c0,0,2.794,0.37,5.132-0.478C88.327,45.45,90.68,43.047,90.767,39.612z"
				/>
			<radialGradient id="SVGID_9_" cx="70.636" cy="44.1766" r="6.5628" gradientUnits="userSpaceOnUse">
				<stop  offset="0" style="stop-color:#7C6320"/>
				<stop  offset="1" style="stop-color:#311400"/>
			</radialGradient>
			<path fill="url(#SVGID_9_)" d="M62.848,39.786c0,0,1.826,2.577,2.805,2.577c0.978,0,1.794,0.13,1.99,0.098
				c0,0-0.848,0.391-1.598,0.457c0,0,0.359,1.696,1.37,1.924c1.011,0.228,4.142,0.522,4.762,0.652c0,0,1.5,2.153,4.175,1.337
				c0,0,0,0.424-1.37,0.718c0,0,0.065,0.283,1.794,0.326c0.794,0.02,1.435-0.391,1.99-0.554c0,0-0.451,0.835-1.435,1.076
				c-1.152,0.283-2.696,0.391-3.425,0.033c-0.904-0.445-1.729-1.305-2.153-1.99c0,0-2.511,0.163-4.142-0.424
				c-1.631-0.587-3.62-1.957-4.827-5.088C62.127,39.225,62.848,39.786,62.848,39.786z"/>
			<radialGradient id="SVGID_10_" cx="84.6986" cy="54.4154" r="6.8771" gradientUnits="userSpaceOnUse">
				<stop  offset="0" style="stop-color:#7C6320"/>
				<stop  offset="1" style="stop-color:#311400"/>
			</radialGradient>
			<path fill="url(#SVGID_10_)" d="M90.809,46.849c0,0-2.566,4.218-6.697,4.74c-4.131,0.522-4.305,0.435-5.001,1
				c-0.696,0.565-0.696,1.566,0,1.305c0.696-0.261,2-0.565,2.174,0.13c0.174,0.696,2.914,7.132,4.914,7.958
				c0,0,0.957-6.523,2.305-7.871c0,0-2.435,2.783-3.175,5.349c0,0-2.696-3.392-2.131-6.523c0,0,3.827-0.826,5.392-2.087
				C88.591,50.849,90.765,48.632,90.809,46.849z"/>
			<radialGradient id="SVGID_11_" cx="71.0917" cy="33.4974" r="0.9313" gradientUnits="userSpaceOnUse">
				<stop  offset="0" style="stop-color:#7C6320"/>
				<stop  offset="1" style="stop-color:#311400"/>
			</radialGradient>
			<path fill="url(#SVGID_11_)" d="M71.932,32.953c0.253,0.624-0.009,1.146-0.487,1.364c-0.478,0.218-0.96,0.121-1.245-0.573
				c-0.153-0.373,0.084-0.842,0.562-1.06C71.24,32.465,71.78,32.579,71.932,32.953z"/>
			<radialGradient id="SVGID_12_" cx="81.6518" cy="35.2056" r="0.9318" gradientUnits="userSpaceOnUse">
				<stop  offset="0" style="stop-color:#7C6320"/>
				<stop  offset="1" style="stop-color:#311400"/>
			</radialGradient>
			<path fill="url(#SVGID_12_)" d="M82.589,34.856c0.107,0.672-0.271,1.125-0.791,1.231c-0.521,0.106-0.972-0.1-1.094-0.849
				c-0.066-0.402,0.275-0.809,0.796-0.915C82.021,34.218,82.526,34.453,82.589,34.856z"/>
		</g>
		<g>
			<path fill="#72BF44" d="M65.855,59.898c0,0,0.757-0.605,0.813-0.643c0,0,1.854,1.211,2.667,2.554s1.93,3.027,1.267,5.599
				s-2.459,4.502-3.594,5.089c-1.135,0.586-4.067,2.875-8.361,2.838s-7.226-1.003-8.475-1.646s-2.516-1.362-3.821-3.083
				c-1.305-1.721-2.081-3.197-1.665-5.921c0,0,0.7-2.648,1.74-3.367c0,0-1.911,2.459-1.116,5.316
				c0.795,2.856,1.911,3.31,3.197,4.521c1.286,1.211,3.613,2.1,5.656,2.459c2.043,0.359,4.881,0.7,7.605-0.038
				s6.489-2.1,7.453-5.524s-0.265-4.654-0.832-5.675C67.822,61.355,65.987,60.031,65.855,59.898z"/>
			<g>
				<path d="M60.189,56.064c-2.1,2.732-5.461,5.54-8.009,8.556c-3.179,3.764-5.051,6.116-5.46,6.761c0,0,2.364-1.565,6.353-6.008
					c2.116-2.358,4.968-5.971,7.748-9.408c3.028-3.744,2.594-2.701,3.43-4.512C64.252,51.453,65.502,49.154,60.189,56.064z
					 M61.082,56.108c-2.541,3.123-5.861,6.14-7.633,8.418c-3.7,4.76-6.528,6.547-6.528,6.547c0.374-0.586,2.691-3.173,5.682-6.547
					c2.385-2.691,5.414-5.697,7.334-8.18c4.857-6.28,6.44-8.086,6.44-8.086C65.93,49.903,63.85,52.706,61.082,56.108z"/>
				<path d="M45.54,72.733l0.284-0.448c0.405-0.64,2.943-3.993,6.256-7.752c1.065-1.208,2.253-2.435,3.401-3.622
					c1.72-1.777,3.344-3.455,4.585-5.068c5.253-6.834,6.686-8.772,6.704-8.793c0,0,0.327-0.385,0.446-0.322
					c0.129,0.068-0.062,0.582-0.062,0.582c-0.457,1.702-2.414,4.42-5.609,8.651c-1.347,1.783-3.002,3.471-4.547,5.148
					c-1.472,1.599-2.863,3.108-3.819,4.346c-4.017,5.199-7.146,7-7.177,7.018L45.54,72.733z M65.991,48.926
					c-0.783,0.941-2.586,3.155-5.948,7.503c-1.233,1.594-2.944,3.427-4.598,5.201c-0.926,0.993-1.884,2.019-2.741,2.986
					l-1.124,1.267c-1.715,1.933-3.169,3.571-3.958,4.514c1.084-0.851,3.209-2.717,5.724-5.952c0.869-1.118,2.119-2.423,3.443-3.805
					c1.424-1.486,2.85-2.994,4.146-4.587C62.987,53.529,65.084,50.681,65.991,48.926z"/>
			</g>
			<path d="M63.373,57.858c-0.526,0.263-1.64-0.338-2.819-1.482c-0.998-0.969-2.126-2.866-1.503-3.732
				c0.198-0.275,0.668-0.287,0.923-0.335c0.812-0.152,1.593,0.284,2.251,0.899c0.497,0.465,1.141,1.259,1.371,1.951
				C64.053,56.539,63.779,57.655,63.373,57.858z"/>
			<path fill="#72BF44" d="M60.279,52.742c0,0-1.038,0.463-1.085,0.578c-0.074,0.18,0.232,0.319,0.406,0.284
				s-0.051,0.304-0.132,0.355c-0.081,0.051-0.041,0.375,0,0.406c0.041,0.03,1.386,1.93,1.948,2.445
				c0.487,0.446,1.004,0.903,1.349,0.903c0.345,0,0.568-0.172,0.487-0.781c-0.081-0.609-1.004-1.582-1.116-1.856
				c-0.112-0.274,0.172-0.071,0.396,0.243c0.223,0.314,0.791,1.207,0.852,1.045c0.061-0.162-0.152-1.41-0.598-1.897
				c-0.446-0.487-1.309-1.552-1.724-1.532c-0.416,0.02-0.264,0.497,0.03,0.71c0.294,0.213,0.669,0.872,0.456,0.781
				c-0.213-0.091-1.106-0.801-1.136-0.923c-0.03-0.122,0.142-0.213,0.112-0.619C60.492,52.478,60.33,52.742,60.279,52.742z"/>
			<path d="M57.368,56.58c0,0-0.185-0.591,0.294-1.156c0.223-0.264,0.551-0.684,0.883-0.893c0.37-0.233,0.812-0.183,1.339-0.081
				c0,0,1.603,0.548,2.374,2.343c0,0,0.598,1.227,0.071,2.303c-0.223,0.455-0.575,1.105-0.954,1.369
				c-0.515,0.359-1.124,0.357-1.329,0.304c-0.355-0.091-0.588-0.193-0.7-0.406c-0.112-0.213-1.846-3.155-1.846-3.155L57.368,56.58z"
				/>
			<radialGradient id="SVGID_13_" cx="59.8647" cy="57.5407" r="2.7296" gradientUnits="userSpaceOnUse">
				<stop  offset="0" style="stop-color:#7C6320"/>
				<stop  offset="1" style="stop-color:#311400"/>
			</radialGradient>
			<path fill="url(#SVGID_13_)" d="M58.626,57.118c0,0,1.258-0.081,1.917,0.801s0.639,1.877,0.842,1.745s0.872-1.014,0.842-1.724
				s-0.438-1.904-1.041-2.474c-0.492-0.464-1.433-1.056-1.914-0.968c-0.67,0.123-1.63,1.16-1.732,1.373
				c-0.101,0.213-0.02,0.436,0.406,0.7c0.426,0.264,0.081,0.487,0.406,0.639s0.649,0.812,0.913,1.146s0.101,1.714,0.345,1.968
				c0.243,0.254,0.791,0.345,1.085,0.203c0.294-0.142,0.325-0.741,0.294-0.994c-0.03-0.254-0.274-0.893-0.598-1.319
				c-0.325-0.426-1.633-0.812-1.755-0.893C58.514,57.239,58.514,57.148,58.626,57.118z"/>
			<path d="M54.315,59.725c0,0-0.183-0.954,0.02-1.167s0.832-0.812,0.893-1.075s0.162-1.248,0.832-1.44
				c0.669-0.193,1.41,0.051,1.582,0.264c0.172,0.213,0.903,1.278,1.106,1.349s0.669,0.923,0.69,1.136
				c0.02,0.213,0.416,1.045-0.01,1.917c-0.426,0.872-1.937,1.572-2.333,1.562s-1.694-1.146-1.826-1.238
				C55.137,60.942,54.315,59.725,54.315,59.725z"/>
			<path fill="#FFFFFF" d="M54.508,59.806c0,0-0.03-0.862,0.122-1.136c0.152-0.274,0.73-0.426,0.801-0.527
				c0.071-0.101-0.213-0.497,0.233-1.116c0.446-0.619,0.822-0.761,1.085-0.801s0.578-0.03,0.812,0.558
				c0.233,0.588-0.903,0.812-1.116,0.832c-0.213,0.02,0.071,0.497,0.345,0.314s0.741-0.243,0.791-0.396s0.193-0.872,0.325-0.558
				c0.132,0.314,0.152,1.146-0.01,1.4c-0.162,0.254-0.507,0.751-1.775,0.456c0,0,0.69,0.507,1.177,0.487
				c0.487-0.02,0.913-0.568,0.913-1.075s0.01-0.913,0.152-0.751c0.142,0.162,0.832,0.741,0.862,1.136
				c0.03,0.396,0.345,0.73,0.162,1.552s-1.846,1.816-2.384,1.846c-0.538,0.03-1.836-0.751-1.968-1.035
				C54.903,60.708,54.508,59.806,54.508,59.806z"/>
			<path d="M52.129,61.819c0,0-0.185-0.591,0.294-1.156c0.223-0.264,0.551-0.684,0.883-0.893c0.37-0.233,0.812-0.183,1.339-0.081
				c0,0,1.603,0.548,2.374,2.343c0,0,0.598,1.227,0.071,2.303c-0.223,0.455-0.575,1.105-0.954,1.369
				c-0.515,0.359-1.124,0.357-1.329,0.304c-0.355-0.091-0.588-0.193-0.7-0.406s-1.846-3.155-1.846-3.155L52.129,61.819z"/>
			<radialGradient id="SVGID_14_" cx="54.6259" cy="62.7795" r="2.7296" gradientUnits="userSpaceOnUse">
				<stop  offset="0" style="stop-color:#7C6320"/>
				<stop  offset="1" style="stop-color:#311400"/>
			</radialGradient>
			<path fill="url(#SVGID_14_)" d="M53.387,62.356c0,0,1.258-0.081,1.917,0.801c0.659,0.883,0.639,1.877,0.842,1.745
				c0.203-0.132,0.872-1.014,0.842-1.724c-0.03-0.71-0.438-1.904-1.041-2.474c-0.492-0.464-1.433-1.056-1.914-0.968
				c-0.67,0.123-1.63,1.16-1.732,1.373c-0.101,0.213-0.02,0.436,0.406,0.7c0.426,0.264,0.081,0.487,0.406,0.639
				c0.325,0.152,0.649,0.812,0.913,1.146c0.264,0.335,0.101,1.714,0.345,1.968c0.243,0.254,0.791,0.345,1.085,0.203
				c0.294-0.142,0.325-0.741,0.294-0.994c-0.03-0.254-0.274-0.893-0.598-1.319c-0.325-0.426-1.633-0.812-1.755-0.893
				C53.276,62.478,53.276,62.387,53.387,62.356z"/>
			<path d="M50.345,61.652c0,0,1.189-0.386,1.95,0.739c0.761,1.125,1.95,2.132,2.775,2.529c0.825,0.396,1.361,0.696,1.564,0.643
				c0.204-0.054-1.479,1.993-2.668,2.1s-1.371-0.214-1.682-0.729c-0.311-0.514-1.639-2.529-1.843-3.407
				C50.238,62.648,50.323,61.705,50.345,61.652z"/>
			<path fill="#72BF44" d="M50.913,62.22c0,0,0.729-0.107,1.136,0.396c0.407,0.504,1.254,1.339,1.607,1.554
				c0.354,0.214,1.918,1.661,2.196,1.65c0.279-0.011-0.857,0.471-1.104,0.386c-0.246-0.086-1.618-1.168-1.929-1.521
				c-0.311-0.354-1.211-1.425-1.521-1.757c0,0,0.536,1.093,1.082,1.661c0.546,0.568,2.132,1.779,2.347,1.8
				c0.214,0.021,0.939,0.351,0.171,0.514c-0.354,0.075-0.889,0.761-1.811,0.525c0,0-2.368-2.486-2.411-3.032
				c-0.043-0.546,0.011-1.757,0.054-1.929C50.773,62.295,50.73,62.241,50.913,62.22z"/>
			<path d="M48.125,65.743c0,0,0.977-1.898,2.442-1.865s2.309,1.165,2.719,1.687c0.411,0.522,0.666,1.554,0.211,2.486
				c-0.455,0.932-1.743,1.598-2.753,1.232s-1.942-1.243-2.275-1.798C48.136,66.93,47.958,66.286,48.125,65.743z"/>
			<radialGradient id="SVGID_15_" cx="50.8235" cy="66.6841" r="2.5233" gradientUnits="userSpaceOnUse">
				<stop  offset="0" style="stop-color:#7C6320"/>
				<stop  offset="1" style="stop-color:#311400"/>
			</radialGradient>
			<path fill="url(#SVGID_15_)" d="M48.38,65.843c0,0,0.655-1.143,1.232-1.398c0.577-0.255,1.432-0.322,1.909-0.067
				s1.565,1.043,1.831,2.109c0.266,1.066-0.644,1.965-0.832,1.876c-0.189-0.089-0.289-1.299-1.31-1.798
				c-1.021-0.499-1.287-0.067-1.421-0.011c0,0,0.932-0.089,1.165,0.211c0,0,1.032,0.666,1.21,1.787c0,0-0.033,0.844-0.877,0.533
				s-1.099-0.522-0.977-0.766s0.322-1.221,0.233-1.443c-0.089-0.222-0.744,0.366-0.977,0.477c-0.233,0.111-0.433,0.61-0.655,0.322
				s-0.688-0.744-0.666-1.099C48.269,66.22,48.325,65.976,48.38,65.843z"/>
			<g>
				<radialGradient id="SVGID_16_" cx="48.3447" cy="55.8568" r="3.6755" gradientUnits="userSpaceOnUse">
					<stop  offset="0" style="stop-color:#7C6320"/>
					<stop  offset="1" style="stop-color:#311400"/>
				</radialGradient>
				<path fill="url(#SVGID_16_)" d="M47.558,50.795c0,0-0.182,1.584,0.234,2.687c0,0,0.313,1.131,0.729,1.867
					c0.417,0.735,0.91,1.782,0.99,2.63c0.104,1.103-0.443,2.291-1.042,2.941c0,0,0.208-0.933,0.026-2.347s-0.62-2.647-0.938-3.365
					c-0.407-0.919-0.412-2.356-0.381-2.875C47.199,51.944,47.375,51.275,47.558,50.795z"/>
				<radialGradient id="SVGID_17_" cx="53.3851" cy="49.9273" r="4.6117" gradientUnits="userSpaceOnUse">
					<stop  offset="0" style="stop-color:#7C6320"/>
					<stop  offset="1" style="stop-color:#311400"/>
				</radialGradient>
				<path fill="url(#SVGID_17_)" d="M52.285,43.597c0,0-0.248,1.98,0.318,3.36c0,0,0.424,1.415,0.99,2.334
					c0.566,0.919,1.235,2.228,1.344,3.289c0.141,1.379-0.601,2.865-1.415,3.678c0,0,0.283-1.167,0.035-2.935
					c-0.248-1.768-0.813-3.324-1.273-4.208c-0.46-0.884-0.495-3.218-0.46-3.572C51.861,45.189,52.038,44.198,52.285,43.597z"/>
				<radialGradient id="SVGID_18_" cx="50.4091" cy="53.1702" r="2.4995" gradientUnits="userSpaceOnUse">
					<stop  offset="0" style="stop-color:#7C6320"/>
					<stop  offset="1" style="stop-color:#311400"/>
				</radialGradient>
				<path fill="url(#SVGID_18_)" d="M49.874,49.728c0,0-0.124,1.077,0.159,1.827c0,0,0.213,0.769,0.496,1.269
					s0.619,1.212,0.673,1.789c0.071,0.75-0.301,1.558-0.709,2c0,0,0.142-0.635,0.018-1.596c-0.124-0.962-0.421-1.8-0.638-2.289
					c-0.277-0.625-0.28-1.602-0.259-1.955C49.63,50.509,49.75,50.055,49.874,49.728z"/>
			</g>
			<radialGradient id="SVGID_19_" cx="69.5475" cy="55.8325" r="4.8044" gradientUnits="userSpaceOnUse">
				<stop  offset="0" style="stop-color:#7C6320"/>
				<stop  offset="1" style="stop-color:#311400"/>
			</radialGradient>
			<path fill="url(#SVGID_19_)" d="M73.135,50.682c0,0-1.731,1.909-2.93,2.353c-1.199,0.444-2.886,1.021-3.996,2.841
				s-1.243,4.129-0.977,5.106c0,0,0.444-2.22,2.619-3.774c2.175-1.554,1.643-0.622,2.797-1.287c1.154-0.666,3.374-1.731,3.33-3.285
				c0,0-1.509,1.376-2.22,1.643c-0.71,0.266-1.731,0.71-2.397,0.622c0,0,1.021-0.755,1.509-1.154c0.488-0.4,1.376-0.755,1.731-1.421
				C72.958,51.659,73.18,51.393,73.135,50.682z"/>
			<path fill="#72BF44" d="M65.609,64.495c0,0,0.738-0.454,0.832-0.473c0,0,0.378,2.743-0.114,3.878
				c-0.492,1.135-1.347,2.831-4.61,3.78c-2.51,0.73-2.997,0.633-4.148,0.514c0,0,3.178-0.586,4.351-1.211
				c1.173-0.624,2.724-2.138,3.159-3.027C65.514,67.068,65.685,65.687,65.609,64.495z"/>
		</g>
	</g>
	<g>
		
			<radialGradient id="SVGID_20_" cx="401.6062" cy="-10.3304" r="4.1295" gradientTransform="matrix(-0.9414 -0.3373 -0.506 1.4121 436.0659 216.2757)" gradientUnits="userSpaceOnUse">
			<stop  offset="0" style="stop-color:#7C6320"/>
			<stop  offset="1" style="stop-color:#311400"/>
		</radialGradient>
		<path fill="url(#SVGID_20_)" stroke="#000000" stroke-width="0.3485" stroke-miterlimit="10" d="M65.761,61.179
			c0,0-4.434,1.552-5.477,3.799c-1.043,2.247,0.065,5.742,0.096,6.078s4.735-1.184,6.017-3.736s-0.421-3.118-0.153-4.106
			C66.512,62.228,66.137,61.097,65.761,61.179z"/>
		
			<radialGradient id="SVGID_21_" cx="267.7715" cy="-195.2992" r="4.1295" gradientTransform="matrix(-0.9504 0.3111 0.4666 1.4256 404.1996 260.8633)" gradientUnits="userSpaceOnUse">
			<stop  offset="0" style="stop-color:#7C6320"/>
			<stop  offset="1" style="stop-color:#311400"/>
		</radialGradient>
		<path fill="url(#SVGID_21_)" stroke="#000000" stroke-width="0.3485" stroke-miterlimit="10" d="M57.495,60.221
			c0,0-2.549,3.946-1.995,6.36c0.554,2.415,3.574,4.495,3.805,4.741s3.013-3.84,2.461-6.641c-0.552-2.802-2.245-2.205-2.64-3.148
			C58.732,60.589,57.742,59.926,57.495,60.221z"/>
	</g>
	<g>
		<g>
			
				<radialGradient id="SVGID_22_" cx="54.7592" cy="82.413" r="4.5799" gradientTransform="matrix(1.052 0 0 1 -13.3895 0)" gradientUnits="userSpaceOnUse">
				<stop  offset="0" style="stop-color:#7C6320"/>
				<stop  offset="1" style="stop-color:#311400"/>
			</radialGradient>
			<path fill="url(#SVGID_22_)" d="M43.458,86.99c-0.432-0.345-0.729-1.197-0.89-2.555l-0.197-2.237l-0.05,0.057l-1.88,2.12
				c-0.236,0.267-0.478,0.302-0.725,0.105c-0.162-0.129-0.231-0.3-0.208-0.512c0.018-0.174,0.084-0.326,0.199-0.456
				c0.559-0.632,1.413-1.561,2.565-2.788c1.152-1.227,2.006-2.155,2.562-2.784c0.102-0.116,0.23-0.182,0.383-0.199
				c0.152-0.016,0.289,0.023,0.408,0.118c0.122,0.098,0.188,0.219,0.197,0.365c0.01,0.146-0.037,0.277-0.14,0.393
				c-0.231,0.262-0.609,0.656-1.132,1.183c-0.506,0.508-0.884,0.904-1.131,1.19c0.684-0.039,1.495-0.126,2.433-0.261l2.415-0.373
				c0.19-0.028,0.344,0.005,0.464,0.101c0.114,0.091,0.178,0.212,0.195,0.363c0.017,0.151-0.026,0.285-0.129,0.401
				c-0.158,0.178-0.944,0.361-2.36,0.548c-0.971,0.123-1.95,0.221-2.936,0.295c0.04,0.612,0.142,1.528,0.307,2.746l0.133,0.714
				c0.056,0.248,0.153,0.477,0.288,0.686c0.162,0.25,0.156,0.473-0.018,0.67c-0.081,0.092-0.188,0.156-0.322,0.192
				C43.723,87.114,43.58,87.087,43.458,86.99z"/>
			
				<radialGradient id="SVGID_23_" cx="58.7001" cy="84.9473" r="2.9756" gradientTransform="matrix(1.052 0 0 1 -13.3895 0)" gradientUnits="userSpaceOnUse">
				<stop  offset="0" style="stop-color:#7C6320"/>
				<stop  offset="1" style="stop-color:#311400"/>
			</radialGradient>
			<path fill="url(#SVGID_23_)" d="M47.804,86.457c-0.117,0.18-0.287,0.452-0.509,0.817c-0.222,0.365-0.392,0.637-0.509,0.818
				c-0.086,0.132-0.199,0.215-0.339,0.249c-0.14,0.034-0.279,0.01-0.418-0.072c-0.136-0.08-0.22-0.187-0.252-0.322
				c-0.032-0.135-0.005-0.269,0.081-0.401c0.117-0.18,0.287-0.452,0.509-0.817c0.222-0.365,0.392-0.637,0.509-0.818
				c0.183-0.282,0.428-0.625,0.734-1.028c0.305-0.403,0.55-0.745,0.734-1.027c0.088-0.135,0.202-0.219,0.344-0.252
				c0.141-0.033,0.28-0.01,0.416,0.07c0.136,0.08,0.22,0.187,0.252,0.322c0.032,0.135,0.004,0.27-0.084,0.405
				c-0.183,0.282-0.428,0.624-0.734,1.027C48.232,85.832,47.988,86.175,47.804,86.457z M49.968,82.677
				c-0.152-0.089-0.25-0.217-0.294-0.384c-0.044-0.167-0.019-0.322,0.074-0.466c0.094-0.144,0.229-0.235,0.406-0.271
				c0.177-0.037,0.341-0.011,0.493,0.078c0.151,0.089,0.248,0.217,0.291,0.383c0.043,0.166,0.017,0.321-0.076,0.465
				c-0.094,0.144-0.229,0.235-0.403,0.273C50.283,82.792,50.119,82.766,49.968,82.677z"/>
			
				<radialGradient id="SVGID_24_" cx="62.1473" cy="86.7998" r="3.762" gradientTransform="matrix(1.052 0 0 1 -13.3895 0)" gradientUnits="userSpaceOnUse">
				<stop  offset="0" style="stop-color:#7C6320"/>
				<stop  offset="1" style="stop-color:#311400"/>
			</radialGradient>
			<path fill="url(#SVGID_24_)" d="M50.936,90.965c-0.517-0.221-0.942-0.519-1.274-0.893c-0.181,0.108-0.35,0.129-0.506,0.062
				c-0.129-0.055-0.218-0.144-0.267-0.268c-0.05-0.124-0.043-0.25,0.017-0.378c0.04-0.084,0.102-0.206,0.188-0.366
				c0.086-0.161,0.149-0.283,0.188-0.366c0.162-0.341,0.393-0.855,0.697-1.544c0.303-0.688,0.535-1.203,0.697-1.544
				c0.111-0.235,0.324-0.679,0.637-1.332c0.313-0.653,0.526-1.099,0.638-1.337c0.092-0.193,0.216-0.349,0.374-0.467
				c0.205-0.148,0.405-0.181,0.601-0.097c0.254,0.109,0.314,0.303,0.182,0.583c-0.021,0.045-0.061,0.107-0.119,0.187
				c-0.058,0.08-0.098,0.142-0.119,0.187l-0.515,1.05l-0.593,1.226c0.384-0.064,0.732-0.086,1.042-0.068
				c0.311,0.019,0.583,0.078,0.816,0.178c0.728,0.311,1.192,0.829,1.394,1.554c0.19,0.681,0.114,1.385-0.23,2.112
				c-0.347,0.733-0.89,1.25-1.63,1.548C52.417,91.291,51.677,91.282,50.936,90.965z M53.191,86.69
				c-0.278-0.119-0.597-0.166-0.958-0.143c-0.177,0.013-0.496,0.068-0.957,0.165l-0.405,0.83l-0.351,0.755l-0.37,0.794
				c0.129,0.14,0.315,0.328,0.558,0.563c0.181,0.151,0.402,0.282,0.662,0.393c0.491,0.21,0.971,0.218,1.441,0.024
				c0.47-0.193,0.821-0.535,1.052-1.024c0.227-0.479,0.289-0.934,0.188-1.364C53.941,87.22,53.655,86.889,53.191,86.69z"/>
			
				<radialGradient id="SVGID_25_" cx="68.6296" cy="89.0516" r="3.7089" gradientTransform="matrix(1.052 0 0 1 -13.3895 0)" gradientUnits="userSpaceOnUse">
				<stop  offset="0" style="stop-color:#7C6320"/>
				<stop  offset="1" style="stop-color:#311400"/>
			</radialGradient>
			<path fill="url(#SVGID_25_)" d="M58.111,93.375c-0.549-0.138-1.02-0.365-1.411-0.682c-0.16,0.135-0.323,0.182-0.488,0.14
				c-0.136-0.034-0.24-0.108-0.31-0.223c-0.07-0.114-0.086-0.239-0.048-0.376c0.025-0.088,0.065-0.219,0.122-0.39
				c0.057-0.172,0.098-0.302,0.123-0.391c0.1-0.362,0.241-0.905,0.421-1.632c0.18-0.726,0.321-1.27,0.421-1.632
				c0.069-0.249,0.202-0.72,0.398-1.413c0.196-0.693,0.329-1.166,0.399-1.418c0.057-0.205,0.152-0.378,0.288-0.519
				c0.176-0.178,0.368-0.242,0.577-0.189c0.269,0.068,0.363,0.25,0.28,0.546c-0.013,0.048-0.042,0.115-0.085,0.203
				c-0.043,0.088-0.072,0.155-0.085,0.203l-0.327,1.117l-0.372,1.302c0.368-0.123,0.706-0.2,1.016-0.23
				c0.31-0.03,0.588-0.014,0.836,0.048c0.771,0.193,1.319,0.631,1.644,1.315c0.306,0.642,0.351,1.348,0.138,2.119
				c-0.216,0.777-0.663,1.371-1.34,1.782C59.629,93.465,58.898,93.572,58.111,93.375z M59.597,88.806
				c-0.294-0.074-0.618-0.071-0.97,0.009c-0.172,0.041-0.478,0.145-0.915,0.313l-0.256,0.882l-0.216,0.799l-0.227,0.841
				c0.151,0.118,0.367,0.274,0.647,0.468c0.205,0.121,0.445,0.215,0.721,0.285c0.521,0.13,0.996,0.063,1.426-0.201
				c0.43-0.264,0.717-0.655,0.86-1.174c0.141-0.508,0.124-0.967-0.05-1.375C60.428,89.212,60.089,88.929,59.597,88.806z"/>
			
				<radialGradient id="SVGID_26_" cx="75.1057" cy="91.8033" r="2.7383" gradientTransform="matrix(1.052 0 0 1 -13.3895 0)" gradientUnits="userSpaceOnUse">
				<stop  offset="0" style="stop-color:#7C6320"/>
				<stop  offset="1" style="stop-color:#311400"/>
			</radialGradient>
			<path fill="url(#SVGID_26_)" d="M65.527,94.679c-0.833-0.086-1.486-0.354-1.957-0.803c-0.514-0.497-0.727-1.139-0.636-1.928
				c0.104-0.912,0.424-1.652,0.959-2.221c0.582-0.621,1.296-0.888,2.14-0.801c0.612,0.063,1.101,0.213,1.466,0.449
				c0.448,0.291,0.644,0.687,0.587,1.189c-0.04,0.351-0.285,0.648-0.735,0.893c-0.199,0.107-0.612,0.263-1.241,0.468l-2.222,0.734
				c0.173,0.312,0.406,0.558,0.697,0.737c0.291,0.179,0.641,0.29,1.051,0.332c0.255,0.026,0.559,0.012,0.912-0.044
				c0.448-0.071,0.746-0.193,0.893-0.368c0.147-0.175,0.292-0.255,0.436-0.24c0.129,0.013,0.239,0.072,0.33,0.175
				c0.091,0.104,0.129,0.217,0.115,0.339c-0.045,0.389-0.413,0.69-1.105,0.902C66.626,94.671,66.062,94.734,65.527,94.679z
				 M65.925,89.871c-0.45-0.047-0.843,0.08-1.18,0.381s-0.617,0.776-0.841,1.428l1.786-0.593c0.703-0.24,1.21-0.459,1.52-0.658
				C66.925,90.117,66.497,89.93,65.925,89.871z"/>
			
				<radialGradient id="SVGID_27_" cx="81.5832" cy="90.5858" r="3.5608" gradientTransform="matrix(1.052 0 0 1 -13.3895 0)" gradientUnits="userSpaceOnUse">
				<stop  offset="0" style="stop-color:#7C6320"/>
				<stop  offset="1" style="stop-color:#311400"/>
			</radialGradient>
			<path fill="url(#SVGID_27_)" d="M74.576,94.922c-0.264,0.008-0.441-0.12-0.532-0.386c-0.096-0.286-0.187-0.695-0.276-1.225
				c-0.084-0.509-0.132-0.928-0.144-1.255c-0.003-0.092-0.004-0.231-0.001-0.418c0.003-0.187,0.003-0.327-0.001-0.418
				c-0.023-0.663-0.209-0.989-0.557-0.978c-0.471,0.015-0.885,0.231-1.242,0.648c-0.182,0.214-0.428,0.619-0.738,1.214
				c0.047,1.343,0.015,2.14-0.095,2.391c-0.096,0.222-0.253,0.336-0.472,0.343c-0.152,0.005-0.287-0.04-0.405-0.136
				c-0.119-0.095-0.18-0.213-0.185-0.354c-0.002-0.049,0.012-0.127,0.042-0.234c0.026-0.089,0.038-0.347,0.034-0.774l-0.011-0.783
				l-0.119-3.887c0.01-0.438,0.013-0.733,0.008-0.884c-0.007-0.18-0.03-0.349-0.071-0.509c-0.041-0.159-0.064-0.325-0.07-0.498
				c-0.005-0.148,0.045-0.272,0.149-0.373c0.104-0.1,0.234-0.153,0.39-0.158c0.304-0.01,0.487,0.14,0.55,0.448
				c0.071,0.34,0.112,0.647,0.121,0.922c0.013,0.37,0.013,0.757,0.002,1.159c-0.009,0.385-0.005,0.771,0.013,1.159l0.021,0.465
				c0.291-0.398,0.606-0.698,0.946-0.901c0.34-0.203,0.705-0.311,1.094-0.323c0.616-0.019,1.045,0.158,1.289,0.531
				c0.172,0.263,0.281,0.711,0.325,1.345l0.079,1.009l0.15,1.096c0.066,0.411,0.142,0.772,0.227,1.083
				c0.017,0.059,0.026,0.11,0.028,0.153c0.005,0.145-0.046,0.267-0.154,0.367C74.863,94.865,74.732,94.918,74.576,94.922z"/>
			
				<radialGradient id="SVGID_28_" cx="96.5601" cy="88.1457" r="4.2995" gradientTransform="matrix(1.052 0 0 1 -13.3895 0)" gradientUnits="userSpaceOnUse">
				<stop  offset="0" style="stop-color:#7C6320"/>
				<stop  offset="1" style="stop-color:#311400"/>
			</radialGradient>
			<path fill="url(#SVGID_28_)" d="M91.868,90.996c-0.528,0.189-1.454,0.016-2.779-0.516l-2.148-0.934l0.028,0.069l1.021,2.597
				c0.129,0.327,0.043,0.544-0.259,0.652c-0.198,0.071-0.389,0.045-0.572-0.078c-0.151-0.101-0.258-0.23-0.32-0.389
				c-0.306-0.773-0.738-1.937-1.298-3.493c-0.56-1.556-0.991-2.719-1.296-3.488c-0.056-0.142-0.054-0.28,0.005-0.415
				c0.06-0.134,0.163-0.228,0.309-0.28c0.149-0.053,0.293-0.048,0.431,0.016c0.138,0.064,0.236,0.167,0.291,0.309
				c0.127,0.32,0.303,0.826,0.529,1.518c0.217,0.669,0.396,1.176,0.536,1.521c0.3-0.585,0.617-1.3,0.953-2.144l0.843-2.184
				c0.068-0.171,0.174-0.283,0.32-0.335c0.139-0.05,0.282-0.044,0.429,0.016c0.147,0.061,0.248,0.162,0.304,0.304
				c0.086,0.218-0.132,0.959-0.655,2.223c-0.364,0.865-0.753,1.724-1.169,2.577c0.581,0.267,1.471,0.631,2.668,1.093l0.719,0.24
				c0.256,0.075,0.512,0.107,0.77,0.098c0.308-0.012,0.509,0.102,0.605,0.343c0.045,0.112,0.051,0.233,0.018,0.361
				C92.112,90.837,92.017,90.942,91.868,90.996z"/>
			
				<radialGradient id="SVGID_29_" cx="102.7729" cy="86.3937" r="2.9152" gradientTransform="matrix(1.052 0 0 1 -13.3895 0)" gradientUnits="userSpaceOnUse">
				<stop  offset="0" style="stop-color:#7C6320"/>
				<stop  offset="1" style="stop-color:#311400"/>
			</radialGradient>
			<path fill="url(#SVGID_29_)" d="M96.1,88.843c-0.725,0.401-1.417,0.553-2.077,0.456c-0.724-0.11-1.296-0.508-1.716-1.194
				c-0.484-0.793-0.689-1.569-0.613-2.329c0.081-0.828,0.489-1.446,1.223-1.852c0.532-0.294,1.02-0.449,1.461-0.465
				c0.542-0.018,0.947,0.191,1.214,0.626c0.187,0.305,0.175,0.683-0.035,1.133c-0.093,0.198-0.329,0.557-0.707,1.076l-1.332,1.844
				c0.334,0.154,0.675,0.221,1.021,0.201c0.346-0.02,0.697-0.128,1.054-0.325c0.221-0.122,0.457-0.306,0.707-0.55
				c0.317-0.31,0.48-0.577,0.489-0.8c0.01-0.223,0.077-0.369,0.202-0.439c0.112-0.062,0.237-0.077,0.375-0.045
				c0.138,0.032,0.239,0.101,0.304,0.208c0.207,0.338,0.098,0.788-0.327,1.35C96.979,88.218,96.565,88.586,96.1,88.843z
				 M93.421,84.749c-0.392,0.216-0.629,0.54-0.712,0.972c-0.084,0.432-0.013,0.973,0.214,1.623l1.069-1.484
				c0.416-0.589,0.687-1.051,0.813-1.386C94.379,84.382,93.918,84.474,93.421,84.749z"/>
			
				<radialGradient id="SVGID_30_" cx="106.5541" cy="82.7795" r="3.7036" gradientTransform="matrix(1.052 0 0 1 -13.3895 0)" gradientUnits="userSpaceOnUse">
				<stop  offset="0" style="stop-color:#7C6320"/>
				<stop  offset="1" style="stop-color:#311400"/>
			</radialGradient>
			<path fill="url(#SVGID_30_)" d="M101.944,84.859c-0.431,0.351-0.896,0.59-1.393,0.716c0.026,0.202-0.026,0.356-0.156,0.461
				c-0.107,0.087-0.23,0.126-0.368,0.116c-0.139-0.01-0.256-0.069-0.353-0.176c-0.063-0.07-0.152-0.176-0.268-0.318
				c-0.116-0.142-0.205-0.248-0.268-0.318c-0.256-0.284-0.647-0.703-1.173-1.256c-0.526-0.554-0.917-0.973-1.173-1.257
				c-0.176-0.196-0.509-0.567-0.997-1.115c-0.489-0.547-0.822-0.92-1.001-1.118c-0.145-0.161-0.24-0.334-0.285-0.52
				c-0.055-0.239,0-0.425,0.164-0.558c0.211-0.172,0.422-0.142,0.632,0.091c0.034,0.038,0.077,0.098,0.127,0.182
				c0.051,0.084,0.094,0.144,0.127,0.182l0.781,0.89l0.915,1.031c0.102-0.357,0.229-0.666,0.379-0.925
				c0.15-0.259,0.322-0.468,0.516-0.627c0.606-0.494,1.297-0.673,2.073-0.539c0.729,0.126,1.367,0.492,1.912,1.097
				c0.55,0.611,0.81,1.298,0.78,2.061C102.885,83.723,102.561,84.356,101.944,84.859z M98.834,81.1
				c-0.231,0.188-0.413,0.443-0.544,0.763c-0.063,0.158-0.146,0.456-0.25,0.894l0.618,0.702l0.569,0.623l0.598,0.655
				c0.188-0.051,0.446-0.131,0.773-0.24c0.221-0.091,0.44-0.226,0.656-0.402c0.408-0.333,0.621-0.742,0.636-1.229
				c0.016-0.487-0.16-0.933-0.527-1.34c-0.36-0.399-0.766-0.647-1.219-0.742C99.658,80.68,99.22,80.785,98.834,81.1z"/>
			
				<radialGradient id="SVGID_31_" cx="112.7974" cy="77.9898" r="3.0791" gradientTransform="matrix(1.052 0 0 1 -13.3895 0)" gradientUnits="userSpaceOnUse">
				<stop  offset="0" style="stop-color:#7C6320"/>
				<stop  offset="1" style="stop-color:#311400"/>
			</radialGradient>
			<path fill="url(#SVGID_31_)" d="M108.493,78.241c-0.044,0.053-0.187,0.101-0.43,0.145c-0.223,0.036-0.406,0.05-0.55,0.042
				c-0.067,0.38-0.145,0.7-0.233,0.96c-0.089,0.26-0.19,0.459-0.302,0.595c-0.534,0.651-1.116,0.982-1.747,0.993
				c-0.593,0.012-1.264-0.26-2.014-0.815c-0.708-0.525-1.123-1.206-1.246-2.042c-0.123-0.836,0.079-1.575,0.606-2.218
				c0.199-0.242,0.487-0.464,0.865-0.667c0.474-0.257,0.827-0.299,1.058-0.128c0.079,0.059,0.126,0.138,0.142,0.24
				c0.089,0.11,0.253,0.267,0.496,0.471c0.242,0.204,0.561,0.455,0.957,0.753c0.36,0.272,0.666,0.461,0.918,0.567
				c0.152,0.068,0.481,0.171,0.988,0.31c0.069,0.02,0.172,0.045,0.311,0.077l0.095,0.03c0.117,0.087,0.181,0.197,0.193,0.332
				C108.613,78.02,108.577,78.138,108.493,78.241z M104.731,76.847c-0.126-0.093-0.256-0.203-0.392-0.327
				c-0.135-0.125-0.274-0.264-0.415-0.419c-0.14,0.062-0.253,0.12-0.34,0.174c-0.087,0.054-0.149,0.104-0.185,0.148
				c-0.354,0.431-0.474,0.94-0.361,1.527c0.113,0.587,0.411,1.06,0.894,1.418c0.48,0.356,0.906,0.542,1.278,0.559
				s0.691-0.136,0.956-0.459c0.219-0.267,0.354-0.531,0.404-0.794c0.027-0.141,0.031-0.364,0.013-0.669
				C105.734,77.519,105.117,77.133,104.731,76.847z"/>
			
				<radialGradient id="SVGID_32_" cx="114.0404" cy="72.7309" r="3.7635" gradientTransform="matrix(1.052 0 0 1 -13.3895 0)" gradientUnits="userSpaceOnUse">
				<stop  offset="0" style="stop-color:#7C6320"/>
				<stop  offset="1" style="stop-color:#311400"/>
			</radialGradient>
			<path fill="url(#SVGID_32_)" d="M110.944,73.752c-0.238,0.49-0.556,0.89-0.953,1.202c0.112,0.174,0.132,0.334,0.06,0.481
				c-0.059,0.122-0.154,0.205-0.284,0.251c-0.131,0.046-0.263,0.039-0.398-0.02c-0.088-0.039-0.216-0.1-0.383-0.183
				c-0.168-0.084-0.296-0.144-0.383-0.183c-0.357-0.157-0.896-0.383-1.616-0.679c-0.721-0.296-1.26-0.522-1.617-0.679
				c-0.246-0.108-0.711-0.314-1.395-0.619c-0.684-0.305-1.15-0.512-1.4-0.621c-0.202-0.089-0.365-0.209-0.487-0.36
				c-0.154-0.196-0.186-0.387-0.095-0.572c0.116-0.24,0.321-0.296,0.614-0.167c0.047,0.021,0.112,0.059,0.195,0.115
				c0.083,0.056,0.148,0.094,0.195,0.115l1.099,0.501l1.284,0.576c-0.063-0.366-0.083-0.696-0.061-0.991
				c0.023-0.295,0.088-0.553,0.196-0.774c0.335-0.689,0.884-1.125,1.649-1.31c0.718-0.174,1.457-0.094,2.219,0.241
				c0.768,0.338,1.305,0.859,1.612,1.566C111.302,72.347,111.285,73.051,110.944,73.752z M106.471,71.565
				c-0.128,0.262-0.181,0.565-0.16,0.909c0.012,0.169,0.067,0.472,0.164,0.911l0.869,0.394l0.79,0.342l0.831,0.359
				c0.149-0.121,0.348-0.296,0.598-0.524c0.16-0.17,0.301-0.379,0.421-0.625c0.225-0.464,0.239-0.921,0.04-1.37
				c-0.198-0.449-0.554-0.785-1.066-1.011c-0.502-0.221-0.98-0.285-1.433-0.193C107.036,70.857,106.684,71.126,106.471,71.565z"/>
		</g>
		<g>
			
				<radialGradient id="SVGID_33_" cx="80.2437" cy="90.3558" r="3.8774" gradientTransform="matrix(1 0 0 2 0 -90.3558)" gradientUnits="userSpaceOnUse">
				<stop  offset="0.5" style="stop-color:#7C6320"/>
				<stop  offset="1" style="stop-color:#311400"/>
			</radialGradient>
			<path fill="url(#SVGID_33_)" stroke="#623921" stroke-width="2.5" stroke-miterlimit="10" d="M81.589,93.273
				c-0.07-0.055-0.202-0.114-0.397-0.175c-0.194-0.062-0.297-0.088-0.308-0.079l-0.048,0.05c-0.002,0.004-0.054,0.054-0.153,0.15
				c-0.129,0.123-0.292,0.284-0.489,0.486c-0.116,0.123-0.306,0.261-0.569,0.413c-0.263,0.152-0.464,0.242-0.601,0.269
				c-0.7,0.138-1.26,0.051-1.68-0.261c-0.421-0.312-0.665-0.688-0.733-1.127c-0.045-0.295,0.008-0.702,0.159-1.219
				c0.152-0.517,0.518-1.054,1.097-1.611c0.058-0.064,0.082-0.129,0.071-0.196c-0.018-0.117-0.074-0.372-0.168-0.765
				c-0.105-0.425-0.164-0.678-0.176-0.758c-0.092-0.597-0.051-1.086,0.123-1.468c0.174-0.382,0.479-0.616,0.916-0.702
				c0.298-0.059,0.562,0.034,0.789,0.279c0.227,0.245,0.37,0.559,0.429,0.942c0.036,0.235,0.027,0.472-0.027,0.713
				c-0.054,0.24-0.139,0.459-0.255,0.657c-0.116,0.197-0.357,0.552-0.722,1.063c-0.04,0.06-0.058,0.105-0.053,0.135
				c0.037,0.241,0.273,0.596,0.709,1.065c0.435,0.469,0.872,0.803,1.309,1.003c0.117-0.023,0.215-0.193,0.296-0.51l0.075-0.268
				c0.06-0.209,0.139-0.577,0.237-1.105c-0.558,0.062-0.889,0.074-0.997,0.037c-0.108-0.038-0.18-0.18-0.219-0.429
				c-0.014-0.087,0.037-0.172,0.152-0.256c0.115-0.083,0.216-0.134,0.303-0.151c0.068-0.013,0.134-0.014,0.194-0.002
				c0.318,0.068,0.573,0.084,0.765,0.046c0.155-0.03,0.441-0.116,0.857-0.257c0.413-0.137,0.671-0.216,0.772-0.236
				c0.251-0.05,0.388-0.002,0.41,0.142c0.019,0.128-0.038,0.243-0.174,0.346c-0.135,0.103-0.48,0.266-1.034,0.489
				c-0.093,0.036-0.167,0.099-0.222,0.192c-0.055,0.092-0.13,0.334-0.224,0.726c-0.087,0.352-0.154,0.582-0.199,0.687
				c-0.186,0.437-0.275,0.675-0.27,0.711c0.013,0.084,0.144,0.156,0.394,0.215c0.249,0.06,0.498,0.065,0.746,0.016
				c0.048-0.01,0.182-0.057,0.403-0.142c0.218-0.081,0.352-0.126,0.399-0.136c0.246-0.049,0.383,0.023,0.412,0.214
				c0.011,0.071-0.082,0.212-0.279,0.423c-0.197,0.212-0.446,0.347-0.748,0.407C82.343,93.399,81.919,93.391,81.589,93.273z"/>
		</g>
		
			<radialGradient id="SVGID_34_" cx="61.4604" cy="93.3471" r="4.0944" gradientTransform="matrix(0.8907 0.0146 -0.0163 0.9999 27.0635 -3.8458)" gradientUnits="userSpaceOnUse">
			<stop  offset="0" style="stop-color:#93CC82"/>
			<stop  offset="1" style="stop-color:#72BF44"/>
		</radialGradient>
		<path fill="url(#SVGID_34_)" d="M81.589,93.273c-0.07-0.055-0.202-0.114-0.397-0.175c-0.194-0.062-0.297-0.088-0.308-0.079
			l-0.048,0.05c-0.002,0.004-0.054,0.054-0.153,0.15c-0.129,0.123-0.292,0.284-0.489,0.486c-0.116,0.123-0.306,0.261-0.569,0.413
			c-0.263,0.152-0.464,0.242-0.601,0.269c-0.7,0.138-1.26,0.051-1.68-0.261c-0.421-0.312-0.665-0.688-0.733-1.127
			c-0.045-0.295,0.008-0.702,0.159-1.219c0.152-0.517,0.518-1.054,1.097-1.611c0.058-0.064,0.082-0.129,0.071-0.196
			c-0.018-0.117-0.074-0.372-0.168-0.765c-0.105-0.425-0.164-0.678-0.176-0.758c-0.092-0.597-0.051-1.086,0.123-1.468
			c0.174-0.382,0.479-0.616,0.916-0.702c0.298-0.059,0.562,0.034,0.789,0.279c0.227,0.245,0.37,0.559,0.429,0.942
			c0.036,0.235,0.027,0.472-0.027,0.713c-0.054,0.24-0.139,0.459-0.255,0.657c-0.116,0.197-0.357,0.552-0.722,1.063
			c-0.04,0.06-0.058,0.105-0.053,0.135c0.037,0.241,0.273,0.596,0.709,1.065c0.435,0.469,0.872,0.803,1.309,1.003
			c0.117-0.023,0.215-0.193,0.296-0.51l0.075-0.268c0.06-0.209,0.139-0.577,0.237-1.105c-0.558,0.062-0.889,0.074-0.997,0.037
			c-0.108-0.038-0.18-0.18-0.219-0.429c-0.014-0.087,0.037-0.172,0.152-0.256c0.115-0.083,0.216-0.134,0.303-0.151
			c0.068-0.013,0.134-0.014,0.194-0.002c0.318,0.068,0.573,0.084,0.765,0.046c0.155-0.03,0.441-0.116,0.857-0.257
			c0.413-0.137,0.671-0.216,0.772-0.236c0.251-0.05,0.388-0.002,0.41,0.142c0.019,0.128-0.038,0.243-0.174,0.346
			c-0.135,0.103-0.48,0.266-1.034,0.489c-0.093,0.036-0.167,0.099-0.222,0.192c-0.055,0.092-0.13,0.334-0.224,0.726
			c-0.087,0.352-0.154,0.582-0.199,0.687c-0.186,0.437-0.275,0.675-0.27,0.711c0.013,0.084,0.144,0.156,0.394,0.215
			c0.249,0.06,0.498,0.065,0.746,0.016c0.048-0.01,0.182-0.057,0.403-0.142c0.218-0.081,0.352-0.126,0.399-0.136
			c0.246-0.049,0.383,0.023,0.412,0.214c0.011,0.071-0.082,0.212-0.279,0.423c-0.197,0.212-0.446,0.347-0.748,0.407
			C82.343,93.399,81.919,93.391,81.589,93.273z M80.254,92.765c-0.071-0.086-0.258-0.238-0.56-0.455
			c-0.277-0.198-0.443-0.325-0.498-0.381c-0.055-0.057-0.14-0.161-0.256-0.315c-0.421-0.535-0.655-0.823-0.7-0.862
			c-0.279,0.228-0.497,0.547-0.652,0.958c-0.156,0.411-0.209,0.771-0.162,1.079c0.045,0.295,0.223,0.519,0.533,0.67
			c0.31,0.151,0.613,0.198,0.909,0.139C79.163,93.54,79.625,93.262,80.254,92.765z M78.513,89.403
			c0.518-0.659,0.732-1.285,0.64-1.878c-0.02-0.131-0.099-0.252-0.238-0.363c-0.139-0.111-0.256-0.157-0.352-0.138
			c-0.138,0.027-0.239,0.146-0.306,0.356c-0.066,0.21-0.071,0.498-0.015,0.863C78.359,89.001,78.449,89.387,78.513,89.403z"/>
	</g>
</g>
</svg>
