<?xml version="1.0" encoding="utf-8"?>
<!-- Generator: Adobe Illustrator 17.0.0, SVG Export Plug-In . SVG Version: 6.00 Build 0)  -->
<!DOCTYPE svg PUBLIC "-//W3C//DTD SVG 1.1//EN" "http://www.w3.org/Graphics/SVG/1.1/DTD/svg11.dtd">
<svg version="1.1" id="Layer_1" xmlns="http://www.w3.org/2000/svg" xmlns:xlink="http://www.w3.org/1999/xlink" x="0px" y="0px"
	 width="150px" height="100px" viewBox="0 0 150 100" enable-background="new 0 0 150 100" xml:space="preserve">
<g>
	<g>
		<g>
			<path fill="#822B1A" d="M51.956,94.527l-0.45,0.003c-0.316,0.004-0.547,0.011-0.692,0.02c-0.13,0.011-0.223,0.017-0.279,0.017
				c-0.136,0-0.245-0.035-0.326-0.104c-0.078-0.07-0.118-0.152-0.118-0.249c0-0.062,0.015-0.112,0.044-0.148
				c0.029-0.036,0.1-0.092,0.212-0.168c0.065-0.045,0.11-0.115,0.134-0.21c0.025-0.095,0.052-0.3,0.081-0.613
				c0.043-0.488,0.064-1.09,0.064-1.805c0-0.262-0.018-0.436-0.052-0.523c-0.035-0.086-0.116-0.157-0.243-0.213
				c-0.148-0.063-0.222-0.155-0.222-0.276c0-0.098,0.044-0.179,0.133-0.242c0.089-0.062,0.202-0.094,0.341-0.094
				c0.076,0,0.174,0.003,0.292,0.01c0.197,0.009,0.41,0.013,0.639,0.013c0.168,0,0.499-0.007,0.991-0.02
				c0.155-0.004,0.294-0.007,0.42-0.007c0.298,0,0.538,0.024,0.721,0.072c0.183,0.048,0.341,0.129,0.476,0.243
				c0.219,0.186,0.329,0.435,0.329,0.746c0,0.155-0.033,0.305-0.098,0.452c-0.065,0.147-0.153,0.264-0.262,0.351
				c-0.078,0.063-0.117,0.12-0.117,0.172c0,0.056,0.047,0.103,0.141,0.141c0.184,0.074,0.351,0.198,0.501,0.373
				c0.155,0.181,0.232,0.409,0.232,0.682c0,0.323-0.118,0.617-0.353,0.884c-0.312,0.352-0.772,0.528-1.381,0.528
				c-0.083,0-0.287-0.006-0.612-0.017C52.205,94.536,52.023,94.529,51.956,94.527z M52.188,90.881v0.692
				c0,0.11,0.014,0.187,0.042,0.232c0.028,0.045,0.077,0.067,0.146,0.067c0.166,0,0.288-0.051,0.366-0.153
				c0.078-0.102,0.118-0.262,0.118-0.479c0-0.21-0.04-0.373-0.121-0.489c-0.081-0.115-0.195-0.173-0.343-0.173
				c-0.078,0-0.133,0.022-0.163,0.066C52.203,90.687,52.188,90.766,52.188,90.881z M52.188,92.816v0.319
				c0,0.293,0.021,0.488,0.064,0.585c0.043,0.096,0.129,0.144,0.259,0.144c0.341,0,0.511-0.199,0.511-0.598
				c0-0.497-0.19-0.746-0.571-0.746c-0.099,0-0.167,0.021-0.205,0.064C52.207,92.627,52.188,92.704,52.188,92.816z"/>
			<path fill="#822B1A" d="M64.127,91.623v0.82c0,0.495-0.037,0.846-0.111,1.052c-0.159,0.435-0.509,0.749-1.049,0.945
				c-0.327,0.121-0.697,0.181-1.109,0.181c-0.719,0-1.295-0.171-1.728-0.514c-0.21-0.168-0.356-0.363-0.437-0.585
				c-0.081-0.222-0.121-0.542-0.121-0.961c0-0.164,0.006-0.433,0.017-0.807c0.007-0.264,0.01-0.439,0.01-0.524
				c0-0.186-0.014-0.315-0.042-0.386c-0.028-0.072-0.089-0.139-0.183-0.202c-0.148-0.096-0.222-0.204-0.222-0.323
				c0-0.087,0.037-0.165,0.113-0.232c0.075-0.067,0.174-0.113,0.297-0.138c0.246-0.049,0.538-0.074,0.874-0.074
				c0.37,0,0.677,0.028,0.921,0.084c0.24,0.054,0.36,0.176,0.36,0.366c0,0.094-0.035,0.169-0.104,0.225
				c-0.016,0.013-0.083,0.048-0.202,0.104c-0.072,0.032-0.12,0.089-0.146,0.172c-0.026,0.083-0.039,0.219-0.039,0.41
				c0,0.195-0.009,0.616-0.027,1.264c-0.011,0.386,0.093,0.679,0.312,0.881c0.179,0.166,0.41,0.249,0.692,0.249
				c0.179,0,0.342-0.033,0.487-0.099c0.146-0.066,0.257-0.156,0.333-0.271c0.061-0.087,0.102-0.185,0.125-0.292
				c0.022-0.108,0.034-0.254,0.034-0.44v-0.739c-0.011-0.567-0.028-0.899-0.049-0.997c-0.021-0.098-0.094-0.174-0.217-0.23
				c-0.117-0.052-0.196-0.099-0.239-0.141c-0.043-0.043-0.064-0.095-0.064-0.158c0-0.134,0.08-0.232,0.24-0.294
				c0.16-0.062,0.417-0.092,0.771-0.092c0.347,0,0.599,0.03,0.755,0.091c0.155,0.06,0.233,0.157,0.233,0.289
				c0,0.065-0.013,0.113-0.04,0.144c-0.027,0.032-0.098,0.08-0.212,0.144c-0.119,0.067-0.186,0.139-0.203,0.217
				C64.142,90.838,64.132,91.126,64.127,91.623z"/>
			<path fill="#822B1A" d="M71.436,90.635c-0.155,0-0.25,0.039-0.286,0.118c-0.027,0.058-0.052,0.172-0.076,0.343
				s-0.035,0.325-0.035,0.464c0,0.083,0.027,0.14,0.081,0.172c0.054,0.031,0.155,0.047,0.302,0.047c0.098,0,0.171-0.018,0.219-0.054
				c0.047-0.036,0.079-0.096,0.098-0.181c0.051-0.244,0.157-0.367,0.316-0.367c0.273,0,0.41,0.327,0.41,0.981
				c0,0.415-0.059,0.719-0.178,0.914c-0.072,0.119-0.17,0.178-0.296,0.178c-0.132,0-0.208-0.089-0.228-0.265
				c-0.011-0.114-0.025-0.195-0.042-0.242c-0.017-0.047-0.049-0.092-0.096-0.134c-0.074-0.069-0.181-0.104-0.323-0.104
				c-0.101,0-0.169,0.018-0.205,0.054c-0.036,0.036-0.051,0.104-0.047,0.205c0,0.018-0.001,0.122-0.003,0.312
				c0,0.388,0.04,0.624,0.121,0.709c0.027,0.034,0.054,0.056,0.082,0.066c0.028,0.01,0.101,0.024,0.22,0.042
				c0.058,0.009,0.108,0.039,0.148,0.091c0.04,0.052,0.06,0.111,0.06,0.178c0,0.172-0.101,0.283-0.302,0.333
				c-0.291,0.069-0.7,0.104-1.227,0.104c-0.462,0-0.78-0.027-0.955-0.081c-0.078-0.025-0.142-0.07-0.191-0.134
				c-0.049-0.065-0.074-0.137-0.074-0.215c0-0.098,0.036-0.178,0.108-0.238c0.018-0.014,0.079-0.042,0.185-0.084
				c0.125-0.049,0.2-0.164,0.225-0.343c0.04-0.276,0.061-0.904,0.061-1.885c0-0.423-0.015-0.698-0.044-0.823
				c-0.029-0.125-0.1-0.213-0.212-0.262c-0.112-0.049-0.185-0.092-0.22-0.129c-0.035-0.037-0.052-0.09-0.052-0.16
				c0-0.099,0.048-0.181,0.144-0.247c0.096-0.066,0.215-0.099,0.356-0.099c0.089,0,0.221,0.007,0.393,0.02
				c0.365,0.029,0.802,0.044,1.31,0.044c0.813,0,1.361-0.022,1.643-0.067c0.038-0.004,0.067-0.007,0.087-0.007
				c0.078,0,0.153,0.045,0.225,0.134c0.197,0.251,0.296,0.529,0.296,0.833c0,0.139-0.032,0.25-0.098,0.333
				c-0.065,0.083-0.15,0.125-0.255,0.125c-0.078,0-0.138-0.016-0.178-0.047c-0.04-0.031-0.143-0.141-0.309-0.329
				c-0.101-0.117-0.222-0.193-0.364-0.229C72.089,90.67,71.824,90.646,71.436,90.635z"/>
			<path fill="#822B1A" d="M80.116,90.635c-0.155,0-0.25,0.039-0.286,0.118c-0.027,0.058-0.052,0.172-0.076,0.343
				c-0.023,0.17-0.035,0.325-0.035,0.464c0,0.083,0.027,0.14,0.081,0.172c0.054,0.031,0.155,0.047,0.302,0.047
				c0.098,0,0.171-0.018,0.219-0.054c0.047-0.036,0.079-0.096,0.098-0.181c0.051-0.244,0.157-0.367,0.316-0.367
				c0.273,0,0.41,0.327,0.41,0.981c0,0.415-0.059,0.719-0.178,0.914c-0.072,0.119-0.17,0.178-0.296,0.178
				c-0.132,0-0.208-0.089-0.228-0.265c-0.011-0.114-0.025-0.195-0.042-0.242c-0.017-0.047-0.049-0.092-0.096-0.134
				c-0.074-0.069-0.181-0.104-0.323-0.104c-0.101,0-0.169,0.018-0.205,0.054c-0.036,0.036-0.051,0.104-0.047,0.205
				c0,0.018-0.001,0.122-0.003,0.312c0,0.388,0.04,0.624,0.121,0.709c0.027,0.034,0.054,0.056,0.082,0.066
				c0.028,0.01,0.101,0.024,0.22,0.042c0.058,0.009,0.108,0.039,0.148,0.091c0.04,0.052,0.06,0.111,0.06,0.178
				c0,0.172-0.101,0.283-0.302,0.333c-0.291,0.069-0.7,0.104-1.227,0.104c-0.462,0-0.78-0.027-0.955-0.081
				c-0.078-0.025-0.142-0.07-0.191-0.134c-0.049-0.065-0.074-0.137-0.074-0.215c0-0.098,0.036-0.178,0.108-0.238
				c0.018-0.014,0.079-0.042,0.185-0.084c0.125-0.049,0.2-0.164,0.225-0.343c0.04-0.276,0.061-0.904,0.061-1.885
				c0-0.423-0.015-0.698-0.044-0.823c-0.029-0.125-0.1-0.213-0.212-0.262c-0.112-0.049-0.185-0.092-0.22-0.129
				c-0.035-0.037-0.052-0.09-0.052-0.16c0-0.099,0.048-0.181,0.144-0.247c0.096-0.066,0.215-0.099,0.356-0.099
				c0.089,0,0.221,0.007,0.393,0.02c0.365,0.029,0.802,0.044,1.31,0.044c0.813,0,1.361-0.022,1.643-0.067
				c0.038-0.004,0.067-0.007,0.087-0.007c0.078,0,0.153,0.045,0.225,0.134c0.197,0.251,0.296,0.529,0.296,0.833
				c0,0.139-0.032,0.25-0.098,0.333c-0.065,0.083-0.15,0.125-0.255,0.125c-0.078,0-0.138-0.016-0.178-0.047
				c-0.04-0.031-0.143-0.141-0.309-0.329c-0.101-0.117-0.222-0.193-0.364-0.229C80.769,90.67,80.504,90.646,80.116,90.635z"/>
			<path fill="#822B1A" d="M87.029,89.943h1.727c0.35,0,0.604-0.007,0.765-0.022c0.16-0.015,0.317-0.044,0.469-0.089
				c0.047-0.013,0.084-0.02,0.111-0.02c0.117,0,0.22,0.063,0.309,0.188c0.148,0.204,0.222,0.45,0.222,0.739
				c0,0.146-0.031,0.26-0.092,0.345c-0.062,0.084-0.146,0.126-0.254,0.126c-0.074,0-0.132-0.015-0.173-0.045
				c-0.042-0.03-0.097-0.098-0.166-0.203c-0.099-0.15-0.224-0.25-0.375-0.301c-0.151-0.05-0.4-0.076-0.744-0.076
				c-0.258,0-0.414,0.046-0.471,0.138c-0.029,0.049-0.046,0.116-0.052,0.198c-0.006,0.083-0.008,0.295-0.008,0.635
				c0,0.134,0.022,0.218,0.067,0.25c0.045,0.032,0.162,0.049,0.353,0.049c0.094,0,0.162-0.02,0.205-0.059
				c0.043-0.039,0.07-0.109,0.081-0.21c0.015-0.13,0.032-0.219,0.049-0.267c0.017-0.048,0.048-0.09,0.092-0.126
				c0.047-0.04,0.102-0.061,0.165-0.061c0.092,0,0.17,0.044,0.235,0.131c0.047,0.065,0.087,0.18,0.119,0.345
				s0.049,0.337,0.049,0.516c0,0.354-0.055,0.644-0.165,0.87c-0.061,0.123-0.153,0.185-0.276,0.185c-0.076,0-0.129-0.02-0.158-0.059
				c-0.029-0.039-0.052-0.12-0.067-0.244c-0.034-0.253-0.182-0.38-0.444-0.38c-0.101,0-0.169,0.032-0.207,0.096
				c-0.037,0.064-0.055,0.182-0.055,0.355c0,0.105,0.007,0.241,0.022,0.408c0.015,0.167,0.03,0.277,0.045,0.331
				c0.018,0.067,0.073,0.114,0.166,0.139c0.093,0.026,0.248,0.039,0.466,0.039c0.336,0,0.589-0.043,0.76-0.129
				c0.17-0.086,0.309-0.243,0.417-0.469c0.062-0.13,0.119-0.217,0.169-0.262c0.051-0.045,0.116-0.067,0.197-0.067
				c0.094,0,0.172,0.041,0.233,0.122c0.062,0.082,0.092,0.184,0.092,0.308c0,0.134-0.035,0.302-0.104,0.504
				c-0.07,0.202-0.155,0.381-0.255,0.538c-0.052,0.076-0.094,0.127-0.128,0.153c-0.034,0.026-0.076,0.039-0.128,0.039
				c-0.043,0-0.104-0.007-0.185-0.02c-0.144-0.027-0.335-0.044-0.575-0.051h-2.85c-0.114,0-0.203-0.025-0.265-0.076
				c-0.063-0.051-0.094-0.122-0.094-0.213c0-0.065,0.013-0.112,0.04-0.141c0.027-0.029,0.089-0.066,0.185-0.111
				c0.067-0.029,0.117-0.065,0.15-0.108c0.032-0.043,0.058-0.105,0.076-0.188c0.074-0.338,0.111-0.794,0.111-1.368
				c0-0.865-0.054-1.41-0.161-1.637c-0.022-0.045-0.047-0.076-0.074-0.094c-0.027-0.018-0.083-0.039-0.168-0.064
				c-0.128-0.038-0.192-0.123-0.192-0.255c0-0.072,0.021-0.136,0.064-0.191c0.043-0.056,0.099-0.093,0.168-0.111
				C86.609,89.953,86.778,89.943,87.029,89.943z"/>
			<path fill="#822B1A" d="M96.653,89.943h1.771c0.191-0.007,0.364-0.032,0.521-0.077c0.067-0.018,0.126-0.027,0.178-0.027
				c0.181,0,0.358,0.135,0.529,0.403c0.172,0.269,0.257,0.546,0.257,0.83c0,0.195-0.059,0.337-0.178,0.427
				c-0.09,0.067-0.197,0.101-0.323,0.101c-0.119,0-0.222-0.033-0.309-0.099c-0.087-0.066-0.174-0.175-0.259-0.328
				c-0.074-0.139-0.132-0.23-0.175-0.272c-0.043-0.043-0.094-0.064-0.155-0.064c-0.083,0-0.142,0.035-0.178,0.104
				c-0.036,0.07-0.054,0.184-0.054,0.343v1.882c0,0.193,0.02,0.333,0.061,0.42c0.04,0.087,0.117,0.155,0.228,0.202
				c0.121,0.051,0.203,0.1,0.247,0.146c0.044,0.046,0.066,0.109,0.066,0.19c0,0.161-0.109,0.281-0.328,0.36
				c-0.219,0.078-0.554,0.117-1.007,0.117c-0.556,0-0.968-0.046-1.237-0.138c-0.226-0.076-0.34-0.199-0.34-0.37
				c0-0.092,0.04-0.164,0.121-0.215c0.02-0.011,0.1-0.038,0.239-0.081c0.085-0.025,0.144-0.072,0.176-0.141
				c0.032-0.07,0.059-0.203,0.079-0.4c0.018-0.175,0.035-0.458,0.051-0.849c0.015-0.391,0.023-0.73,0.023-1.016
				c0-0.202-0.016-0.345-0.047-0.43c-0.031-0.085-0.083-0.128-0.155-0.128c-0.087,0-0.172,0.063-0.255,0.188
				c-0.15,0.229-0.273,0.38-0.37,0.454c-0.114,0.087-0.225,0.131-0.333,0.131c-0.121,0-0.221-0.045-0.299-0.136
				c-0.078-0.091-0.118-0.207-0.118-0.348c0-0.139,0.031-0.292,0.094-0.459c0.062-0.167,0.147-0.321,0.252-0.462
				c0.17-0.228,0.338-0.343,0.504-0.343c0.045,0,0.096,0.007,0.155,0.02c0.121,0.025,0.22,0.042,0.297,0.051
				C96.463,89.938,96.552,89.943,96.653,89.943z"/>
		</g>
	</g>
	<path fill="#822B1A" d="M74.986,8.197c-2.712,0.001-9.266,1.906-10.851,4.353c-0.586,0.905-0.214,1.816,1.106,2.71l0.516,0.35
		l-0.918-0.052c-0.001,0-0.112-0.006-0.291-0.006c-0.593,0-1.702,0.063-2.474,0.482c-0.845,0.46-1.68,2.003-1.522,2.41
		c-1.467,0.412-10.928,3.206-12.798,7.139c-0.691,1.454-0.253,2.919,1.304,4.354l0.609,0.563l-1.083-0.084
		c-0.001,0-0.132-0.01-0.343-0.01c-0.699,0-2.008,0.101-2.918,0.775c-0.997,0.739-1.273,2.807-0.844,3.37
		c0.341,0.446,1.963,0.635,1.963,0.635h-5.721l-0.051-0.273c-0.037-0.2-0.841-4.767,3.151-5.991
		c-0.239-0.656-0.665-2.417,0.565-4.57c0.894-1.565,2.544-2.913,4.726-4.3c3.015-1.916,8.483-3.702,8.556-3.972
		c0.217-0.791,0.923-1.537,2.486-1.889c-0.203-0.408-0.781-1.811,0.261-3.151c0.758-0.974,2.955-2.363,5.063-3.356
		c2.305-1.086,6.25-2.326,9.521-2.374h0.002c3.271,0.048,7.216,1.288,9.521,2.374c2.108,0.993,4.304,2.382,5.063,3.356
		c1.043,1.34,0.464,2.742,0.261,3.151c1.563,0.352,2.269,1.097,2.486,1.889c0.074,0.27,5.542,2.056,8.556,3.972
		c2.182,1.387,3.831,2.735,4.726,4.3c1.23,2.153,0.804,3.914,0.565,4.57c3.993,1.224,3.189,5.791,3.151,5.991l-0.051,0.273h-5.721
		c0,0,1.622-0.189,1.963-0.635c0.43-0.563,0.153-2.631-0.844-3.37c-0.91-0.674-2.219-0.775-2.918-0.775
		c-0.211,0-0.342,0.01-0.343,0.01l-1.083,0.084l0.609-0.563c1.557-1.435,1.995-2.901,1.304-4.354
		c-1.87-3.933-11.331-6.726-12.798-7.139c0.158-0.406-0.677-1.95-1.522-2.41c-0.772-0.42-1.881-0.482-2.474-0.482
		c-0.179,0-0.29,0.006-0.291,0.006l-0.918,0.052l0.516-0.35c1.32-0.893,1.692-1.805,1.106-2.71
		c-1.585-2.447-8.139-4.352-10.851-4.353H74.986z"/>
	<g>
		<path fill="#506931" d="M52.133,80.541v3.242c0,0.73,0.067,1.201,0.201,1.413c0.164,0.25,0.509,0.374,1.035,0.374
			c0.566,0,1.013-0.118,1.34-0.353c0.328-0.235,0.556-0.603,0.685-1.102c0.074-0.306,0.243-0.459,0.506-0.459
			c0.263,0,0.478,0.112,0.644,0.335c0.166,0.224,0.25,0.514,0.25,0.872c0,0.584-0.228,1.208-0.685,1.872
			c-0.144,0.212-0.271,0.357-0.38,0.434c-0.109,0.078-0.241,0.116-0.395,0.116l-1.653-0.191h-5.206
			c-0.343,0-0.583-0.038-0.722-0.113c-0.204-0.108-0.305-0.271-0.305-0.487c0-0.132,0.034-0.23,0.101-0.293
			c0.067-0.064,0.23-0.154,0.488-0.272c0.283-0.127,0.464-0.306,0.544-0.537c0.064-0.193,0.097-0.756,0.097-1.688
			c0-0.433-0.012-1.057-0.037-1.872c-0.025-0.782-0.04-1.37-0.045-1.766c0-0.377-0.031-0.634-0.093-0.773
			c-0.062-0.139-0.192-0.239-0.391-0.3c-0.328-0.108-0.536-0.195-0.626-0.261c-0.159-0.118-0.238-0.252-0.238-0.403
			c0-0.344,0.3-0.605,0.901-0.784c0.511-0.155,1.196-0.233,2.055-0.233c0.963,0,1.683,0.047,2.16,0.141
			c0.616,0.127,0.923,0.381,0.923,0.763c0,0.155-0.041,0.271-0.123,0.346c-0.082,0.075-0.282,0.177-0.599,0.304
			c-0.189,0.08-0.308,0.217-0.357,0.41C52.158,79.47,52.133,79.891,52.133,80.541z"/>
		<path fill="#506931" d="M60.184,77.306c0.566,0,1.1,0.047,1.601,0.141c0.675,0.127,1.013,0.398,1.013,0.812
			c0,0.137-0.034,0.239-0.101,0.307c-0.067,0.068-0.237,0.168-0.51,0.3c-0.228,0.108-0.379,0.346-0.451,0.713
			c-0.072,0.367-0.108,1.083-0.108,2.147c0,1.799,0.047,2.912,0.142,3.341c0.035,0.137,0.088,0.241,0.16,0.314
			c0.072,0.073,0.197,0.152,0.376,0.237c0.328,0.141,0.491,0.346,0.491,0.614c0,0.377-0.303,0.636-0.909,0.777
			c-0.655,0.151-1.457,0.226-2.405,0.226c-1.619,0-2.428-0.292-2.428-0.876c0-0.212,0.159-0.41,0.477-0.593
			c0.243-0.141,0.387-0.334,0.432-0.579c0.094-0.537,0.141-1.676,0.141-3.418c0-1.205-0.065-1.978-0.194-2.317
			c-0.07-0.193-0.236-0.367-0.499-0.523c-0.204-0.127-0.34-0.233-0.41-0.318c-0.07-0.085-0.104-0.193-0.104-0.325
			c0-0.202,0.103-0.364,0.309-0.484c0.206-0.12,0.57-0.227,1.091-0.321C58.92,77.365,59.548,77.306,60.184,77.306z"/>
		<path fill="#506931" d="M69.925,79.962l-0.216-0.494c-0.134-0.287-0.3-0.478-0.499-0.572c-0.358-0.179-0.536-0.405-0.536-0.678
			c0-0.603,0.953-0.904,2.86-0.904c0.953,0,1.678,0.073,2.175,0.219c0.169,0.052,0.304,0.134,0.406,0.247
			c0.102,0.113,0.153,0.238,0.153,0.374c0,0.118-0.024,0.207-0.071,0.268c-0.047,0.061-0.178,0.181-0.391,0.36
			c-0.124,0.099-0.186,0.202-0.186,0.311c0,0.165,0.094,0.438,0.283,0.819l0.424,0.862c0.194,0.391,0.331,0.639,0.413,0.745
			c0.082,0.106,0.175,0.159,0.279,0.159c0.114,0,0.212-0.061,0.294-0.184c0.082-0.122,0.187-0.363,0.316-0.72l0.358-0.989
			c0.099-0.282,0.149-0.494,0.149-0.636c0-0.188-0.104-0.313-0.313-0.374c-0.417-0.127-0.626-0.353-0.626-0.678
			c0-0.283,0.161-0.485,0.484-0.607c0.323-0.122,0.854-0.184,1.594-0.184c0.482,0,0.856,0.052,1.125,0.155
			c0.372,0.141,0.559,0.367,0.559,0.678c0,0.137-0.033,0.254-0.1,0.353c-0.067,0.099-0.202,0.231-0.406,0.396
			c-0.134,0.108-0.237,0.224-0.309,0.346c-0.072,0.123-0.182,0.374-0.331,0.756l-1.303,3.284c-0.65,1.53-1.043,2.441-1.177,2.733
			c-0.134,0.292-0.273,0.553-0.417,0.784c-0.109,0.17-0.231,0.289-0.365,0.357c-0.134,0.068-0.313,0.102-0.536,0.102
			c-0.298,0-0.537-0.061-0.719-0.184c-0.181-0.122-0.334-0.325-0.458-0.607l-1.475-3.32c-0.079-0.184-0.139-0.299-0.179-0.346
			c-0.04-0.047-0.094-0.071-0.164-0.071c-0.104,0-0.194,0.059-0.268,0.177c-0.075,0.118-0.216,0.421-0.425,0.911l-1.013,2.387
			c-0.189,0.433-0.369,0.719-0.54,0.858s-0.431,0.208-0.778,0.208c-0.313,0-0.56-0.071-0.741-0.212
			c-0.181-0.141-0.346-0.391-0.495-0.749l-2.741-6.646c-0.114-0.273-0.192-0.434-0.235-0.484c-0.042-0.049-0.175-0.131-0.398-0.244
			c-0.253-0.122-0.38-0.33-0.38-0.621c0-0.664,0.869-0.996,2.607-0.996c0.889,0,1.532,0.059,1.929,0.177
			c0.382,0.118,0.573,0.351,0.573,0.699c0,0.108-0.01,0.187-0.03,0.237c-0.02,0.049-0.092,0.159-0.216,0.328
			c-0.06,0.09-0.089,0.2-0.089,0.332c0,0.236,0.166,0.725,0.499,1.469l0.305,0.678c0.129,0.282,0.215,0.453,0.257,0.512
			c0.042,0.059,0.103,0.088,0.182,0.088c0.194,0,0.392-0.261,0.596-0.784l0.305-0.805c0.025-0.057,0.037-0.101,0.037-0.134
			C69.962,80.073,69.949,80.023,69.925,79.962z"/>
		<path fill="#506931" d="M87.612,82.215l1.408,2.86c0.134,0.264,0.246,0.437,0.335,0.519c0.089,0.082,0.226,0.138,0.41,0.166
			c0.357,0.052,0.536,0.224,0.536,0.516c0,0.344-0.219,0.591-0.655,0.742c-0.437,0.151-1.152,0.226-2.145,0.226
			c-1.122,0-1.954-0.045-2.495-0.134c-0.248-0.042-0.446-0.128-0.592-0.258c-0.146-0.129-0.22-0.286-0.22-0.47
			c0-0.141,0.038-0.251,0.116-0.328c0.077-0.078,0.22-0.149,0.428-0.215c0.233-0.075,0.35-0.202,0.35-0.381
			c0-0.315-0.201-0.501-0.603-0.558c-0.432-0.056-1.04-0.085-1.825-0.085c-0.66,0-1.055,0.038-1.184,0.113
			c-0.079,0.047-0.149,0.132-0.208,0.254c-0.06,0.123-0.089,0.24-0.089,0.353c0,0.104,0.021,0.171,0.063,0.201
			c0.042,0.031,0.18,0.081,0.413,0.152c0.303,0.085,0.454,0.254,0.454,0.508c0,0.56-0.707,0.841-2.122,0.841
			c-0.804,0-1.395-0.052-1.772-0.155c-0.348-0.099-0.521-0.315-0.521-0.65c0-0.146,0.038-0.259,0.115-0.339
			c0.077-0.08,0.215-0.153,0.413-0.219c0.323-0.108,0.567-0.26,0.734-0.456c0.166-0.195,0.403-0.613,0.711-1.254l1.05-2.182
			c0.387-0.8,0.647-1.4,0.778-1.798c0.132-0.398,0.2-0.787,0.205-1.169c0.005-0.405,0.031-0.686,0.078-0.844
			c0.047-0.158,0.153-0.312,0.316-0.463c0.343-0.33,0.779-0.494,1.311-0.494c0.501,0,0.98,0.186,1.437,0.558
			C85.477,78.281,86.4,79.762,87.612,82.215z M82.429,83.105h1.46c0.268,0,0.402-0.056,0.402-0.17c0-0.155-0.186-0.537-0.559-1.144
			c-0.169-0.278-0.298-0.464-0.387-0.558c-0.089-0.094-0.184-0.141-0.283-0.141c-0.179,0-0.328,0.158-0.447,0.473
			c-0.02,0.042-0.092,0.21-0.216,0.501c-0.208,0.48-0.313,0.768-0.313,0.862C82.086,83.046,82.2,83.105,82.429,83.105z"/>
		<path fill="#506931" d="M94.694,77.794l3.709,3.079c0.347,0.287,0.598,0.431,0.752,0.431c0.258,0,0.387-0.261,0.387-0.784
			c0-0.593-0.037-0.998-0.112-1.215c-0.074-0.217-0.231-0.379-0.469-0.487c-0.194-0.089-0.33-0.185-0.41-0.286
			c-0.08-0.101-0.119-0.232-0.119-0.392c0-0.396,0.285-0.65,0.856-0.763c0.233-0.047,0.64-0.071,1.221-0.071
			c0.75,0,1.269,0.042,1.557,0.127c0.457,0.132,0.685,0.381,0.685,0.749c0,0.306-0.186,0.537-0.559,0.692
			c-0.149,0.061-0.251,0.115-0.305,0.162c-0.055,0.047-0.102,0.118-0.142,0.212c-0.134,0.311-0.204,0.899-0.208,1.766v2.302
			c0,0.353,0.002,0.836,0.007,1.448c0.005,0.829-0.047,1.427-0.156,1.794c-0.134,0.457-0.377,0.685-0.73,0.685
			c-0.154,0-0.287-0.031-0.398-0.092s-0.297-0.202-0.555-0.424l-4.416-3.75c-0.308-0.264-0.564-0.396-0.767-0.396
			c-0.303,0-0.454,0.398-0.454,1.194c0,0.655,0.038,1.102,0.115,1.342c0.077,0.24,0.235,0.417,0.473,0.53
			c0.333,0.155,0.499,0.358,0.499,0.607c0,0.655-0.742,0.982-2.227,0.982c-0.67,0-1.19-0.084-1.56-0.251
			c-0.37-0.167-0.555-0.404-0.555-0.71c0-0.16,0.035-0.28,0.104-0.36c0.069-0.08,0.226-0.188,0.469-0.325
			c0.233-0.132,0.375-0.365,0.424-0.699c0.084-0.607,0.127-1.481,0.127-2.62c0-1.215-0.074-2.1-0.223-2.656
			c-0.055-0.202-0.124-0.353-0.208-0.452c-0.084-0.099-0.223-0.193-0.417-0.282c-0.223-0.104-0.379-0.205-0.465-0.304
			c-0.087-0.099-0.13-0.219-0.13-0.36c0-0.452,0.41-0.737,1.229-0.855c0.278-0.038,0.765-0.056,1.46-0.056
			c0.397,0,0.686,0.029,0.868,0.088C94.231,77.454,94.446,77.586,94.694,77.794z"/>
	</g>
	<g>
		<g>
			<g>
				<path fill="#506931" d="M74.988,14.648c0.416,0,3.311,2.957,3.311,3.623c0,0.288-0.703,0.875-0.75,0.875
					c-0.156,0-0.859-0.695-1-0.687c-0.281,0.016-1.203,1.542-1.562,1.562c-0.281,0.016-1.718-1.548-1.874-1.562
					c-0.172-0.016-0.771,0.523-0.875,0.437c-0.094-0.078-0.418-0.877-0.375-1.062C71.926,17.569,74.446,14.648,74.988,14.648z"/>
				<path fill="#506931" d="M84.353,17.269c0.364,0.203,1.451,4.195,1.127,4.777c-0.14,0.252-1.04,0.422-1.081,0.399
					c-0.136-0.076-0.412-1.026-0.538-1.087c-0.253-0.123-1.802,0.761-2.125,0.603c-0.253-0.123-0.746-2.188-0.876-2.277
					c-0.142-0.097-0.929,0.081-0.977-0.044c-0.044-0.114,0.062-0.97,0.19-1.11C80.257,18.329,83.88,17.005,84.353,17.269z"/>
				<path fill="#506931" d="M65.527,17.269c-0.364,0.203-1.451,4.195-1.127,4.777c0.14,0.252,1.04,0.422,1.081,0.399
					c0.136-0.076,0.412-1.026,0.538-1.087c0.253-0.123,1.802,0.761,2.125,0.603c0.253-0.123,0.746-2.188,0.876-2.277
					c0.142-0.097,0.929,0.081,0.977-0.044c0.044-0.114-0.062-0.97-0.19-1.11C69.623,18.329,66,17.005,65.527,17.269z"/>
				<path fill="#506931" d="M91.599,24.278c0.211,0.359-0.869,4.354-1.443,4.692c-0.248,0.146-1.11-0.162-1.134-0.202
					c-0.079-0.135,0.163-1.093,0.085-1.21c-0.156-0.234-1.939-0.255-2.138-0.554c-0.156-0.234,0.462-2.266,0.395-2.407
					c-0.074-0.156-0.842-0.399-0.821-0.532c0.02-0.12,0.544-0.805,0.725-0.862C87.529,23.122,91.325,23.811,91.599,24.278z"/>
				<path fill="#506931" d="M58.582,24.278c-0.211,0.359,0.869,4.354,1.443,4.692c0.248,0.146,1.11-0.162,1.134-0.202
					c0.079-0.135-0.163-1.093-0.085-1.21c0.156-0.234,1.939-0.255,2.138-0.554c0.156-0.234-0.462-2.266-0.395-2.407
					c0.074-0.156,0.842-0.399,0.821-0.532c-0.02-0.12-0.544-0.805-0.725-0.862C62.652,23.122,58.857,23.811,58.582,24.278z"/>
				<path fill="#506931" d="M94.178,34.202c0.014-0.416-2.841-3.411-3.507-3.434c-0.288-0.01-0.898,0.672-0.9,0.719
					c-0.005,0.156,0.665,0.883,0.652,1.023c-0.025,0.28-1.583,1.149-1.615,1.507c-0.025,0.28,1.487,1.77,1.496,1.927
					c0.01,0.172-0.55,0.753-0.467,0.859c0.075,0.096,0.862,0.448,1.048,0.411C91.153,37.16,94.159,34.743,94.178,34.202z"/>
				<path fill="#506931" d="M55.822,34.202c-0.014-0.416,2.841-3.411,3.507-3.434c0.288-0.01,0.898,0.672,0.9,0.719
					c0.005,0.156-0.665,0.883-0.652,1.023c0.025,0.28,1.583,1.149,1.615,1.507c0.025,0.28-1.487,1.77-1.496,1.927
					c-0.01,0.172,0.55,0.753,0.467,0.859c-0.075,0.096-0.862,0.448-1.048,0.411C58.847,37.16,55.841,34.743,55.822,34.202z"/>
			</g>
			<g>
				<g>
					<g>
						<path fill="#822B1A" d="M70.802,19.14c0.405-0.178,3.113,2.173,3.05,2.507c-0.094,0.502-0.877,1.985-1.17,2.068
							c-0.306,0.087-2.507-0.397-2.653-0.669C69.867,22.746,70.28,19.37,70.802,19.14z"/>
					</g>
					<g>
						<path fill="#822B1A" d="M78.497,19.256c0.443,0.01,1.901,3.286,1.703,3.562c-0.298,0.415-1.635,1.427-1.935,1.379
							c-0.314-0.05-2.104-1.42-2.121-1.728C76.125,22.127,77.927,19.243,78.497,19.256z"/>
					</g>
					<g>
						<path fill="#822B1A" d="M85.625,22.732c0.36,0.257-0.279,3.786-0.598,3.903c-0.48,0.175-2.154,0.259-2.376,0.05
							c-0.231-0.219-0.939-2.358-0.78-2.623C82.048,23.769,85.161,22.4,85.625,22.732z"/>
					</g>
					<g>
						<path fill="#822B1A" d="M89.631,29.601c0.203,0.393-1.975,3.242-2.312,3.2c-0.507-0.063-2.035-0.752-2.137-1.039
							c-0.106-0.3,0.24-2.527,0.502-2.69C85.974,28.891,89.369,29.094,89.631,29.601z"/>
					</g>
					<g>
						<path fill="#822B1A" d="M89.879,38.025c-0.074,0.436-3.526,1.407-3.771,1.171c-0.368-0.354-1.176-1.824-1.085-2.114
							c0.095-0.304,1.709-1.876,2.017-1.849C87.381,35.262,89.974,37.462,89.879,38.025z"/>
					</g>
					<g>
						<path fill="#822B1A" d="M64.539,22.928c-0.377,0.231,0.01,3.796,0.32,3.935c0.466,0.209,2.131,0.411,2.366,0.218
							c0.246-0.202,1.103-2.286,0.964-2.561C68.034,24.215,65.026,22.63,64.539,22.928z"/>
					</g>
					<g>
						<path fill="#822B1A" d="M60.128,29.518c-0.182,0.404,2.146,3.131,2.481,3.072c0.503-0.09,1.992-0.86,2.078-1.152
							c0.09-0.305-0.375-2.51-0.646-2.659C63.742,28.614,60.363,28.998,60.128,29.518z"/>
					</g>
					<g>
						<path fill="#822B1A" d="M60.123,37.469c0.022,0.442,3.338,1.808,3.609,1.602c0.406-0.309,1.38-1.674,1.324-1.973
							c-0.059-0.313-1.479-2.063-1.787-2.072C62.926,35.017,60.094,36.9,60.123,37.469z"/>
					</g>
				</g>
			</g>
			<g>
				<g>
					<path fill="#506931" d="M73.056,24.239c-0.074-0.33,0.676-1.059,0.987-0.925c0.354,0.153,0.358,1.398,0,1.542
						C73.772,24.964,73.12,24.523,73.056,24.239z"/>
					<path fill="#506931" d="M72.025,25.465c0.145-0.305,1.187-0.415,1.347-0.118c0.183,0.339-0.583,1.32-0.953,1.212
						C72.141,26.478,71.9,25.728,72.025,25.465z"/>
					<path fill="#506931" d="M71.343,25.067c-0.201,0.272-1.244,0.178-1.345-0.145c-0.114-0.368,0.827-1.183,1.169-1.005
						C71.425,24.051,71.516,24.833,71.343,25.067z"/>
					<path fill="#506931" d="M68.357,26.399c-0.229-0.248,0.056-1.256,0.392-1.295c0.383-0.044,1.009,1.032,0.771,1.335
						C69.34,26.668,68.555,26.612,68.357,26.399z"/>
					<path fill="#506931" d="M68.078,27.976c-0.027-0.337,0.82-0.953,1.108-0.776c0.328,0.202,0.156,1.435-0.218,1.526
						C68.685,28.795,68.101,28.266,68.078,27.976z"/>
					<path fill="#506931" d="M67.289,28.383c-0.039,0.336-0.988,0.777-1.237,0.547c-0.283-0.261,0.124-1.438,0.509-1.455
						C66.851,27.462,67.322,28.094,67.289,28.383z"/>
					<path fill="#506931" d="M65.462,30.538c-0.326-0.09-0.615-1.096-0.35-1.306c0.302-0.24,1.402,0.344,1.359,0.727
						C66.439,30.248,65.742,30.615,65.462,30.538z"/>
					<path fill="#506931" d="M66.056,32.025c-0.201-0.272,0.194-1.242,0.532-1.244c0.385-0.002,0.889,1.137,0.619,1.412
						C67.004,32.401,66.229,32.259,66.056,32.025z"/>
					<path fill="#506931" d="M65.384,32.438c0.144,0.306-0.43,1.181-0.762,1.117c-0.379-0.073-0.653-1.287-0.335-1.505
						C64.527,31.887,65.26,32.175,65.384,32.438z"/>
					<path fill="#506931" d="M65.127,35.541c-0.325,0.094-1.097-0.613-0.981-0.931c0.132-0.362,1.375-0.439,1.539-0.09
						C65.809,34.783,65.407,35.461,65.127,35.541z"/>
					<path fill="#506931" d="M66.412,36.498c-0.313-0.127-0.484-1.16-0.196-1.338c0.328-0.203,1.352,0.504,1.266,0.88
						C67.416,36.324,66.681,36.608,66.412,36.498z"/>
					<path fill="#506931" d="M66.388,37.588c0.283,0.185,0.251,1.232-0.066,1.351c-0.361,0.136-1.229-0.756-1.072-1.108
						C65.369,37.565,66.145,37.428,66.388,37.588z"/>
					<g>
						<path fill="#506931" d="M84.165,37.181c0.333,0.058,0.72,1.031,0.477,1.266c-0.277,0.268-1.429-0.205-1.424-0.59
							C83.221,37.565,83.878,37.131,84.165,37.181z"/>
						<path fill="#506931" d="M83.427,35.759c0.226,0.251-0.071,1.255-0.407,1.29c-0.383,0.04-0.997-1.044-0.755-1.344
							C82.447,35.478,83.233,35.543,83.427,35.759z"/>
						<path fill="#506931" d="M84.056,35.282c-0.174-0.29,0.312-1.218,0.649-1.187c0.384,0.035,0.776,1.217,0.481,1.465
							C84.963,35.747,84.205,35.531,84.056,35.282z"/>
					</g>
					<g>
						<path fill="#506931" d="M84.65,32.195c0.307-0.142,1.178,0.437,1.113,0.769c-0.075,0.378-1.291,0.645-1.507,0.326
							C84.093,33.048,84.386,32.317,84.65,32.195z"/>
						<path fill="#506931" d="M83.361,31.158c0.328,0.084,0.636,1.084,0.376,1.299c-0.297,0.245-1.408-0.317-1.373-0.701
							C82.39,31.467,83.08,31.086,83.361,31.158z"/>
						<path fill="#506931" d="M83.62,30.412c-0.305-0.145-0.415-1.187-0.118-1.347c0.339-0.183,1.32,0.583,1.212,0.953
							C84.633,30.297,83.883,30.537,83.62,30.412z"/>
					</g>
					<g>
						<path fill="#506931" d="M82.224,27.617c0.218-0.259,1.253-0.101,1.333,0.228c0.091,0.374-0.899,1.129-1.229,0.931
							C82.079,28.626,82.037,27.84,82.224,27.617z"/>
						<path fill="#506931" d="M80.625,27.536c0.331-0.069,1.047,0.695,0.907,1.003c-0.159,0.351-1.404,0.333-1.542-0.027
							C79.887,28.24,80.34,27.595,80.625,27.536z"/>
						<path fill="#506931" d="M80.53,26.752c-0.338,0.003-0.893-0.884-0.697-1.159c0.224-0.313,1.442-0.055,1.507,0.325
							C81.39,26.204,80.821,26.749,80.53,26.752z"/>
					</g>
					<g>
						<path fill="#506931" d="M78.797,24.299c0.332-0.064,1.038,0.709,0.894,1.015c-0.164,0.349-1.409,0.314-1.541-0.048
							C78.05,24.993,78.511,24.354,78.797,24.299z"/>
						<path fill="#506931" d="M76.761,24.8c0.337,0.03,0.801,0.969,0.578,1.223c-0.254,0.29-1.441-0.088-1.468-0.473
							C75.851,25.26,76.471,24.774,76.761,24.8z"/>
						<path fill="#506931" d="M76.28,24.533c-0.293,0.169-1.212-0.333-1.175-0.669c0.042-0.383,1.23-0.755,1.473-0.455
							C76.761,23.634,76.532,24.388,76.28,24.533z"/>
					</g>
				</g>
			</g>
			<g>
				<linearGradient id="SVGID_1_" gradientUnits="userSpaceOnUse" x1="75.3886" y1="30.4654" x2="72.7514" y2="27.3226">
					<stop  offset="0" style="stop-color:#FFF9AE"/>
					<stop  offset="1" style="stop-color:#FAA61A"/>
				</linearGradient>
				<path fill="url(#SVGID_1_)" d="M74.218,27.074c-0.344-0.115-1.038,0.028-1.337,0.142c-0.276,0.105,1.523,4.075,1.523,4.075
					S74.388,27.131,74.218,27.074z"/>
				
					<linearGradient id="SVGID_2_" gradientUnits="userSpaceOnUse" x1="143.801" y1="57.9954" x2="141.1638" y2="54.8525" gradientTransform="matrix(0.866 -0.5 0.5 0.866 -79.79 52.5224)">
					<stop  offset="0" style="stop-color:#FFF9AE"/>
					<stop  offset="1" style="stop-color:#FAA61A"/>
				</linearGradient>
				<path fill="url(#SVGID_2_)" d="M71.033,28.496c-0.355,0.073-0.885,0.544-1.087,0.792c-0.186,0.229,3.357,2.768,3.357,2.768
					S71.209,28.46,71.033,28.496z"/>
				
					<linearGradient id="SVGID_3_" gradientUnits="userSpaceOnUse" x1="187.7796" y1="120.5664" x2="185.1425" y2="117.4236" gradientTransform="matrix(0.5 -0.866 0.866 0.5 -125.9331 134.4852)">
					<stop  offset="0" style="stop-color:#FFF9AE"/>
					<stop  offset="1" style="stop-color:#FAA61A"/>
				</linearGradient>
				<path fill="url(#SVGID_3_)" d="M68.848,31.465c-0.271,0.241-0.494,0.913-0.545,1.229c-0.047,0.291,4.291,0.718,4.291,0.718
					S68.982,31.346,68.848,31.465z"/>
				
					<linearGradient id="SVGID_4_" gradientUnits="userSpaceOnUse" x1="194.9447" y1="196.0338" x2="192.3075" y2="192.8909" gradientTransform="matrix(4.489700e-011 -1 1 4.489700e-011 -124.2533 228.7926)">
					<stop  offset="0" style="stop-color:#FFF9AE"/>
					<stop  offset="1" style="stop-color:#FAA61A"/>
				</linearGradient>
				<path fill="url(#SVGID_4_)" d="M68.389,35.019c-0.115,0.344,0.028,1.038,0.142,1.337c0.105,0.276,4.075-1.523,4.075-1.523
					S68.446,34.848,68.389,35.019z"/>
				
					<linearGradient id="SVGID_5_" gradientUnits="userSpaceOnUse" x1="96.5951" y1="30.6528" x2="93.9579" y2="27.51" gradientTransform="matrix(-1 0 0 1 171.2065 0)">
					<stop  offset="0" style="stop-color:#FFF9AE"/>
					<stop  offset="1" style="stop-color:#FAA61A"/>
				</linearGradient>
				<path fill="url(#SVGID_5_)" d="M75.782,27.261c0.344-0.115,1.038,0.028,1.337,0.142c0.276,0.105-1.523,4.075-1.523,4.075
					S75.612,27.318,75.782,27.261z"/>
				
					<linearGradient id="SVGID_6_" gradientUnits="userSpaceOnUse" x1="162.0726" y1="68.7609" x2="159.4354" y2="65.6181" gradientTransform="matrix(-0.866 -0.5 -0.5 0.866 250.9965 52.5224)">
					<stop  offset="0" style="stop-color:#FFF9AE"/>
					<stop  offset="1" style="stop-color:#FAA61A"/>
				</linearGradient>
				<path fill="url(#SVGID_6_)" d="M78.967,28.683c0.355,0.073,0.885,0.544,1.087,0.792c0.186,0.229-3.357,2.768-3.357,2.768
					S78.791,28.647,78.967,28.683z"/>
				
					<linearGradient id="SVGID_7_" gradientUnits="userSpaceOnUse" x1="198.2206" y1="139.0255" x2="195.5834" y2="135.8826" gradientTransform="matrix(-0.5 -0.866 -0.866 0.5 297.1396 134.4852)">
					<stop  offset="0" style="stop-color:#FFF9AE"/>
					<stop  offset="1" style="stop-color:#FAA61A"/>
				</linearGradient>
				<path fill="url(#SVGID_7_)" d="M81.152,31.652c0.271,0.241,0.494,0.913,0.545,1.229c0.047,0.291-4.291,0.718-4.291,0.718
					S81.018,31.533,81.152,31.652z"/>
				
					<linearGradient id="SVGID_8_" gradientUnits="userSpaceOnUse" x1="194.7572" y1="217.2402" x2="192.1201" y2="214.0974" gradientTransform="matrix(0 -1 -1 0 295.4597 228.7926)">
					<stop  offset="0" style="stop-color:#FFF9AE"/>
					<stop  offset="1" style="stop-color:#FAA61A"/>
				</linearGradient>
				<path fill="url(#SVGID_8_)" d="M81.611,35.206c0.115,0.344-0.028,1.038-0.142,1.337c-0.105,0.276-4.075-1.523-4.075-1.523
					S81.554,35.036,81.611,35.206z"/>
			</g>
		</g>
	</g>
	<g>
		<g>
			<g>
				<path fill="#822B1A" d="M57.762,70.687c0,1.266-0.591,2.377-1.774,3.334c-1.183,0.957-2.504,1.435-3.965,1.435
					c-1.652,0-3.017-0.483-4.095-1.447c-1.078-0.965-1.617-2.133-1.617-3.504c0-0.964,0.269-1.876,0.809-2.735
					c0.539-0.738,1.087-1.484,1.643-2.238c0.487-0.753,0.748-1.642,0.783-2.668c0.348,0.347,0.522,0.919,0.522,1.718
					c0,0.211-0.052,0.46-0.157,0.746c0.504,0,0.913,0.087,1.226,0.26c0.313,0.173,0.47,0.463,0.47,0.87
					c-0.487-0.136-0.983-0.203-1.487-0.203c-0.818,0-1.513,0.528-2.087,1.582c-0.487,0.904-0.73,1.794-0.73,2.668
					c0,0.919,0.304,1.703,0.913,2.351c0.643,0.708,1.469,1.063,2.478,1.063c1.008,0,1.817-0.362,2.426-1.085
					c0.556-0.648,0.835-1.424,0.835-2.328c0-1.507-0.704-2.584-2.113-3.233c0.817-0.211,1.522-1.891,2.113-5.041
					c1.617,2.396,2.495,3.73,2.635,4.001C57.37,67.68,57.762,69.165,57.762,70.687z M53.003,62.47c0,0.829-0.479,1.243-1.435,1.243
					c-0.939,0-1.409-0.414-1.409-1.243c0-0.814,0.47-1.221,1.409-1.221C52.524,61.249,53.003,61.656,53.003,62.47z"/>
				<path fill="#822B1A" d="M73.335,70.506h-7.643c-0.278,1.341-0.644,2.321-1.096,2.939c-0.522,0.723-1.417,1.394-2.687,2.012
					V43.835c3.385,0,3.817-0.006,5.713-0.006c-1.287,0-1.93,0.55-1.93,1.65v21.727c1.287-0.376,1.93-0.927,1.93-1.65
					c0,1.748,0.469,2.977,1.409,3.685C69.796,69.813,71.23,70.235,73.335,70.506z"/>
				<path fill="#822B1A" d="M87.186,70.506h-1.93c0,1.402-0.548,2.577-1.643,3.527c-1.096,0.949-2.452,1.424-4.069,1.424
					c-1.6,0-2.935-0.479-4.004-1.435c-1.07-0.957-1.604-2.129-1.604-3.515c0,0.783,0.387,1.529,1.161,2.238
					c0.774,0.708,1.613,1.063,2.517,1.063c1.148,0,2.069-0.302,2.765-0.904c0.695-0.603,1.043-1.402,1.043-2.396h-6.234v-3.3
					c0-3.27,2.078-5.064,6.234-5.38c0.556-0.015,1.348-0.166,2.374-0.452c0.417-0.256,0.904-0.656,1.461-1.198v7.03h1.93V70.506z
					 M81.421,67.206v-2.08c-1.757,0-2.635,0.693-2.635,2.08H81.421z"/>
				<path fill="#822B1A" d="M95.247,70.506h-9.313v-3.3h4.774v-4.973c0-0.979-0.479-1.529-1.435-1.65
					c1.6-0.467,2.791-1.066,3.574-1.797c0.783-0.731,1.33-1.782,1.643-3.154v11.574h0.756V70.506z M91.256,73.365
					c0,0.814-0.478,1.221-1.435,1.221c-0.939,0-1.409-0.407-1.409-1.221c0-0.829,0.47-1.243,1.409-1.243
					C90.777,72.122,91.256,72.536,91.256,73.365z M95.09,73.365c0,0.814-0.478,1.221-1.435,1.221c-0.939,0-1.409-0.407-1.409-1.221
					c0-0.829,0.47-1.243,1.409-1.243C94.612,72.122,95.09,72.536,95.09,73.365z"/>
				<path fill="#822B1A" d="M101.586,75.457c-1.235-0.528-2.131-1.198-2.687-2.012c-0.417-0.618-0.783-1.598-1.096-2.939H92.09v-3.3
					h5.713V45.479c0-1.1-0.644-1.645-1.93-1.65c1.699,0.006,5.713,0.006,5.713,0.006V75.457z"/>
				<path fill="#822B1A" d="M105.448,37.434c0-1.1-0.644-1.645-1.93-1.65c1.699,0.006,5.713,0.006,5.713,0.006v58.901
					c-1.235-0.528-2.13-1.198-2.687-2.012c-0.417-0.618-0.783-1.598-1.096-2.939V37.434z"/>
				<path fill="#822B1A" d="M44.552,89.695c-0.313,1.341-0.678,2.321-1.096,2.939c-0.556,0.814-1.452,1.484-2.687,2.012V35.79
					c0,0,4.014,0,5.713-0.006c-1.287,0.005-1.93,0.55-1.93,1.65V89.695z"/>
			</g>
		</g>
		<g>
			<g>
				<g>
					<path fill="#506931" d="M55.287,48.884c-0.195,0.149-0.423,0.255-0.581,0.454c-1.777,2.238-2.783,4.979-3.049,8.194
						c-0.058,0.702-0.115,1.404-0.215,2.105c0.01-0.944,0.019-1.889,0.029-2.833c-0.025-0.006-0.05-0.012-0.074-0.017
						c-0.055,0.452-0.13,0.902-0.16,1.357c-0.034,0.505,0.032,1.037-0.06,1.517c-0.063,0.33-0.323,0.592-0.558,0.993
						c-0.731-0.281-0.581-1.396-1.029-2.389c0.579,0.392,0.973,0.659,1.389,0.941c-0.005,0.005,0.067-0.032,0.065-0.063
						c-0.209-3.32,0.632-6.414,1.058-9.602c0.27-2.016,0.294-4.094,0.399-6.148c0.02-0.387-0.097-0.788-0.191-1.482
						c-0.487,0.843-0.877,1.453-1.198,2.119c-0.088,0.183-0.024,0.575,0.068,0.808c0.567,1.43,0.674,2.903,0.437,4.455
						c-0.227,1.483-0.393,2.982-0.584,4.458c-0.417-2.909,0.752-5.857-0.224-9.058c-1.018,2.907-1.538,5.636-0.959,8.6
						c-0.031-1.03-0.062-2.06-0.093-3.09c0.013,0.002,0.026,0.005,0.039,0.007c0.226,1.751,0.452,3.501,0.721,5.577
						c-0.367-0.686-0.722-1.142-0.887-1.692c-0.958-3.191-0.385-6.198,0.608-9.147c0.129-0.383,0.165-0.82,0.255-1.287
						c0.025-0.005,0.255,0.039,0.35-0.088c0.413-0.553,0.811-1.134,1.162-1.755c0.11-0.194,0.129-0.571,0.071-0.82
						c-0.615-2.624-2.496-4.434-4.601-4.485c-0.276-0.007-0.553-0.108-0.829-0.166c0.627-0.019,1.253-0.038,1.88-0.056
						c2.254,1.101,2.754,1.498,4.077,4.877c1.067-0.781,2.173-1.4,3.221-1.055c-0.788,0.331-1.767,0.706-2.718,1.174
						c-0.176,0.087-0.372,0.586-0.331,0.837c0.56,3.433,0.228,6.751-0.562,10.022c-0.029,0.119-0.028,0.251,0.005,0.402
						c0.929-2.086,1.402-4.552,3.021-6.029l-0.024,0.034c1.011-0.582,2.006-1.216,3.041-1.718c0.378-0.184,0.85-0.053,1.279-0.066
						c0.027,0.105,0.055,0.209,0.082,0.314c-0.496,0.28-0.992,0.56-1.667,0.941c1.322-0.196,2.463-0.383,3.697,0.571
						c-2.528-1.096-4.413,0.144-6.186,1.897c-0.092,0.091-0.129,0.277-0.191,0.418L55.287,48.884z"/>
					<path fill="#506931" d="M55.287,48.884l-0.023,0.026c0.851-0.768,1.785-0.976,2.816-0.754c0.603,0.13,1.223,0.117,1.939,0.396
						c-0.492,0.348-0.954,0.848-1.482,1.016c-1.485,0.473-2.997,0.809-4.537,1.209C54.4,50.19,54.844,49.537,55.287,48.884z"/>
					<path fill="#506931" d="M52.846,54.467c-0.132,0.189-0.265,0.378-0.407,0.581c0.259-2.256,2.197-4.393,4.256-4.713
						c2.687-0.418,4.351,1.718,4.023,5.258c-0.01-0.317-0.011-0.635-0.03-0.952c-0.136-2.328-1.375-3.882-3.163-3.737
						c-2.01,0.162-3.686,1.201-4.703,3.596L52.846,54.467z"/>
					<path fill="#506931" d="M55.234,46.52c-0.172,0.036-0.343,0.072-0.583,0.121c0.088-0.264,0.163-0.485,0.271-0.807
						c-0.302,0.12-0.532,0.212-0.763,0.304c-0.471-1.691,0.074-2.358,2.75-3.273c-0.608,1.321-1.152,2.503-1.697,3.687
						C55.21,46.554,55.234,46.52,55.234,46.52z"/>
					<path fill="#506931" d="M52.822,54.5c0.126-0.003,0.351,0.035,0.363-0.015c0.387-1.659,1.603-1.75,2.579-2.275
						c0.126-0.068,0.323,0.081,0.488,0.13c-0.092,0.157-0.159,0.4-0.28,0.457c-0.673,0.317-1.119,0.909-1.503,1.686
						c-0.231,0.468-0.689,0.734-1.005,1.144c-0.236,0.307-0.396,0.709-0.611,1.047c-0.099,0.156-0.247,0.259-0.372,0.386
						c-0.046-0.221-0.164-0.468-0.125-0.658c0.133-0.655,0.321-1.29,0.488-1.933C52.846,54.467,52.822,54.5,52.822,54.5z"/>
					<path fill="#506931" d="M47.534,37.087c0.781,0.244,1.608,0.244,2.176,0.746c0.695,0.614,1.179,1.641,1.733,2.514
						c0.053,0.084-0.051,0.336-0.082,0.509c-0.112-0.05-0.275-0.055-0.328-0.156c-0.418-0.807-1.021-1.174-1.709-1.47
						c-0.392-0.168-0.698-0.664-1.064-0.967c-0.229-0.189-0.501-0.288-0.75-0.44c-0.162-0.099-0.316-0.219-0.474-0.33
						C47.197,37.362,47.358,37.23,47.534,37.087z"/>
					<path fill="#506931" d="M53.244,48.106c-0.058-1.925-0.12-3.998-0.185-6.162C53.926,42.766,53.94,45.616,53.244,48.106z"/>
					<path fill="#506931" d="M51.771,61.231c-0.267-1.499,0.382-2.419,0.925-3.379C53.036,58.978,52.998,59.125,51.771,61.231z"/>
				</g>
				<path fill="#506931" d="M52.822,54.5c1.016-2.395,2.693-3.434,4.703-3.596c1.788-0.144,3.027,1.409,3.163,3.737
					c0.018,0.317,0.02,0.635,0.03,0.952c0.329-3.54-1.336-5.676-4.023-5.258c-2.059,0.32-3.997,2.457-4.256,4.713
					c0.142-0.202,0.274-0.391,0.406-0.579c-0.167,0.643-0.355,1.277-0.488,1.932c-0.039,0.19,0.079,0.437,0.125,0.658
					c0.126-0.127,0.273-0.23,0.372-0.386c0.214-0.338,0.375-0.741,0.611-1.047c0.315-0.41,0.774-0.676,1.005-1.144
					c0.384-0.777,0.829-1.37,1.503-1.686c0.121-0.057,0.188-0.3,0.28-0.457c-0.164-0.049-0.362-0.198-0.488-0.13
					c-0.976,0.525-2.193,0.616-2.579,2.275C53.174,54.535,52.948,54.497,52.822,54.5z"/>
				<path fill="#506931" d="M47.534,37.087c-0.176,0.143-0.337,0.275-0.499,0.407c0.158,0.111,0.312,0.231,0.474,0.33
					c0.249,0.151,0.521,0.25,0.75,0.44c0.367,0.303,0.673,0.799,1.064,0.967c0.689,0.296,1.292,0.663,1.709,1.47
					c0.052,0.101,0.216,0.106,0.328,0.156c0.031-0.174,0.135-0.425,0.082-0.509c-0.553-0.872-1.038-1.9-1.733-2.514
					C49.142,37.331,48.315,37.331,47.534,37.087z"/>
				<path fill="#506931" d="M53.244,48.106c0.696-2.491,0.682-5.34-0.185-6.162C53.124,44.109,53.186,46.182,53.244,48.106z"/>
			</g>
			<path fill="#506931" d="M51.771,61.231c1.227-2.106,1.266-2.252,0.925-3.379C52.153,58.811,51.504,59.731,51.771,61.231z"/>
		</g>
	</g>
</g>
</svg>
