<?xml version="1.0" encoding="utf-8"?>
<!-- Generator: Adobe Illustrator 17.0.0, SVG Export Plug-In . SVG Version: 6.00 Build 0)  -->
<!DOCTYPE svg PUBLIC "-//W3C//DTD SVG 1.1//EN" "http://www.w3.org/Graphics/SVG/1.1/DTD/svg11.dtd">
<svg version="1.1" id="Layer_1" xmlns="http://www.w3.org/2000/svg" xmlns:xlink="http://www.w3.org/1999/xlink" x="0px" y="0px"
	 width="150px" height="100px" viewBox="0 0 150 100" enable-background="new 0 0 150 100" xml:space="preserve">
<g>
	<image overflow="visible" width="146" height="49" xlink:href="D0E80B25.png"  transform="matrix(1 0 0 1 2.2767 26.1067)">
	</image>
	<g>
		<g>
			<g>
				<g>
					<path fill="#F26522" d="M65.919,27.956c-6.391,5.067-10.591,14.882-10.591,22.049c0,3.287,0.959,5.25,2.465,5.25
						c1.278,0,2.511-0.867,3.743-2.556c0.228-0.183,0.502,0.046,0.457,0.274c-1.415,2.009-3.789,4.291-5.478,4.291
						s-3.287-1.826-3.287-5.661c0-6.345,2.83-15.019,8.4-20.725C53.32,36.402,43.733,47.175,39.214,55.94
						c-0.228,0.411-1.233,1.324-1.598,1.324c-0.228,0-0.365-0.091-0.365-0.32c1.278-9.45,3.698-16.525,6.985-22.734
						C33.508,48.818,23.921,57.264,12.417,57.264c-5.478,0-8.81-3.332-8.81-7.806c0-2.922,1.552-5.478,4.474-6.893
						c0.228-0.137,0.411,0.228,0.228,0.457c-2.054,1.233-2.785,2.648-2.785,5.204c0,4.017,2.922,7.395,8.536,7.395
						c11.732,0,21.41-10.5,31.134-23.875c-4.702-1.461-9.998-2.602-14.699-2.602c-5.067,0-8.628,2.602-9.358,8.034
						c-0.137,0.32-0.457,0.228-0.502-0.091c0.73-5.98,5.021-9.221,11.595-9.221c5.524,0,11.458,1.461,15.475,2.693l0.457-0.091
						c0.228,0,0.274,0.32,0.137,0.502c-0.913,0.548-1.415,1.278-2.146,2.556c-3.332,6.071-5.158,12.873-6.482,19.675
						c6.345-10.134,16.754-20.588,25.975-25.884C65.965,27.317,66.148,27.728,65.919,27.956z"/>
					<path fill="#F26522" d="M76.188,54.662c-1.415,1.78-2.876,2.602-3.835,2.602c-1.233,0-1.461-2.419-0.594-4.976
						c-1.826,2.556-3.926,4.611-5.797,4.976c-1.141,0-2.146-1.05-2.146-3.287c0-4.017,3.88-8.354,8.354-8.354
						c1.233,0,2.009,0.228,2.739,0.731c0.411-0.32,1.233-0.639,1.826-0.639c0.137,0,0.183,0.091,0.137,0.228
						c-3.013,3.378-4.474,8.902-3.652,9.952c0.32,0.411,1.187,0.137,2.602-1.506C75.96,54.251,76.234,54.433,76.188,54.662z
						 M73.86,47.677c-0.228-0.776-1.324-1.324-2.602-1.324c-2.876,0-5.478,2.922-5.478,7.03c0,1.324,0.594,2.328,1.324,2.328
						C68.565,55.712,72.034,51.557,73.86,47.677z"/>
					<path fill="#F26522" d="M87.098,46.262c-1.05,0.046-2.419,0.091-3.743,0.228c-1.324,3.059-2.328,6.026-2.328,7.852
						c0,1.05,0.457,1.552,1.324,1.552s1.78-0.685,2.83-2.1c0.228-0.137,0.456,0.046,0.411,0.365
						c-1.187,1.689-3.241,3.104-4.246,3.104c-1.506,0-2.191-0.959-2.191-2.1c0-2.009,1.05-5.25,2.465-8.491l-1.233,0.183
						l-1.187,0.183c-0.639-0.137,0.913-1.096,1.963-1.096c0.183-0.046,0.32-0.046,0.457-0.046h0.365
						c0.913-1.872,1.872-3.652,2.785-5.113c0.867-0.73,2.282-1.05,2.146-0.639c-1.141,1.598-2.237,3.606-3.287,5.661
						c1.233,0,2.419-0.046,3.743-0.046C87.692,45.897,87.646,46.216,87.098,46.262z"/>
					<path fill="#F26522" d="M91.526,48.453c-0.091,0.593-0.228,1.141-0.411,1.735c1.324-2.785,2.967-4.611,4.839-4.611
						c0.731,0,1.415,0.365,1.415,1.05c0,0.502-0.502,1.415-0.868,1.78c-0.228,0.137-0.319,0.091-0.319-0.137
						c0-0.502-0.365-0.776-1.141-0.776c-2.374,0-4.154,3.378-5.843,9.039c-0.137,0.593-1.096,0.73-1.643,0.73
						c-0.365,0-0.456-0.183-0.274-0.502c1.233-2.556,2.191-6.163,2.693-8.582c0.137-0.913-0.046-1.37-0.502-1.37
						c-0.548,0-1.324,0.639-1.917,1.37c-0.319,0.137-0.548-0.091-0.411-0.32c1.05-1.141,2.328-2.282,3.424-2.282
						c0.73,0,1.096,0.411,1.096,1.278C91.663,47.312,91.617,47.86,91.526,48.453z"/>
					<path fill="#F26522" d="M97.734,48.407c0.913-0.867,2.693-2.1,4.291-2.83c0.274,0,0.411,0.137,0.411,0.411
						c-1.735,2.83-3.469,6.848-3.469,8.902c0,0.639,0.228,0.959,0.73,0.959c0.73,0,1.37-0.639,2.282-1.598
						c0.137-0.137,0.457,0.137,0.32,0.365c-1.233,1.324-2.648,2.648-3.88,2.648c-0.868,0-1.324-0.502-1.324-1.506
						c0-2.374,1.963-6.711,3.515-8.856c-0.73,0.502-2.054,1.37-2.602,1.872C97.825,48.91,97.551,48.59,97.734,48.407z
						 M100.225,42.382c0.867-1.096,2.1-2.282,3.698-3.515c0.183-0.046,0.502,0.137,0.365,0.274
						c-1.461,1.141-2.739,2.876-3.698,4.474C100.225,43.979,99.86,42.884,100.225,42.382z"/>
				</g>
				<g>
					<polygon fill="#FFFFFF" points="108.634,40.436 105.603,41.355 123.977,69.651 131.786,72.683 					"/>
					<polygon fill="#FFFFFF" points="133.807,32.443 103.581,61.107 106.154,62.21 146.393,28.493 					"/>
				</g>
				<polygon fill="#F26522" points="138.217,40.62 135.185,41.263 120.527,53.155 127.466,61.998 130.177,63.095 122.948,53.123 
									"/>
			</g>
			<g>
				<g>
					<path fill="#FFFFFF" d="M95.463,72.043c-0.412,0.206-1.236,0.412-2.292,0.412c-2.446,0-4.288-1.545-4.288-4.391
						c0-2.717,1.841-4.558,4.532-4.558c1.082,0,1.764,0.232,2.06,0.386l-0.27,0.914c-0.425-0.206-1.03-0.36-1.751-0.36
						c-2.034,0-3.386,1.3-3.386,3.579c0,2.125,1.223,3.489,3.335,3.489c0.682,0,1.378-0.142,1.828-0.36L95.463,72.043z"/>
					<path fill="#FFFFFF" d="M102.647,68.258h-3.373v3.129h3.76v0.94h-4.88v-8.678h4.687v0.94h-3.567v2.743h3.373V68.258z"/>
					<path fill="#FFFFFF" d="M105.776,63.648h1.12v7.738h3.708v0.94h-4.828V63.648z"/>
					<path fill="#FFFFFF" d="M113.141,63.648h1.12v7.738h3.708v0.94h-4.828V63.648z"/>
				</g>
			</g>
			
				<line fill="none" stroke="#FFFFFF" stroke-width="1.1618" stroke-miterlimit="10" x1="4.828" y1="63.683" x2="86.152" y2="63.683"/>
			
				<line fill="none" stroke="#FFFFFF" stroke-width="1.1618" stroke-miterlimit="10" x1="4.828" y1="72.009" x2="86.152" y2="72.009"/>
			<g>
				<g>
					<g>
						<path fill="#FFFFFF" d="M6.181,69.476l-0.518,1.307H4.997l1.694-4.154h0.777l1.701,4.154H8.481l-0.533-1.307H6.181z
							 M7.816,69.057l-0.488-1.196c-0.111-0.271-0.185-0.518-0.259-0.758H7.054c-0.074,0.247-0.155,0.499-0.251,0.752l-0.488,1.202
							H7.816z"/>
						<path fill="#FFFFFF" d="M10.552,70.129c0.288,0.148,0.71,0.271,1.154,0.271c0.658,0,1.043-0.29,1.043-0.709
							c0-0.388-0.266-0.61-0.939-0.826c-0.814-0.24-1.317-0.592-1.317-1.177c0-0.647,0.644-1.128,1.612-1.128
							c0.51,0,0.88,0.099,1.102,0.203l-0.178,0.438c-0.163-0.074-0.496-0.197-0.947-0.197c-0.68,0-0.939,0.339-0.939,0.622
							c0,0.388,0.303,0.579,0.991,0.801c0.843,0.271,1.272,0.61,1.272,1.22c0,0.641-0.57,1.196-1.746,1.196
							c-0.481,0-1.006-0.117-1.272-0.265L10.552,70.129z"/>
						<path fill="#FFFFFF" d="M14.938,70.129c0.288,0.148,0.71,0.271,1.154,0.271c0.658,0,1.043-0.29,1.043-0.709
							c0-0.388-0.266-0.61-0.939-0.826c-0.814-0.24-1.317-0.592-1.317-1.177c0-0.647,0.644-1.128,1.612-1.128
							c0.51,0,0.88,0.099,1.102,0.203l-0.178,0.438c-0.163-0.074-0.496-0.197-0.947-0.197c-0.68,0-0.939,0.339-0.939,0.622
							c0,0.388,0.303,0.579,0.991,0.801c0.843,0.271,1.272,0.61,1.272,1.22c0,0.641-0.57,1.196-1.746,1.196
							c-0.481,0-1.006-0.117-1.272-0.265L14.938,70.129z"/>
						<path fill="#FFFFFF" d="M20.056,66.628v4.154h-0.643v-4.154H20.056z"/>
						<path fill="#FFFFFF" d="M21.831,70.129c0.288,0.148,0.71,0.271,1.154,0.271c0.658,0,1.043-0.29,1.043-0.709
							c0-0.388-0.266-0.61-0.939-0.826c-0.814-0.24-1.317-0.592-1.317-1.177c0-0.647,0.644-1.128,1.612-1.128
							c0.51,0,0.88,0.099,1.102,0.203l-0.178,0.438c-0.163-0.074-0.496-0.197-0.947-0.197c-0.68,0-0.939,0.339-0.939,0.622
							c0,0.388,0.303,0.579,0.991,0.801c0.843,0.271,1.272,0.61,1.272,1.22c0,0.641-0.57,1.196-1.746,1.196
							c-0.481,0-1.006-0.117-1.272-0.265L21.831,70.129z"/>
						<path fill="#FFFFFF" d="M27.253,67.084h-1.516v-0.456h3.691v0.456h-1.524v3.698h-0.651V67.084z"/>
						<path fill="#FFFFFF" d="M33.303,68.835h-1.938v1.498h2.16v0.45h-2.803v-4.154h2.692v0.45h-2.049v1.313h1.938V68.835z"/>
						<path fill="#FFFFFF" d="M35.1,70.782v-4.154h0.703L37.4,68.73c0.37,0.487,0.658,0.924,0.895,1.35l0.015-0.006
							c-0.059-0.555-0.074-1.06-0.074-1.707v-1.738h0.607v4.154h-0.651l-1.583-2.108c-0.348-0.462-0.68-0.937-0.932-1.387
							l-0.022,0.006c0.037,0.524,0.052,1.023,0.052,1.713v1.775H35.1z"/>
						<path fill="#FFFFFF" d="M44.19,70.647c-0.237,0.099-0.71,0.197-1.317,0.197c-1.405,0-2.463-0.74-2.463-2.102
							c0-1.3,1.058-2.182,2.604-2.182c0.621,0,1.013,0.111,1.183,0.185l-0.155,0.438c-0.244-0.099-0.592-0.173-1.006-0.173
							c-1.169,0-1.945,0.622-1.945,1.713c0,1.017,0.703,1.67,1.916,1.67c0.392,0,0.791-0.068,1.05-0.173L44.19,70.647z"/>
						<path fill="#FFFFFF" d="M46.379,66.628v4.154h-0.643v-4.154H46.379z"/>
						<path fill="#FFFFFF" d="M49.049,69.476l-0.518,1.307h-0.666l1.694-4.154h0.777l1.701,4.154h-0.688l-0.533-1.307H49.049z
							 M50.684,69.057l-0.488-1.196c-0.111-0.271-0.185-0.518-0.259-0.758h-0.015c-0.074,0.247-0.155,0.499-0.251,0.752
							l-0.488,1.202H50.684z"/>
						<path fill="#FFFFFF" d="M56.46,67.084h-1.516v-0.456h3.691v0.456h-1.524v3.698H56.46V67.084z"/>
						<path fill="#FFFFFF" d="M62.51,68.835h-1.938v1.498h2.16v0.45h-2.803v-4.154h2.692v0.45h-2.049v1.313h1.938V68.835z"/>
						<path fill="#FFFFFF" d="M67.791,70.647c-0.237,0.099-0.71,0.197-1.317,0.197c-1.405,0-2.463-0.74-2.463-2.102
							c0-1.3,1.058-2.182,2.604-2.182c0.621,0,1.013,0.111,1.183,0.185l-0.155,0.438c-0.244-0.099-0.592-0.173-1.006-0.173
							c-1.169,0-1.945,0.622-1.945,1.713c0,1.017,0.703,1.67,1.916,1.67c0.392,0,0.791-0.068,1.05-0.173L67.791,70.647z"/>
						<path fill="#FFFFFF" d="M69.337,70.782v-4.154h0.703l1.598,2.102c0.37,0.487,0.658,0.924,0.895,1.35l0.015-0.006
							c-0.059-0.555-0.074-1.06-0.074-1.707v-1.738h0.607v4.154h-0.651l-1.583-2.108c-0.348-0.462-0.68-0.937-0.932-1.387
							l-0.022,0.006c0.037,0.524,0.052,1.023,0.052,1.713v1.775H69.337z"/>
						<path fill="#FFFFFF" d="M75.586,66.628v4.154h-0.643v-4.154H75.586z"/>
						<path fill="#FFFFFF" d="M80.934,70.647c-0.237,0.099-0.71,0.197-1.317,0.197c-1.405,0-2.463-0.74-2.463-2.102
							c0-1.3,1.058-2.182,2.604-2.182c0.621,0,1.013,0.111,1.184,0.185l-0.155,0.438c-0.244-0.099-0.592-0.173-1.006-0.173
							c-1.169,0-1.945,0.622-1.945,1.713c0,1.017,0.703,1.67,1.916,1.67c0.392,0,0.791-0.068,1.05-0.173L80.934,70.647z"/>
						<path fill="#FFFFFF" d="M83.315,69.476l-0.518,1.307h-0.666l1.694-4.154h0.777l1.701,4.154h-0.688l-0.533-1.307H83.315z
							 M84.95,69.057l-0.488-1.196c-0.111-0.271-0.185-0.518-0.259-0.758h-0.015c-0.074,0.247-0.155,0.499-0.251,0.752l-0.488,1.202
							H84.95z"/>
					</g>
				</g>
				<g>
					<g>
						<path fill="#FFFFFF" d="M58.838,65.315l-0.844,0.881h-0.436l0.609-0.881H58.838z"/>
					</g>
				</g>
				<g>
					<path fill="#FFFFFF" d="M31.507,66.209c-0.129,0-0.436-0.229-0.923-0.686c-0.176,0.165-0.355,0.321-0.538,0.467
						c-0.183,0.146-0.311,0.219-0.382,0.219c-0.072,0-0.147-0.035-0.226-0.105c0.079-0.119,0.247-0.306,0.505-0.561
						c0.258-0.255,0.472-0.455,0.641-0.601c0.161,0.14,0.371,0.339,0.631,0.596c0.26,0.258,0.431,0.446,0.513,0.565
						C31.642,66.174,31.568,66.209,31.507,66.209z"/>
				</g>
			</g>
		</g>
	</g>
</g>
</svg>
