<?xml version="1.0" encoding="utf-8"?>
<!-- Generator: Adobe Illustrator 17.0.0, SVG Export Plug-In . SVG Version: 6.00 Build 0)  -->
<!DOCTYPE svg PUBLIC "-//W3C//DTD SVG 1.1//EN" "http://www.w3.org/Graphics/SVG/1.1/DTD/svg11.dtd">
<svg version="1.1" id="STICKERS" xmlns="http://www.w3.org/2000/svg" xmlns:xlink="http://www.w3.org/1999/xlink" x="0px" y="0px"
	 width="150px" height="100px" viewBox="0 0 150 100" enable-background="new 0 0 150 100" xml:space="preserve">
<g>
	<g opacity="0.13">
		<path fill="#ED1C24" d="M49.825,20.166v8.629c10.231,3.315,17.633,12.917,17.633,24.253c0,14.082-11.416,25.5-25.5,25.5
			s-25.499-11.418-25.499-25.5c0-11.336,7.399-20.94,17.633-24.255v-8.636C19.209,23.704,8.138,37.081,8.138,53.049
			c0,18.678,15.143,33.818,33.82,33.818c18.68,0,33.82-15.14,33.82-33.818C75.779,37.081,64.706,23.715,49.825,20.166z"/>
		<rect x="37.659" y="13.134" fill="#ED1C24" width="8.243" height="48.466"/>
	</g>
	<g>
		<g>
			<path fill="#ED2224" d="M63.283,52.975V52.24c0.079-1.266-0.419-2.594-1.502-3.982c-1.083-1.388-2.441-2.062-4.073-2.022h-2.084
				c-1.715-0.041-3.185,0.639-4.412,2.037c-1.224,1.4-1.836,2.937-1.836,4.61v0.031c0,1.674,0,4.453,0,8.333
				c-0.205,0.366-0.584,0.551-1.135,0.551s-0.929-0.226-1.133-0.673v-4.536v-3.185v-1.011c0-2.123,0.612-3.895,1.838-5.315
				c1.227-1.419,2.697-2.373,4.412-2.865c2.04-0.325,4.043-0.325,6.003,0c1.695,0.348,3.171,1.268,4.427,2.758
				c1.256,1.49,1.884,3.298,1.884,5.422v1.011v3.185v4.596c-0.205,0.368-0.594,0.582-1.165,0.644
				c-0.571,0.063-0.979-0.134-1.224-0.581C63.283,61.248,63.283,52.975,63.283,52.975z"/>
		</g>
		<g>
			<path fill="#FFFFFF" d="M85.379,46.674c0.199,0.174,0.299,0.429,0.299,0.763v6.878c0,0.233-0.072,0.426-0.216,0.578
				c-0.144,0.153-0.31,0.226-0.498,0.219s-0.35-0.094-0.484-0.257c-0.135-0.163-0.202-0.356-0.202-0.582v-5.474l-4.282,2.672
				c-0.299,0.196-0.474,0.293-0.527,0.293c-0.065,0-0.235-0.094-0.512-0.283l-4.282-2.693v5.463c0,0.239-0.068,0.443-0.202,0.609
				c-0.135,0.168-0.299,0.252-0.494,0.252c-0.177,0-0.33-0.069-0.462-0.208c-0.133-0.138-0.198-0.309-0.198-0.513v-6.802
				c0-0.408,0.085-0.699,0.256-0.873c0.105-0.109,0.227-0.164,0.369-0.164c0.153,0,0.369,0.087,0.653,0.262l4.455,2.769
				c0.236,0.161,0.38,0.24,0.432,0.24c0.041,0,0.181-0.08,0.423-0.242l4.685-2.952c0.13-0.08,0.255-0.12,0.381-0.12
				C85.114,46.51,85.249,46.564,85.379,46.674z"/>
			<path fill="#FFFFFF" d="M90.039,46.466h6.412c0.911,0,1.688,0.4,2.334,1.199c0.645,0.799,0.969,1.763,0.969,2.888v0.393
				c0,1.127-0.323,2.09-0.969,2.89s-1.423,1.199-2.334,1.199h-6.412c-0.912,0-1.688-0.399-2.335-1.199
				c-0.646-0.8-0.969-1.763-0.969-2.89v-0.393c0-1.126,0.323-2.089,0.969-2.888C88.351,46.866,89.127,46.466,90.039,46.466z
				 M96.354,53.312c0.557-0.028,1.03-0.292,1.419-0.79c0.387-0.497,0.581-1.092,0.581-1.782c0-0.69-0.194-1.285-0.581-1.783
				c-0.389-0.498-0.861-0.76-1.419-0.791h-6.183c-0.575,0-1.067,0.251-1.472,0.753c-0.404,0.501-0.608,1.109-0.608,1.821
				c0,0.713,0.204,1.319,0.608,1.82c0.405,0.502,0.897,0.752,1.472,0.752C90.171,53.312,96.354,53.312,96.354,53.312z"/>
			<path fill="#FFFFFF" d="M111.019,46.466c0.84,0,1.46,0.506,1.86,1.516c0.117,0.291,0.176,0.625,0.176,1.003
				c0,0.364-0.049,0.712-0.149,1.042c-0.1,0.33-0.221,0.576-0.361,0.736c0.146,0.174,0.271,0.425,0.373,0.752
				c0.103,0.327,0.155,0.665,0.155,1.014c0,0.378-0.065,0.711-0.193,1.003c-0.441,1.003-1.072,1.504-1.895,1.504h-9.548
				c-0.288,0-0.49-0.112-0.609-0.338c-0.082-0.153-0.122-0.392-0.122-0.719V47.36c0.046-0.196,0.115-0.418,0.202-0.665
				c0.111-0.138,0.323-0.213,0.634-0.229H111.019z M110.967,49.943c0.187,0,0.345-0.077,0.476-0.234
				c0.129-0.157,0.203-0.354,0.22-0.594c0.017-0.247-0.044-0.467-0.185-0.66s-0.311-0.29-0.511-0.29h-8.906v1.777h8.906V49.943z
				 M110.915,53.312c0.2,0,0.373-0.08,0.518-0.239c0.148-0.16,0.224-0.356,0.23-0.589c0.005-0.254-0.058-0.462-0.195-0.622
				c-0.135-0.16-0.319-0.24-0.554-0.24h-8.853v1.689h8.854V53.312z"/>
			<path fill="#FFFFFF" d="M115.327,47.458v6.858c0,0.211-0.068,0.387-0.204,0.529s-0.292,0.212-0.469,0.212
				c-0.191,0-0.353-0.068-0.493-0.206c-0.139-0.138-0.209-0.313-0.209-0.523v-7c0-0.239,0.058-0.44,0.171-0.6
				c0.111-0.159,0.276-0.24,0.496-0.24C115.091,46.487,115.327,46.811,115.327,47.458z"/>
			<path fill="#FFFFFF" d="M117.053,46.487c0.236,0,0.416,0.082,0.543,0.246c0.125,0.163,0.187,0.373,0.187,0.627v4.569
				c0,0.383,0,0.592,0,0.621c0.018,0.212,0.071,0.378,0.159,0.501c0.13,0.189,0.347,0.284,0.653,0.284h9.319
				c0.197,0,0.364,0.077,0.498,0.228c0.131,0.153,0.197,0.364,0.197,0.633c0,0.573-0.226,0.86-0.677,0.86h-9.179
				c-0.429,0-0.778-0.057-1.049-0.173c-0.316-0.146-0.596-0.393-0.837-0.742c-0.205-0.298-0.339-0.622-0.405-0.971
				c-0.052-0.26-0.078-0.631-0.078-1.111v-4.677C116.385,46.787,116.608,46.487,117.053,46.487z"/>
			<path fill="#FFFFFF" d="M141.083,46.466c0.458,0,0.679,0.291,0.67,0.872c-0.007,0.24-0.068,0.437-0.185,0.595
				c-0.117,0.156-0.28,0.233-0.485,0.233h-10.199v1.777h10.199c0.182,0,0.337,0.08,0.467,0.236c0.128,0.156,0.196,0.35,0.203,0.583
				c0.005,0.232-0.058,0.434-0.19,0.604c-0.133,0.171-0.292,0.257-0.48,0.257h-10.199v1.689h10.199c0.199,0,0.361,0.082,0.485,0.246
				c0.122,0.163,0.185,0.376,0.185,0.639c0,0.239-0.062,0.44-0.182,0.599c-0.12,0.161-0.284,0.24-0.489,0.24h-10.879
				c-0.21,0-0.386-0.094-0.519-0.283c-0.105-0.146-0.159-0.338-0.159-0.578v-6.858c0-0.239,0.063-0.441,0.19-0.604
				c0.125-0.163,0.298-0.246,0.514-0.246h10.854V46.466z"/>
		</g>
		<g>
			<path fill="#FFFFFF" d="M76.436,58.009c0.003,0.06-0.012,0.113-0.046,0.157c-0.034,0.044-0.074,0.065-0.124,0.065H74.19
				c-0.143,0-0.266,0.06-0.369,0.177c-0.102,0.118-0.157,0.264-0.165,0.437c-0.006,0.183,0.043,0.344,0.148,0.482
				c0.104,0.136,0.233,0.205,0.383,0.205h2.08c0.048,0,0.088,0.021,0.12,0.064c0.033,0.041,0.05,0.093,0.05,0.154
				c0,0.058-0.017,0.109-0.05,0.153c-0.032,0.043-0.072,0.065-0.12,0.065H74.18c-0.239,0-0.444-0.106-0.612-0.317
				c-0.169-0.211-0.254-0.465-0.254-0.763c0-0.3,0.087-0.555,0.258-0.766c0.17-0.213,0.377-0.319,0.619-0.319h2.077
				c0.046,0,0.085,0.02,0.117,0.059C76.417,57.901,76.434,57.949,76.436,58.009z"/>
			<path fill="#FFFFFF" d="M89.325,57.802c0.116,0,0.173,0.073,0.17,0.221c-0.002,0.06-0.018,0.109-0.047,0.149
				c-0.031,0.04-0.07,0.059-0.123,0.059h-2.577v0.45h2.577c0.045,0,0.085,0.02,0.118,0.059c0.033,0.04,0.05,0.089,0.053,0.148
				c0,0.059-0.015,0.11-0.048,0.153c-0.034,0.043-0.074,0.063-0.122,0.063h-2.577v0.427h2.577c0.05,0,0.091,0.021,0.123,0.063
				c0.029,0.04,0.047,0.094,0.047,0.161c0,0.061-0.016,0.111-0.046,0.152c-0.031,0.04-0.071,0.061-0.124,0.061h-2.747
				c-0.055,0-0.098-0.023-0.133-0.073c-0.025-0.036-0.039-0.085-0.039-0.145v-1.734c0-0.06,0.016-0.111,0.048-0.152
				c0.031-0.041,0.075-0.062,0.13-0.062L89.325,57.802L89.325,57.802z"/>
			<path fill="#FFFFFF" d="M99.746,57.85c1.658,1.026,2.487,1.541,2.487,1.547v-1.391c0-0.06,0.018-0.107,0.055-0.147
				c0.037-0.039,0.08-0.057,0.129-0.055c0.05,0.004,0.09,0.028,0.122,0.072c0.032,0.044,0.048,0.097,0.048,0.157v1.65
				c0,0.085-0.001,0.133-0.002,0.144c-0.007,0.049-0.024,0.088-0.055,0.117c-0.03,0.028-0.064,0.042-0.101,0.042
				c-0.032,0-0.065-0.01-0.1-0.033l-2.523-1.584v1.377c0,0.062-0.014,0.115-0.046,0.157c-0.031,0.043-0.072,0.064-0.125,0.064
				c-0.115,0-0.172-0.078-0.172-0.231V58.03c0-0.09,0.029-0.156,0.086-0.197c0.024-0.018,0.05-0.028,0.077-0.028
				C99.658,57.804,99.699,57.82,99.746,57.85z"/>
			<path fill="#FFFFFF" d="M115.545,57.802c0.048,0,0.087,0.021,0.12,0.063c0.033,0.042,0.048,0.092,0.048,0.151
				c0,0.06-0.014,0.111-0.048,0.152c-0.033,0.043-0.073,0.063-0.12,0.063h-1.222v1.51c0,0.06-0.016,0.113-0.05,0.157
				c-0.033,0.044-0.073,0.067-0.12,0.07c-0.048,0.001-0.09-0.019-0.126-0.061c-0.035-0.042-0.053-0.093-0.053-0.152v-1.523h-1.235
				c-0.043,0-0.077-0.021-0.105-0.065c-0.03-0.043-0.043-0.092-0.043-0.151c0-0.058,0.013-0.109,0.044-0.151
				c0.029-0.043,0.066-0.063,0.112-0.063H115.545z"/>
			<path fill="#FFFFFF" d="M128.601,57.802c0.116,0,0.171,0.073,0.168,0.221c0,0.06-0.018,0.109-0.046,0.149
				c-0.029,0.04-0.071,0.059-0.122,0.059h-2.577v0.45h2.577c0.046,0,0.085,0.02,0.119,0.059c0.032,0.04,0.05,0.089,0.05,0.148
				c0.002,0.059-0.014,0.11-0.048,0.153c-0.033,0.043-0.072,0.063-0.121,0.063h-2.577v0.427h2.577c0.05,0,0.09,0.021,0.122,0.063
				c0.031,0.04,0.046,0.094,0.046,0.161c0,0.061-0.016,0.111-0.045,0.152c-0.031,0.04-0.073,0.061-0.124,0.061h-2.75
				c-0.052,0-0.095-0.023-0.131-0.073c-0.027-0.036-0.04-0.085-0.04-0.145v-1.734c0-0.06,0.016-0.111,0.048-0.152
				c0.033-0.041,0.076-0.062,0.131-0.062L128.601,57.802L128.601,57.802z"/>
			<path fill="#FFFFFF" d="M141.343,57.802c0.144,0,0.267,0.063,0.367,0.191c0.1,0.128,0.151,0.282,0.151,0.462
				c0,0.177-0.048,0.329-0.145,0.457c-0.098,0.129-0.216,0.192-0.357,0.192h-0.294l0.707,0.447c0.06,0.038,0.089,0.099,0.089,0.186
				c0,0.031-0.006,0.062-0.017,0.094l-0.011,0.029c-0.028,0.077-0.077,0.114-0.148,0.114c-0.028,0-0.054-0.008-0.077-0.023
				l-1.338-0.846h-1.187v0.652c0,0.059-0.018,0.11-0.05,0.153c-0.035,0.043-0.075,0.064-0.123,0.064s-0.087-0.021-0.12-0.064
				c-0.032-0.043-0.05-0.093-0.05-0.153v-1.711c0-0.082,0.022-0.147,0.066-0.193c0.034-0.033,0.089-0.05,0.167-0.05h2.37V57.802z
				 M141.337,58.231h-2.254v0.45h2.254c0.047,0,0.091-0.024,0.125-0.072c0.033-0.048,0.049-0.103,0.045-0.166
				c-0.002-0.06-0.02-0.111-0.052-0.152C141.422,58.252,141.382,58.231,141.337,58.231z"/>
		</g>
		<path fill="#ED2224" d="M37.879,44.065v2.311c2.741,0.888,4.723,3.459,4.723,6.495c0,3.771-3.058,6.829-6.83,6.829
			s-6.829-3.058-6.829-6.829c0-3.036,1.982-5.608,4.723-6.497v-2.312c-3.986,0.95-6.951,4.533-6.951,8.809
			c0,5.003,4.055,9.058,9.057,9.058c5.004,0,9.059-4.055,9.059-9.058C44.831,48.595,41.866,45.015,37.879,44.065z"/>
		<rect x="34.621" y="42.182" fill="#E01F26" width="2.208" height="12.98"/>
		<rect x="73.318" y="56.09" fill="#FFFFFF" width="68.348" height="0.277"/>
	</g>
</g>
</svg>
