<?xml version="1.0" encoding="utf-8"?>
<!-- Generator: Adobe Illustrator 17.0.0, SVG Export Plug-In . SVG Version: 6.00 Build 0)  -->
<!DOCTYPE svg PUBLIC "-//W3C//DTD SVG 1.1//EN" "http://www.w3.org/Graphics/SVG/1.1/DTD/svg11.dtd">
<svg version="1.1" id="Layer_1" xmlns="http://www.w3.org/2000/svg" xmlns:xlink="http://www.w3.org/1999/xlink" x="0px" y="0px"
	 width="150px" height="100px" viewBox="0 0 150 100" enable-background="new 0 0 150 100" xml:space="preserve">
<line fill="none" stroke="#FFFFFF" stroke-width="0.5664" stroke-miterlimit="10" x1="5.415" y1="61.543" x2="140.819" y2="61.543"/>
<ellipse fill="#BCBEC0" cx="61.906" cy="62.357" rx="23.208" ry="5.31"/>
<g>
	<path fill="#ED1C24" d="M52.668,31.183c0,0,15.154,3.172,23.493,15.365C76.161,46.549,72.62,33.942,52.668,31.183z"/>
	<path fill="#ED1C24" d="M48.261,32.243c0,0,2.771,8.705,14.083,13.175c2.753,1.088,10.718,1.779,11.805,2.086
		c0,0-7.386,0.586-14.366-1.996C53.936,43.346,48.296,38.687,48.261,32.243z"/>
	<path fill="none" stroke="#ED1C24" stroke-width="0.9126" stroke-miterlimit="10" d="M48.357,36.911
		c0,0,1.243,13.099,17.842,11.908C66.199,48.819,52.832,50.294,48.357,36.911z"/>
	<path fill="none" stroke="#ED1C24" stroke-width="0.9126" stroke-miterlimit="10" d="M55.886,40.431c0,0,4.979,1.502,11.455,6.427
		C67.34,46.858,60.129,40.128,55.886,40.431z"/>
	<polyline fill="none" stroke="#ED1C24" stroke-width="0.9126" stroke-miterlimit="10" points="80.389,62.788 75.569,49.179 
		72.127,48.725 56.676,48.876 55.299,49.481 43.825,63.09 	"/>
	<polyline fill="none" stroke="#ED1C24" stroke-width="0.9126" stroke-miterlimit="10" points="71.133,65.283 67.538,50.464 
		64.707,49.254 60.271,49.481 57.517,61.049 	"/>
</g>
<g>
	<g>
		<path fill="#FFFFFF" d="M80.869,39.065H77.37v-2.028h8.516v2.028H82.37v16.447h-1.502L80.869,39.065L80.869,39.065z"/>
		<path fill="#FFFFFF" d="M86.739,49.317c0.034,3.262,1.331,4.605,2.833,4.605c1.075,0,1.724-0.301,2.287-0.685l0.256,1.727
			c-0.529,0.384-1.433,0.823-2.747,0.823c-2.543,0-4.062-2.687-4.062-6.689s1.468-7.154,3.874-7.154c2.697,0,3.413,3.81,3.413,6.25
			c0,0.494-0.034,0.877-0.051,1.124h-5.803V49.317z M91.142,47.59c0.017-1.535-0.393-3.92-2.082-3.92
			c-1.519,0-2.184,2.248-2.304,3.92C86.756,47.59,91.142,47.59,91.142,47.59z"/>
		<path fill="#FFFFFF" d="M94.452,46.384c0-1.562-0.017-2.906-0.069-4.139h1.314l0.051,2.604h0.068
			c0.376-1.782,1.28-2.906,2.287-2.906c0.171,0,0.29,0.027,0.427,0.082V44.3c-0.154-0.055-0.307-0.082-0.512-0.082
			c-1.058,0-1.809,1.288-2.014,3.097c-0.034,0.329-0.068,0.713-0.068,1.124v7.072h-1.485L94.452,46.384L94.452,46.384z"/>
		<path fill="#FFFFFF" d="M100.697,49.317c0.034,3.262,1.331,4.605,2.833,4.605c1.075,0,1.724-0.301,2.287-0.685l0.256,1.727
			c-0.529,0.384-1.433,0.823-2.748,0.823c-2.543,0-4.062-2.687-4.062-6.689s1.468-7.154,3.874-7.154c2.697,0,3.413,3.81,3.413,6.25
			c0,0.494-0.034,0.877-0.051,1.124h-5.802V49.317z M105.1,47.59c0.017-1.535-0.393-3.92-2.082-3.92
			c-1.519,0-2.185,2.248-2.304,3.92C100.714,47.59,105.1,47.59,105.1,47.59z"/>
		<path fill="#ED1C24" d="M107.471,54.114l3.737-7.812c0.358-0.713,0.7-1.343,1.075-2.056v-0.055h-4.471v-1.946h6.298l-0.017,1.508
			l-3.686,7.703c-0.341,0.74-0.683,1.398-1.058,2.083v0.055h4.83v1.919h-6.707L107.471,54.114L107.471,54.114z"/>
		<path fill="#FFFFFF" d="M117.386,38.517c0.017,0.822-0.359,1.48-0.956,1.48c-0.529,0-0.904-0.658-0.904-1.48
			c0-0.85,0.393-1.508,0.939-1.508C117.027,37.009,117.386,37.667,117.386,38.517z M115.713,55.512V42.245h1.502v13.267H115.713z"/>
		<path fill="#FFFFFF" d="M119.706,45.836c0-1.37-0.017-2.494-0.069-3.591h1.331l0.085,2.193h0.034
			c0.409-1.261,1.365-2.494,2.731-2.494c1.143,0,2.918,1.096,2.918,5.647v7.922h-1.502v-7.648c0-2.138-0.495-3.92-1.911-3.92
			c-0.99,0-1.758,1.124-2.014,2.467c-0.068,0.301-0.102,0.713-0.102,1.124v7.977h-1.502L119.706,45.836L119.706,45.836z"/>
		<path fill="#ED1C24" d="M129.176,36.05h1.502v8.278h0.034c0.239-0.686,0.614-1.289,1.075-1.7c0.444-0.411,0.973-0.685,1.536-0.685
			c1.11,0,2.884,1.096,2.884,5.674v7.894h-1.502v-7.62c0-2.138-0.495-3.947-1.911-3.947c-0.973,0-1.741,1.096-2.014,2.412
			c-0.085,0.329-0.102,0.686-0.102,1.151v8.004h-1.502V36.05z"/>
		<path fill="#FFFFFF" d="M143.22,55.512l-0.12-1.672h-0.051c-0.461,1.042-1.348,1.974-2.526,1.974c-1.673,0-2.526-1.892-2.526-3.81
			c0-3.207,1.775-4.961,4.966-4.934v-0.274c0-1.096-0.188-3.07-1.877-3.07c-0.768,0-1.57,0.384-2.15,0.987l-0.341-1.59
			c0.683-0.713,1.673-1.179,2.714-1.179c2.526,0,3.14,2.768,3.14,5.427v4.961c0,1.151,0.034,2.275,0.137,3.18H143.22z
			 M142.998,48.742c-1.638-0.055-3.499,0.411-3.499,2.988c0,1.562,0.648,2.303,1.417,2.303c1.075,0,1.758-1.097,1.997-2.22
			c0.051-0.247,0.085-0.521,0.085-0.767L142.998,48.742L142.998,48.742z"/>
	</g>
</g>
<g>
	<path fill="#FFFFFF" d="M10.661,52.904c0.666,0.658,1.638,1.206,2.662,1.206c1.519,0,2.406-1.288,2.406-3.153
		c0-1.727-0.614-2.714-2.167-3.673c-1.877-1.069-3.038-2.632-3.038-5.236c0-2.878,1.485-5.016,3.721-5.016
		c1.178,0,2.031,0.438,2.543,0.904l-0.41,1.946c-0.375-0.329-1.143-0.877-2.184-0.877c-1.57,0-2.167,1.508-2.167,2.769
		c0,1.727,0.7,2.577,2.287,3.564c1.946,1.206,2.935,2.714,2.935,5.427c0,2.851-1.314,5.318-4.028,5.318
		c-1.109,0-2.321-0.521-2.935-1.178L10.661,52.904z"/>
	<path fill="#FFFFFF" d="M23.852,55.809l-0.119-1.672h-0.051c-0.461,1.042-1.348,1.974-2.526,1.974c-1.673,0-2.526-1.892-2.526-3.81
		c0-3.207,1.775-4.961,4.966-4.934v-0.274c0-1.097-0.188-3.07-1.877-3.07c-0.768,0-1.57,0.384-2.15,0.987l-0.341-1.59
		c0.683-0.713,1.672-1.179,2.713-1.179c2.526,0,3.14,2.769,3.14,5.427v4.961c0,1.152,0.034,2.275,0.136,3.18H23.852z M23.63,49.039
		c-1.638-0.055-3.498,0.411-3.498,2.988c0,1.562,0.648,2.302,1.416,2.302c1.075,0,1.758-1.096,1.997-2.22
		c0.051-0.247,0.085-0.521,0.085-0.768V49.039z"/>
	<path fill="#ED1C24" d="M27.503,46.133c0-1.371-0.017-2.495-0.068-3.591h1.331l0.085,2.193h0.034
		c0.409-1.261,1.365-2.494,2.731-2.494c1.143,0,2.918,1.097,2.918,5.647v7.922h-1.502v-7.648c0-2.138-0.495-3.92-1.911-3.92
		c-0.99,0-1.758,1.124-2.014,2.467c-0.068,0.302-0.102,0.713-0.102,1.124v7.977h-1.502C27.503,55.81,27.503,46.133,27.503,46.133z"
		/>
	<path fill="#FFFFFF" d="M38.714,38.732v3.81h2.15v1.837h-2.15v7.154c0,1.645,0.29,2.577,1.126,2.577
		c0.393,0,0.683-0.082,0.87-0.164l0.068,1.809c-0.29,0.192-0.751,0.329-1.331,0.329c-0.7,0-1.263-0.356-1.621-1.014
		c-0.427-0.713-0.58-1.892-0.58-3.454V44.38h-1.28v-1.837h1.28v-3.18L38.714,38.732z"/>
	<path fill="#FFFFFF" d="M47.126,55.809l-0.119-1.672h-0.051c-0.461,1.042-1.348,1.974-2.526,1.974c-1.673,0-2.526-1.892-2.526-3.81
		c0-3.207,1.775-4.961,4.966-4.934v-0.274c0-1.097-0.188-3.07-1.877-3.07c-0.768,0-1.57,0.384-2.15,0.987l-0.341-1.59
		c0.683-0.713,1.672-1.179,2.713-1.179c2.526,0,3.14,2.769,3.14,5.427v4.961c0,1.152,0.034,2.275,0.136,3.18H47.126z M46.905,49.039
		c-1.638-0.055-3.498,0.411-3.498,2.988c0,1.562,0.648,2.302,1.416,2.302c1.075,0,1.758-1.096,1.997-2.22
		c0.051-0.247,0.085-0.521,0.085-0.768V49.039z"/>
</g>
<g>
	<path fill="#FFFFFF" d="M10.803,63.083h0.265c0.085-0.026,0.137-0.039,0.157-0.039c0.062,0,0.093,0.031,0.093,0.093
		c0,0.046-0.034,0.069-0.103,0.069h-0.039l-0.142,0.078l-0.176-0.059l-0.255,0.142l-0.108-0.054c-0.046-0.026-0.1-0.039-0.162-0.039
		c-0.026,0-0.067,0.007-0.123,0.02s-0.098,0.02-0.127,0.02h-0.02l-0.123-0.02l-0.21,0.074l-0.088-0.01l-0.039,0.029l-0.466,0.01
		l-0.118-0.02L8.98,63.446l-0.162-0.049L8.71,63.451c-0.036,0.016-0.105,0.025-0.206,0.025l-0.137-0.029
		c-0.069,0-0.133,0.008-0.194,0.025c-0.06,0.016-0.167,0.031-0.321,0.044l-0.088,0.093l-0.059-0.02
		c-0.023,0.029-0.034,0.075-0.034,0.137c0,0.082,0.051,0.237,0.152,0.466l-0.078,0.23l0.078,0.059l-0.078,0.123
		c0.052,0.01,0.078,0.046,0.078,0.108l-0.049,0.201l-0.029,0.402l0.02,0.152l0.363,0.049l0.27-0.069l0.088,0.049
		c0.02,0.013,0.096,0.02,0.23,0.02c0.065,0,0.116-0.023,0.152-0.069l0.191-0.044l0.23,0.083c0.16-0.033,0.253-0.049,0.279-0.049
		c0.039,0,0.093-0.011,0.162-0.034l0.123,0.044l0.162-0.044l0.088,0.054c0.154-0.007,0.243-0.013,0.267-0.02
		c0.025-0.007,0.05-0.01,0.076-0.01c0.02,0,0.049,0.003,0.088,0.01c0.039,0.007,0.065,0.01,0.078,0.01
		c0.039,0,0.074-0.021,0.103-0.064l0.25-0.029l0.103,0.029c0.026-0.013,0.049-0.02,0.069-0.02l0.108,0.039h0.054l-0.02,0.054
		c-0.075,0.003-0.17,0.042-0.284,0.118h-0.137l-0.093,0.064l-0.23-0.025l-0.196,0.069c-0.15,0.042-0.252,0.064-0.304,0.064
		l-0.162-0.049l-0.039,0.049L9.53,65.707l-0.118,0.059l-0.181-0.02L9.089,65.78c-0.098,0.023-0.175,0.034-0.23,0.034h-0.07
		c-0.042,0-0.096,0.018-0.162,0.054l-0.113-0.074l-0.049-0.01c-0.039,0-0.136,0.034-0.289,0.103l-0.191-0.029l-0.078,0.029
		l-0.142-0.029c-0.042,0-0.083,0.193-0.123,0.578c0,0.111-0.007,0.212-0.02,0.304c0.039,0.075,0.052,0.129,0.039,0.162l-0.108,0.319
		l0.059,0.123l-0.069,0.127l0.029,0.162l-0.039,0.078c0.007,0.013,0.01,0.038,0.01,0.074c0,0.085-0.026,0.227-0.078,0.426
		c-0.052,0.199-0.1,0.402-0.142,0.608L7.21,68.755H7.143l0.02-0.118v-0.093l0.049-0.049l0.01-0.123c0-0.039,0.025-0.111,0.074-0.216
		l-0.074-0.054v-0.108l-0.049-0.049l0.078-0.152l-0.088-0.029c0.013-0.059,0.031-0.118,0.054-0.176
		c0.023-0.059,0.034-0.095,0.034-0.108v-0.02l-0.04-0.05l0.01-0.069L7.192,67.19l0.059-0.162l-0.029-0.392l0.074-0.392L7.25,66.087
		v-0.181c0-0.052-0.026-0.09-0.078-0.113l-0.27,0.113l-0.201-0.113l-0.191,0.03c-0.013,0.007-0.033,0.01-0.059,0.01
		c-0.049,0-0.074-0.046-0.074-0.137c0-0.088,0.016-0.152,0.049-0.191s0.1-0.059,0.201-0.059c0.088,0,0.167,0.003,0.235,0.01
		l0.299,0.029H7.23c0.082,0,0.136-0.057,0.162-0.172l-0.049-0.132v-0.47L7.294,64.7l0.039-0.544L7.22,63.857l-0.01-0.201
		l-0.279-0.132l-0.23,0.152l-0.093-0.127c-0.059-0.013-0.095-0.044-0.108-0.093c0.033-0.039,0.049-0.126,0.049-0.26
		c0.101,0,0.187-0.025,0.258-0.076c0.07-0.051,0.128-0.076,0.174-0.076l0.279,0.029c0.02,0,0.083-0.003,0.191-0.01l0.495-0.029
		l0.338,0.049l0.343-0.02c0.029-0.013,0.058-0.028,0.085-0.044s0.044-0.025,0.047-0.025c0.007,0,0.025,0.007,0.057,0.02
		c0.03,0.013,0.048,0.02,0.051,0.02h0.02c0.016,0,0.144-0.02,0.382-0.059l0.01,0.059c0.023-0.033,0.046-0.049,0.069-0.049
		c0.033,0,0.07,0.026,0.113,0.078l0.069-0.029l0.265-0.029h0.02l0.588,0.078c0.095-0.026,0.189-0.039,0.284-0.039
		C10.725,63.044,10.764,63.057,10.803,63.083z"/>
	<path fill="#FFFFFF" d="M26.98,65.857l-0.069,0.211l0.039,0.088l-0.034,0.235c-0.003,0.029-0.028,0.082-0.074,0.157v0.118
		l-0.074,0.201l-0.059,0.088c-0.02,0.023-0.052,0.108-0.098,0.255l-0.074,0.029L26.5,67.371l-0.108,0.069l-0.083,0.181l-0.147,0.069
		l-0.015,0.132l-0.127,0.049c-0.062,0.082-0.102,0.134-0.12,0.157c-0.018,0.023-0.062,0.046-0.132,0.069
		c-0.071,0.023-0.117,0.042-0.14,0.059c-0.016,0.105-0.109,0.163-0.279,0.176c-0.039,0.049-0.087,0.074-0.142,0.074
		c-0.016,0-0.042-0.007-0.078-0.02c-0.091,0.082-0.176,0.131-0.255,0.147l-0.078,0.123l-0.132-0.078l-0.029,0.059l-0.147-0.059
		l-0.353-0.034c-0.059-0.118-0.145-0.237-0.26-0.358l0.039-0.132L23.77,67.69l0.059-0.118l-0.059-0.274l0.059-0.157
		c0-0.016-0.005-0.059-0.015-0.13c-0.01-0.07-0.015-0.115-0.015-0.135c0-0.069,0.034-0.124,0.103-0.167v-0.054
		c0-0.075,0.02-0.149,0.059-0.221h0.059c0.049-0.056,0.074-0.119,0.074-0.191l-0.029-0.069l0.029-0.152v-0.098
		c0.059-0.072,0.088-0.145,0.088-0.221l-0.029-0.162c0-0.049,0.01-0.088,0.029-0.118c0.101-0.052,0.152-0.103,0.152-0.152
		c0-0.033-0.013-0.067-0.039-0.103l0.098-0.172c0.013-0.026,0.033-0.047,0.062-0.064c0.027-0.016,0.045-0.028,0.051-0.034
		l-0.02-0.098c0.105-0.01,0.157-0.064,0.157-0.162c0-0.059-0.01-0.119-0.029-0.181c0.222,0,0.369-0.114,0.441-0.343h0.064
		c0.046-0.046,0.078-0.069,0.098-0.069c0.007,0,0.035,0.008,0.085,0.025s0.13,0.024,0.238,0.024l0.157-0.069v0.069
		c0.069,0.007,0.154,0.044,0.255,0.113h0.137c0.033,0.065,0.064,0.098,0.093,0.098l0.02-0.01c0.075,0.118,0.152,0.201,0.23,0.25
		l0.049,0.123l0.093,0.039l0.157,0.23l0.162,0.461v0.093L26.98,65.857z M26.661,66.136c0.039-0.049,0.059-0.09,0.059-0.123
		c0-0.023-0.011-0.046-0.034-0.071s-0.034-0.04-0.034-0.047h0.059c-0.01-0.039-0.033-0.074-0.069-0.103l0.02-0.029l-0.069-0.162
		l0.02-0.221l-0.093-0.157c-0.072-0.046-0.108-0.08-0.108-0.103v-0.029c0-0.026-0.013-0.043-0.036-0.051
		c-0.025-0.008-0.037-0.022-0.037-0.042v-0.01c0-0.01,0.015-0.052,0.044-0.127l-0.064-0.049l-0.098-0.01l-0.039-0.074l0.039-0.059
		L26.089,64.6l-0.098-0.093l-0.284-0.118l-0.118-0.025c-0.193,0-0.287,0.054-0.284,0.162l0.015,0.333l-0.201,0.01l-0.314,0.191
		l-0.029,0.108l-0.113,0.074l-0.049,0.289L24.516,65.6c-0.02,0.01-0.029,0.057-0.029,0.142c0,0.075,0.007,0.136,0.02,0.181
		l-0.123,0.069c-0.026,0.013-0.039,0.077-0.039,0.191c0,0.052-0.031,0.103-0.093,0.152v0.098l-0.088,0.142v0.088l-0.029,0.064
		l0.02,0.137L24.02,67.19l0.044,0.108v0.235L24.02,67.7l0.01,0.245l0.147,0.191c0.016,0.026,0.075,0.062,0.176,0.108l0.029,0.049
		l0.069-0.02l0.064,0.02l0.118-0.049l0.24,0.01l0.113-0.029l0.029-0.069l0.103,0.01c0.105,0,0.157-0.034,0.157-0.103l0.142,0.039
		l0.029-0.078l0.093-0.01l0.049-0.113c0.072-0.056,0.111-0.101,0.118-0.137h0.162l0.049-0.103l0.172-0.152l0.064-0.093
		c0.026-0.036,0.056-0.064,0.088-0.083l0.142-0.074c0.016-0.091,0.046-0.185,0.088-0.279l-0.02-0.088l0.142-0.064l-0.02-0.049
		c0.039-0.056,0.075-0.103,0.108-0.142h-0.049c0.026-0.036,0.039-0.065,0.039-0.088c0-0.02-0.005-0.044-0.015-0.074
		c-0.01-0.029-0.015-0.049-0.015-0.059c0-0.042,0.01-0.088,0.029-0.137s0.029-0.08,0.029-0.093
		C26.701,66.162,26.688,66.146,26.661,66.136z"/>
	<path fill="#FFFFFF" d="M43.304,64.318l-0.029,0.123L42.98,64.48l-0.191,0.142l-0.127,0.02L42.5,64.74l-0.162,0.074
		c-0.078,0.069-0.142,0.111-0.191,0.127v0.049L42,65.063l-0.103,0.162H41.79l-0.054,0.157l-0.113,0.074
		c-0.046,0.026-0.082,0.062-0.108,0.108l-0.098,0.181c-0.075,0.039-0.119,0.129-0.132,0.27l-0.049-0.02l-0.02,0.064l-0.074,0.049
		l-0.069,0.172c-0.072,0.101-0.108,0.178-0.108,0.23l-0.093,0.039v0.211c-0.02,0.023-0.036,0.059-0.049,0.108l0.02,0.034
		l-0.098,0.039l0.029,0.078c-0.01,0.065-0.06,0.186-0.152,0.363l0.049,0.127l-0.098,0.162c0.013,0.065,0.02,0.116,0.02,0.152
		l-0.02,0.162l0.044,0.176c0.003,0.01,0.018,0.029,0.044,0.059l0.074,0.074c-0.042,0.082-0.083,0.139-0.123,0.172l-0.132-0.049
		l0.02,0.088l-0.221-0.039v-0.132l-0.029-0.088l0.029-0.162l-0.029-0.069l0.02-0.343l-0.02-0.23
		c-0.046-0.016-0.069-0.036-0.069-0.059c0-0.026,0.023-0.067,0.069-0.123v-0.147c0-0.078-0.003-0.136-0.01-0.172l0.039-0.049
		L40.241,66.7l0.029-0.152l-0.029-0.093l0.029-0.27l-0.049-0.078l0.029-0.093l-0.059-0.201l0.02-0.157
		c0-0.042-0.007-0.103-0.02-0.181l0.029-0.049l-0.059-0.343l-0.074-0.049l0.074-0.172c-0.069-0.095-0.103-0.206-0.103-0.333v-0.137
		c-0.029-0.033-0.049-0.064-0.059-0.093c0.046-0.062,0.129-0.116,0.25-0.162l0.074,0.02c0.013,0.082,0.049,0.16,0.108,0.235
		l-0.02,0.25l0.098,0.76c0,0.049-0.02,0.093-0.059,0.132l0.049,0.211l-0.029,0.152l0.029,0.162l-0.02,0.127l0.074,0.152
		l-0.044,0.029l0.034,0.23l0.078,0.02l0.034-0.196c0.003-0.023,0.042-0.082,0.118-0.176c0.085-0.075,0.127-0.158,0.127-0.25v-0.059
		l0.064-0.029c0.01,0,0.018-0.012,0.025-0.036s0.018-0.037,0.034-0.037h0.029l0.059-0.196l0.152-0.103l0.01-0.059h0.069
		l-0.029-0.113l0.152-0.069l0.01-0.123l0.142-0.02c0.072-0.059,0.121-0.123,0.147-0.191l0.093-0.02
		c0.013-0.026,0.074-0.087,0.181-0.181c0.023,0,0.039-0.01,0.049-0.029l0.162-0.088l0.039-0.074l0.088-0.049
		c0.173-0.127,0.291-0.191,0.353-0.191h0.039c0.059,0,0.106-0.016,0.142-0.049L43,64.308c0.046-0.033,0.083-0.049,0.113-0.049
		C43.234,64.286,43.297,64.305,43.304,64.318z"/>
	<path fill="#FFFFFF" d="M61.338,66.719c0.013,0.052-0.028,0.105-0.123,0.157l0.015,0.034c0,0.033-0.044,0.102-0.132,0.209
		c-0.088,0.106-0.132,0.187-0.132,0.242l-0.108,0.029c-0.003,0.137-0.064,0.217-0.181,0.24c-0.01,0.039-0.026,0.059-0.049,0.059
		h-0.02c-0.01,0.056-0.047,0.083-0.113,0.083l-0.059,0.118l-0.142,0.029l-0.118,0.078c-0.016,0.01-0.038,0.018-0.064,0.025
		l-0.221,0.039l-0.078-0.01l-0.074,0.01l-0.029-0.039l-0.088-0.01l-0.113-0.142H59.46c-0.026-0.026-0.039-0.062-0.039-0.108
		c-0.108-0.118-0.162-0.209-0.162-0.274V67.41l-0.069-0.132v-0.059l0.049-0.029L59.2,67.048l-0.074-0.181l0.015-0.27l-0.103-0.162
		v-0.25c-0.095-0.487-0.142-0.784-0.142-0.892v-0.039c-0.013-0.052-0.02-0.09-0.02-0.113c0-0.026,0.003-0.046,0.01-0.059
		c-0.075-0.114-0.114-0.207-0.118-0.279l-0.049-0.044L58.51,64.98l-0.103,0.142l-0.353,0.421l-0.137,0.25
		c-0.049,0.108-0.088,0.187-0.118,0.238c-0.029,0.051-0.095,0.125-0.196,0.223l0.029,0.093l-0.069,0.191l-0.078,0.01v0.088h-0.054
		l-0.191,0.23c-0.007,0.111-0.049,0.175-0.127,0.191c-0.029,0.042-0.056,0.105-0.078,0.186c-0.023,0.082-0.06,0.124-0.113,0.127
		l-0.039,0.039c-0.062,0.108-0.12,0.191-0.174,0.248s-0.13,0.121-0.228,0.193c-0.023,0.111-0.064,0.178-0.123,0.201l-0.01,0.049
		c-0.003,0.046-0.02,0.089-0.049,0.13s-0.109,0.077-0.24,0.11c-0.049-0.007-0.087-0.062-0.113-0.167
		c-0.026-0.105-0.065-0.168-0.118-0.191L55.8,67.92l0.078-0.127l-0.01-0.123l0.049-0.049l-0.049-0.088l0.01-0.123L55.8,67.19
		l0.069-0.132L55.83,66.92c0.046-0.091,0.069-0.229,0.069-0.412v-0.054c0-0.016-0.02-0.056-0.059-0.118
		c0.052-0.042,0.078-0.083,0.078-0.123l-0.02-0.157l0.059-0.382L55.918,65.6l0.01-0.157l-0.049-0.093l0.039-0.319l-0.02-0.113
		l0.029-0.181l-0.029-0.26l0.069-0.132c0.121,0.036,0.187,0.06,0.198,0.074c0.011,0.013,0.02,0.044,0.025,0.091
		c0.004,0.047,0.007,0.123,0.007,0.228l0.083,0.132l-0.029,0.191l0.039,0.412l-0.069,0.221l0.029,0.26v0.123l-0.093,0.147
		l0.064,0.211c-0.02,0.029-0.044,0.121-0.074,0.274l0.049,0.118c-0.056,0.18-0.082,0.31-0.078,0.392l0.01,0.363l0.029,0.049
		l0.123-0.059h0.098l0.054-0.221c0.075-0.023,0.121-0.06,0.137-0.113c0.01-0.078,0.06-0.118,0.152-0.118
		c0.01-0.075,0.033-0.126,0.069-0.152c0.026,0,0.057-0.047,0.093-0.142c0.069-0.069,0.123-0.139,0.162-0.211v-0.137h0.01
		c0.026,0,0.057-0.023,0.09-0.071c0.035-0.047,0.078-0.071,0.13-0.071c0.023-0.085,0.052-0.145,0.088-0.181l0.142-0.172l0.127-0.279
		c-0.013-0.052-0.02-0.087-0.02-0.103c0-0.02,0.01-0.029,0.029-0.029c0.134-0.088,0.201-0.175,0.201-0.26V65.19
		c0.101-0.039,0.152-0.075,0.152-0.108c0-0.013-0.005-0.032-0.015-0.056s-0.015-0.04-0.015-0.047c0-0.033,0.013-0.049,0.039-0.049
		c0.023,0,0.049,0.01,0.078,0.029c0.049-0.18,0.124-0.27,0.225-0.27c0.02,0,0.049,0.007,0.088,0.02c0-0.095,0.029-0.172,0.088-0.23
		c0.013-0.042,0.091-0.093,0.235-0.152l0.049-0.078h0.039c0.056,0.075,0.103,0.123,0.142,0.142l0.02,0.069l0.049,0.02l0.02,0.191
		l0.132,0.078l-0.044,0.172l0.074,0.314v0.289l0.069,0.343l0.029,0.358l0.103,0.333l0.02,0.333c0.003,0.007,0.02,0.039,0.052,0.096
		c0.03,0.057,0.053,0.131,0.066,0.223l0.044,0.029v0.152l0.088,0.098l-0.02,0.074l0.069,0.039v0.049
		c0.062,0.039,0.116,0.059,0.162,0.059c0.056,0,0.106-0.013,0.152-0.039c0.023,0.013,0.039,0.02,0.049,0.02
		c0.029,0,0.059-0.026,0.088-0.078c0.095-0.01,0.142-0.036,0.142-0.078v-0.024c0.01-0.023,0.077-0.056,0.201-0.098
		c0.033-0.039,0.067-0.072,0.103-0.098l-0.01-0.024c0.007-0.016,0.019-0.035,0.036-0.056s0.05-0.051,0.096-0.088
		c0.046-0.038,0.077-0.073,0.093-0.106l0.054-0.108c0.042-0.059,0.106-0.154,0.191-0.284l0.137-0.069h0.093L61.338,66.719z"/>
	<path fill="#FFFFFF" d="M75.167,61.873c-0.023,0.059-0.08,0.114-0.172,0.167v0.064l-0.088,0.098
		c-0.029,0.039-0.056,0.059-0.078,0.059c-0.01,0-0.028-0.007-0.054-0.02l-0.27,0.323l-0.069,0.108l-0.24,0.074l-0.123,0.181
		l-0.113,0.049c-0.033,0.013-0.106,0.077-0.221,0.191l-0.059-0.039l-0.01-0.123l0.23-0.103c0.033-0.163,0.074-0.255,0.125-0.277
		c0.051-0.021,0.076-0.035,0.076-0.042v-0.039l0.049-0.029l0.02,0.01l0.025-0.074h0.039l-0.039-0.088h0.157v-0.142l0.074-0.02
		l0.049-0.078l0.078-0.029l0.074-0.132c0.026,0,0.046-0.02,0.059-0.059h0.059l0.01-0.103c0.069-0.059,0.109-0.126,0.123-0.201
		C75.038,61.651,75.135,61.742,75.167,61.873z M76.162,66.92l-0.02,0.098l-0.093,0.069L76.01,67.21l-0.137,0.039
		c-0.042,0.131-0.09,0.214-0.142,0.25l-0.123,0.044L75.5,67.661c-0.026,0.013-0.083,0.074-0.172,0.181h-0.069
		c-0.046,0.065-0.119,0.103-0.221,0.113c-0.072,0.088-0.113,0.14-0.123,0.157c-0.049,0.033-0.112,0.057-0.188,0.071
		c-0.077,0.015-0.125,0.025-0.145,0.032l-0.039,0.059h-0.162l-0.088,0.069l-0.25-0.186l-0.142-0.323l-0.02-0.519l-0.029-0.103
		l0.098-0.823l0.064-0.049l-0.029-0.515c0-0.062,0.009-0.12,0.027-0.174c0.017-0.054,0.035-0.128,0.051-0.223l0.039-0.025
		c0-0.091-0.023-0.185-0.069-0.279l0.039-0.132v-0.186l0.049-0.064c-0.007-0.046-0.018-0.099-0.034-0.159s-0.025-0.094-0.025-0.101
		c0-0.052,0.013-0.078,0.039-0.078c0.007,0.007,0.013,0.01,0.02,0.01c-0.046-0.105-0.069-0.172-0.069-0.201
		c0-0.049,0.023-0.074,0.069-0.074c0.013,0,0.035,0.009,0.066,0.027c0.03,0.018,0.056,0.027,0.076,0.027
		c0.007,0,0.023-0.007,0.049-0.02c0-0.056,0.023-0.083,0.069-0.083c0.039,0,0.062,0.008,0.066,0.022
		c0.005,0.015,0.014,0.077,0.027,0.188l0.108,0.049l-0.088,0.113l-0.103,0.642l0.083,0.162c0,0.075-0.031,0.139-0.093,0.191
		l-0.029,0.127l0.029,0.113l-0.118,0.412l0.01,0.049l-0.049,0.333v0.24l-0.074,0.162l0.02,0.137l-0.02,0.23
		c0,0.183,0.028,0.333,0.083,0.451l-0.01,0.054l0.088,0.059l0.103-0.029l0.118,0.049l0.142-0.069
		c0.036-0.029,0.093-0.054,0.172-0.074l0.069-0.069l0.02,0.029l0.059-0.078l0.103-0.029c0.075-0.065,0.158-0.109,0.25-0.132
		c0.023-0.042,0.07-0.069,0.142-0.078l0.059-0.093l0.113-0.01l-0.025-0.108h0.044l0.02-0.054l0.211-0.108l0.02-0.123l0.191,0.01
		C76.136,66.873,76.149,66.894,76.162,66.92z"/>
	<path fill="#FFFFFF" d="M89.654,64.48l0.691,0.029l0.662-0.029l0.162,0.01l0.069-0.01h0.363c0.069,0,0.103,0.029,0.103,0.088
		c0,0.069-0.054,0.113-0.162,0.132c-0.02-0.013-0.047-0.02-0.083-0.02c-0.046,0-0.088,0.016-0.127,0.049L91.187,64.7l-0.27,0.01
		c-0.124,0.069-0.248,0.103-0.372,0.103l-0.191-0.034l-0.098,0.093h-0.093v-0.059l-0.172,0.078h-0.088l-0.029,0.088
		c-0.056-0.016-0.154-0.029-0.294-0.039c-0.01,0.039-0.026,0.059-0.049,0.059c-0.013,0-0.033-0.013-0.059-0.039l-0.142,0.02
		l-0.098,0.103l-0.029,0.49l0.02,0.294l-0.029,0.377l0.01,0.421l0.029,0.201v0.181l0.118,0.25v0.044
		c0,0.114,0.067,0.224,0.201,0.328l0.029,0.083l0.181,0.039l0.132,0.142l0.372,0.069l0.49-0.113l0.142,0.044l0.348-0.162l0.132,0.02
		c0.046,0.046,0.069,0.088,0.069,0.127c0,0.049-0.042,0.103-0.127,0.162l-0.074-0.029l-0.157,0.132l-0.333,0.039l-0.113,0.069
		l-0.118-0.069c-0.111,0.059-0.229,0.088-0.353,0.088l-0.201-0.039h-0.108L89.5,68.06l-0.172-0.24l-0.118-0.132l-0.181-0.48
		l-0.083-0.451l0.044-0.181l-0.083-0.098l0.039-0.113l-0.039-0.181l0.103-0.078l-0.044-0.093l0.024-0.118l-0.044-0.132l0.02-0.191
		l-0.02-0.098l0.044-0.029v-0.363c-0.02-0.088-0.047-0.132-0.083-0.132c-0.023,0-0.042,0.013-0.059,0.039l-0.113-0.049l-0.155,0.04
		l-0.162-0.118h-0.083c-0.078,0-0.118-0.044-0.118-0.132l0.01-0.152l-0.069-0.049l0.039-0.088l0.147,0.02l0.113-0.02l0.162,0.049
		h0.421l0.02-0.23v-0.23l-0.069-0.172l0.078-0.059c0.013-0.039,0.02-0.064,0.02-0.074c0-0.042-0.026-0.078-0.078-0.108l0.02-0.392
		l-0.083-0.123l0.02-0.088c-0.065-0.013-0.098-0.039-0.098-0.078l0.069-0.265c0.056-0.072,0.087-0.118,0.093-0.137
		c0.199,0.098,0.299,0.155,0.299,0.172v0.01l-0.039,0.098c0.046,0.095,0.069,0.168,0.069,0.221v0.029
		c-0.02,0.052-0.029,0.1-0.029,0.142c0,0.033,0.01,0.059,0.029,0.078l-0.01,0.083l0.01,0.108l-0.088,0.142l0.059,0.25l-0.039,0.304
		l0.039,0.059l-0.059,0.088l0.078,0.25h0.181L89.654,64.48z"/>
	<path fill="#FFFFFF" d="M108.864,67.763c0.046-0.007,0.1-0.01,0.162-0.01c0.072,0,0.108,0.026,0.108,0.078
		c0,0.046-0.036,0.096-0.108,0.152l-0.074,0.039l-0.049,0.054c-0.013,0.016-0.07,0.052-0.172,0.108l-0.162,0.049
		c-0.039,0.039-0.149,0.059-0.328,0.059c-0.016,0-0.065-0.013-0.147-0.039s-0.134-0.049-0.157-0.069l-0.328-0.294l-0.074-0.309
		l-0.098-0.093V67.44c0-0.098-0.023-0.185-0.069-0.26l0.01-0.24c0.026-0.118,0.039-0.188,0.039-0.211
		c0-0.075-0.02-0.149-0.059-0.221l0.029-0.451l-0.113,0.059l-0.069,0.108l-0.093,0.064c-0.033,0.02-0.065,0.059-0.098,0.118
		l-0.088,0.01c-0.075,0.065-0.113,0.132-0.113,0.201c-0.098,0.042-0.16,0.101-0.186,0.174c-0.026,0.074-0.077,0.15-0.152,0.23
		s-0.132,0.126-0.172,0.139c-0.039,0.013-0.07,0.033-0.093,0.059l-0.289,0.353h-0.029l-0.235,0.279l-0.186,0.103l-0.083,0.127
		c-0.114,0.036-0.252,0.093-0.412,0.172l-0.152-0.098c-0.016,0.007-0.039,0.01-0.069,0.01c-0.039,0-0.059-0.018-0.059-0.054
		c0-0.026,0.003-0.046,0.01-0.059l-0.103-0.059c0-0.029,0.011-0.064,0.034-0.103l-0.132-0.127l0.078-0.103h-0.108l-0.074-0.191
		l0.074-0.059l-0.093-0.132c0-0.163,0.011-0.25,0.034-0.26l0.005-0.172c0.003-0.059,0.021-0.129,0.054-0.211l-0.083-0.059
		c0.056-0.075,0.083-0.139,0.083-0.191c0-0.039-0.016-0.093-0.049-0.162c0.039-0.02,0.059-0.072,0.059-0.157
		c0-0.033-0.003-0.077-0.01-0.132l-0.039-0.333l0.118-0.701c-0.007-0.121-0.023-0.248-0.049-0.382l-0.039-0.172
		c0-0.105,0.057-0.157,0.172-0.157l0.147,0.039l0.074,0.088l-0.044,0.211l-0.02,0.505l0.02,0.319l-0.069,0.162l0.039,0.098
		l-0.039,0.152v0.132c-0.026,0.01-0.034,0.03-0.024,0.062c0.01,0.031,0.015,0.053,0.015,0.066c0,0.039-0.013,0.077-0.039,0.113
		l0.069,0.088l-0.098,0.123l0.059,0.088l-0.029,0.132l0.029,0.162v0.191l0.059,0.069l-0.049,0.24c0,0.039,0.02,0.09,0.059,0.152
		l-0.029,0.108l0.049,0.142c0.056,0.033,0.126,0.096,0.211,0.191c0.072-0.01,0.136-0.042,0.191-0.098
		c0.056-0.056,0.126-0.113,0.211-0.172c0-0.007-0.013-0.01-0.039-0.01c0.108-0.049,0.162-0.103,0.162-0.162
		c0.075-0.01,0.129-0.023,0.162-0.039l0.02-0.123l0.098-0.039c0.075-0.095,0.186-0.158,0.333-0.191l0.01-0.098l0.181-0.152
		c0.016-0.127,0.087-0.194,0.211-0.201l0.039-0.132l0.088-0.039l0.132-0.191h0.059v-0.059l0.093-0.049l0.059-0.142
		c0.082-0.042,0.162-0.08,0.24-0.113l0.039-0.108l0.074-0.029v-0.064l0.039-0.01c0.016-0.16,0.074-0.24,0.172-0.24l-0.029-0.029
		l0.186-0.554h0.044v-0.137h0.01c0.023,0,0.08-0.121,0.172-0.363l0.176-0.02l-0.02,0.039l0.103,0.191l-0.083,0.372l-0.147,0.221
		l-0.103,0.372l-0.127,0.088v0.221l-0.074,0.142l0.02,0.162l-0.069,0.069l0.02,0.441l-0.039,0.544l0.029,0.059l-0.01,0.078h0.029
		v0.152c0.108,0.157,0.162,0.256,0.162,0.299l0.142,0.034l0.029,0.088c0.091,0.039,0.172,0.077,0.24,0.113l0.132-0.01l0.108,0.029
		l0.157-0.064C108.707,67.881,108.776,67.835,108.864,67.763z"/>
	<path fill="#FFFFFF" d="M125.281,64.318l-0.029,0.123l-0.294,0.039l-0.191,0.142l-0.127,0.02l-0.162,0.098l-0.162,0.074
		c-0.078,0.069-0.142,0.111-0.191,0.127v0.049l-0.147,0.074l-0.103,0.162h-0.108l-0.054,0.157l-0.113,0.074
		c-0.046,0.026-0.082,0.062-0.108,0.108l-0.098,0.181c-0.075,0.039-0.119,0.129-0.132,0.27l-0.049-0.02l-0.02,0.064l-0.074,0.049
		l-0.069,0.172c-0.072,0.101-0.108,0.178-0.108,0.23l-0.093,0.039v0.211c-0.02,0.023-0.036,0.059-0.049,0.108l0.02,0.034
		l-0.098,0.039l0.029,0.078c-0.01,0.065-0.06,0.186-0.152,0.363l0.049,0.127l-0.098,0.162c0.013,0.065,0.02,0.116,0.02,0.152
		l-0.02,0.162l0.044,0.176c0.003,0.01,0.018,0.029,0.044,0.059l0.074,0.074c-0.042,0.082-0.083,0.139-0.123,0.172l-0.132-0.049
		l0.02,0.088l-0.221-0.039v-0.132l-0.029-0.088l0.029-0.162l-0.029-0.069l0.02-0.343l-0.02-0.23
		c-0.046-0.016-0.069-0.036-0.069-0.059c0-0.026,0.023-0.067,0.069-0.123v-0.147c0-0.078-0.003-0.136-0.01-0.172l0.039-0.049
		l-0.039-0.191l0.029-0.152l-0.029-0.093l0.029-0.27l-0.049-0.078l0.029-0.093l-0.059-0.201l0.02-0.157
		c0-0.042-0.007-0.103-0.02-0.181l0.029-0.049l-0.059-0.343l-0.074-0.049l0.074-0.172c-0.069-0.095-0.103-0.206-0.103-0.333v-0.137
		c-0.029-0.033-0.049-0.064-0.059-0.093c0.046-0.062,0.129-0.116,0.25-0.162l0.074,0.02c0.013,0.082,0.049,0.16,0.108,0.235
		l-0.02,0.25l0.098,0.76c0,0.049-0.02,0.093-0.059,0.132l0.049,0.211l-0.029,0.152l0.029,0.162l-0.02,0.127l0.074,0.152
		l-0.044,0.029l0.034,0.23l0.078,0.02l0.034-0.196c0.003-0.023,0.042-0.082,0.118-0.176c0.085-0.075,0.127-0.158,0.127-0.25v-0.059
		l0.064-0.029c0.01,0,0.018-0.012,0.025-0.036s0.018-0.037,0.034-0.037h0.029l0.059-0.196l0.152-0.103l0.01-0.059h0.069
		l-0.029-0.113l0.152-0.069l0.01-0.123l0.142-0.02c0.072-0.059,0.121-0.123,0.147-0.191l0.093-0.02
		c0.013-0.026,0.074-0.087,0.181-0.181c0.023,0,0.039-0.01,0.049-0.029l0.162-0.088l0.039-0.074l0.088-0.049
		c0.173-0.127,0.291-0.191,0.353-0.191h0.039c0.059,0,0.106-0.016,0.142-0.049l0.088,0.029c0.046-0.033,0.083-0.049,0.113-0.049
		C125.211,64.286,125.275,64.305,125.281,64.318z"/>
	<path fill="#FFFFFF" d="M140.243,67.342c0.049,0.075,0.074,0.131,0.074,0.167c0,0.026-0.03,0.082-0.09,0.167
		c-0.061,0.085-0.107,0.175-0.14,0.27l-0.074,0.01l-0.108,0.211l-0.123,0.02l-0.27,0.181l-0.049,0.108l-0.083-0.01l-0.088,0.103
		h-0.142l-0.029,0.049l-0.069-0.01c-0.072,0-0.136,0.033-0.191,0.098l-0.064-0.049c-0.069,0.033-0.124,0.049-0.167,0.049
		c-0.075,0-0.136-0.016-0.181-0.049c-0.033,0.007-0.077,0.01-0.132,0.01l-0.059-0.049c-0.18-0.01-0.301-0.06-0.363-0.152v-0.123
		l-0.162-0.088l-0.039-0.103c-0.013-0.033-0.049-0.075-0.108-0.127v-0.078l-0.113-0.475l0.02-0.338l0.039-0.191v-0.211l0.054-0.181
		l-0.02-0.132c0.036-0.029,0.059-0.066,0.069-0.11s0.029-0.094,0.059-0.15c-0.013-0.059-0.026-0.142-0.039-0.25l0.088-0.074
		l-0.088-0.098c0.046-0.075,0.069-0.123,0.069-0.142l-0.049-0.299c0-0.072,0.01-0.142,0.029-0.211
		c0.039,0.059,0.083,0.088,0.132,0.088c0.026,0,0.09-0.013,0.191-0.039c-0.007-0.02-0.01-0.042-0.01-0.069
		c0-0.046,0.026-0.087,0.078-0.123c0.052-0.163,0.126-0.317,0.221-0.461c0.062-0.049,0.093-0.116,0.093-0.201h0.049l0.049-0.098
		l0.059-0.024c0.013-0.042,0.047-0.091,0.103-0.147c0.075-0.023,0.165-0.1,0.27-0.23c0.013,0.007,0.041,0.01,0.083,0.01
		c0.01,0,0.036-0.038,0.078-0.113c0.114-0.039,0.175-0.059,0.181-0.059c0.029,0,0.059,0.02,0.088,0.059l0.093-0.02l0.049,0.039
		h0.059c0.036,0.108,0.103,0.162,0.201,0.162h0.029c0.01,0.046,0.031,0.08,0.064,0.103l-0.044,0.02
		c0.114,0.056,0.172,0.185,0.172,0.387l-0.029,0.113l0.029,0.279l-0.049,0.044l-0.113,0.299l-0.201,0.25l-0.01,0.142
		c-0.238,0.196-0.435,0.33-0.588,0.402c-0.013,0.039-0.034,0.059-0.064,0.059c-0.013,0-0.039-0.007-0.078-0.02l-0.221,0.152h-0.132
		l-0.191,0.088l-0.083-0.049c-0.023-0.013-0.091-0.026-0.206-0.039c-0.101,0.095-0.152,0.217-0.152,0.368l-0.069,0.083
		c-0.013,0.124-0.029,0.211-0.049,0.26l-0.054,0.029l0.054,0.363l-0.054,0.049l0.01,0.113l-0.01,0.137
		c0,0.023,0.008,0.085,0.024,0.186s0.042,0.16,0.078,0.176c-0.016,0.046,0.015,0.101,0.096,0.167
		c0.079,0.065,0.166,0.111,0.257,0.137v0.059l0.26,0.039l0.372,0.02l0.25-0.029c0.101-0.072,0.175-0.116,0.221-0.132l0.078-0.118
		h0.093l0.01-0.049c0.144-0.049,0.223-0.082,0.237-0.1c0.015-0.018,0.022-0.035,0.022-0.052c0.02-0.039,0.049-0.059,0.088-0.059
		l0.029-0.064c0.147-0.023,0.238-0.119,0.274-0.289C140.158,67.355,140.197,67.342,140.243,67.342z M139.42,65.053
		c0.026-0.003,0.07-0.044,0.132-0.123l0.029-0.118c0.082-0.137,0.129-0.224,0.142-0.262s0.02-0.084,0.02-0.14
		s-0.023-0.154-0.069-0.294l-0.201-0.069c-0.052,0.013-0.087,0.02-0.103,0.02l-0.059-0.02c-0.049,0-0.083,0.029-0.103,0.088
		c-0.059,0-0.149,0.024-0.27,0.074l-0.029,0.069c-0.013-0.007-0.026-0.01-0.039-0.01c-0.01,0-0.019,0.002-0.027,0.005
		c-0.009,0.003-0.016,0.008-0.022,0.015c-0.007,0.007-0.013,0.014-0.02,0.022s-0.013,0.019-0.017,0.032
		c-0.005,0.013-0.01,0.027-0.015,0.042c-0.004,0.015-0.01,0.029-0.014,0.044c-0.005,0.015-0.026,0.043-0.062,0.085l-0.074,0.088
		l-0.142,0.27l-0.074,0.064c-0.023,0.02-0.041,0.062-0.054,0.127s-0.101,0.222-0.265,0.47l0.069,0.039l0.034,0.083l0.167,0.049
		c0.095-0.065,0.196-0.109,0.304-0.132l0.029-0.059c0.036,0.013,0.062,0.02,0.078,0.02c0.033,0,0.064-0.02,0.093-0.059l0.118-0.02
		l0.074-0.123h0.069l0.049-0.108c0.088,0,0.172-0.041,0.25-0.123v-0.046H139.42z"/>
</g>
</svg>
