<?xml version="1.0" encoding="utf-8"?>
<!-- Generator: Adobe Illustrator 17.0.0, SVG Export Plug-In . SVG Version: 6.00 Build 0)  -->
<!DOCTYPE svg PUBLIC "-//W3C//DTD SVG 1.1//EN" "http://www.w3.org/Graphics/SVG/1.1/DTD/svg11.dtd">
<svg version="1.1" id="Layer_1" xmlns="http://www.w3.org/2000/svg" xmlns:xlink="http://www.w3.org/1999/xlink" x="0px" y="0px"
	 width="150px" height="100px" viewBox="0 0 150 100" enable-background="new 0 0 150 100" xml:space="preserve">
<g>
	<g>
		<g>
			<path fill="#3A1404" d="M123.168,62.488c-1.203,1.586-2.159,2.914-3.185,4.186c-1.898,2.353-3.291,2.473-5.773,0.483
				c-0.224,0.172-0.476,0.358-0.72,0.554c-2.626,2.118-5.449,1.437-6.183-1.829c-0.489-2.175-0.334-4.571-0.071-6.821
				c0.381-3.263,1.06-6.497,1.722-9.721c0.659-3.206,1.454-6.385,2.192-9.583c-1.581-0.547-3.224-1.116-4.867-1.685
				c0.043-0.209,0.087-0.418,0.13-0.626c0.584,0,1.169-0.023,1.751,0.01c0.267,0.015,0.524,0.153,0.79,0.218
				c2.886,0.706,2.847,0.687,4.068-1.977c2.026-4.419,4.388-8.62,8.199-11.804c2.512-2.099,5.376-3.179,8.676-2.806
				c2.313,0.261,3.617,1.677,3.851,4c0.339,3.368-1.202,5.971-3.482,8.186c-3.425,3.328-7.442,5.578-12.217,6.384
				c-0.477,0.08-1.098,0.567-1.269,1.013c-2.583,6.734-4.63,13.616-5.27,20.839c-0.1,1.133,0.065,2.302,0.226,3.437
				c0.052,0.362,0.444,0.874,0.762,0.943c0.302,0.065,0.922-0.276,1.041-0.579c2.098-5.334,5.431-10.214,6.028-16.097
				c0.108-1.066-0.086-2.164-0.142-3.287c2.123-1.063,5.023,0.568,5.079,2.635c0.061,2.262-0.107,4.588-0.596,6.793
				c-0.526,2.369-1.541,4.629-2.19,7.006c3.476-4.911,7.407-9.588,8.037-16.054c2.725-1.072,4.667,0.145,4.375,3.177
				c-0.196,2.04-0.827,4.074-1.517,6.021c-0.894,2.524-2.041,4.958-3.079,7.431c3.573-2.133,9.651-13.476,9.072-17.107
				c1.149,0.292,2.279,0.485,3.339,0.871c1.37,0.498,2.28,2.056,1.764,3.666c-1.035,3.225-2.339,6.365-3.584,9.52
				c-0.583,1.479-1.385,2.876-1.905,4.374c-0.436,1.255-0.606,2.602-0.926,4.059c-1.785-0.176-3.946-0.539-4.455-2.631
				c-0.41-1.687,0.216-3.626,0.345-5.047c-1.24,1.702-2.793,3.86-4.377,5.996c-0.777,1.047-1.627,1.881-3.167,1.473
				c-2.793-0.74-3.451-1.847-2.594-4.654C123.107,63.266,123.101,63.057,123.168,62.488z M117.74,38.122
				c5.877-1.447,10.251-4.193,13.117-9.105c0.266-0.456,0.375-1.033,0.448-1.568c0.262-1.912-0.838-3.021-2.698-2.605
				c-0.94,0.21-1.925,0.574-2.695,1.135C121.861,28.933,119.911,33.312,117.74,38.122z"/>
			<path fill="#3A1404" d="M72.743,39.724c-1.511-0.501-3.17-1.05-4.828-1.6c0.035-0.231,0.07-0.462,0.106-0.693
				c0.558,0,1.142-0.108,1.67,0.017c3.727,0.881,3.709,0.89,5.334-2.533c2.064-4.348,4.486-8.442,8.375-11.457
				c2.018-1.564,4.305-2.365,6.865-2.421c3.712-0.081,5.828,2.428,5.11,6.104c-0.528,2.705-2.038,4.839-4.025,6.645
				c-3.32,3.017-7.14,5.062-11.603,5.863c-0.517,0.093-1.187,0.606-1.372,1.084c-2.529,6.522-4.415,13.222-5.235,20.188
				c-0.115,0.975-0.153,1.999,0.022,2.955c0.133,0.732,0.658,1.392,1.009,2.084c0.534-0.505,1.207-0.926,1.569-1.532
				c0.587-0.981,0.901-2.122,1.453-3.129c1.258-2.297,2.588-4.554,3.895-6.824c0.081-0.14,0.209-0.255,0.322-0.374
				c1.457-1.526,3.28-2.067,4.556-1.352c1.194,0.669,1.725,2.22,1.2,4.284c-0.431,1.694-1.114,3.324-1.695,4.979
				c-0.154,0.439-0.344,0.864-0.207,1.466c1.548-2.314,3.024-4.679,4.666-6.924c1.286-1.759,2.631-3.525,4.21-5.011
				c2.752-2.591,6.181-3.182,9.833-2.61c2.019,0.316,3.03,1.381,3.186,3.202c0.519,6.095-6.23,15.01-12.24,15.991
				c-1.307,0.213-2.774,0.104-4.047-0.268c-2.578-0.753-3.219-2.865-3.327-5.493c-0.453,0.563-0.88,1.149-1.363,1.685
				c-1.1,1.223-2.101,2.587-3.392,3.565c-0.683,0.518-2.029,0.683-2.802,0.357c-0.441-0.186-0.659-1.79-0.4-2.563
				c0.605-1.809,1.581-3.491,2.362-5.245c0.558-1.251,1.103-2.514,1.537-3.811c0.208-0.623,0.144-1.336,0.203-2.008
				c-0.139-0.081-0.278-0.162-0.417-0.243c-0.533,0.388-1.246,0.666-1.565,1.185c-1.078,1.757-2.084,3.567-2.988,5.42
				c-0.958,1.962-1.614,4.085-2.692,5.971c-0.835,1.461-2.287,2.439-4.127,2.189c-1.905-0.259-2.728-1.694-3.16-3.381
				c-0.174-0.681-0.344-1.422-0.256-2.102c0.543-4.184,1.043-8.38,1.786-12.531C70.937,47.14,71.897,43.481,72.743,39.724z
				 M79.748,37.804c5.425-1.15,9.845-3.766,12.662-8.659c0.384-0.666,0.487-1.576,0.476-2.37c-0.02-1.496-0.966-2.405-2.348-1.944
				c-1.609,0.537-3.283,1.313-4.523,2.435C82.911,30.072,81.226,33.848,79.748,37.804z M102.849,49.461
				c-0.969,0.704-1.585,0.991-1.98,1.463c-3.478,4.164-6.148,8.772-7.459,14.081c-0.126,0.511,0.122,1.114,0.196,1.674
				c0.548-0.246,1.287-0.343,1.614-0.762c3.364-4.303,5.935-9.047,7.607-14.256C102.99,51.157,102.849,50.555,102.849,49.461z"/>
			<path fill="#3A1404" d="M37.837,57.817c-1.772,0.148-3.557,0.499-5.313,0.388c-1.872-0.118-2.826-1.284-3.112-3.083
				c-0.261-1.643,0.406-2.854,2.093-3.698c2.37-1.187,4.903-1.313,7.398-0.707c3.57,0.866,7.076,1.989,10.627,2.939
				c0.998,0.267,2.055,0.436,3.085,0.437c2.028,0.003,2.85-0.83,2.657-2.859c-0.296-3.111-0.881-6.195-1.137-9.308
				c-0.365-4.435-0.58-8.888,0.801-13.229c0.131-0.411,0.319-0.804,0.536-1.344c3.095,1.335,5.543,0.22,7.874-2.341
				c-0.552,2.655-2.088,3.894-4.167,4.645c-0.008,0.182-0.017,0.365-0.025,0.547c1.085,0.157,2.19,0.527,3.252,0.431
				c3.045-0.277,5.249-2.498,5.969-5.749c0.956-4.321-1.291-9.915-5.029-12.268c-0.91-0.573-1.977-0.974-3.027-1.227
				c-1.21-0.291-2.313-0.336-2.43,1.548c-0.095,1.526-1.438,2.299-2.83,2.228c-1.495-0.076-3.022-0.456-4.435-0.975
				c-2.105-0.772-4.058-1.991-6.19-2.647c-4.108-1.263-8.052-1.136-11.197,2.393c-0.1,0.112-0.147,0.272-0.229,0.43
				c1.12,0.479,2.201,0.942,3.103,1.328c-2.017,0-4.172-0.249-6.247,0.05c-4.774,0.69-7.453,3.96-7.248,8.446
				c0.199,4.346,3.537,7.786,8.017,8.18c3.811,0.335,6.977-0.897,9.46-4.063c-1.065-0.442-1.994-0.828-2.688-1.117
				c2.468-0.272,5.18-0.219,7.665-0.943c2.504-0.73,4.783-2.234,6.883-3.263c-0.335,0.437-0.854,1.405-1.633,2.067
				c-1.325,1.127-1.81,2.553-2.02,4.171c-0.225,1.739-0.475,3.474-0.962,5.247c-0.177-2.154-0.353-4.308-0.531-6.476
				c-3.444-0.027-2.215,2.974-3.418,4.867c0-1.252,0.017-2.135-0.004-3.018c-0.031-1.245-0.878-1.755-1.946-1.084
				c-0.636,0.4-1.09,1.077-1.69,1.549c-1.664,1.311-3.383,2.555-5.034,3.883c-0.479,0.385-0.964,0.904-1.169,1.463
				c-1.131,3.078-2.175,6.188-3.388,9.291c0.227-1.641,0.425-3.286,0.689-4.921c0.26-1.613,0.586-3.215,0.879-4.801
				c-1.857-0.486-3.696-0.826-5.433-1.449c-5.017-1.801-7.529-6.322-6.52-11.505c0.955-4.903,5.029-8.041,10.22-8.016
				c0.762,0.004,1.849-0.36,2.239-0.928c2.664-3.886,6.511-4.658,10.744-4.104c2.199,0.288,4.328,1.129,6.479,1.755
				c0.788,0.23,1.535,0.603,2.322,0.837c2.873,0.853,3.656,0.367,4.09-2.484c8.812-0.684,15.393,5.821,14.705,14.528
				c-0.484,6.124-6.909,12.162-14.72,7.729c-0.208,1.371-0.651,2.64-0.54,3.859c0.359,3.929,0.94,7.837,1.397,11.758
				c0.197,1.687,0.439,3.387,0.413,5.077c-0.038,2.425-1.379,3.768-3.8,3.883c-1.359,0.065-2.753-0.029-4.093-0.267
				c-3.834-0.68-7.64-1.522-11.477-2.184c-1.165-0.201-2.433-0.198-3.581,0.048c-0.634,0.136-1.629,1.063-1.555,1.47
				c0.122,0.677,0.872,1.549,1.538,1.753c1.172,0.36,2.479,0.28,3.729,0.384C37.866,57.517,37.852,57.667,37.837,57.817z"/>
		</g>
		<g>
			<path fill="#F58220" d="M94.423,83.7c-0.321,2.149-2.317,3.656-4.402,3.324c-1.848-0.295-3.045-2.145-2.519-4.456
				c0.556-2.446,1.47-4.809,2.179-7.223c0.155-0.528,0.104-1.117,0.148-1.678c-0.195-0.075-0.391-0.15-0.586-0.225
				c0.905-1.082,1.803-2.17,2.718-3.244c0.861-1.01,1.857-0.851,2.771-0.153c0.903,0.689,1.249,1.595,0.727,2.746
				c-1.104,2.434-2.221,4.866-3.205,7.35c-0.499,1.26-0.787,2.619-1.033,3.958c-0.082,0.448,0.265,0.974,0.416,1.464
				c0.518-0.175,1.096-0.259,1.539-0.549c0.492-0.323,0.861-0.835,1.283-1.265L94.423,83.7z"/>
			<g>
				<path fill="#F58220" d="M72.118,83.837c-5.765,4.604-7.526,4.36-8.419-1.369c-0.588,0.769-0.971,1.393-1.474,1.899
					c-0.86,0.866-1.666,1.95-2.727,2.419c-2.211,0.979-3.725-0.027-4.74-2.879c-0.825,0.76-1.6,1.503-2.407,2.209
					c-1.077,0.942-2.344,1.321-3.645,0.651c-1.366-0.704-1.676-2.11-1.334-3.428c0.644-2.482,1.522-4.904,2.32-7.345
					c0.173-0.53,0.421-1.036,0.383-1.677c-3.31,3.687-6.375,7.494-7.282,12.553c-2.614-0.365-3.731-2.058-2.693-4.925
					c1.526-4.213,3.416-8.293,5.16-12.427c0.162-0.383,0.386-0.74,0.752-1.43c-1.419,0-2.552,0-3.966,0
					c0.367-0.322,0.452-0.456,0.519-0.447c3.122,0.405,4.96-1.234,6.684-3.648c2.105-2.949,4.836-5.439,8.315-6.686
					c1.912-0.685,4.058-1.02,6.091-0.99c3.085,0.045,4.305,2.746,2.609,5.357c-1.516,2.334-3.895,3.472-6.419,4.256
					c-2.028,0.63-4.123,1.071-6.214,1.461c-1.801,0.336-3.221,0.884-3.991,2.819c-0.761,1.91-1.955,3.645-2.929,5.473
					c-0.183,0.344-0.227,0.761,0,1.323c0.731-0.927,1.384-1.932,2.21-2.765c1.292-1.301,2.644-2.561,4.098-3.671
					c0.408-0.311,1.66-0.275,1.831,0.014c0.397,0.668,0.702,1.712,0.452,2.382c-0.8,2.148-1.892,4.186-2.827,6.286
					c-0.601,1.348-1.219,2.703-1.637,4.112c-0.171,0.575,0.166,1.302,0.272,1.959c0.566-0.192,1.243-0.248,1.681-0.6
					c2.411-1.936,3.429-4.768,4.578-7.486c2.421-5.727,6.56-8.053,12.704-7.09c0.457,0.072,0.947-0.101,1.418-0.08
					c0.465,0.02,0.927,0.141,1.55,0.245c-1.144,2.461-2.333,4.678-3.212,7.011c-0.825,2.191-1.37,4.495-1.923,6.776
					c-0.112,0.46,0.293,1.046,0.459,1.573c0.529-0.215,1.237-0.284,1.553-0.672c1.07-1.316,2.178-2.653,2.948-4.149
					c1.794-3.487,3.4-7.071,5.185-10.832c1.953-0.118,3.186,1.369,2.613,3.665c-0.761,3.05-1.963,5.9-3.499,8.639
					c-0.733,1.307-1.223,2.75-1.876,4.253C73.513,86.828,72.582,85.607,72.118,83.837z M51.841,66.747
					c0.631,0.07,0.904,0.179,1.124,0.113c3.072-0.92,6.171-1.769,9.184-2.856c0.961-0.347,1.882-1.212,2.459-2.081
					c0.449-0.676,0.669-1.871,0.367-2.561c-0.231-0.527-1.428-0.819-2.216-0.865c-0.837-0.048-1.733,0.221-2.541,0.519
					C56.49,60.389,54.349,63.489,51.841,66.747z M67.75,71.317c-0.187-0.185-0.374-0.371-0.561-0.556
					c-0.667,0.491-1.583,0.839-1.96,1.497c-1.998,3.489-3.923,7.024-5.712,10.624c-0.313,0.631,0.144,1.645,0.246,2.482
					c0.647-0.381,1.588-0.604,1.892-1.169c1.669-3.108,3.204-6.288,4.734-9.468C66.918,73.626,67.3,72.455,67.75,71.317z"/>
				<path fill="#F58220" d="M18.039,70.276c-2.626,0.761-4.671,2.253-6.137,4.48c-2.872,4.364-1.624,9.953,2.973,12.489
					c4.485,2.475,9.211,3.318,13.956,0.621c3.959-2.25,5.602-7.824,0.594-11.116c-1.779-1.17-3.645-2.207-5.452-3.337
					c-3.415-2.136-3.531-6.298-0.777-9.395c2.308-2.597,5.434-3.466,8.686-3.798c2.598-0.265,5.284-0.488,7.637,1.181
					c1.58,1.121,1.911,2.492,0.814,4.084c-1.369,1.988-3.375,3.004-6.128,3.649c1.015-0.671,1.679-1.061,2.29-1.522
					c1.465-1.106,1.666-2.655,1.316-4.298c-0.306-1.436-1.476-1.956-2.763-2.241c-3.48-0.769-8.362,0.938-8.967,4.858
					c-0.325,2.103,0.49,3.556,2.179,4.553c1.743,1.029,3.566,1.932,5.387,2.821c4.47,2.183,5.462,5.987,2.659,10.13
					c-2.804,4.145-6.966,5.937-11.641,6.944c-3.902,0.84-7.788,0.775-11.547-0.47c-3.696-1.225-6.509-3.539-6.916-7.736
					c-0.435-4.48,1.513-7.872,5.261-10.232C13.44,70.697,15.507,69.598,18.039,70.276z"/>
				<path fill="#F58220" d="M120.162,82.516c-0.952,1.263-1.655,2.224-2.388,3.161c-1.133,1.449-2.688,1.666-4.316,1.237
					c-1.545-0.407-1.857-1.701-1.838-3.119c0.001-0.09-0.106-0.182-0.325-0.532c-0.693,0.797-1.238,1.659-1.999,2.236
					c-0.86,0.652-1.877,1.369-2.892,1.488c-1.965,0.229-3.363-1.062-3.184-3.035c0.196-2.159,0.601-4.375,1.382-6.385
					c0.91-2.341,0.747-5.128,2.886-7.006c0.746-0.655,1.449-1.496,2.354-0.82c0.679,0.508,1.116,1.489,1.377,2.345
					c0.144,0.474-0.261,1.14-0.481,1.694c-1.154,2.902-2.412,5.767-3.444,8.711c-0.306,0.873,0.004,1.961,0.031,2.951
					c0.829-0.479,1.878-0.779,2.44-1.474c1.058-1.308,1.855-2.832,2.725-4.286c1.255-2.097,2.257-4.395,3.791-6.259
					c1.08-1.313,2.74-2.429,4.361-2.956c2.876-0.934,5.901-0.502,8.876-0.288c-1.531,3.598-2.958,6.833-4.274,10.113
					c-0.466,1.161-0.738,2.419-0.935,3.659c-0.078,0.487,0.291,1.045,0.457,1.571c0.517-0.168,1.241-0.176,1.514-0.531
					c1.164-1.512,2.205-3.12,3.27-4.706c0.376-0.559,0.695-1.157,1.04-1.737c0.144,0.078,0.289,0.155,0.433,0.233
					c-0.357,0.745-0.646,1.533-1.085,2.227c-0.96,1.518-1.883,3.086-3.047,4.439c-0.624,0.726-1.663,1.32-2.607,1.505
					c-2.534,0.496-3.789-0.651-3.909-3.259C120.364,83.435,120.285,83.179,120.162,82.516z M115.546,84.147
					c0.344,0.555,0.578,1.182,0.753,1.166c0.478-0.043,1.059-0.241,1.376-0.584c3.378-3.655,4.27-8.558,6.336-12.874
					c0.052-0.108-0.683-0.813-0.816-0.749c-0.568,0.273-1.167,0.641-1.536,1.138c-0.778,1.047-1.52,2.147-2.094,3.314
					C118.173,78.387,116.884,81.268,115.546,84.147z"/>
				<path fill="#F58220" d="M83.446,73.308c-0.633,0.595-1.265,1.19-1.898,1.785c-0.118-0.097-0.236-0.193-0.354-0.29
					c1.354-1.607,2.585-3.355,4.144-4.729c0.427-0.376,1.888,0.257,2.787,0.635c0.668,0.281,0.221,1.045,0.299,1.517
					c0.537,3.221-1.841,5.157-2.963,7.64c-0.89,1.97-1.488,4.069-2.303,6.076c-0.155,0.38-0.871,0.916-1.074,0.823
					c-0.724-0.331-1.815-0.833-1.895-1.395c-0.178-1.248-0.053-2.648,0.354-3.848c0.805-2.376,1.888-4.657,2.85-6.98
					c0.135-0.325,0.236-0.663,0.353-0.995C83.646,73.467,83.546,73.388,83.446,73.308z"/>
				<path fill="#F58220" d="M94.458,83.747c2.544-4.35,4.701-8.871,6.175-13.738c2.606-0.023,3.04,1.282,2.916,3.703
					c-0.206,4.016-3.229,6.61-4.181,10.154c-0.221,0.824-0.422,1.654-0.673,2.643c-1.26,0.069-2.491-0.099-3.206-1.599
					c-0.222-0.465-0.7-0.807-1.063-1.208C94.423,83.7,94.458,83.747,94.458,83.747z"/>
				<path fill="#F58220" d="M141.87,31.753c0.033,2.176-2.026,4.481-3.856,4.463c-1.266-0.013-1.873-0.726-1.903-1.984
					c-0.048-1.987,2.071-4.318,3.97-4.358C141.526,29.844,141.713,30.882,141.87,31.753z"/>
				<path fill="#F58220" d="M143.554,38.804c-0.019,1.666-1.57,3.683-3.194,4.154c-1.609,0.466-2.689-0.377-2.645-2.066
					c0.048-1.834,2.022-3.965,3.829-4.133C142.69,36.652,143.568,37.545,143.554,38.804z"/>
				<path fill="#F58220" d="M91.763,44.308c-0.022,1.702-1.83,4.025-3.429,4.406c-1.354,0.323-2.617-1.051-2.281-2.599
					c0.373-1.723,1.542-2.897,3.081-3.616C90.335,41.939,91.78,43.008,91.763,44.308z"/>
				<path fill="#F58220" d="M136.678,38.651c-0.015,1.716-1.744,3.943-3.373,4.343c-1.316,0.324-2.338-0.388-2.416-1.682
					c-0.121-2.006,1.632-4.208,3.582-4.501C135.565,36.646,136.687,37.582,136.678,38.651z"/>
			</g>
		</g>
	</g>
</g>
</svg>
