<?xml version="1.0" encoding="utf-8"?>
<!-- Generator: Adobe Illustrator 17.0.0, SVG Export Plug-In . SVG Version: 6.00 Build 0)  -->
<!DOCTYPE svg PUBLIC "-//W3C//DTD SVG 1.1//EN" "http://www.w3.org/Graphics/SVG/1.1/DTD/svg11.dtd">
<svg version="1.1" id="Layer_1" xmlns="http://www.w3.org/2000/svg" xmlns:xlink="http://www.w3.org/1999/xlink" x="0px" y="0px"
	 width="150px" height="100px" viewBox="0 0 150 100" enable-background="new 0 0 150 100" xml:space="preserve">
<g>
	<g>
		<path fill="#F7A193" d="M104.024,25.452c0,6.48-6.193,11.081-12.092,11.733c-6.638,0.733-12.092-5.253-12.092-11.733
			s5.414-12.602,12.092-12.602S104.024,18.972,104.024,25.452z"/>
		<path fill="#8E1E5D" d="M104.603,20.951c-0.043-1.101-0.325-2.643-1.058-3.29c-0.459-0.361-0.893-0.701-1.341-1.241
			c-3.108-3.741-6.962-5.951-11.949-5.018c-6.888,1.289-10.632,6.465-10.406,14.002c0.77,5.557,4.381,9.594,9.824,10.9
			c0.62,0.149,1.025,0.447,1.383,0.906c0.013,0.939,0.038,1.878,0.038,2.818c0.003,5.132-0.01,10.264,0.011,15.395
			c0.003,0.724-0.307,1.795,0.964,1.752c1.153-0.038,0.969-1.05,1.021-1.812c0.04-0.576,0.023-1.156,0.023-1.734
			c-0.002-5.059,0.016-10.119-0.025-15.178c-0.011-1.312,0.305-2.105,1.752-2.486c5.63-1.482,8.614-5.431,9.826-10.931
			C104.762,23.671,104.657,22.319,104.603,20.951z M98.343,32.307c-3.716,2.724-8.558,2.609-12.01-0.402
			c-2.662-2.322-3.817-5.301-2.904-8.769c0.79-2.999,2.618-5.117,5.95-5.477c2.484-0.242,4.56,0.501,6.102,2.531
			c1.577,2.133,1.737,4.387,0.439,6.681c-1.015,1.794-2.686,2.325-4.645,2.064c-2.511-0.335-4.237-2.857-3.646-5.219
			c0.378-1.51,1.422-2.017,2.839-2.104c1.302-0.081,2.225,0.546,2.806,1.602c0.62,1.128,0.087,2.092-0.736,2.915
			c-0.435,0.435-1.267,0.799-0.579,1.539c0.686,0.738,1.334,0.091,1.887-0.342c1.529-1.197,2.099-3.514,1.35-5.324
			c-0.671-1.623-2.674-2.675-4.681-2.458c-3.024,0.327-5.257,3.014-5.023,6.043c0.245,3.179,2.976,5.499,6.267,5.325
			c4.052-0.214,7.017-3.23,7.011-7.131c-0.007-4.033-3.126-7.581-6.956-7.868c-4.131-0.31-7.352,1.095-9.517,4.69
			c-0.035,0.058-0.122,0.217-0.89,1.316c0.469-2.65,1.118-5.24,3.299-6.894c5.05-4.774,12.877-3.709,16.626,2.107
			c0.51,0.791,1.009,1.167,1.205,2.174C103.733,23.252,102.307,29.401,98.343,32.307z"/>
	</g>
	<g>
		<path fill="#32BCAD" d="M123.402,49.239c-3.24,5.612-10.904,6.501-16.339,4.115c-6.115-2.684-7.845-10.595-4.605-16.207
			s10.99-8.207,16.773-4.868C125.015,35.618,126.642,43.627,123.402,49.239z"/>
		<path fill="#8E1E5D" d="M126.154,45.63c0.513-0.975,1.04-2.451,0.729-3.378c-0.216-0.542-0.423-1.054-0.541-1.745
			c-0.821-4.793-3.054-8.634-7.839-10.32c-6.61-2.328-12.44,0.282-16.013,6.923c-2.111,5.198-1.003,10.499,3.057,14.351
			c0.463,0.439,0.664,0.9,0.744,1.476c-0.458,0.82-0.906,1.646-1.376,2.459c-2.563,4.446-5.141,8.883-7.688,13.338
			c-0.359,0.628-1.163,1.401-0.042,2c1.018,0.543,1.364-0.425,1.79-1.058c0.322-0.479,0.598-0.99,0.887-1.491
			c2.528-4.383,5.073-8.755,7.567-13.157c0.647-1.141,1.316-1.671,2.76-1.277c5.616,1.531,10.176-0.397,13.975-4.554
			C124.932,48.065,125.517,46.842,126.154,45.63z M115.054,52.335c-4.58,0.501-8.716-2.02-10.2-6.353
			c-1.144-3.342-0.655-6.499,1.87-9.046c2.184-2.203,4.826-3.122,7.891-1.769c2.272,1.032,3.698,2.714,4.019,5.242
			c0.299,2.636-0.689,4.668-2.96,6.005c-1.776,1.046-3.489,0.67-5.055-0.535c-2.007-1.546-2.241-4.593-0.548-6.343
			c1.082-1.119,2.24-1.035,3.511-0.403c1.168,0.581,1.654,1.585,1.629,2.791c-0.027,1.287-0.97,1.855-2.095,2.157
			c-0.595,0.159-1.497,0.059-1.271,1.043c0.226,0.982,1.11,0.746,1.805,0.647c1.923-0.272,3.575-1.994,3.832-3.936
			c0.23-1.741-0.979-3.654-2.825-4.469c-2.782-1.229-6.059-0.018-7.372,2.722c-1.377,2.875-0.173,6.25,2.765,7.745
			c3.616,1.841,7.692,0.711,9.637-2.671c2.01-3.496,1.083-8.128-2.09-10.292c-3.422-2.333-6.914-2.728-10.587-0.697
			c-0.06,0.033-0.214,0.127-1.428,0.695c1.731-2.06,3.588-3.979,6.304-4.321c6.76-1.609,13.006,3.226,13.345,10.138
			c0.046,0.94,0.29,1.515-0.043,2.486C124.25,47.189,119.941,51.8,115.054,52.335z"/>
	</g>
	<g>
		<path fill="#59A97B" d="M59.145,43.838c3.24,5.612,10.904,6.501,16.339,4.115c6.115-2.684,7.845-10.595,4.605-16.207
			s-10.99-8.207-16.773-4.868S55.904,38.226,59.145,43.838z"/>
		<path fill="#8E1E5D" d="M58.38,43.798c3.8,4.157,8.359,6.085,13.975,4.554c1.444-0.394,2.114,0.136,2.76,1.277
			c2.494,4.402,5.039,8.774,7.567,13.157c0.289,0.501,0.564,1.012,0.887,1.49c0.426,0.633,0.773,1.601,1.79,1.058
			c1.122-0.599,0.318-1.371-0.042-2c-2.548-4.455-5.125-8.892-7.688-13.338c-0.469-0.814-0.918-1.639-1.376-2.459
			c0.08-0.577,0.282-1.037,0.744-1.476c4.06-3.853,5.169-9.154,3.057-14.351c-3.573-6.64-9.403-9.251-16.013-6.923
			c-4.785,1.685-7.018,5.526-7.839,10.32c-0.118,0.691-0.325,1.203-0.541,1.745c-0.311,0.928,0.216,2.403,0.729,3.378
			C57.03,41.442,57.615,42.665,58.38,43.798z M57.36,37.773c-0.333-0.971-0.089-1.545-0.043-2.486
			c0.339-6.912,6.585-11.747,13.345-10.138c2.716,0.342,4.573,2.261,6.304,4.321c-1.214-0.568-1.369-0.662-1.428-0.695
			c-3.673-2.031-7.165-1.636-10.587,0.697c-3.173,2.164-4.1,6.796-2.09,10.292c1.945,3.382,6.021,4.512,9.637,2.671
			c2.937-1.495,4.142-4.87,2.765-7.745c-1.313-2.74-4.59-3.951-7.372-2.722c-1.847,0.815-3.056,2.728-2.825,4.469
			c0.257,1.942,1.909,3.664,3.832,3.936c0.695,0.098,1.579,0.335,1.805-0.647c0.226-0.985-0.676-0.884-1.271-1.043
			c-1.124-0.302-2.067-0.87-2.095-2.157c-0.026-1.205,0.461-2.209,1.629-2.791c1.271-0.633,2.429-0.716,3.511,0.403
			c1.693,1.75,1.459,4.797-0.548,6.343c-1.566,1.206-3.278,1.581-5.055,0.535c-2.272-1.337-3.259-3.37-2.96-6.005
			c0.32-2.529,1.746-4.21,4.019-5.242c3.065-1.354,5.707-0.434,7.891,1.769c2.525,2.547,3.014,5.703,1.87,9.046
			c-1.483,4.333-5.62,6.854-10.2,6.353C62.606,46.4,58.297,41.788,57.36,37.773z"/>
	</g>
	<g>
		<g>
			<path fill="none" stroke="#73245C" stroke-width="2.1942" stroke-miterlimit="10" d="M27.076,73.336
				c-0.552-0.502-1.217-0.904-1.996-1.205c-0.778-0.301-1.538-0.452-2.278-0.452c-0.489,0-0.891,0.12-1.205,0.358
				c-0.314,0.239-0.471,0.546-0.471,0.922c0,0.452,0.182,0.898,0.546,1.337c0.364,0.427,1.054,1.023,2.071,1.789
				c1.405,1.067,2.435,2.096,3.087,3.087c0.64,0.979,0.96,2.014,0.96,3.107c0,1.92-0.722,3.489-2.165,4.707
				c-1.443,1.218-3.301,1.826-5.573,1.826c-1.243,0-2.291-0.056-3.144-0.169c-0.854-0.113-2.002-0.339-3.445-0.678v-5.422
				c0.941,0.778,1.786,1.334,2.532,1.666c0.746,0.333,1.528,0.499,2.344,0.499c0.678,0,1.233-0.113,1.666-0.339
				c0.433-0.226,0.649-0.515,0.649-0.866c0-0.602-0.201-1.161-0.602-1.676c-0.402-0.515-1.155-1.186-2.259-2.014
				c-1.368-1.016-2.366-1.983-2.994-2.899c-0.615-0.903-0.923-1.839-0.923-2.805c0-1.932,0.74-3.517,2.222-4.754
				c1.481-1.236,3.382-1.854,5.705-1.854c1.016,0,1.876,0.056,2.579,0.169c0.703,0.113,1.6,0.339,2.692,0.678V73.336z"/>
			<path fill="none" stroke="#73245C" stroke-width="2.1942" stroke-miterlimit="10" d="M32.574,86.072
				c-1.933-1.826-2.899-4.176-2.899-7.051c0-3.376,1.06-6.14,3.181-8.293c2.121-2.152,4.845-3.229,8.171-3.229
				c3.037,0,5.519,0.916,7.446,2.748c1.926,1.833,2.89,4.192,2.89,7.079c0,3.364-1.058,6.119-3.173,8.265
				c-2.115,2.146-4.841,3.219-8.18,3.219C36.985,88.811,34.506,87.898,32.574,86.072z M43.522,82.288
				c0.408-1.01,0.612-2.011,0.612-3.003c0-1.845-0.534-3.486-1.6-4.923c-1.067-1.437-2.441-2.357-4.123-2.758
				c-0.49,0.464-0.888,1.205-1.196,2.221c-0.308,1.017-0.461,2.097-0.461,3.238c0,1.883,0.486,3.537,1.459,4.961
				c0.973,1.425,2.219,2.319,3.737,2.683C42.59,84.105,43.114,83.298,43.522,82.288z"/>
			<path fill="none" stroke="#73245C" stroke-width="2.1942" stroke-miterlimit="10" d="M54.357,82.184v-8.058
				c0-1.406-0.072-2.573-0.216-3.502c-0.144-0.929-0.399-1.826-0.763-2.692h4.029h4.029v3.916l3.765-4.066
				c0.489-0.188,1.054-0.282,1.694-0.282c1.971,0,3.483,0.527,4.537,1.581c1.054,1.054,1.581,2.567,1.581,4.537v8.566
				c0,1.406,0.072,2.573,0.216,3.502c0.144,0.929,0.398,1.826,0.763,2.692h-4.518h-4.519c0.364-0.866,0.618-1.763,0.763-2.692
				c0.144-0.929,0.216-2.096,0.216-3.502v-6.232c0-0.966-0.198-1.71-0.593-2.231c-0.395-0.521-0.969-0.781-1.722-0.781
				c-0.829,0-1.557,0.213-2.184,0.64v8.604c0,1.406,0.072,2.573,0.216,3.502c0.144,0.929,0.398,1.826,0.762,2.692h-4.518h-4.518
				c0.364-0.866,0.621-1.763,0.772-2.692C54.287,84.757,54.357,83.59,54.357,82.184z"/>
			<path fill="none" stroke="#73245C" stroke-width="2.1942" stroke-miterlimit="10" d="M85.308,88.811
				c-2.761,0-5.017-0.838-6.768-2.513s-2.627-3.825-2.627-6.448c0-3.464,1.133-6.389,3.398-8.773
				c2.265-2.385,5.036-3.577,8.312-3.577c0.301-0.012,0.602,0,0.904,0.037v-1.242c0-1.406-0.072-2.573-0.216-3.502
				c-0.144-0.929-0.399-1.826-0.763-2.692l4.612-0.509l4.613-0.527c-0.427,0.854-0.728,1.93-0.904,3.229
				c-0.176,1.299-0.264,3.116-0.264,5.45v14.44c0,1.419,0.072,2.592,0.216,3.521c0.144,0.929,0.398,1.82,0.763,2.673h-3.954h-3.954
				V86.1l-2.617,2.692L85.308,88.811z M86.324,71.66c-0.954,0-1.735,0.581-2.344,1.742c-0.609,1.161-0.913,2.658-0.913,4.49
				c0,2.071,0.276,3.624,0.829,4.66c0.552,1.035,1.381,1.553,2.485,1.553c0.841-0.012,1.557-0.377,2.146-1.092v-10.92
				C87.925,71.805,87.19,71.66,86.324,71.66z"/>
			<path fill="none" stroke="#73245C" stroke-width="2.1942" stroke-miterlimit="10" d="M101.517,86.072
				c-1.933-1.826-2.899-4.176-2.899-7.051c0-3.376,1.06-6.14,3.181-8.293c2.121-2.152,4.845-3.229,8.171-3.229
				c3.037,0,5.519,0.916,7.446,2.748c1.926,1.833,2.89,4.192,2.89,7.079c0,3.364-1.058,6.119-3.173,8.265
				c-2.115,2.146-4.841,3.219-8.18,3.219C105.929,88.811,103.45,87.898,101.517,86.072z M112.465,82.288
				c0.408-1.01,0.612-2.011,0.612-3.003c0-1.845-0.534-3.486-1.6-4.923c-1.067-1.437-2.441-2.357-4.123-2.758
				c-0.49,0.464-0.888,1.205-1.196,2.221c-0.308,1.017-0.461,2.097-0.461,3.238c0,1.883,0.486,3.537,1.459,4.961
				c0.973,1.425,2.219,2.319,3.737,2.683C111.533,84.105,112.057,83.298,112.465,82.288z"/>
			<path fill="none" stroke="#73245C" stroke-width="2.1942" stroke-miterlimit="10" d="M135.82,73.336
				c-0.552-0.502-1.217-0.904-1.996-1.205c-0.778-0.301-1.538-0.452-2.278-0.452c-0.489,0-0.891,0.12-1.205,0.358
				c-0.314,0.239-0.471,0.546-0.471,0.922c0,0.452,0.182,0.898,0.546,1.337c0.364,0.427,1.054,1.023,2.071,1.789
				c1.405,1.067,2.435,2.096,3.087,3.087c0.64,0.979,0.96,2.014,0.96,3.107c0,1.92-0.722,3.489-2.165,4.707
				c-1.443,1.218-3.301,1.826-5.573,1.826c-1.243,0-2.291-0.056-3.144-0.169c-0.854-0.113-2.002-0.339-3.445-0.678v-5.422
				c0.941,0.778,1.786,1.334,2.532,1.666c0.746,0.333,1.528,0.499,2.344,0.499c0.678,0,1.233-0.113,1.666-0.339
				c0.433-0.226,0.649-0.515,0.649-0.866c0-0.602-0.201-1.161-0.602-1.676c-0.402-0.515-1.155-1.186-2.259-2.014
				c-1.368-1.016-2.366-1.983-2.994-2.899c-0.615-0.903-0.923-1.839-0.923-2.805c0-1.932,0.74-3.517,2.222-4.754
				c1.481-1.236,3.382-1.854,5.705-1.854c1.016,0,1.876,0.056,2.579,0.169c0.703,0.113,1.6,0.339,2.692,0.678V73.336z"/>
		</g>
		<g>
			<path fill="#DB6E9D" d="M27.076,73.336c-0.552-0.502-1.217-0.904-1.996-1.205c-0.778-0.301-1.538-0.452-2.278-0.452
				c-0.489,0-0.891,0.12-1.205,0.358c-0.314,0.239-0.471,0.546-0.471,0.922c0,0.452,0.182,0.898,0.546,1.337
				c0.364,0.427,1.054,1.023,2.071,1.789c1.405,1.067,2.435,2.096,3.087,3.087c0.64,0.979,0.96,2.014,0.96,3.107
				c0,1.92-0.722,3.489-2.165,4.707c-1.443,1.218-3.301,1.826-5.573,1.826c-1.243,0-2.291-0.056-3.144-0.169
				c-0.854-0.113-2.002-0.339-3.445-0.678v-5.422c0.941,0.778,1.786,1.334,2.532,1.666c0.746,0.333,1.528,0.499,2.344,0.499
				c0.678,0,1.233-0.113,1.666-0.339c0.433-0.226,0.649-0.515,0.649-0.866c0-0.602-0.201-1.161-0.602-1.676
				c-0.402-0.515-1.155-1.186-2.259-2.014c-1.368-1.016-2.366-1.983-2.994-2.899c-0.615-0.903-0.923-1.839-0.923-2.805
				c0-1.932,0.74-3.517,2.222-4.754c1.481-1.236,3.382-1.854,5.705-1.854c1.016,0,1.876,0.056,2.579,0.169
				c0.703,0.113,1.6,0.339,2.692,0.678V73.336z"/>
			<path fill="#59A97B" d="M32.574,86.072c-1.933-1.826-2.899-4.176-2.899-7.051c0-3.376,1.06-6.14,3.181-8.293
				c2.121-2.152,4.845-3.229,8.171-3.229c3.037,0,5.519,0.916,7.446,2.748c1.926,1.833,2.89,4.192,2.89,7.079
				c0,3.364-1.058,6.119-3.173,8.265c-2.115,2.146-4.841,3.219-8.18,3.219C36.985,88.811,34.506,87.898,32.574,86.072z
				 M43.522,82.288c0.408-1.01,0.612-2.011,0.612-3.003c0-1.845-0.534-3.486-1.6-4.923c-1.067-1.437-2.441-2.357-4.123-2.758
				c-0.49,0.464-0.888,1.205-1.196,2.221c-0.308,1.017-0.461,2.097-0.461,3.238c0,1.883,0.486,3.537,1.459,4.961
				c0.973,1.425,2.219,2.319,3.737,2.683C42.59,84.105,43.114,83.298,43.522,82.288z"/>
			<path fill="#8E1E5D" d="M54.357,82.184v-8.058c0-1.406-0.072-2.573-0.216-3.502c-0.144-0.929-0.399-1.826-0.763-2.692h4.029
				h4.029v3.916l3.765-4.066c0.489-0.188,1.054-0.282,1.694-0.282c1.971,0,3.483,0.527,4.537,1.581
				c1.054,1.054,1.581,2.567,1.581,4.537v8.566c0,1.406,0.072,2.573,0.216,3.502c0.144,0.929,0.398,1.826,0.763,2.692h-4.518h-4.519
				c0.364-0.866,0.618-1.763,0.763-2.692c0.144-0.929,0.216-2.096,0.216-3.502v-6.232c0-0.966-0.198-1.71-0.593-2.231
				c-0.395-0.521-0.969-0.781-1.722-0.781c-0.829,0-1.557,0.213-2.184,0.64v8.604c0,1.406,0.072,2.573,0.216,3.502
				c0.144,0.929,0.398,1.826,0.762,2.692h-4.518h-4.518c0.364-0.866,0.621-1.763,0.772-2.692
				C54.287,84.757,54.357,83.59,54.357,82.184z"/>
			<path fill="#437F5B" d="M85.308,88.811c-2.761,0-5.017-0.838-6.768-2.513s-2.627-3.825-2.627-6.448
				c0-3.464,1.133-6.389,3.398-8.773c2.265-2.385,5.036-3.577,8.312-3.577c0.301-0.012,0.602,0,0.904,0.037v-1.242
				c0-1.406-0.072-2.573-0.216-3.502c-0.144-0.929-0.399-1.826-0.763-2.692l4.612-0.509l4.613-0.527
				c-0.427,0.854-0.728,1.93-0.904,3.229c-0.176,1.299-0.264,3.116-0.264,5.45v14.44c0,1.419,0.072,2.592,0.216,3.521
				c0.144,0.929,0.398,1.82,0.763,2.673h-3.954h-3.954V86.1l-2.617,2.692L85.308,88.811z M86.324,71.66
				c-0.954,0-1.735,0.581-2.344,1.742c-0.609,1.161-0.913,2.658-0.913,4.49c0,2.071,0.276,3.624,0.829,4.66
				c0.552,1.035,1.381,1.553,2.485,1.553c0.841-0.012,1.557-0.377,2.146-1.092v-10.92C87.925,71.805,87.19,71.66,86.324,71.66z"/>
			<path fill="#F7A193" d="M101.517,86.072c-1.933-1.826-2.899-4.176-2.899-7.051c0-3.376,1.06-6.14,3.181-8.293
				c2.121-2.152,4.845-3.229,8.171-3.229c3.037,0,5.519,0.916,7.446,2.748c1.926,1.833,2.89,4.192,2.89,7.079
				c0,3.364-1.058,6.119-3.173,8.265c-2.115,2.146-4.841,3.219-8.18,3.219C105.929,88.811,103.45,87.898,101.517,86.072z
				 M112.465,82.288c0.408-1.01,0.612-2.011,0.612-3.003c0-1.845-0.534-3.486-1.6-4.923c-1.067-1.437-2.441-2.357-4.123-2.758
				c-0.49,0.464-0.888,1.205-1.196,2.221c-0.308,1.017-0.461,2.097-0.461,3.238c0,1.883,0.486,3.537,1.459,4.961
				c0.973,1.425,2.219,2.319,3.737,2.683C111.533,84.105,112.057,83.298,112.465,82.288z"/>
			<path fill="#3C817F" d="M135.82,73.336c-0.552-0.502-1.217-0.904-1.996-1.205c-0.778-0.301-1.538-0.452-2.278-0.452
				c-0.489,0-0.891,0.12-1.205,0.358c-0.314,0.239-0.471,0.546-0.471,0.922c0,0.452,0.182,0.898,0.546,1.337
				c0.364,0.427,1.054,1.023,2.071,1.789c1.405,1.067,2.435,2.096,3.087,3.087c0.64,0.979,0.96,2.014,0.96,3.107
				c0,1.92-0.722,3.489-2.165,4.707c-1.443,1.218-3.301,1.826-5.573,1.826c-1.243,0-2.291-0.056-3.144-0.169
				c-0.854-0.113-2.002-0.339-3.445-0.678v-5.422c0.941,0.778,1.786,1.334,2.532,1.666c0.746,0.333,1.528,0.499,2.344,0.499
				c0.678,0,1.233-0.113,1.666-0.339c0.433-0.226,0.649-0.515,0.649-0.866c0-0.602-0.201-1.161-0.602-1.676
				c-0.402-0.515-1.155-1.186-2.259-2.014c-1.368-1.016-2.366-1.983-2.994-2.899c-0.615-0.903-0.923-1.839-0.923-2.805
				c0-1.932,0.74-3.517,2.222-4.754c1.481-1.236,3.382-1.854,5.705-1.854c1.016,0,1.876,0.056,2.579,0.169
				c0.703,0.113,1.6,0.339,2.692,0.678V73.336z"/>
		</g>
	</g>
</g>
<g>
	<polygon fill="#9A3466" stroke="#9A3466" stroke-miterlimit="10" points="-127.528,1060.92 -127.528,1061.277 -127.172,1061.277 
		-126.458,1060.563 -126.458,1060.206 -126.815,1060.206 	"/>
</g>
</svg>
