<?xml version="1.0" encoding="utf-8"?>
<!-- Generator: Adobe Illustrator 17.0.0, SVG Export Plug-In . SVG Version: 6.00 Build 0)  -->
<!DOCTYPE svg PUBLIC "-//W3C//DTD SVG 1.1//EN" "http://www.w3.org/Graphics/SVG/1.1/DTD/svg11.dtd">
<svg version="1.1" id="Layer_1" xmlns="http://www.w3.org/2000/svg" xmlns:xlink="http://www.w3.org/1999/xlink" x="0px" y="0px"
	 width="150px" height="100px" viewBox="0 0 150 100" enable-background="new 0 0 150 100" xml:space="preserve">
<g>
	<g>
		<path fill="#0072BC" d="M67.775,84.304l1.098-2.663l1.107,2.663l1.053-2.391h0.685l-1.754,3.784l-1.091-2.633l-1.09,2.633
			l-1.738-3.784h0.685L67.775,84.304z"/>
		<path fill="#0072BC" d="M73.492,84.304l1.098-2.663l1.108,2.663l1.052-2.391h0.686l-1.754,3.784l-1.092-2.633l-1.09,2.633
			l-1.738-3.784h0.685L73.492,84.304z"/>
		<path fill="#0072BC" d="M79.211,84.304l1.098-2.663l1.106,2.663l1.052-2.391h0.687L81.4,85.697l-1.091-2.633l-1.092,2.633
			l-1.738-3.784h0.686L79.211,84.304z"/>
		<path fill="#0072BC" d="M84.305,85.119c0,0.232-0.189,0.427-0.422,0.427c-0.233,0-0.422-0.195-0.422-0.427
			c0-0.227,0.189-0.415,0.422-0.415C84.116,84.704,84.305,84.892,84.305,85.119z"/>
		<path fill="#0072BC" d="M87.042,82.733c-0.082-0.189-0.263-0.361-0.482-0.361c-0.209,0-0.436,0.167-0.436,0.392
			c0,0.323,0.406,0.443,0.82,0.616c0.414,0.173,0.82,0.421,0.82,1.015c0,0.669-0.541,1.151-1.196,1.151
			c-0.594,0-1.062-0.337-1.249-0.895l0.533-0.226c0.152,0.33,0.324,0.566,0.721,0.566c0.325,0,0.573-0.219,0.573-0.543
			c0-0.788-1.594-0.519-1.594-1.634c0-0.592,0.481-0.998,1.053-0.998c0.404,0,0.783,0.284,0.939,0.652L87.042,82.733z"/>
		<path fill="#0072BC" d="M89.246,85.448h-0.601v-2.98h-0.368v-0.555h0.368v-1.272h0.601v1.272h0.632v0.555h-0.632V85.448z"/>
		<path fill="#0072BC" d="M89.833,81.913h0.698l1.25,2.535l1.143-2.535h0.685l-2.611,5.522h-0.683l1.141-2.316L89.833,81.913z"/>
		<path fill="#0072BC" d="M94.753,85.448H94.15v-6.207h0.603V85.448z"/>
		<path fill="#0072BC" d="M96.175,83.807c0.008,0.655,0.473,1.183,1.161,1.183c0.509,0,0.84-0.31,1.073-0.729l0.511,0.291
			c-0.338,0.632-0.909,0.993-1.633,0.993c-1.054,0-1.729-0.804-1.729-1.821c0-1.046,0.609-1.909,1.714-1.909
			c1.136,0,1.739,0.94,1.678,1.991H96.175z M98.32,83.297c-0.083-0.51-0.513-0.925-1.039-0.925c-0.521,0-0.999,0.416-1.077,0.925
			H98.32z"/>
		<path fill="#0072BC" d="M103.007,85.448h-0.603V84.96h-0.016c-0.307,0.391-0.72,0.586-1.217,0.586
			c-1.039,0-1.694-0.882-1.694-1.857c0-1.01,0.642-1.873,1.701-1.873c0.481,0,0.918,0.224,1.211,0.601h0.016v-0.504h0.603V85.448z
			 M100.094,83.644c0,0.692,0.407,1.347,1.159,1.347c0.773,0,1.181-0.624,1.181-1.339c0-0.708-0.444-1.28-1.189-1.28
			C100.546,82.372,100.094,82.981,100.094,83.644z"/>
		<path fill="#0072BC" d="M104.721,82.344h0.014c0.248-0.342,0.571-0.528,1.008-0.528c0.978,0,1.203,0.706,1.203,1.533v2.099h-0.599
			v-1.993c0-0.572-0.047-1.084-0.746-1.084c-0.827,0-0.88,0.768-0.88,1.4v1.677h-0.602v-3.535h0.602V82.344z"/>
		<path fill="#0072BC" d="M110.714,84.96h-0.012c-0.295,0.383-0.737,0.586-1.221,0.586c-1.037,0-1.692-0.882-1.692-1.857
			c0-1.01,0.639-1.873,1.7-1.873c0.476,0,0.926,0.224,1.213,0.601h0.012v-3.176h0.605v6.207h-0.605V84.96z M108.407,83.644
			c0,0.692,0.406,1.347,1.16,1.347c0.774,0,1.18-0.624,1.18-1.339c0-0.708-0.444-1.28-1.188-1.28
			C108.858,82.372,108.407,82.981,108.407,83.644z"/>
		<path fill="#0072BC" d="M113.274,80.582c0,0.24-0.197,0.429-0.429,0.429c-0.234,0-0.429-0.188-0.429-0.429
			c0-0.233,0.195-0.43,0.429-0.43C113.078,80.152,113.274,80.349,113.274,80.582z M113.147,85.448h-0.603v-3.535h0.603V85.448z"/>
		<path fill="#0072BC" d="M117.028,84.96h-0.014c-0.294,0.383-0.737,0.586-1.22,0.586c-1.039,0-1.694-0.882-1.694-1.857
			c0-1.01,0.641-1.873,1.701-1.873c0.476,0,0.927,0.224,1.213,0.601h0.014v-3.176h0.602v6.207h-0.602V84.96z M114.718,83.644
			c0,0.692,0.408,1.347,1.159,1.347c0.776,0,1.182-0.624,1.182-1.339c0-0.708-0.444-1.28-1.19-1.28
			C115.17,82.372,114.718,82.981,114.718,83.644z"/>
		<path fill="#0072BC" d="M119.045,83.807c0.005,0.655,0.473,1.183,1.158,1.183c0.512,0,0.843-0.31,1.076-0.729l0.512,0.291
			c-0.339,0.632-0.911,0.993-1.631,0.993c-1.056,0-1.73-0.804-1.73-1.821c0-1.046,0.608-1.909,1.714-1.909
			c1.136,0,1.738,0.94,1.678,1.991H119.045z M121.188,83.297c-0.083-0.51-0.511-0.925-1.038-0.925c-0.519,0-1.002,0.416-1.076,0.925
			H121.188z"/>
		<path fill="#0072BC" d="M125.876,85.448h-0.605V84.96h-0.013c-0.309,0.391-0.722,0.586-1.22,0.586
			c-1.039,0-1.693-0.882-1.693-1.857c0-1.01,0.64-1.873,1.703-1.873c0.48,0,0.916,0.224,1.211,0.601h0.013v-0.504h0.605V85.448z
			 M122.965,83.644c0,0.692,0.404,1.347,1.156,1.347c0.774,0,1.181-0.624,1.181-1.339c0-0.708-0.443-1.28-1.188-1.28
			C123.415,82.372,122.965,82.981,122.965,83.644z"/>
		<path fill="#0072BC" d="M127.996,85.119c0,0.232-0.188,0.427-0.422,0.427c-0.231,0-0.42-0.195-0.42-0.427
			c0-0.227,0.189-0.415,0.42-0.415C127.808,84.704,127.996,84.892,127.996,85.119z"/>
		<path fill="#0072BC" d="M131.93,82.965h-0.015c-0.277-0.352-0.622-0.594-1.1-0.594c-0.727,0-1.244,0.601-1.244,1.307
			c0,0.702,0.477,1.312,1.215,1.312c0.507,0,0.86-0.226,1.154-0.61h0.012v0.805c-0.345,0.232-0.7,0.361-1.119,0.361
			c-1.069,0-1.883-0.798-1.883-1.867c0-1.052,0.852-1.863,1.891-1.863c0.384,0,0.774,0.127,1.089,0.354V82.965z"/>
		<path fill="#0072BC" d="M132.568,83.689c0-1.039,0.822-1.873,1.86-1.873c1.037,0,1.858,0.834,1.858,1.873
			c0,1.038-0.829,1.857-1.858,1.857C133.397,85.546,132.568,84.727,132.568,83.689z M133.172,83.679
			c0,0.724,0.513,1.312,1.257,1.312c0.745,0,1.257-0.588,1.257-1.312c0-0.714-0.512-1.307-1.257-1.307
			C133.684,82.372,133.172,82.965,133.172,83.679z"/>
		<path fill="#0072BC" d="M137.716,82.296h0.014c0.188-0.294,0.489-0.48,0.85-0.48c0.413,0,0.79,0.217,0.979,0.587
			c0.211-0.392,0.634-0.587,1.061-0.587c0.9,0,1.128,0.734,1.128,1.481v2.151h-0.6v-2.053c0-0.459-0.031-1.023-0.648-1.023
			c-0.692,0-0.768,0.67-0.768,1.204v1.873h-0.602v-2.009c0-0.435-0.054-1.068-0.631-1.068c-0.708,0-0.782,0.715-0.782,1.247v1.829
			h-0.603v-3.535h0.603V82.296z"/>
	</g>
	<path fill="#CCCCCC" d="M48.087,27.098c0.465-2.195-0.285-4.269-1.823-5.288l-0.04-0.031l-0.049-0.026l-9.729-4.873l-0.025-0.015
		l-0.028-0.008c-1.944-0.97-4.342-0.7-5.326,1.293l0.064-0.114l-3.215,6.768l-0.021,0.033l-0.021,0.035
		c-0.539,0.992-0.979,2.705-0.596,3.71c0.359,0.962,1.441,1.698,2.413,2.085l-0.094-0.047l11.054,5.55l-0.125-0.072
		c0.957,0.611,1.969,0.901,2.982,0.508c1.01-0.396,1.744-1.244,2.007-2.328l-0.021,0.086l2.558-7.139l0.021-0.065L48.087,27.098z"/>
	<g>
		<path fill="#0072BC" d="M46.709,26.492c0.524-1.431-0.208-3.178-1.479-3.82l-9.419-4.718c-1.467-0.779-2.481-0.81-3.689,0.891
			l-3.12,6.659c-1.066,2.094-0.268,3.579,1.193,4.308l10.952,5.497c1.526,0.768,2.481-0.171,3.03-1.686L46.709,26.492z"/>
	</g>
	<g>
		<path fill="#CCCCCC" d="M63.386,34.212c0.757-2,0.142-3.655-2.587-5.068l-0.068-0.045l-0.075-0.036l-7.011-3.49
			c-0.739-0.353-1.599-0.36-2.431-0.025c-1.046,0.42-1.89,1.371-2.313,2.473l-0.011,0.031l-0.01,0.029l-2.44,6.939l0.036-0.098
			c-0.491,1.159-0.52,2.422-0.08,3.464c0.35,0.826,1.002,1.303,1.791,1.599l-0.049-0.019l8.557,4.293l-0.209-0.113
			c0.831,0.56,1.776,0.656,2.597,0.263c0.997-0.475,1.36-1.427,1.79-3.033l-0.03,0.18l2.51-7.136l0.024-0.097L63.386,34.212z"/>
		<g>
			
				<linearGradient id="SVGID_1_" gradientUnits="userSpaceOnUse" x1="-8288.3994" y1="-2595.2188" x2="-8274.4668" y2="-2595.2188" gradientTransform="matrix(0.9823 0.1875 -0.1876 0.9823 7702.8926 4137.0288)">
				<stop  offset="0" style="stop-color:#A7A9AC"/>
				<stop  offset="1" style="stop-color:#1A1A1A"/>
			</linearGradient>
			<path fill="url(#SVGID_1_)" d="M62.051,34.459c0.644-1.823-0.29-3.366-1.724-4.166l-7.059-3.537
				c-1.043-0.544-2.469,0.252-3.016,1.614l-2.373,6.75c-0.665,1.502-0.255,3.485,0.918,4.075l7.651,3.835
				c1.527,0.768,2.306,0.748,3.091-1.474L62.051,34.459z"/>
		</g>
	</g>
	<path fill="#CCCCCC" d="M24.318,32.129c1.255-1.742,2.669-1.351,4.663-0.561l0.045,0.018l0.04,0.02l10.883,5.47l0.064,0.032
		l0.061,0.036c1.825,1.142,3.018,3.326,2.319,5.367l-0.008,0.02l-0.007,0.028c0,0-8.174,23.086-8.189,23.116
		c-0.446,1.075-1.36,1.838-2.398,2.344c-1.164,0.565-2.882-0.036-2.882-0.036l-15.271-5.591c0,0-2.045-0.595-2.239-1.667
		c-0.198-1.073,0.08-1.524,1.463-4.439L24.318,32.129z"/>
	<g>
		
			<linearGradient id="SVGID_2_" gradientUnits="userSpaceOnUse" x1="-3033.5872" y1="-4819.7656" x2="-2881.8828" y2="-4819.7656" gradientTransform="matrix(0.9426 -0.4737 1.1792 1.6639 8482.3115 6677.1211)">
			<stop  offset="0.4438" style="stop-color:#000000"/>
			<stop  offset="0.7697" style="stop-color:#B3B3B3"/>
			<stop  offset="1" style="stop-color:#808285"/>
		</linearGradient>
		<path fill="url(#SVGID_2_)" d="M40.819,42.368c0.496-1.467-0.202-3.036-1.518-3.862l-11.174-5.201
			c-1.445-0.577-2.244-1.15-3.153,0.112L13.155,58.654c-0.874,1.889-0.039,2.369,2.016,3.1l13.856,5.058
			c1.506,0.562,3.085-0.164,3.675-1.601L40.819,42.368z"/>
	</g>
	<g>
		<path fill="#0072BC" d="M109.012,55.477c0.062-0.3-0.134-0.649-0.388-0.816l-1.849-1.017c-0.273-0.139-0.601-0.024-0.737,0.251
			l-0.836,1.313c-0.145,0.268-0.031,0.577,0.25,0.69l2.465,1.205c0.257,0.165,0.596,0.062,0.664-0.237L109.012,55.477z"/>
	</g>
	<g>
		<path fill="#B3B3B3" d="M73.455,75.664h-0.544l-0.159-2.704h-0.334l-0.03-0.503h0.336l-0.068-1.154H73.2l0.065,1.154h0.576
			l0.027,0.503h-0.57L73.455,75.664z"/>
		<path fill="#B3B3B3" d="M74.454,72.802h0.015c0.176-0.252,0.328-0.441,0.685-0.441c0.186,0,0.337,0.067,0.499,0.155l-0.228,0.499
			c-0.116-0.08-0.193-0.144-0.338-0.144c-0.599,0-0.584,0.771-0.558,1.186l0.094,1.607h-0.544l-0.189-3.208h0.542L74.454,72.802z"/>
		<path fill="#B3B3B3" d="M78.9,75.664h-0.544L78.33,75.22h-0.013c-0.258,0.352-0.625,0.531-1.077,0.531
			c-0.94,0-1.581-0.802-1.635-1.685c-0.052-0.916,0.48-1.706,1.447-1.706c0.435,0,0.839,0.208,1.129,0.552h0.012l-0.027-0.457h0.548
			L78.9,75.664z M76.164,74.023c0.037,0.629,0.442,1.217,1.125,1.217c0.701,0,1.036-0.562,0.998-1.209
			c-0.035-0.642-0.47-1.16-1.147-1.16C76.505,72.871,76.13,73.424,76.164,74.023z"/>
		<path fill="#B3B3B3" d="M81.853,75.22h-0.014c-0.249,0.343-0.638,0.531-1.075,0.531c-0.943,0-1.584-0.802-1.634-1.685
			c-0.056-0.916,0.48-1.706,1.44-1.706c0.43,0,0.854,0.208,1.13,0.552h0.015l-0.173-2.881h0.55l0.329,5.631h-0.544L81.853,75.22z
			 M79.685,74.023c0.038,0.629,0.44,1.217,1.122,1.217c0.702,0,1.037-0.562,0.998-1.209c-0.034-0.642-0.467-1.16-1.144-1.16
			C80.027,72.871,79.65,73.424,79.685,74.023z"/>
		<path fill="#B3B3B3" d="M83.519,71.248c0.014,0.217-0.152,0.386-0.365,0.386c-0.21,0-0.4-0.169-0.408-0.386
			c-0.016-0.212,0.152-0.392,0.363-0.392C83.319,70.857,83.511,71.036,83.519,71.248z M83.662,75.664h-0.545l-0.189-3.208h0.548
			L83.662,75.664z"/>
		<path fill="#B3B3B3" d="M84.769,72.843h0.012c0.208-0.307,0.496-0.482,0.887-0.482c0.888,0,1.13,0.646,1.173,1.396l0.114,1.907
			h-0.548l-0.105-1.812c-0.031-0.515-0.103-0.981-0.736-0.981c-0.751,0-0.756,0.694-0.721,1.27l0.086,1.523h-0.543l-0.189-3.208
			h0.546L84.769,72.843z"/>
		<path fill="#B3B3B3" d="M90.455,75.502c0.034,0.515,0.058,0.957-0.243,1.383c-0.279,0.38-0.729,0.563-1.206,0.563
			c-0.897,0-1.591-0.563-1.666-1.472h0.545c0.044,0.591,0.496,0.972,1.083,0.972c0.844,0,0.99-0.624,0.947-1.348l-0.018-0.38h-0.013
			c-0.24,0.331-0.655,0.531-1.082,0.531c-0.937,0-1.577-0.788-1.629-1.685c-0.052-0.896,0.5-1.706,1.449-1.706
			c0.446,0,0.845,0.207,1.126,0.552h0.013l-0.027-0.457h0.546L90.455,75.502z M87.73,74.023c0.036,0.629,0.44,1.217,1.123,1.217
			c0.703,0,1.036-0.562,0.998-1.209c-0.038-0.642-0.471-1.16-1.145-1.16C88.071,72.871,87.697,73.424,87.73,74.023z"/>
		<path fill="#B3B3B3" d="M95.728,75.664h-0.545l-0.026-0.444h-0.015c-0.259,0.352-0.622,0.531-1.073,0.531
			c-0.941,0-1.582-0.802-1.634-1.685c-0.055-0.916,0.48-1.706,1.44-1.706c0.438,0,0.848,0.208,1.132,0.552h0.013l-0.027-0.457h0.548
			L95.728,75.664z M92.99,74.023c0.041,0.629,0.44,1.217,1.125,1.217c0.7,0,1.036-0.562,0.999-1.209
			c-0.039-0.642-0.472-1.16-1.148-1.16C93.333,72.871,92.958,73.424,92.99,74.023z"/>
		<path fill="#B3B3B3" d="M96.703,72.843h0.015c0.206-0.307,0.491-0.482,0.887-0.482c0.884,0,1.13,0.646,1.173,1.396l0.112,1.907
			H98.34l-0.103-1.812c-0.031-0.515-0.102-0.981-0.736-0.981c-0.748,0-0.757,0.694-0.722,1.27l0.088,1.523h-0.544l-0.19-3.208h0.549
			L96.703,72.843z"/>
		<path fill="#B3B3B3" d="M101.865,75.22h-0.016c-0.247,0.343-0.636,0.531-1.075,0.531c-0.939,0-1.581-0.802-1.632-1.685
			c-0.056-0.916,0.477-1.706,1.442-1.706c0.431,0,0.853,0.208,1.131,0.552h0.011l-0.168-2.881h0.547l0.33,5.631h-0.545
			L101.865,75.22z M99.698,74.023c0.039,0.629,0.443,1.217,1.123,1.217c0.702,0,1.039-0.562,1.001-1.209
			c-0.039-0.642-0.471-1.16-1.149-1.16C100.038,72.871,99.664,73.424,99.698,74.023z"/>
		<path fill="#B3B3B3" d="M106.963,73.408h-0.011c-0.273-0.319-0.597-0.538-1.03-0.538c-0.664,0-1.098,0.545-1.063,1.186
			c0.035,0.635,0.505,1.184,1.176,1.184c0.456,0,0.766-0.203,1.009-0.549h0.014l0.044,0.732c-0.301,0.206-0.615,0.328-0.999,0.328
			c-0.971,0-1.75-0.722-1.803-1.695c-0.055-0.953,0.672-1.695,1.614-1.695c0.349,0,0.706,0.121,1.007,0.323L106.963,73.408z"/>
		<path fill="#B3B3B3" d="M107.166,74.067c-0.055-0.943,0.645-1.706,1.587-1.706c0.938,0,1.728,0.763,1.782,1.706
			c0.058,0.939-0.65,1.685-1.583,1.685C108.018,75.751,107.222,75.006,107.166,74.067z M107.71,74.056
			c0.04,0.655,0.532,1.184,1.21,1.184c0.677,0,1.109-0.529,1.07-1.184c-0.037-0.648-0.535-1.186-1.209-1.186
			C108.105,72.871,107.675,73.408,107.71,74.056z"/>
		<path fill="#B3B3B3" d="M111.346,72.843h0.015c0.207-0.307,0.488-0.482,0.886-0.482c0.885,0,1.13,0.646,1.172,1.396l0.112,1.907
			h-0.547l-0.107-1.812c-0.026-0.515-0.095-0.981-0.73-0.981c-0.753,0-0.758,0.694-0.723,1.27l0.089,1.523h-0.545l-0.193-3.208
			h0.551L111.346,72.843z"/>
		<path fill="#B3B3B3" d="M114.725,75.664h-0.545l-0.161-2.704h-0.334l-0.027-0.503h0.334l-0.069-1.154h0.545l0.069,1.154h0.572
			l0.032,0.503h-0.574L114.725,75.664z"/>
		<path fill="#B3B3B3" d="M115.725,72.802h0.012c0.176-0.252,0.33-0.441,0.684-0.441c0.187,0,0.34,0.067,0.5,0.155l-0.229,0.499
			c-0.116-0.08-0.194-0.144-0.337-0.144c-0.601,0-0.583,0.771-0.558,1.186l0.093,1.607h-0.546l-0.188-3.208h0.548L115.725,72.802z"
			/>
		<path fill="#B3B3B3" d="M120.17,75.664h-0.546l-0.027-0.444h-0.015c-0.256,0.352-0.621,0.531-1.07,0.531
			c-0.946,0-1.583-0.802-1.635-1.685c-0.052-0.916,0.48-1.706,1.441-1.706c0.44,0,0.845,0.208,1.131,0.552h0.015l-0.027-0.457h0.542
			L120.17,75.664z M117.432,74.023c0.037,0.629,0.442,1.217,1.126,1.217c0.699,0,1.034-0.562,0.995-1.209
			c-0.036-0.642-0.468-1.16-1.143-1.16C117.773,72.871,117.398,73.424,117.432,74.023z"/>
		<path fill="#B3B3B3" d="M123.01,73.408h-0.011c-0.272-0.319-0.597-0.538-1.027-0.538c-0.663,0-1.102,0.545-1.065,1.186
			c0.035,0.635,0.505,1.184,1.174,1.184c0.459,0,0.77-0.203,1.013-0.549h0.014l0.04,0.732c-0.297,0.206-0.613,0.328-0.996,0.328
			c-0.97,0-1.75-0.722-1.804-1.695c-0.057-0.953,0.669-1.695,1.611-1.695c0.352,0,0.712,0.121,1.009,0.323L123.01,73.408z"/>
		<path fill="#B3B3B3" d="M124.168,75.664h-0.544l-0.161-2.704h-0.334l-0.032-0.503h0.336l-0.067-1.154h0.547l0.067,1.154h0.572
			l0.027,0.503h-0.572L124.168,75.664z"/>
		<path fill="#B3B3B3" d="M125.323,71.248c0.012,0.217-0.155,0.386-0.366,0.386c-0.212,0-0.401-0.169-0.415-0.386
			c-0.009-0.212,0.156-0.392,0.366-0.392C125.12,70.857,125.31,71.036,125.323,71.248z M125.466,75.664h-0.547l-0.191-3.208h0.548
			L125.466,75.664z"/>
		<path fill="#B3B3B3" d="M126.567,72.843h0.013c0.209-0.307,0.493-0.482,0.89-0.482c0.883,0,1.127,0.646,1.173,1.396l0.107,1.907
			h-0.545l-0.103-1.812c-0.031-0.515-0.101-0.981-0.737-0.981c-0.749,0-0.754,0.694-0.722,1.27l0.091,1.523h-0.546L126,72.456h0.549
			L126.567,72.843z"/>
		<path fill="#B3B3B3" d="M132.258,75.502c0.032,0.515,0.06,0.957-0.245,1.383c-0.278,0.38-0.732,0.563-1.208,0.563
			c-0.898,0-1.587-0.563-1.667-1.472h0.545c0.045,0.591,0.497,0.972,1.083,0.972c0.845,0,0.994-0.624,0.951-1.348l-0.023-0.38
			h-0.012c-0.239,0.331-0.651,0.531-1.082,0.531c-0.935,0-1.574-0.788-1.625-1.685c-0.054-0.896,0.496-1.706,1.449-1.706
			c0.44,0,0.843,0.207,1.122,0.552h0.012l-0.027-0.457h0.548L132.258,75.502z M129.529,74.023c0.038,0.629,0.441,1.217,1.124,1.217
			c0.704,0,1.042-0.562,0.999-1.209c-0.037-0.642-0.469-1.16-1.148-1.16C129.872,72.871,129.496,73.424,129.529,74.023z"/>
		<path fill="#B3B3B3" d="M136.85,73.408h-0.014c-0.269-0.319-0.599-0.538-1.026-0.538c-0.665,0-1.101,0.545-1.064,1.186
			c0.036,0.635,0.508,1.184,1.176,1.184c0.457,0,0.765-0.203,1.011-0.549h0.013l0.045,0.732c-0.3,0.206-0.616,0.328-0.999,0.328
			c-0.967,0-1.746-0.722-1.803-1.695c-0.056-0.953,0.669-1.695,1.613-1.695c0.349,0,0.709,0.121,1.007,0.323L136.85,73.408z"/>
		<path fill="#B3B3B3" d="M137.055,74.067c-0.059-0.943,0.64-1.706,1.584-1.706c0.941,0,1.731,0.763,1.782,1.706
			c0.058,0.939-0.648,1.685-1.585,1.685C137.9,75.751,137.11,75.006,137.055,74.067z M137.596,74.056
			c0.038,0.655,0.534,1.184,1.211,1.184c0.674,0,1.107-0.529,1.072-1.184c-0.043-0.648-0.536-1.186-1.214-1.186
			C137.993,72.871,137.561,73.408,137.596,74.056z"/>
		<path fill="#B3B3B3" d="M141.748,75.361c0.011,0.211-0.148,0.39-0.36,0.39c-0.207,0-0.389-0.179-0.4-0.39
			c-0.014-0.207,0.148-0.373,0.356-0.373C141.554,74.989,141.736,75.154,141.748,75.361z"/>
	</g>
	<path fill="#0072BC" d="M39.284,64.046c-0.024-0.384-0.166-0.505-0.388-0.521c-0.298-0.025-0.466,0.14-0.546,0.45
		c-1.121,4.386-2.904,4.295-2.904,4.295h5.256c0.673,0,1.343,0,2.022,0c1.624,0,3.106-0.296,4.404-0.888
		c0.522-0.239,1.05-0.565,1.576-0.962c0.525-0.404,1.009-0.859,1.438-1.361c0.433-0.513,0.782-1.076,1.033-1.675
		c0.259-0.619,0.369-1.261,0.332-1.912c-0.025-0.365-0.073-0.687-0.152-0.957c-0.083-0.268-0.209-0.552-0.383-0.852
		c-0.166-0.282-0.392-0.603-0.664-0.947l-1.005-1.24c-0.517-0.62-0.999-1.302-1.437-2.035c-0.42-0.7-0.655-1.47-0.701-2.275
		c-0.064-1.051,0.212-1.859,0.836-2.486c0.635-0.625,1.47-0.93,2.552-0.93c1.011,0,1.763,0.204,2.23,0.613
		c0.466,0.401,0.706,0.808,0.731,1.243c0.013,0.211-0.009,0.382-0.067,0.509l-0.069,0.151l0.096,0.15
		c0.227,0.337,0.52,0.346,0.718,0.243l0.118-0.062l0.028-0.13c0.066-0.308,0.166-0.697,0.292-1.153
		c0.136-0.472,0.248-0.831,0.344-1.109l0.019-0.056l-0.003-0.057c-0.016-0.266-0.126-0.532-0.323-0.788l-0.011-0.016l-0.012-0.011
		c-0.407-0.415-0.866-0.7-1.356-0.843c-0.471-0.138-0.952-0.207-1.441-0.207c-0.723,0-1.379,0.09-1.955,0.272
		c-0.574,0.181-1.074,0.391-1.495,0.631c-0.421,0.237-0.79,0.511-1.092,0.797c-0.301,0.288-0.528,0.53-0.698,0.745
		c-0.47,0.598-0.865,1.291-1.16,2.063c-0.299,0.787-0.429,1.589-0.386,2.376c0.05,0.804,0.255,1.515,0.618,2.132
		c0.346,0.592,0.84,1.274,1.465,2.039c0.7,0.814,1.175,1.474,1.424,1.953c0.236,0.464,0.372,0.925,0.397,1.365
		c0.057,0.941-0.179,1.736-0.713,2.419c-0.549,0.701-1.243,1.249-2.07,1.631c-0.399,0.193-0.852,0.339-1.354,0.432
		c-0.505,0.098-0.626,0.089-1.126,0.089c-1.292,0-3.014,0.083-3.647-0.482c-0.635-0.563-0.742-1.192-0.783-1.916L39.284,64.046z
		 M54.374,58.443l-0.076,0.064c-0.278,0.224-0.474,0.455-0.597,0.694l-0.037,0.071l0.002,0.082c0.015,0.239,0.19,0.48,0.556,0.48
		c0.063,0,0.222-0.005,0.907-0.068l0.207-0.017l0.469-0.04c-0.773,1.423-1.379,2.662-1.784,3.674
		c-0.476,1.171-0.688,2.048-0.652,2.683c0.048,0.757,0.293,1.312,0.735,1.641c0.419,0.319,0.9,0.479,1.429,0.479
		c0.893,0,1.78-0.152,2.629-0.448c0.836-0.293,1.748-0.772,2.711-1.416l-0.053,0.025c0.213-0.086,0.279-0.222,0.299-0.324
		c0.017-0.075,0.017-0.234-0.136-0.398c-0.137-0.148-0.275-0.186-0.368-0.187c-0.076-0.008-0.188,0.02-0.296,0.106
		c-0.62,0.39-1.219,0.713-1.776,0.951c-0.535,0.227-1.023,0.34-1.444,0.34c-0.774,0-1.142-0.384-1.196-1.247
		c-0.041-0.708,0.119-1.556,0.48-2.52c0.352-0.961,0.882-2.142,1.561-3.507l1.336-0.075l1.681-0.087
		c0.542-0.028,1.053-0.051,1.509-0.065c0.456-0.013,0.802-0.021,1.027-0.021h0.073l0.063-0.029c0.158-0.083,0.238-0.232,0.229-0.409
		c-0.004-0.113-0.062-0.281-0.291-0.427l-0.081-0.051h-4.923c0.44-0.855,0.899-1.711,1.37-2.565
		c0.556-0.998,1.145-1.968,1.746-2.879c0.115-0.202,0.287-0.362,0.52-0.499c0.256-0.143,0.487-0.24,0.69-0.294l0.027-0.007
		l0.032-0.016c0.306-0.155,0.321-0.412,0.241-0.586c-0.088-0.187-0.249-0.299-0.43-0.299h-0.05l-0.052,0.022
		c-0.424,0.144-0.921,0.336-1.474,0.565c-0.549,0.231-0.985,0.419-1.3,0.567l-0.083,0.041l-0.044,0.082
		c-0.232,0.428-0.5,0.896-0.8,1.398c-0.302,0.507-0.602,1.038-0.89,1.565l-0.426,0.804l-0.431,0.798l-0.7,1.305l-2.036,0.041
		L54.374,58.443z M71.036,58.018c-0.149-0.3-0.315-0.49-0.5-0.584l-0.067-0.033h-0.075c-0.312,0-0.62,0.248-0.962,0.782
		c-0.282,0.44-0.582,0.989-0.895,1.629c-0.645,1.296-1.197,2.443-1.645,3.405c-0.536,1.162-0.833,1.604-0.986,1.766l-0.013,0.009
		l-0.006,0.014c-0.088,0.121-0.236,0.255-0.43,0.396c-0.213,0.151-0.445,0.297-0.685,0.438c-0.239,0.136-0.467,0.248-0.673,0.329
		c-0.24,0.09-0.377,0.109-0.449,0.109c-0.115,0-0.174,0-0.185-0.211c-0.033-0.577,0.26-1.416,0.865-2.504
		c0.638-1.133,1.431-2.624,2.364-4.448l0.037-0.07l-0.006-0.08c-0.011-0.215-0.174-0.437-0.507-0.437
		c-0.053,0-0.159,0.009-0.504,0.074c-0.251,0.041-0.444,0.077-0.581,0.107l-0.062,0.013l-0.044,0.028
		c-0.099,0.071-0.191,0.15-0.277,0.235c-0.076,0.082-0.165,0.196-0.281,0.351l-0.009,0.013l-0.007,0.013
		c-0.94,1.594-1.705,2.922-2.339,4.053c-0.676,1.198-0.983,2.096-0.946,2.734c0.033,0.56,0.306,0.865,0.529,1.024
		c0.296,0.213,0.683,0.323,1.155,0.323c0.629,0,1.233-0.166,1.809-0.49c0.159-0.093,0.31-0.187,0.454-0.276
		c-0.515,0.982-1.067,2.023-1.651,3.09c-0.777,1.418-1.617,2.852-2.491,4.248c-0.87,1.397-1.8,2.765-2.758,4.052
		c-0.946,1.278-1.95,2.42-2.986,3.383c-1.033,0.961-2.113,1.738-3.219,2.318c-1.087,0.565-2.208,0.853-3.338,0.853
		c-1.377,0-2.351-0.288-2.898-0.851c-0.561-0.584-0.857-1.208-0.898-1.918c-0.01-0.184-0.079-0.316-0.201-0.392
		c-0.113-0.061-0.24-0.073-0.351-0.01c-0.09,0.044-0.211,0.143-0.266,0.348c-0.053,0.152-0.092,0.366-0.128,0.627
		c-0.029,0.261-0.036,0.521-0.023,0.77c0.069,1.12,0.502,1.924,1.284,2.385c0.736,0.429,1.56,0.648,2.449,0.648
		c1.454,0,2.839-0.316,4.125-0.938c1.271-0.618,2.492-1.462,3.641-2.512c1.144-1.047,2.257-2.291,3.308-3.699
		c1.039-1.393,2.062-2.899,3.04-4.478c0.971-1.566,1.947-3.213,2.895-4.897c0.946-1.671,1.903-3.324,2.85-4.912
		c0.385-0.522,0.81-1.122,1.247-1.757c0.434-0.63,0.845-1.236,1.22-1.799c0.372-0.567,0.681-1.068,0.92-1.491
		c0.328-0.581,0.389-0.806,0.376-0.962C71.245,58.564,71.173,58.286,71.036,58.018z M89.577,63.747
		c-0.517,0.549-1.088,1.065-1.71,1.524c-0.617,0.463-1.267,0.855-1.934,1.161c-0.647,0.301-1.289,0.451-1.905,0.451
		c-0.896,0-1.321-0.453-1.383-1.471c-0.032-0.54,0.018-1.087,0.151-1.619c0.111-0.443,0.216-0.781,0.319-1.022
		c0.87-0.018,1.638-0.142,2.273-0.381c0.674-0.254,1.238-0.578,1.677-0.961c0.435-0.383,0.767-0.796,0.972-1.237
		c0.212-0.446,0.312-0.876,0.286-1.271c-0.019-0.315-0.149-0.589-0.382-0.789c-0.234-0.2-0.582-0.296-1.069-0.296
		c-0.777,0-1.586,0.284-2.396,0.852c-0.777,0.548-1.495,1.236-2.126,2.047c-0.581,0.748-1.049,1.57-1.41,2.439
		c-0.544,0.6-1.131,1.167-1.75,1.702c-0.652,0.556-1.357,1.043-2.09,1.437c-0.706,0.377-1.405,0.571-2.076,0.571
		c-0.665,0-0.967-0.323-1.012-1.081c-0.031-0.535,0.09-1.211,0.359-2.008c0.279-0.824,0.617-1.676,1.008-2.529
		c0.39-0.849,0.8-1.677,1.208-2.447c0.392-0.735,0.705-1.336,0.941-1.795c1.401-0.803,2.734-1.738,3.956-2.777
		c1.245-1.057,2.388-2.179,3.405-3.339c1.013-1.156,1.931-2.338,2.719-3.511c0.787-1.175,1.451-2.291,1.982-3.318
		c0.54-1.036,0.946-1.959,1.222-2.744c0.29-0.825,0.415-1.442,0.389-1.891c-0.022-0.35-0.146-0.622-0.366-0.812
		c-0.214-0.18-0.473-0.275-0.788-0.275c-0.236,0-0.696,0.082-1.95,0.778c-0.915,0.495-1.906,1.221-2.965,2.154
		c-0.777,0.67-1.42,1.357-1.914,2.036c-0.478,0.664-0.953,1.385-1.401,2.142c-0.376,0.617-0.783,1.331-1.203,2.11l-0.965,1.781
		l-0.381,0.709c0-0.006-1.43,2.661-1.43,2.661l-1.38,2.621c-0.256,0.483-0.664,1.213-1.209,2.155
		c-0.552,0.955-1.104,1.982-1.648,3.041c-0.543,1.072-1.02,2.107-1.411,3.073c-0.409,1.017-0.594,1.792-0.559,2.359
		c0.033,0.596,0.257,1.113,0.67,1.529c0.416,0.425,1.048,0.637,1.887,0.637c0.906,0,1.812-0.212,2.687-0.634
		c0.858-0.408,1.681-0.929,2.454-1.547c0.367-0.291,0.727-0.605,1.071-0.932c-0.054,0.385-0.076,0.76-0.054,1.119
		c0.054,0.972,0.526,2.122,2.465,2.122c0.869,0,1.746-0.169,2.611-0.513c0.849-0.339,1.672-0.788,2.45-1.333
		c0.77-0.54,1.537-1.195,2.186-1.85c0,0,0.354-0.62-0.482-0.847 M80.789,51.228c0.811-1.438,1.523-2.673,2.119-3.676
		c0.583-0.984,1.072-1.791,1.453-2.396c0.396-0.621,0.686-1.068,0.894-1.378c-0.007,0.007,1.37-1.894,1.37-1.894
		c0.351-0.483,0.658-0.855,0.907-1.118c0.29-0.313,0.472-0.435,0.566-0.482c0.123-0.069,0.235-0.099,0.329-0.099
		c0.121,0,0.256,0,0.283,0.385c0.052,0.902-0.195,2.037-0.728,3.374c-0.543,1.362-1.322,2.788-2.314,4.23
		c-0.996,1.451-2.215,2.887-3.628,4.268c-1.105,1.081-2.297,2.037-3.554,2.869L80.789,51.228z M83.901,61.033
		c0.228-0.392,0.476-0.76,0.732-1.093c0.252-0.326,0.514-0.592,0.783-0.791c0.241-0.176,0.471-0.267,0.695-0.267
		c0.207,0,0.261,0.051,0.273,0.257c0.043,0.725-0.198,1.34-0.747,1.873c-0.548,0.545-1.185,0.807-1.952,0.807
		c-0.046,0-0.112-0.002-0.184-0.01C83.614,61.556,83.743,61.3,83.901,61.033z"/>
	<path fill="#666666" d="M117.384,58.464c0.148,0.159,0.276,0.435,0.377,0.821l1.013-4.468c0.03-0.119,0.048-0.23,0.053-0.332
		c0.007-0.097,0.007-0.179,0-0.257c-0.016-0.282-0.08-0.464-0.192-0.539c-0.11-0.073-0.262-0.106-0.462-0.106
		c-0.124,0-0.238,0-0.347,0.008c-0.105,0.004-0.246,0.016-0.418,0.036l-0.024-0.372c0.827-0.112,1.962-0.303,3.419-0.582
		l0.106,0.112l-0.014,0.124l-1.695,7.865l-1.168,5.235c-0.02,0.116-0.041,0.226-0.049,0.325c-0.016,0.103-0.021,0.195-0.016,0.275
		c0.012,0.202,0.073,0.332,0.173,0.395c0.102,0.058,0.192,0.085,0.267,0.085c0.217,0,0.507-0.186,0.877-0.563
		c0.218-0.231,0.51-0.586,0.884-1.068l0.268,0.239l-0.143,0.23c-0.25,0.405-0.575,0.812-0.973,1.236
		c-0.713,0.736-1.373,1.104-1.975,1.104c-0.2,0-0.382-0.046-0.548-0.127c-0.309-0.178-0.477-0.494-0.503-0.945
		c-0.011-0.157-0.003-0.401,0.019-0.732c0.026-0.337,0.07-0.707,0.135-1.107c-0.504,0.845-1.075,1.543-1.705,2.081
		c-0.631,0.543-1.338,0.813-2.121,0.813c-0.636,0-1.21-0.226-1.71-0.681c-0.503-0.45-0.782-1.153-0.835-2.092
		c-0.099-1.598,0.54-3.231,1.914-4.92c1.37-1.67,2.745-2.508,4.132-2.508C116.704,58.05,117.128,58.19,117.384,58.464z
		 M112.397,66.63c0.225,0.329,0.583,0.498,1.076,0.498c1.046,0,2.008-0.843,2.875-2.529c0.832-1.58,1.21-3.077,1.126-4.49
		c-0.029-0.45-0.124-0.82-0.288-1.109c-0.165-0.295-0.471-0.44-0.918-0.44c-1.127,0-2.149,0.895-3.089,2.698
		c-0.844,1.615-1.229,3.012-1.159,4.201C112.048,65.905,112.169,66.291,112.397,66.63z"/>
	<path fill="#666666" d="M123.574,60.367c1.361-1.521,2.811-2.283,4.355-2.283c0.569,0,1.03,0.131,1.384,0.396
		c0.353,0.263,0.541,0.654,0.572,1.17c0.062,1.052-0.502,1.955-1.687,2.706c-1.189,0.75-2.458,1.206-3.813,1.376l-0.619,0.076
		c-0.076,0.298-0.132,0.541-0.159,0.718c-0.024,0.181-0.031,0.41-0.015,0.677c0.041,0.647,0.281,1.15,0.724,1.505
		c0.438,0.36,0.952,0.538,1.53,0.538c0.546,0,1.117-0.179,1.709-0.544c0.34-0.214,0.825-0.596,1.459-1.146l0.304,0.254
		c-0.307,0.415-0.75,0.844-1.341,1.284c-1.044,0.782-2.114,1.173-3.212,1.173c-0.772,0-1.471-0.272-2.092-0.821
		c-0.615-0.55-0.956-1.337-1.014-2.36C121.562,63.459,122.196,61.892,123.574,60.367z M127.221,61.842
		c0.833-0.783,1.227-1.554,1.181-2.32c-0.016-0.277-0.095-0.499-0.235-0.666c-0.141-0.164-0.34-0.247-0.599-0.247
		c-0.471,0-0.931,0.203-1.365,0.61c-0.434,0.406-0.818,0.866-1.156,1.372c-0.35,0.603-0.626,1.178-0.822,1.721
		c-0.108,0.297-0.219,0.63-0.335,1.001C125.275,63.112,126.383,62.618,127.221,61.842z"/>
	<path fill="#666666" d="M138.771,58.499c0.179,0.161,0.328,0.376,0.435,0.635l0.067,0.152l0.197-0.826
		c0.025-0.095,0.052-0.157,0.068-0.192c0.02-0.036,0.072-0.054,0.151-0.059l1.265-0.143c0.067,0,0.104,0.017,0.121,0.041
		c0.013,0.025,0.013,0.069,0,0.136c-0.027,0.095-0.046,0.17-0.057,0.224c-0.013,0.058-0.031,0.134-0.06,0.236l-0.85,3.935
		c-0.185,0.859-0.342,1.594-0.471,2.22c-0.207,1.118-0.301,1.761-0.291,1.926c0.007,0.099,0.036,0.173,0.093,0.221
		c0.057,0.048,0.127,0.071,0.209,0.071c0.064,0,0.139-0.023,0.214-0.066c0.077-0.044,0.17-0.11,0.284-0.194l0.189-0.152
		c0.059-0.054,0.121-0.115,0.199-0.183c0.069-0.067,0.155-0.153,0.26-0.255l0.674-0.694l0.279,0.227
		c-0.726,0.97-1.311,1.626-1.766,1.972c-0.456,0.348-0.896,0.521-1.327,0.521c-0.278,0-0.495-0.096-0.657-0.282
		c-0.164-0.191-0.251-0.428-0.268-0.714c-0.017-0.265,0.011-0.641,0.083-1.134c0.067-0.494,0.141-0.906,0.219-1.245
		c-0.122,0.221-0.328,0.542-0.612,0.963c-0.284,0.42-0.645,0.83-1.074,1.224c-0.507,0.478-0.996,0.811-1.476,1.008
		c-0.371,0.134-0.736,0.197-1.087,0.197c-0.589,0-1.143-0.243-1.653-0.727c-0.516-0.488-0.796-1.18-0.845-2.072
		c-0.091-1.542,0.507-3.148,1.799-4.818c1.334-1.734,2.768-2.6,4.309-2.6C137.978,58.05,138.436,58.198,138.771,58.499z
		 M138.442,58.914c-0.256-0.247-0.562-0.371-0.907-0.371c-1.205,0-2.273,0.913-3.2,2.749c-0.816,1.614-1.189,3.005-1.122,4.168
		c0.037,0.585,0.191,1.017,0.456,1.28c0.27,0.272,0.59,0.404,0.961,0.404c1.107,0,2.121-0.888,3.036-2.672
		c0.885-1.621,1.287-3.083,1.214-4.389C138.843,59.553,138.699,59.163,138.442,58.914z"/>
	<g>
		<polygon fill="#B3B3B3" points="50.431,21.401 32.82,71.182 33.146,71.292 50.751,21.506 		"/>
	</g>
	<g>
		
			<rect x="7.477" y="65.777" transform="matrix(0.9403 0.3403 -0.3403 0.9403 23.7227 -3.3651)" fill="#B3B3B3" width="27.956" height="0.34"/>
	</g>
	<g>
		
			<rect x="-6.866" y="37.649" transform="matrix(0.4286 -0.9035 0.9035 0.4286 -22.1673 40.5879)" fill="#B3B3B3" width="55.741" height="0.341"/>
	</g>
	<g>
		
			<rect x="28.731" y="21.765" transform="matrix(0.894 0.448 -0.448 0.894 14.9083 -19.1527)" fill="#B3B3B3" width="38.417" height="0.344"/>
	</g>
	<g>
		<polygon fill="#B3B3B3" points="60.239,46.468 23.527,28.051 23.37,28.353 60.084,46.776 		"/>
	</g>
	<path fill="#666666" d="M105.554,59.402c0.361-0.33,0.517,0.3,0.535,0.562c0.001,0.072,0,0.149-0.011,0.223
		c-0.008,0.069-0.023,0.15-0.04,0.241l-1.253,5.243c-0.062,0.309-0.101,0.542-0.125,0.703c-0.02,0.156-0.02,0.338-0.009,0.555
		c0.022,0.364,0.143,0.676,0.369,0.94c0.224,0.271,0.493,0.399,0.812,0.399c0.528,0,1.064-0.263,1.594-0.791
		c0.341-0.34,0.762-0.898,1.265-1.667l0.099-0.156l-0.302-0.243c-0.324,0.478-0.598,0.846-0.828,1.103
		c-0.38,0.43-0.697,0.648-0.945,0.648c-0.146,0-0.243-0.043-0.281-0.134c-0.048-0.082-0.078-0.173-0.083-0.284
		c-0.007-0.082,0.032-0.33,0.11-0.747l1.762-7.85c0.007-0.041-0.014-0.071-0.056-0.092c-0.038-0.03-0.217-0.006-0.527,0.07
		c-0.306,0.07-1.179,0.146-1.566,0.192c-0.267,0.033-0.903-0.067-1.081,0.125L105.554,59.402z"/>
	<path fill="#BCBEC0" d="M100.861,59.794c-0.295-0.003-0.495-0.015-0.495-0.015c0.036,0.328,0.073,0.599,0.091,0.88
		c0.041,0.748-0.014,1.481-0.194,2.202c-1.171-1.253-2.431-2.105-3.727-2.483c-0.509-1.152-0.805-2.302-0.869-3.439
		c-0.13-2.174,0.703-3.458,2.203-3.458c0.399,0,0.919,0.153,1.525,0.504l0.234-0.827c-0.479-0.204-0.968-0.302-1.477-0.302
		c-2.339,0-3.908,1.909-3.754,4.538c0.054,0.955,0.332,1.933,0.858,2.962c-2.329,0.221-3.77,2.231-3.638,4.414
		c0.112,1.955,1.517,3.487,3.356,3.487c1.699,0,3.088-0.856,4.42-2.609c1.666,1.529,2.868,2.407,3.801,2.429l0.056-0.126
		c-0.396-1.25-1.298-2.808-2.642-4.687c0.157-0.702,0.256-1.547,0.292-2.298C100.888,60.348,100.861,59.794,100.861,59.794z
		 M95.617,67.479c-1.456,0-2.43-1.106-2.528-2.81c-0.11-1.831,0.946-3.437,2.494-3.562c0.961,1.531,2.117,2.907,3.445,4.214
		C98.065,66.753,96.831,67.479,95.617,67.479z M96.958,61.329c1.106,0.23,2.159,0.91,3.151,2.038
		c-0.169,0.55-0.426,1.024-0.745,1.455C98.356,63.793,97.539,62.638,96.958,61.329z M102.049,67.102
		c-0.711-0.4-1.478-1.052-2.318-1.958c0.313-0.499,0.526-0.975,0.686-1.351C101.487,65.123,102.006,66.348,102.049,67.102z"/>
</g>
</svg>
