<?xml version="1.0" encoding="utf-8"?>
<!-- Generator: Adobe Illustrator 17.0.0, SVG Export Plug-In . SVG Version: 6.00 Build 0)  -->
<!DOCTYPE svg PUBLIC "-//W3C//DTD SVG 1.1//EN" "http://www.w3.org/Graphics/SVG/1.1/DTD/svg11.dtd">
<svg version="1.1" id="Layer_1" xmlns="http://www.w3.org/2000/svg" xmlns:xlink="http://www.w3.org/1999/xlink" x="0px" y="0px"
	 width="1000px" height="600px" viewBox="0 0 1000 600" enable-background="new 0 0 1000 600" xml:space="preserve">
<g>
	<g>
		<defs>
			<path id="SVGID_1_" d="M-499.686-1107.944c0-196.214,298.229,74.622,455.788-98.575s455.788-97.639,455.788,98.575
				S207.827-752.669-43.898-752.669S-499.686-911.731-499.686-1107.944z"/>
		</defs>
		<clipPath id="SVGID_2_">
			<use xlink:href="#SVGID_1_"  overflow="visible"/>
		</clipPath>
		<g transform="translate(-297.858 -1341)" clip-path="url(#SVGID_2_)">
			
				<radialGradient id="SVGID_3_" cx="732.697" cy="-18.6255" r="0.6399" gradientTransform="matrix(-2.221646e-008 494.8363 -638.6 -2.867096e-008 -11342.4248 -360911.0313)" gradientUnits="userSpaceOnUse">
				<stop  offset="0" style="stop-color:#DDDFF9"/>
				<stop  offset="0.9901" style="stop-color:#426AB3"/>
			</radialGradient>
			<path opacity="0.3" fill="url(#SVGID_3_)" enable-background="new    " d="M1007.607,1734.018
				c0,196.214-298.229-74.622-455.788,98.575s-455.788,97.639-455.788-98.575s204.062-355.276,455.788-355.276
				S1007.607,1537.805,1007.607,1734.018z"/>
		</g>
	</g>
</g>
<rect x="221.31" y="361.823" opacity="0.5" fill="#3F3D56" enable-background="new    " width="66.591" height="62.295"/>
<path fill="#3F3D56" d="M315.111,445.778h-121.01V340.163h121.01V445.778z M194.817,445.062h119.578V340.879H194.817V445.062z"/>
<path fill="#3F3D56" d="M525.819,197.962c-40.752,0-73.788-33.036-73.788-73.788s33.036-73.789,73.788-73.789
	s73.788,33.036,73.788,73.788l0,0C599.561,164.906,566.551,197.916,525.819,197.962z M525.819,51.478
	c-40.149,0-72.695,32.547-72.695,72.695s32.547,72.695,72.695,72.695c40.149,0,72.695-32.547,72.695-72.695
	C598.468,84.044,565.948,51.524,525.819,51.478L525.819,51.478z"/>
<circle fill="#3F3D56" cx="523.632" cy="124.174" r="35.528"/>
<rect x="690.511" y="267.316" transform="matrix(0.866 -0.5 0.5 0.866 -47.8198 392.6389)" fill="#FF6584" width="36.468" height="36.468"/>
<rect x="309.743" y="61.902" transform="matrix(0.866 -0.5 0.5 0.866 3.8739 174.7291)" fill="#3F3D56" width="36.468" height="36.468"/>
<rect x="407.781" y="235.545" transform="matrix(0.9385 0.3452 -0.3452 0.9385 112.3811 -130.4742)" fill="none" stroke="#3F3D56" stroke-miterlimit="10" width="29.617" height="29.617"/>
<rect x="747.755" y="437.911" transform="matrix(0.866 -0.5 0.5 0.866 -125.4498 444.1176)" fill="#E5E5E5" width="36.468" height="36.468"/>
<rect x="248.519" y="386.884" fill="#00B0FF" width="12.173" height="12.173"/>
<circle fill="#00B0FF" cx="523.632" cy="124.174" r="8.745"/>
<rect x="549.621" y="233.165" transform="matrix(0.866 -0.5 0.5 0.866 -57.2632 330.8535)" fill="#00B0FF" width="78.226" height="78.226"/>
<rect x="378.734" y="562.374" fill="#CBCBCB" width="420" height="2"/>
<g>
	<path fill="#2F2E41" d="M917.725,80.816h-22.171c-0.653,0.001-1.182,0.531-1.181,1.184v35.023h24.536V82
		C918.909,81.346,918.38,80.816,917.725,80.816C917.726,80.816,917.726,80.816,917.725,80.816z M906.714,100.716
		c-1.443-0.007-2.611-1.175-2.618-2.618v-4.04c0-1.446,1.172-2.618,2.618-2.618s2.618,1.172,2.618,2.618v4.04
		C909.326,99.541,908.157,100.709,906.714,100.716L906.714,100.716z"/>
	<path fill="#3F3D56" d="M894.297,115.904v3.379c0.001,0.365,0.296,0.66,0.661,0.661h23.367c0.364-0.002,0.659-0.297,0.661-0.661
		v-3.379H894.297z"/>
	<path fill="#3F3D56" d="M954.438,26.158h-94.771c-1.695,0.003-3.069,1.376-3.072,3.072v63.952c0.002,1.696,1.376,3.07,3.072,3.072
		h94.771c1.696-0.002,3.07-1.376,3.072-3.072V29.23C957.507,27.535,956.133,26.161,954.438,26.158z"/>
	<path fill="#FFFFFF" d="M953.647,28.377h-93.189c-0.908,0.002-1.643,0.738-1.643,1.646V92.39c0.002,0.907,0.736,1.641,1.643,1.643
		h93.189c0.907-0.002,1.641-0.736,1.643-1.643V30.023C955.289,29.115,954.555,28.379,953.647,28.377z"/>
	<path fill="#2F2E41" d="M935.495,121.119h-55.442c-0.563,0-1.02-0.457-1.02-1.02c0-0.071,0.007-0.141,0.022-0.21l0.86-4.086
		c0.101-0.471,0.516-0.808,0.998-0.81h53.722c0.482,0.002,0.897,0.339,0.998,0.81l0.86,4.086c0.116,0.551-0.237,1.092-0.788,1.208
		C935.636,121.112,935.566,121.119,935.495,121.119L935.495,121.119z"/>
	<path fill="#3F3D56" d="M881.474,115.729h1.374c0.092,0,0.167,0.075,0.167,0.167v0.691c0,0.092-0.075,0.167-0.167,0.167h-1.374
		c-0.092,0-0.167-0.075-0.167-0.167v-0.691C881.307,115.804,881.382,115.729,881.474,115.729z"/>
	<path fill="#3F3D56" d="M884.889,115.729h1.374c0.092,0,0.167,0.075,0.167,0.167v0.691c0,0.092-0.075,0.167-0.167,0.167h-1.374
		c-0.092,0-0.167-0.075-0.167-0.167v-0.691C884.722,115.804,884.797,115.729,884.889,115.729z"/>
	<path fill="#3F3D56" d="M888.304,115.729h1.374c0.092,0,0.167,0.075,0.167,0.167v0.691c0,0.092-0.075,0.167-0.167,0.167h-1.374
		c-0.092,0-0.167-0.075-0.167-0.167v-0.691C888.137,115.804,888.212,115.729,888.304,115.729z"/>
	<path fill="#3F3D56" d="M891.719,115.729h1.374c0.092,0,0.167,0.075,0.167,0.167v0.691c0,0.092-0.075,0.167-0.167,0.167h-1.374
		c-0.092,0-0.167-0.075-0.167-0.167v-0.691C891.552,115.804,891.627,115.729,891.719,115.729z"/>
	<path fill="#3F3D56" d="M895.134,115.729h1.374c0.092,0,0.167,0.075,0.167,0.167v0.691c0,0.092-0.075,0.167-0.167,0.167h-1.374
		c-0.092,0-0.167-0.075-0.167-0.167v-0.691C894.968,115.804,895.042,115.729,895.134,115.729z"/>
	<path fill="#3F3D56" d="M898.549,115.729h1.374c0.092,0,0.167,0.075,0.167,0.167v0.691c0,0.092-0.075,0.167-0.167,0.167h-1.374
		c-0.092,0-0.167-0.075-0.167-0.167v-0.691C898.383,115.804,898.457,115.729,898.549,115.729z"/>
	<path fill="#3F3D56" d="M901.965,115.729h1.374c0.092,0,0.167,0.075,0.167,0.167v0.691c0,0.092-0.075,0.167-0.167,0.167h-1.374
		c-0.092,0-0.167-0.075-0.167-0.167v-0.691C901.798,115.804,901.872,115.729,901.965,115.729z"/>
	<path fill="#3F3D56" d="M905.38,115.729h1.374c0.092,0,0.167,0.075,0.167,0.167v0.691c0,0.092-0.075,0.167-0.167,0.167h-1.374
		c-0.092,0-0.167-0.075-0.167-0.167v-0.691C905.213,115.804,905.288,115.729,905.38,115.729z"/>
	<path fill="#3F3D56" d="M908.795,115.729h1.374c0.092,0,0.167,0.075,0.167,0.167v0.691c0,0.092-0.075,0.167-0.167,0.167h-1.374
		c-0.092,0-0.167-0.075-0.167-0.167v-0.691C908.628,115.804,908.703,115.729,908.795,115.729z"/>
	<path fill="#3F3D56" d="M912.21,115.729h1.374c0.092,0,0.167,0.075,0.167,0.167v0.691c0,0.092-0.075,0.167-0.167,0.167h-1.374
		c-0.092,0-0.167-0.075-0.167-0.167v-0.691C912.043,115.804,912.118,115.729,912.21,115.729z"/>
	<path fill="#3F3D56" d="M915.625,115.729h1.374c0.092,0,0.167,0.075,0.167,0.167v0.691c0,0.092-0.075,0.167-0.167,0.167h-1.374
		c-0.092,0-0.167-0.075-0.167-0.167v-0.691C915.458,115.804,915.533,115.729,915.625,115.729z"/>
	<path fill="#3F3D56" d="M919.04,115.729h1.374c0.092,0,0.167,0.075,0.167,0.167v0.691c0,0.092-0.075,0.167-0.167,0.167h-1.374
		c-0.092,0-0.167-0.075-0.167-0.167v-0.691C918.873,115.804,918.948,115.729,919.04,115.729z"/>
	<path fill="#3F3D56" d="M922.455,115.729h1.374c0.092,0,0.167,0.075,0.167,0.167v0.691c0,0.092-0.075,0.167-0.167,0.167h-1.374
		c-0.092,0-0.167-0.075-0.167-0.167v-0.691C922.289,115.804,922.363,115.729,922.455,115.729z"/>
	<path fill="#3F3D56" d="M925.87,115.729h1.374c0.092,0,0.167,0.075,0.167,0.167v0.691c0,0.092-0.075,0.167-0.167,0.167h-1.374
		c-0.092,0-0.167-0.075-0.167-0.167v-0.691C925.704,115.804,925.778,115.729,925.87,115.729z"/>
	<path fill="#3F3D56" d="M929.286,115.729h1.374c0.092,0,0.167,0.075,0.167,0.167v0.691c0,0.092-0.075,0.167-0.167,0.167h-1.374
		c-0.092,0-0.167-0.075-0.167-0.167v-0.691C929.119,115.804,929.193,115.729,929.286,115.729z"/>
	<path fill="#3F3D56" d="M932.701,115.729h1.374c0.092,0,0.167,0.075,0.167,0.167v0.691c0,0.092-0.075,0.167-0.167,0.167h-1.374
		c-0.092,0-0.167-0.075-0.167-0.167v-0.691C932.534,115.804,932.609,115.729,932.701,115.729z"/>
	<path fill="#3F3D56" d="M881.433,117.437h1.374c0.092,0,0.167,0.075,0.167,0.167v0.691c0,0.092-0.075,0.167-0.167,0.167h-1.374
		c-0.092,0-0.167-0.075-0.167-0.167v-0.691C881.267,117.511,881.341,117.437,881.433,117.437z"/>
	<path fill="#3F3D56" d="M884.849,117.437h1.374c0.092,0,0.167,0.075,0.167,0.167v0.691c0,0.092-0.075,0.167-0.167,0.167h-1.374
		c-0.092,0-0.167-0.075-0.167-0.167v-0.691C884.682,117.511,884.756,117.437,884.849,117.437z"/>
	<path fill="#3F3D56" d="M888.264,117.437h1.374c0.092,0,0.167,0.075,0.167,0.167v0.691c0,0.092-0.075,0.167-0.167,0.167h-1.374
		c-0.092,0-0.167-0.075-0.167-0.167v-0.691C888.097,117.511,888.172,117.437,888.264,117.437z"/>
	<path fill="#3F3D56" d="M891.679,117.437h1.374c0.092,0,0.167,0.075,0.167,0.167v0.691c0,0.092-0.075,0.167-0.167,0.167h-1.374
		c-0.092,0-0.167-0.075-0.167-0.167v-0.691C891.512,117.511,891.587,117.437,891.679,117.437z"/>
	<path fill="#3F3D56" d="M895.094,117.437h1.374c0.092,0,0.167,0.075,0.167,0.167v0.691c0,0.092-0.075,0.167-0.167,0.167h-1.374
		c-0.092,0-0.167-0.075-0.167-0.167v-0.691C894.927,117.511,895.002,117.437,895.094,117.437z"/>
	<path fill="#3F3D56" d="M898.509,117.437h1.374c0.092,0,0.167,0.075,0.167,0.167v0.691c0,0.092-0.075,0.167-0.167,0.167h-1.374
		c-0.092,0-0.167-0.075-0.167-0.167v-0.691C898.342,117.511,898.417,117.437,898.509,117.437z"/>
	<path fill="#3F3D56" d="M901.924,117.437h1.374c0.092,0,0.167,0.075,0.167,0.167v0.691c0,0.092-0.075,0.167-0.167,0.167h-1.374
		c-0.092,0-0.167-0.075-0.167-0.167v-0.691C901.757,117.511,901.832,117.437,901.924,117.437z"/>
	<path fill="#3F3D56" d="M905.339,117.437h1.374c0.092,0,0.167,0.075,0.167,0.167v0.691c0,0.092-0.075,0.167-0.167,0.167h-1.374
		c-0.092,0-0.167-0.075-0.167-0.167v-0.691C905.173,117.511,905.247,117.437,905.339,117.437z"/>
	<path fill="#3F3D56" d="M908.754,117.437h1.374c0.092,0,0.167,0.075,0.167,0.167v0.691c0,0.092-0.075,0.167-0.167,0.167h-1.374
		c-0.092,0-0.167-0.075-0.167-0.167v-0.691C908.588,117.511,908.662,117.437,908.754,117.437z"/>
	<path fill="#3F3D56" d="M912.17,117.437h1.374c0.092,0,0.167,0.075,0.167,0.167v0.691c0,0.092-0.075,0.167-0.167,0.167h-1.374
		c-0.092,0-0.167-0.075-0.167-0.167v-0.691C912.003,117.511,912.077,117.437,912.17,117.437z"/>
	<path fill="#3F3D56" d="M915.585,117.437h1.374c0.092,0,0.167,0.075,0.167,0.167v0.691c0,0.092-0.075,0.167-0.167,0.167h-1.374
		c-0.092,0-0.167-0.075-0.167-0.167v-0.691C915.418,117.511,915.493,117.437,915.585,117.437z"/>
	<path fill="#3F3D56" d="M919,117.437h1.374c0.092,0,0.167,0.075,0.167,0.167v0.691c0,0.092-0.075,0.167-0.167,0.167H919
		c-0.092,0-0.167-0.075-0.167-0.167v-0.691C918.833,117.511,918.908,117.437,919,117.437z"/>
	<path fill="#3F3D56" d="M922.415,117.437h1.374c0.092,0,0.167,0.075,0.167,0.167v0.691c0,0.092-0.075,0.167-0.167,0.167h-1.374
		c-0.092,0-0.167-0.075-0.167-0.167v-0.691C922.248,117.511,922.323,117.437,922.415,117.437z"/>
	<path fill="#3F3D56" d="M925.83,117.437h1.374c0.092,0,0.167,0.075,0.167,0.167v0.691c0,0.092-0.075,0.167-0.167,0.167h-1.374
		c-0.092,0-0.167-0.075-0.167-0.167v-0.691C925.663,117.511,925.738,117.437,925.83,117.437z"/>
	<path fill="#3F3D56" d="M929.245,117.437h1.374c0.092,0,0.167,0.075,0.167,0.167v0.691c0,0.092-0.075,0.167-0.167,0.167h-1.374
		c-0.092,0-0.167-0.075-0.167-0.167v-0.691C929.078,117.511,929.153,117.437,929.245,117.437z"/>
	<path fill="#3F3D56" d="M932.66,117.437h1.374c0.092,0,0.167,0.075,0.167,0.167v0.691c0,0.092-0.075,0.167-0.167,0.167h-1.374
		c-0.092,0-0.167-0.075-0.167-0.167v-0.691C932.494,117.511,932.568,117.437,932.66,117.437z"/>
	<path fill="#3F3D56" d="M897.826,119.486h13.327c0.092,0,0.167,0.075,0.167,0.167v0.691c0,0.092-0.075,0.167-0.167,0.167h-13.327
		c-0.092,0-0.167-0.075-0.167-0.167v-0.691C897.659,119.56,897.734,119.486,897.826,119.486z"/>
	<path fill="#00B0FF" d="M955.29,30.023V92.39c-0.002,0.907-0.736,1.641-1.643,1.643h-32.86c-3.635-3.371-6.617-7.384-8.797-11.837
		c-0.143-0.287-0.28-0.577-0.41-0.871c-1.986-4.31-3.189-8.939-3.552-13.671c-0.024-0.29-0.044-0.581-0.058-0.874
		c-0.044-0.751-0.065-1.513-0.065-2.278c-0.007-5.088,0.954-10.13,2.831-14.859c0.113-0.294,0.232-0.584,0.355-0.874
		c3.777-8.875,10.603-16.107,19.244-20.392h23.312C954.555,28.379,955.289,29.115,955.29,30.023z"/>
	<path fill="#CACACA" d="M948.962,36.97h-87.196c-0.191-0.004-0.343-0.163-0.339-0.354c0.004-0.186,0.154-0.335,0.339-0.339h87.196
		c0.191,0.004,0.343,0.163,0.339,0.354C949.297,36.816,949.148,36.966,948.962,36.97z"/>
	<ellipse fill="#3F3D56" cx="867.702" cy="32.428" rx="2.032" ry="2.077"/>
	<ellipse fill="#3F3D56" cx="874.722" cy="32.428" rx="2.032" ry="2.077"/>
	<ellipse fill="#3F3D56" cx="881.742" cy="32.428" rx="2.032" ry="2.077"/>
	<path fill="#3F3D56" d="M944.736,30.866h-4.987c-0.209,0.004-0.374,0.177-0.37,0.385c0.004,0.203,0.167,0.366,0.37,0.37h4.987
		c0.209-0.004,0.374-0.177,0.37-0.385C945.102,31.033,944.938,30.87,944.736,30.866z"/>
	<path fill="#3F3D56" d="M944.736,32.283h-4.987c-0.209,0.004-0.374,0.177-0.37,0.385c0.004,0.203,0.167,0.366,0.37,0.37h4.987
		c0.209-0.004,0.374-0.177,0.37-0.385C945.102,32.451,944.938,32.287,944.736,32.283z"/>
	<path fill="#3F3D56" d="M944.736,33.699h-4.987c-0.209,0.004-0.374,0.177-0.37,0.385c0.004,0.203,0.167,0.366,0.37,0.37h4.987
		c0.209-0.004,0.374-0.177,0.37-0.385C945.102,33.866,944.938,33.703,944.736,33.699z"/>
	<path fill="#00B0FF" d="M876.92,57.228h10.896c0.818,0,1.482,0.663,1.482,1.482l0,0c0,0.818-0.663,1.482-1.482,1.482H876.92
		c-0.818,0-1.482-0.663-1.482-1.482l0,0C875.438,57.891,876.102,57.228,876.92,57.228z"/>
	<path fill="#E6E6E6" d="M869.881,63.155h24.973c0.818,0,1.482,0.663,1.482,1.482l0,0c0,0.818-0.663,1.482-1.482,1.482h-24.973
		c-0.818,0-1.482-0.663-1.482-1.482l0,0C868.4,63.818,869.063,63.155,869.881,63.155z"/>
	<path fill="#E6E6E6" d="M869.881,69.082h24.973c0.818,0,1.482,0.663,1.482,1.482l0,0c0,0.818-0.663,1.482-1.482,1.482h-24.973
		c-0.818,0-1.482-0.663-1.482-1.482l0,0C868.4,69.746,869.063,69.082,869.881,69.082z"/>
	<path fill="#00B0FF" d="M870.68,90.457c0.002,1.221-0.215,2.432-0.642,3.576h-9.579c-0.907-0.002-1.641-0.736-1.643-1.643V80.341
		c0.535-0.087,1.077-0.13,1.619-0.13c5.658,0,10.245,4.586,10.245,10.244C870.68,90.456,870.68,90.457,870.68,90.457z"/>
	<path opacity="0.2" enable-background="new    " d="M955.375,49.643v-0.874h-14.654V38.636h-0.871v10.133h-16.796V38.636h-0.871
		v10.133h-11.092c-0.123,0.29-0.242,0.581-0.355,0.874h11.448V66.78H907.97c0.014,0.294,0.034,0.584,0.058,0.874h14.156v13.671
		H911.58c0.13,0.294,0.266,0.584,0.41,0.871h10.194v11.492h0.871V82.196h16.796v11.492h0.871V82.196h14.654v-0.871h-14.654V67.654
		h14.654V66.78h-14.654V49.643H955.375z M939.85,81.325h-16.796V67.654h16.796V81.325z M939.85,66.78h-16.796V49.643h16.796V66.78z"
		/>
	<path fill="#2F2E41" d="M943.576,87.562c-0.503,0.023-0.93-0.366-0.954-0.87c-0.012-0.269,0.095-0.529,0.292-0.712l0.063-0.249
		c-0.008-0.02-0.017-0.04-0.025-0.06c-0.528-1.246-1.966-1.829-3.212-1.301c-0.592,0.251-1.062,0.724-1.308,1.318
		c-0.739,1.781-1.681,3.565-1.913,5.448c-0.102,0.832-0.059,1.676,0.127,2.494c-1.737-3.788-2.638-7.906-2.644-12.073
		c0-1.046,0.058-2.091,0.174-3.13c0.096-0.852,0.229-1.698,0.4-2.538c0.931-4.557,2.929-8.828,5.831-12.462
		c1.405-0.766,2.54-1.945,3.255-3.377c0.259-0.515,0.442-1.064,0.543-1.631c-0.158,0.021-0.319,0.034-0.478,0.044
		c-0.049,0.003-0.101,0.005-0.151,0.008l-0.019,0.001c-0.499,0.022-0.921-0.364-0.944-0.863c-0.01-0.221,0.062-0.438,0.201-0.61
		c0.068-0.084,0.137-0.168,0.205-0.252c0.104-0.13,0.21-0.257,0.314-0.387c0.012-0.012,0.023-0.025,0.034-0.039
		c0.12-0.148,0.239-0.294,0.358-0.442c-0.218-0.339-0.511-0.622-0.857-0.829c-1.197-0.701-2.849-0.216-3.714,0.868
		c-0.868,1.083-1.031,2.603-0.73,3.956c0.296,1.152,0.786,2.244,1.449,3.231c-0.065,0.083-0.133,0.164-0.197,0.247
		c-1.187,1.526-2.222,3.165-3.089,4.894c0.211-1.936-0.041-3.895-0.734-5.714c-0.703-1.696-2.021-3.124-3.181-4.591
		c-1.394-1.761-4.252-0.993-4.498,1.24c-0.002,0.022-0.005,0.043-0.007,0.065c0.172,0.097,0.341,0.2,0.506,0.31
		c0.568,0.38,0.721,1.149,0.342,1.717c-0.193,0.289-0.498,0.483-0.841,0.536l-0.025,0.004c0.061,0.621,0.17,1.237,0.325,1.842
		c0.906,3.413,3.195,6.293,6.314,7.948c0.101,0.052,0.2,0.104,0.301,0.153c-0.871,2.469-1.418,5.042-1.626,7.652
		c-0.118,1.54-0.111,3.087,0.021,4.626l-0.008-0.055c-0.333-1.711-1.245-3.255-2.584-4.371c-1.989-1.634-4.799-2.235-6.944-3.549
		c-0.66-0.424-1.539-0.232-1.963,0.428c-0.182,0.283-0.257,0.621-0.213,0.954c0.003,0.019,0.006,0.038,0.009,0.057
		c0.32,0.13,0.631,0.28,0.932,0.449c0.172,0.097,0.341,0.2,0.506,0.31c0.568,0.38,0.721,1.149,0.342,1.717
		c-0.193,0.289-0.498,0.483-0.841,0.536l-0.025,0.004c-0.018,0.003-0.034,0.005-0.052,0.008c0.547,1.305,1.314,2.506,2.268,3.551
		c2.382,2.556,5.712,4.017,9.205,4.039h0.003c0.469,2.039,1.149,4.024,2.029,5.922h7.247c0.026-0.081,0.049-0.164,0.073-0.244
		c-0.671,0.042-1.344,0.002-2.005-0.119c0.538-0.66,1.075-1.325,1.613-1.984c0.012-0.012,0.023-0.025,0.034-0.039
		c0.273-0.338,0.548-0.673,0.821-1.01l0,0C943.944,89.6,943.825,88.567,943.576,87.562L943.576,87.562z M935.277,71.238l0.004-0.005
		l-0.004,0.01V71.238z M933.672,85.708l-0.062-0.14c0.003-0.101,0.003-0.203,0-0.306c0-0.029-0.005-0.057-0.005-0.086
		c0.023,0.179,0.044,0.358,0.07,0.538L933.672,85.708z"/>
</g>
<g>
	<path fill="#3F3D56" d="M504.548,426.455h-0.856V403.01c0-7.494-6.075-13.569-13.569-13.569l0,0h-49.671
		c-7.494,0-13.569,6.075-13.569,13.569l0,0v128.62c0,7.494,6.075,13.569,13.569,13.569h49.671c7.494,0,13.569-6.075,13.569-13.569
		v-88.487h0.856L504.548,426.455z"/>
	<path fill="#FFFFFF" d="M500.805,403.105v128.431c0,5.597-4.537,10.134-10.134,10.134H440.76c-5.596,0-10.132-4.537-10.132-10.133
		v-0.001V403.105c-0.001-5.596,4.535-10.133,10.131-10.134h0.001h6.057c-1.005,2.46,0.175,5.27,2.635,6.275
		c0.579,0.236,1.198,0.358,1.823,0.357h28.456c2.657,0.001,4.812-2.152,4.814-4.809c0-0.625-0.121-1.245-0.358-1.824h6.485
		C496.268,392.971,500.805,397.508,500.805,403.105z"/>
	<circle fill="#FF6584" cx="453.188" cy="414.199" r="13.269"/>
	
		<ellipse transform="matrix(-0.0981 0.9952 -0.9952 -0.0981 999.4742 48.0241)" fill="#3F3D56" cx="477.976" cy="476.911" rx="17.964" ry="8.804"/>
	<path fill="#00B0FF" d="M475.917,506.26c-1.433-21.4,4.109-42.036,4.165-42.242l0.671,0.183
		c-0.056,0.205-5.567,20.732-4.142,42.013L475.917,506.26z"/>
	
		<rect x="477.513" y="475.552" transform="matrix(0.9238 -0.3829 0.3829 0.9238 -145.4855 220.8343)" fill="#00B0FF" width="9.029" height="0.696"/>
	
		<rect x="473.132" y="472.692" transform="matrix(0.5561 -0.8311 0.8311 0.5561 -186.4373 605.3428)" fill="#00B0FF" width="0.696" height="9.029"/>
	
		<ellipse transform="matrix(-0.0981 0.9952 -0.9952 -0.0981 949.8405 33.7121)" fill="#E6E6E6" cx="459.644" cy="447.264" rx="35.137" ry="17.22"/>
	<path fill="#3F3D56" d="M455.93,504.639c-2.799-41.801,8.026-82.108,8.135-82.51l0.671,0.183
		c-0.109,0.401-10.904,40.6-8.112,82.281L455.93,504.639z"/>
	
		<rect x="458.742" y="444.915" transform="matrix(0.9238 -0.3829 0.3829 0.9238 -134.8567 212.9646)" fill="#3F3D56" width="17.66" height="0.696"/>
	
		<rect x="450.482" y="438.974" transform="matrix(0.5561 -0.8311 0.8311 0.5561 -172.0546 573.467)" fill="#3F3D56" width="0.696" height="17.66"/>
	
		<ellipse transform="matrix(-0.0981 0.9952 -0.9952 -0.0981 979.7267 -27.4565)" fill="#00B0FF" cx="502.305" cy="430.222" rx="48.081" ry="23.565"/>
	<path fill="#3F3D56" d="M497.347,508.723c-3.829-57.181,10.978-112.316,11.128-112.866l0.671,0.183
		c-0.15,0.549-14.927,55.576-11.105,112.637L497.347,508.723z"/>
	
		<rect x="501.075" y="427.128" transform="matrix(0.9238 -0.3829 0.3829 0.9238 -124.572 229.0637)" fill="#3F3D56" width="24.166" height="0.696"/>
	
		<rect x="489.892" y="418.862" transform="matrix(0.5561 -0.8311 0.8311 0.5561 -140.549 598.7371)" fill="#3F3D56" width="0.696" height="24.166"/>
	<path fill="#00B0FF" d="M430.628,508.003l-0.428,24.078c0,5.697,4.963,10.316,10.56,10.316h49.911
		c5.597,0,10.562-4.619,10.562-10.316l-0.428-23.866C475.642,498.461,452.375,499.073,430.628,508.003z"/>
	<path fill="#3F3D56" d="M531.747,374.69l6.431-5.144c-4.996-0.551-7.049,2.174-7.889,4.33c-3.903-1.621-8.152,0.503-8.152,0.503
		l12.868,4.672C534.355,377.318,533.225,375.805,531.747,374.69z"/>
	<path fill="#3F3D56" d="M472.172,405.528l2.657-2.125c-2.064-0.228-2.912,0.898-3.259,1.789c-1.612-0.67-3.368,0.208-3.368,0.208
		l5.316,1.93C473.249,406.613,472.783,405.988,472.172,405.528z"/>
	<path fill="#3F3D56" d="M556.504,393.398l6.431-5.144c-4.996-0.551-7.049,2.174-7.889,4.33c-3.903-1.621-8.152,0.503-8.152,0.503
		l12.868,4.671C559.112,396.025,557.982,394.513,556.504,393.398z"/>
	<path fill="#3F3D56" d="M543.858,424.357l6.431-5.144c-4.996-0.551-7.049,2.174-7.889,4.33c-3.903-1.621-8.152,0.503-8.152,0.503
		l12.868,4.671C546.467,426.985,545.337,425.472,543.858,424.357z"/>
	
		<ellipse transform="matrix(-0.7341 0.679 -0.679 -0.7341 1282.1726 472.5031)" fill="#3F3D56" cx="548.579" cy="487.278" rx="4.032" ry="8.226"/>
	<circle fill="#00B0FF" cx="564.972" cy="455.533" r="11.827"/>
	<path fill="#3F3D56" d="M584.833,530.899c-5.304-2.403-10.244-5.538-14.677-9.313c-8.95-7.738-15.45-18.844-15.933-30.847
		c-0.464-11.519,4.417-22.347,9.58-32.357c0.65-1.259,1.306-2.515,1.969-3.767c0.252-0.478,1.034-0.157,0.78,0.324
		c-5.356,10.165-10.976,20.907-11.484,32.628c-0.536,12.355,5.501,24.132,14.483,32.352c4.634,4.171,9.882,7.603,15.56,10.177"/>
	
		<rect x="560.798" y="455.196" transform="matrix(0.9743 -0.2251 0.2251 0.9743 -88.958 138.088)" fill="#3F3D56" width="0.563" height="7.913"/>
	
		<ellipse transform="matrix(-0.9923 0.1242 -0.1242 -0.9923 1194.1265 945.5178)" fill="#3F3D56" cx="567.592" cy="509.979" rx="4.032" ry="8.226"/>
</g>
<path fill="#00B0FF" d="M941.885,457.338l-28.469,28.098l-64.339,63.487l-1.302,1.284l-7.254,7.157l-15.208-15.026l-1.339-1.321
	l-27.806-27.465h-0.006l-8.91-8.806l-5.264-5.203l-15.677-15.482l-2.118-2.094l-24.988-24.684
	c-4.964-4.963-9.172-10.628-12.488-16.815c-0.304-0.554-0.59-1.114-0.87-1.674c-17.707-35.303-3.442-78.276,31.861-95.983
	c13.604-6.823,29.03-9.128,44.034-6.58h0.006c0.231,0.037,0.456,0.073,0.688,0.122c2.445,0.431,4.864,0.994,7.248,1.686
	c6.238,1.803,12.2,4.451,17.721,7.869c0.578,0.359,1.15,0.724,1.716,1.095c4.047,2.674,7.813,5.751,11.24,9.183l0.213-0.213
	l0.213,0.213c2.076-2.076,4.277-4.023,6.591-5.83c0.505-0.396,1.016-0.785,1.527-1.162c15.818-11.663,35.74-16.299,55.082-12.817
	c2.447,0.431,4.869,0.996,7.254,1.692c0.797,0.225,1.588,0.469,2.373,0.73c0.633,0.207,1.266,0.42,1.893,0.651
	c5.219,1.866,10.201,4.337,14.843,7.364c1.016,0.663,2.018,1.357,3.006,2.081c31.957,23.23,39.031,67.969,15.801,99.926
	C946.962,451.846,944.529,454.694,941.885,457.338z"/>
<path opacity="0.15" enable-background="new    " d="M913.416,485.436l-64.339,63.487l-1.302,1.284l-7.254,7.157l-15.208-15.026
	l-1.339-1.321l-27.806-27.465c4.467-1.041,11.332,0.39,13.845,1.631c5.958,2.939,10.857,7.765,16.906,10.516
	c5.402,2.439,11.437,3.105,17.241,1.905c10.845-2.276,19.237-10.662,26.637-18.915c7.4-8.258,14.965-17.119,25.365-20.947
	C901.647,485.722,907.538,485.266,913.416,485.436z"/>
<path fill="#3F3D56" d="M960.191,357.361c-8.853-8.878-19.874-15.288-31.968-18.592c-0.803-0.225-1.601-0.426-2.41-0.615
	c-3.48-0.831-7.018-1.399-10.583-1.698c-0.621-0.061-1.242-0.103-1.868-0.134c-3.127-0.198-6.265-0.186-9.39,0.037
	c-17.122,1.146-33.272,8.364-45.546,20.357l-0.219-0.219l-0.219,0.219c-8.019-7.825-17.749-13.675-28.42-17.089
	c-0.603-0.195-1.211-0.383-1.82-0.56c-8.218-2.384-16.792-3.3-25.329-2.708c-0.237,0.012-0.475,0.03-0.706,0.055
	c-15.652,1.2-30.484,7.483-42.235,17.892c-1.108,0.974-2.197,1.996-3.256,3.055c-20.328,20.365-26.69,50.824-16.213,77.624
	c0.213,0.572,0.444,1.138,0.688,1.704c3.622,8.636,8.895,16.481,15.525,23.095l23.686,23.381l1.862,1.844l51.254,50.591l1.321,1.308
	l13.462,13.291l10.4,10.267l101.984-100.687C988.43,431.479,988.43,385.661,960.191,357.361z M958.907,458.482l-100.701,99.417
	l-9.098-8.983l-13.176-13.005l-1.321-1.302l-50.256-49.617l-1.832-1.807l-25.013-24.696c-6.421-6.404-11.538-13.993-15.068-22.347
	c-0.243-0.566-0.475-1.132-0.688-1.698c-10.281-26.15-4.095-55.906,15.756-75.792c1.132-1.132,2.29-2.215,3.475-3.25h0.006
	c11.305-9.893,25.486-15.9,40.458-17.137c1.99-0.17,3.982-0.256,5.976-0.256c0.749,0,1.491,0.012,2.24,0.036
	c6.116,0.188,12.181,1.17,18.044,2.921c0.603,0.176,1.205,0.365,1.801,0.566c6.342,2.067,12.354,5.037,17.85,8.818
	c3.578,2.453,6.921,5.232,9.987,8.301l0.645,0.645l0.213-0.213l0.213,0.213l0.645-0.645c13.782-13.797,32.67-21.259,52.161-20.606
	c0.773,0.024,1.546,0.061,2.319,0.116c0.621,0.037,1.241,0.079,1.856,0.14c3.923,0.352,7.809,1.034,11.618,2.039
	c0.815,0.207,1.625,0.432,2.428,0.682c37.306,11.282,58.403,50.67,47.121,87.976C973.201,440.131,967.134,450.259,958.907,458.482z"
	/>
<path opacity="0.15" enable-background="new    " d="M817.505,340.802c-3.907,3.085-8.1,5.934-10.638,10.151
	c-1.868,3.116-2.678,6.737-3.28,10.315c-1.168,6.962-1.667,14.095-3.956,20.771c-2.282,6.676-6.737,13.054-13.34,15.543
	c-4.096,1.54-8.611,1.455-12.975,1.156c-10.766-0.73-21.604-2.659-31.293-7.4c-5.416-2.653-10.668-6.232-16.687-6.627
	c-1.225-0.079-2.455-0.011-3.664,0.201c10.857-33.891,44.985-54.64,80.07-48.68h0.006c0.231,0.037,0.456,0.073,0.688,0.122
	c2.445,0.431,4.864,0.994,7.248,1.686C812.343,338.808,814.954,339.731,817.505,340.802z"/>
<g>
	<path opacity="0.5" fill="#6DCFF6" d="M646.696,520.338c7.425,2.61,15.673,1.157,21.759-3.833
		c7.621-6.397,10.01-16.935,11.955-26.693l5.751-28.863l-12.04,8.29c-8.658,5.962-17.511,12.114-23.506,20.749
		c-5.995,8.635-8.612,20.423-3.795,29.766L646.696,520.338z"/>
	<path fill="#F2F2F2" d="M647.725,555.281c-1.218-8.876-2.472-17.866-1.617-26.837c0.759-7.968,3.19-15.749,8.138-22.13
		c2.627-3.38,5.823-6.276,9.445-8.559c0.944-0.596,1.814,0.9,0.874,1.494c-6.267,3.961-11.115,9.81-13.844,16.703
		c-3.014,7.666-3.498,16.022-2.979,24.166c0.314,4.925,0.98,9.817,1.651,14.703c0.11,0.458-0.154,0.923-0.604,1.065
		C648.329,556.01,647.854,555.74,647.725,555.281L647.725,555.281z"/>
	<path opacity="0.5" fill="#6DCFF6" d="M659.462,539.575c3.184,4.84,8.663,7.667,14.453,7.459
		c7.316-0.347,13.415-5.454,18.906-10.301l16.24-14.339l-10.748-0.515c-7.73-0.37-15.659-0.715-23.02,1.669
		c-7.362,2.384-14.152,8.12-15.498,15.74L659.462,539.575z"/>
	<path fill="#F2F2F2" d="M644.281,560.384c5.865-10.378,12.668-21.912,24.824-25.598c3.38-1.021,6.924-1.388,10.441-1.078
		c1.108,0.096,0.832,1.804-0.275,1.709c-5.896-0.49-11.781,1.067-16.663,4.408c-4.699,3.198-8.357,7.644-11.452,12.359
		c-1.896,2.888-3.595,5.898-5.294,8.905C645.319,562.049,643.732,561.356,644.281,560.384z"/>
</g>
<g>
	<circle fill="#E6E6E6" cx="111.967" cy="484.883" r="1.61"/>
	<circle fill="#E6E6E6" cx="120.116" cy="484.883" r="1.61"/>
	<circle fill="#E6E6E6" cx="128.266" cy="484.883" r="1.61"/>
	<circle fill="#E6E6E6" cx="136.416" cy="484.883" r="1.61"/>
	<circle fill="#E6E6E6" cx="144.565" cy="484.883" r="1.61"/>
	<circle fill="#E6E6E6" cx="152.715" cy="484.883" r="1.61"/>
	<circle fill="#E6E6E6" cx="160.865" cy="484.883" r="1.61"/>
	<circle fill="#E6E6E6" cx="169.014" cy="484.883" r="1.61"/>
	<circle fill="#E6E6E6" cx="177.164" cy="484.883" r="1.61"/>
	<circle fill="#E6E6E6" cx="185.314" cy="484.883" r="1.61"/>
	<circle fill="#E6E6E6" cx="193.463" cy="484.883" r="1.61"/>
	<circle fill="#E6E6E6" cx="201.613" cy="484.883" r="1.61"/>
	<circle fill="#E6E6E6" cx="209.763" cy="484.883" r="1.61"/>
	<circle fill="#E6E6E6" cx="217.912" cy="484.883" r="1.61"/>
	<circle fill="#E6E6E6" cx="226.062" cy="484.883" r="1.61"/>
	<circle fill="#E6E6E6" cx="234.212" cy="484.883" r="1.61"/>
	<circle fill="#E6E6E6" cx="242.361" cy="484.883" r="1.61"/>
	<circle fill="#E6E6E6" cx="250.511" cy="484.883" r="1.61"/>
	<circle fill="#E6E6E6" cx="258.66" cy="484.883" r="1.61"/>
	<circle fill="#E6E6E6" cx="266.81" cy="484.883" r="1.61"/>
	<circle fill="#E6E6E6" cx="274.96" cy="484.883" r="1.61"/>
	<circle fill="#E6E6E6" cx="283.109" cy="484.883" r="1.61"/>
	<circle fill="#E6E6E6" cx="111.967" cy="493.135" r="1.61"/>
	<circle fill="#E6E6E6" cx="120.116" cy="493.135" r="1.61"/>
	<circle fill="#E6E6E6" cx="128.266" cy="493.135" r="1.61"/>
	<circle fill="#E6E6E6" cx="136.416" cy="493.135" r="1.61"/>
	<circle fill="#E6E6E6" cx="144.565" cy="493.135" r="1.61"/>
	<circle fill="#E6E6E6" cx="152.715" cy="493.135" r="1.61"/>
	<circle fill="#E6E6E6" cx="160.865" cy="493.135" r="1.61"/>
	<circle fill="#E6E6E6" cx="169.014" cy="493.135" r="1.61"/>
	<circle fill="#E6E6E6" cx="177.164" cy="493.135" r="1.61"/>
	<circle fill="#E6E6E6" cx="185.314" cy="493.135" r="1.61"/>
	<circle fill="#E6E6E6" cx="193.463" cy="493.135" r="1.61"/>
	<circle fill="#E6E6E6" cx="201.613" cy="493.135" r="1.61"/>
	<circle fill="#E6E6E6" cx="209.763" cy="493.135" r="1.61"/>
	<circle fill="#E6E6E6" cx="217.912" cy="493.135" r="1.61"/>
	<circle fill="#E6E6E6" cx="226.062" cy="493.135" r="1.61"/>
	<circle fill="#E6E6E6" cx="234.212" cy="493.135" r="1.61"/>
	<circle fill="#E6E6E6" cx="242.361" cy="493.135" r="1.61"/>
	<circle fill="#E6E6E6" cx="250.511" cy="493.135" r="1.61"/>
	<circle fill="#E6E6E6" cx="258.66" cy="493.135" r="1.61"/>
	<circle fill="#E6E6E6" cx="266.81" cy="493.135" r="1.61"/>
	<circle fill="#E6E6E6" cx="274.96" cy="493.135" r="1.61"/>
	<circle fill="#E6E6E6" cx="283.109" cy="493.135" r="1.61"/>
	<circle fill="#E6E6E6" cx="111.967" cy="501.387" r="1.61"/>
	<circle fill="#E6E6E6" cx="120.116" cy="501.387" r="1.61"/>
	<circle fill="#E6E6E6" cx="128.266" cy="501.387" r="1.61"/>
	<circle fill="#E6E6E6" cx="136.416" cy="501.387" r="1.61"/>
	<circle fill="#E6E6E6" cx="144.565" cy="501.387" r="1.61"/>
	<circle fill="#E6E6E6" cx="152.715" cy="501.387" r="1.61"/>
	<circle fill="#E6E6E6" cx="160.865" cy="501.387" r="1.61"/>
	<circle fill="#E6E6E6" cx="169.014" cy="501.387" r="1.61"/>
	<circle fill="#E6E6E6" cx="177.164" cy="501.387" r="1.61"/>
	<circle fill="#E6E6E6" cx="185.314" cy="501.387" r="1.61"/>
	<circle fill="#E6E6E6" cx="193.463" cy="501.387" r="1.61"/>
	<circle fill="#E6E6E6" cx="201.613" cy="501.387" r="1.61"/>
	<circle fill="#E6E6E6" cx="209.763" cy="501.387" r="1.61"/>
	<circle fill="#E6E6E6" cx="217.912" cy="501.387" r="1.61"/>
	<circle fill="#E6E6E6" cx="226.062" cy="501.387" r="1.61"/>
	<circle fill="#E6E6E6" cx="234.212" cy="501.387" r="1.61"/>
	<circle fill="#E6E6E6" cx="242.361" cy="501.387" r="1.61"/>
	<circle fill="#E6E6E6" cx="250.511" cy="501.387" r="1.61"/>
	<circle fill="#E6E6E6" cx="258.66" cy="501.387" r="1.61"/>
	<circle fill="#E6E6E6" cx="266.81" cy="501.387" r="1.61"/>
	<circle fill="#E6E6E6" cx="274.96" cy="501.387" r="1.61"/>
	<circle fill="#E6E6E6" cx="283.109" cy="501.387" r="1.61"/>
	<circle fill="#E6E6E6" cx="111.967" cy="509.639" r="1.61"/>
	<circle fill="#E6E6E6" cx="120.116" cy="509.639" r="1.61"/>
	<circle fill="#E6E6E6" cx="128.266" cy="509.639" r="1.61"/>
	<circle fill="#E6E6E6" cx="136.416" cy="509.639" r="1.61"/>
	<circle fill="#E6E6E6" cx="144.565" cy="509.639" r="1.61"/>
	<circle fill="#E6E6E6" cx="152.715" cy="509.639" r="1.61"/>
	<circle fill="#E6E6E6" cx="160.865" cy="509.639" r="1.61"/>
	<circle fill="#E6E6E6" cx="169.014" cy="509.639" r="1.61"/>
	<circle fill="#E6E6E6" cx="177.164" cy="509.639" r="1.61"/>
	<circle fill="#E6E6E6" cx="185.314" cy="509.639" r="1.61"/>
	<circle fill="#E6E6E6" cx="193.463" cy="509.639" r="1.61"/>
	<circle fill="#E6E6E6" cx="201.613" cy="509.639" r="1.61"/>
	<circle fill="#E6E6E6" cx="209.763" cy="509.639" r="1.61"/>
	<circle fill="#E6E6E6" cx="217.912" cy="509.639" r="1.61"/>
	<circle fill="#E6E6E6" cx="226.062" cy="509.639" r="1.61"/>
	<circle fill="#E6E6E6" cx="234.212" cy="509.639" r="1.61"/>
	<circle fill="#E6E6E6" cx="242.361" cy="509.639" r="1.61"/>
	<circle fill="#E6E6E6" cx="250.511" cy="509.639" r="1.61"/>
	<circle fill="#E6E6E6" cx="258.66" cy="509.639" r="1.61"/>
	<circle fill="#E6E6E6" cx="266.81" cy="509.639" r="1.61"/>
	<circle fill="#E6E6E6" cx="274.96" cy="509.639" r="1.61"/>
	<circle fill="#E6E6E6" cx="283.109" cy="509.639" r="1.61"/>
	<circle fill="#E6E6E6" cx="111.967" cy="517.89" r="1.61"/>
	<circle fill="#E6E6E6" cx="120.116" cy="517.89" r="1.61"/>
	<circle fill="#E6E6E6" cx="128.266" cy="517.89" r="1.61"/>
	<circle fill="#E6E6E6" cx="136.416" cy="517.89" r="1.61"/>
	<circle fill="#E6E6E6" cx="144.565" cy="517.89" r="1.61"/>
	<circle fill="#E6E6E6" cx="152.715" cy="517.89" r="1.61"/>
	<circle fill="#E6E6E6" cx="160.865" cy="517.89" r="1.61"/>
	<circle fill="#E6E6E6" cx="169.014" cy="517.89" r="1.61"/>
	<circle fill="#E6E6E6" cx="177.164" cy="517.89" r="1.61"/>
	<circle fill="#E6E6E6" cx="185.314" cy="517.89" r="1.61"/>
	<circle fill="#E6E6E6" cx="193.463" cy="517.89" r="1.61"/>
	<circle fill="#E6E6E6" cx="201.613" cy="517.89" r="1.61"/>
	<circle fill="#E6E6E6" cx="209.763" cy="517.89" r="1.61"/>
	<circle fill="#E6E6E6" cx="217.912" cy="517.89" r="1.61"/>
	<circle fill="#E6E6E6" cx="226.062" cy="517.89" r="1.61"/>
	<circle fill="#E6E6E6" cx="234.212" cy="517.89" r="1.61"/>
	<circle fill="#E6E6E6" cx="242.361" cy="517.89" r="1.61"/>
	<circle fill="#E6E6E6" cx="250.511" cy="517.89" r="1.61"/>
	<circle fill="#E6E6E6" cx="258.66" cy="517.89" r="1.61"/>
	<circle fill="#E6E6E6" cx="266.81" cy="517.89" r="1.61"/>
	<circle fill="#E6E6E6" cx="274.96" cy="517.89" r="1.61"/>
	<circle fill="#E6E6E6" cx="283.109" cy="517.89" r="1.61"/>
	<circle fill="#E6E6E6" cx="111.967" cy="526.142" r="1.61"/>
	<circle fill="#E6E6E6" cx="120.116" cy="526.142" r="1.61"/>
	<circle fill="#E6E6E6" cx="128.266" cy="526.142" r="1.61"/>
	<circle fill="#E6E6E6" cx="136.416" cy="526.142" r="1.61"/>
	<circle fill="#E6E6E6" cx="144.565" cy="526.142" r="1.61"/>
	<circle fill="#E6E6E6" cx="152.715" cy="526.142" r="1.61"/>
	<circle fill="#E6E6E6" cx="160.865" cy="526.142" r="1.61"/>
	<circle fill="#E6E6E6" cx="169.014" cy="526.142" r="1.61"/>
	<circle fill="#E6E6E6" cx="177.164" cy="526.142" r="1.61"/>
	<circle fill="#E6E6E6" cx="185.314" cy="526.142" r="1.61"/>
	<circle fill="#E6E6E6" cx="193.463" cy="526.142" r="1.61"/>
	<circle fill="#E6E6E6" cx="201.613" cy="526.142" r="1.61"/>
	<circle fill="#E6E6E6" cx="209.763" cy="526.142" r="1.61"/>
	<circle fill="#E6E6E6" cx="217.912" cy="526.142" r="1.61"/>
	<circle fill="#E6E6E6" cx="226.062" cy="526.142" r="1.61"/>
	<circle fill="#E6E6E6" cx="234.212" cy="526.142" r="1.61"/>
	<circle fill="#E6E6E6" cx="242.361" cy="526.142" r="1.61"/>
	<circle fill="#E6E6E6" cx="250.511" cy="526.142" r="1.61"/>
	<circle fill="#E6E6E6" cx="258.66" cy="526.142" r="1.61"/>
	<circle fill="#E6E6E6" cx="266.81" cy="526.142" r="1.61"/>
	<circle fill="#E6E6E6" cx="274.96" cy="526.142" r="1.61"/>
	<circle fill="#E6E6E6" cx="283.109" cy="526.142" r="1.61"/>
	<circle fill="#E6E6E6" cx="111.967" cy="534.394" r="1.61"/>
	<circle fill="#E6E6E6" cx="120.116" cy="534.394" r="1.61"/>
	<circle fill="#E6E6E6" cx="128.266" cy="534.394" r="1.61"/>
	<circle fill="#E6E6E6" cx="136.416" cy="534.394" r="1.61"/>
	<circle fill="#E6E6E6" cx="144.565" cy="534.394" r="1.61"/>
	<circle fill="#E6E6E6" cx="152.715" cy="534.394" r="1.61"/>
	<circle fill="#E6E6E6" cx="160.865" cy="534.394" r="1.61"/>
	<circle fill="#E6E6E6" cx="169.014" cy="534.394" r="1.61"/>
	<circle fill="#E6E6E6" cx="177.164" cy="534.394" r="1.61"/>
	<circle fill="#E6E6E6" cx="185.314" cy="534.394" r="1.61"/>
	<circle fill="#E6E6E6" cx="193.463" cy="534.394" r="1.61"/>
	<circle fill="#E6E6E6" cx="201.613" cy="534.394" r="1.61"/>
	<circle fill="#E6E6E6" cx="209.763" cy="534.394" r="1.61"/>
	<circle fill="#E6E6E6" cx="217.912" cy="534.394" r="1.61"/>
	<circle fill="#E6E6E6" cx="226.062" cy="534.394" r="1.61"/>
	<circle fill="#E6E6E6" cx="234.212" cy="534.394" r="1.61"/>
	<circle fill="#E6E6E6" cx="242.361" cy="534.394" r="1.61"/>
	<circle fill="#E6E6E6" cx="250.511" cy="534.394" r="1.61"/>
	<circle fill="#E6E6E6" cx="258.66" cy="534.394" r="1.61"/>
	<circle fill="#E6E6E6" cx="266.81" cy="534.394" r="1.61"/>
	<circle fill="#E6E6E6" cx="274.96" cy="534.394" r="1.61"/>
	<circle fill="#E6E6E6" cx="283.109" cy="534.394" r="1.61"/>
	<circle fill="#E6E6E6" cx="111.967" cy="542.646" r="1.61"/>
	<circle fill="#E6E6E6" cx="120.116" cy="542.646" r="1.61"/>
	<circle fill="#E6E6E6" cx="128.266" cy="542.646" r="1.61"/>
	<circle fill="#E6E6E6" cx="136.416" cy="542.646" r="1.61"/>
	<circle fill="#E6E6E6" cx="144.565" cy="542.646" r="1.61"/>
	<circle fill="#E6E6E6" cx="152.715" cy="542.646" r="1.61"/>
	<circle fill="#E6E6E6" cx="160.865" cy="542.646" r="1.61"/>
	<circle fill="#E6E6E6" cx="169.014" cy="542.646" r="1.61"/>
	<circle fill="#E6E6E6" cx="177.164" cy="542.646" r="1.61"/>
	<circle fill="#E6E6E6" cx="185.314" cy="542.646" r="1.61"/>
	<circle fill="#E6E6E6" cx="193.463" cy="542.646" r="1.61"/>
	<circle fill="#E6E6E6" cx="201.613" cy="542.646" r="1.61"/>
	<circle fill="#E6E6E6" cx="209.763" cy="542.646" r="1.61"/>
	<circle fill="#E6E6E6" cx="217.912" cy="542.646" r="1.61"/>
	<circle fill="#E6E6E6" cx="226.062" cy="542.646" r="1.61"/>
	<circle fill="#E6E6E6" cx="234.212" cy="542.646" r="1.61"/>
	<circle fill="#E6E6E6" cx="242.361" cy="542.646" r="1.61"/>
	<circle fill="#E6E6E6" cx="250.511" cy="542.646" r="1.61"/>
	<circle fill="#E6E6E6" cx="258.66" cy="542.646" r="1.61"/>
	<circle fill="#E6E6E6" cx="266.81" cy="542.646" r="1.61"/>
	<circle fill="#E6E6E6" cx="274.96" cy="542.646" r="1.61"/>
	<circle fill="#E6E6E6" cx="283.109" cy="542.646" r="1.61"/>
	<circle fill="#E6E6E6" cx="111.967" cy="550.898" r="1.61"/>
	<circle fill="#E6E6E6" cx="120.116" cy="550.898" r="1.61"/>
	<circle fill="#E6E6E6" cx="128.266" cy="550.898" r="1.61"/>
	<circle fill="#E6E6E6" cx="136.416" cy="550.898" r="1.61"/>
	<circle fill="#E6E6E6" cx="144.565" cy="550.898" r="1.61"/>
	<circle fill="#E6E6E6" cx="152.715" cy="550.898" r="1.61"/>
	<circle fill="#E6E6E6" cx="160.865" cy="550.898" r="1.61"/>
	<circle fill="#E6E6E6" cx="169.014" cy="550.898" r="1.61"/>
	<circle fill="#E6E6E6" cx="177.164" cy="550.898" r="1.61"/>
	<circle fill="#E6E6E6" cx="185.314" cy="550.898" r="1.61"/>
	<circle fill="#E6E6E6" cx="193.463" cy="550.898" r="1.61"/>
	<circle fill="#E6E6E6" cx="201.613" cy="550.898" r="1.61"/>
	<circle fill="#E6E6E6" cx="209.763" cy="550.898" r="1.61"/>
	<circle fill="#E6E6E6" cx="217.912" cy="550.898" r="1.61"/>
	<circle fill="#E6E6E6" cx="226.062" cy="550.898" r="1.61"/>
	<circle fill="#E6E6E6" cx="234.212" cy="550.898" r="1.61"/>
	<circle fill="#E6E6E6" cx="242.361" cy="550.898" r="1.61"/>
	<circle fill="#E6E6E6" cx="250.511" cy="550.898" r="1.61"/>
	<circle fill="#E6E6E6" cx="258.66" cy="550.898" r="1.61"/>
	<circle fill="#E6E6E6" cx="266.81" cy="550.898" r="1.61"/>
	<circle fill="#E6E6E6" cx="274.96" cy="550.898" r="1.61"/>
	<circle fill="#E6E6E6" cx="283.109" cy="550.898" r="1.61"/>
	<circle fill="#E6E6E6" cx="111.967" cy="559.15" r="1.61"/>
	<circle fill="#E6E6E6" cx="120.116" cy="559.15" r="1.61"/>
	<circle fill="#E6E6E6" cx="128.266" cy="559.15" r="1.61"/>
	<circle fill="#E6E6E6" cx="136.416" cy="559.15" r="1.61"/>
	<circle fill="#E6E6E6" cx="144.565" cy="559.15" r="1.61"/>
	<circle fill="#E6E6E6" cx="152.715" cy="559.15" r="1.61"/>
	<circle fill="#E6E6E6" cx="160.865" cy="559.15" r="1.61"/>
	<circle fill="#E6E6E6" cx="169.014" cy="559.15" r="1.61"/>
	<circle fill="#E6E6E6" cx="177.164" cy="559.15" r="1.61"/>
	<circle fill="#E6E6E6" cx="185.314" cy="559.15" r="1.61"/>
	<circle fill="#E6E6E6" cx="193.463" cy="559.15" r="1.61"/>
	<circle fill="#E6E6E6" cx="201.613" cy="559.15" r="1.61"/>
	<circle fill="#E6E6E6" cx="209.763" cy="559.15" r="1.61"/>
	<circle fill="#E6E6E6" cx="217.912" cy="559.15" r="1.61"/>
	<circle fill="#E6E6E6" cx="226.062" cy="559.15" r="1.61"/>
	<circle fill="#E6E6E6" cx="234.212" cy="559.15" r="1.61"/>
	<circle fill="#E6E6E6" cx="242.361" cy="559.15" r="1.61"/>
	<circle fill="#E6E6E6" cx="250.511" cy="559.15" r="1.61"/>
	<circle fill="#E6E6E6" cx="258.66" cy="559.15" r="1.61"/>
	<circle fill="#E6E6E6" cx="266.81" cy="559.15" r="1.61"/>
	<circle fill="#E6E6E6" cx="274.96" cy="559.15" r="1.61"/>
	<circle fill="#E6E6E6" cx="283.109" cy="559.15" r="1.61"/>
	<rect x="56.844" y="560.663" fill="#FFFFFF" width="257.612" height="0.65"/>
	<circle fill="#00B0FF" cx="305.573" cy="540.591" r="8.382"/>
	<circle fill="#FFFFFF" cx="309.058" cy="551.461" r="1.067"/>
	<path fill="#FFFFFF" d="M151.861,510.97h33.425v2.657h-30.361v19.995h28.551v2.657h-28.551v21.953h30.71v2.657h-33.774V510.97z
		 M188.281,510.97h3.551l15.738,21.953l16.086-21.953l21.88-27.885L209.59,535.23l18.523,25.658h-3.691l-16.852-23.351
		l-16.922,23.351h-3.621l18.662-25.658L188.281,510.97z M229.436,513.627v-2.657h38.091v2.657h-17.548v47.261h-3.064v-47.261
		H229.436z M110.045,510.97h3.83L166.688,590l-21.825-29.112l-31.615-46.143l-0.139,46.143h-3.064V510.97z M267.218,557.43
		c-0.614,0.009-1.119-0.481-1.128-1.095c-0.009-0.614,0.481-1.119,1.095-1.128c0.614-0.009,1.119,0.481,1.128,1.095
		c0,0.005,0,0.011,0,0.016c0.016,0.598-0.456,1.095-1.053,1.112C267.246,557.43,267.232,557.43,267.218,557.43z M270.229,554.504
		h1.64c0.022,0.888,0.671,1.485,1.625,1.485c1.066,0,1.669-0.642,1.669-1.843v-7.611h1.669v7.619c0,2.164-1.252,3.41-3.324,3.41
		C271.563,557.564,270.229,556.355,270.229,554.504z M279.015,554.407h1.654c0.142,1.022,1.14,1.672,2.579,1.672
		c1.341,0,2.325-0.694,2.325-1.649c0-0.821-0.626-1.313-2.049-1.649l-1.386-0.336c-1.945-0.455-2.832-1.395-2.832-2.977
		c0-1.918,1.565-3.194,3.912-3.194c2.184,0,3.778,1.276,3.875,3.089h-1.625c-0.157-0.992-1.021-1.612-2.273-1.612
		c-1.319,0-2.198,0.634-2.198,1.604c0,0.769,0.566,1.209,1.967,1.537l1.185,0.291c2.206,0.515,3.115,1.41,3.115,3.03
		c0,2.06-1.595,3.35-4.143,3.35C280.737,557.564,279.135,556.333,279.015,554.407L279.015,554.407z"/>
	<polygon fill="#FFFFFF" points="306.008,561.31 305.137,561.31 305.573,540.713 	"/>
	<polygon fill="#FFFFFF" points="305.753,558.699 305.329,558.373 309.485,550.714 	"/>
</g>
<g>
	<path fill="#00B0FF" d="M64.839,69.843c0,0-22.095,7.61-26.332,14.634C34.269,91.502,64.839,69.843,64.839,69.843z"/>
	<path fill="#3F3D56" d="M26.663,94.201c-0.311,0.023-0.617-0.09-0.838-0.309c-0.687-0.619-0.126-1.79,0.357-2.617
		c6.464-11.081,38.966-22.758,40.346-23.25l2.972-1.059l-2.545,1.865c-0.094,0.069-9.549,6.99-19.229,13.511
		C32.677,92.48,28.21,94.201,26.663,94.201z M63.639,70.097C55.105,73.4,32.105,82.95,26.978,91.74
		c-0.683,1.17-0.538,1.464-0.537,1.467c0.138,0.149,1.885,1.084,20.657-11.553C53.642,77.248,60.098,72.648,63.639,70.097z"/>
	<path fill="#00B0FF" d="M64.36,62.242c0,0-20.361-2.093-26.538,1.484S64.36,62.242,64.36,62.242z"/>
	<path fill="#3F3D56" d="M36.614,65.663c-7.127,0-7.617-1.142-7.841-1.665c-0.448-1.045,0.799-2.03,1.208-2.353
		c8.838-6.978,35.682,0.074,36.82,0.377l2.183,0.582l-2.237,0.319c-0.09,0.013-9.084,1.292-18.16,2.093
		C43.294,65.484,39.434,65.663,36.614,65.663z M42.86,59.514c-5.02,0-9.612,0.727-12.307,2.854
		c-0.813,0.642-1.015,1.075-0.932,1.266c0.207,0.482,2.179,1.938,18.886,0.464c6.226-0.549,12.412-1.324,15.698-1.759
		C59.994,61.371,50.881,59.514,42.86,59.514z"/>
	<path fill="#00B0FF" d="M70.187,58.656c0,0-10.242-24.591-7.76-27.026C64.908,29.196,70.187,58.656,70.187,58.656z"/>
	<path fill="#3F3D56" d="M70.753,60.819l-1.273-3.254c-0.031-0.08-3.147-8.061-5.715-16.279
		c-5.289-16.924-3.121-18.369-2.409-18.844c0.358-0.257,0.828-0.296,1.224-0.103c3.995,1.861,7.411,31.62,7.787,35.007
		L70.753,60.819z M62.058,23.14c-0.069,0.003-0.135,0.027-0.19,0.069c-2.545,1.697,2.614,18.403,7.15,30.562
		c-1.556-12.538-4.42-29.475-6.827-30.597C62.15,23.153,62.104,23.142,62.058,23.14z"/>
	<path fill="#00B0FF" d="M74.058,64.064c0,0,5.497-24.857,11.256-24.857C91.072,39.207,74.058,64.064,74.058,64.064z"/>
	<path fill="#3F3D56" d="M72.607,65.779l0.544-2.047c0.399-1.501,9.891-36.758,20.267-36.758c1.422,0,2.036,0.667,2.301,1.227
		c2.767,5.859-19.247,32.88-21.766,35.942L72.607,65.779z M93.418,27.896c-8.282,0-16.514,26.176-18.772,33.934
		c7.428-9.229,22.233-29.01,20.239-33.235C94.803,28.422,94.555,27.896,93.418,27.896z"/>
	<path fill="#00B0FF" d="M77.285,64.312c0,0,18.899-11.943,57.619-8.297S77.285,64.312,77.285,64.312z"/>
	<path fill="#3F3D56" d="M75.995,64.81l0.989-0.848c0.2-0.172,5.018-4.244,14.672-7.519c8.883-3.014,23.691-5.854,43.789-2.264
		c8.491,1.516,9.594,2.646,9.52,3.641c-0.073,0.983-0.244,3.286-34.17,5.42c-16.579,1.043-33.33,1.528-33.498,1.533L75.995,64.81z
		 M117.206,53.423c-21.83,0-34.737,7.757-38.479,10.383c4.43-0.142,18.281-0.623,32.013-1.487
		c31.525-1.984,33.275-4.153,33.306-4.568c0.004-0.044-0.02-1.104-8.762-2.666C129.318,53.999,123.269,53.443,117.206,53.423
		L117.206,53.423z"/>
	<path fill="#00B0FF" d="M89.269,65.712c0,0,33.104-0.442,34.964,3.093C126.093,72.34,89.269,65.712,89.269,65.712z"/>
	<path fill="#3F3D56" d="M128.473,74.745c-10.567,0-35.966-7.587-39.337-8.609l-2.763-0.837l2.886-0.065
		c4.235-0.095,41.439-0.714,43.78,6.777c0.277,0.887-0.044,1.456-0.363,1.778C132.01,74.46,130.519,74.745,128.473,74.745z
		 M92.289,66.113c15.528,4.551,37.089,9.693,39.732,7.026c0.143-0.144,0.288-0.372,0.138-0.854
		C130.496,66.964,105.121,66.026,92.289,66.113z"/>
	<path fill="#00B0FF" d="M82.816,69.382c0,0,19.995,9.242,16.088,12.086S82.816,69.382,82.816,69.382z"/>
	<path fill="#3F3D56" d="M111.363,92.649c-9.672,0-29.366-23.265-30.282-24.353l-1.296-1.541l1.838,0.824
		c1.341,0.601,32.852,14.805,33.542,21.92c0.091,0.944-0.323,1.769-1.197,2.386C113.2,92.407,112.289,92.674,111.363,92.649z
		 M83.143,69.286c7.605,8.725,24.525,25.917,30.291,21.845c0.614-0.433,0.872-0.924,0.812-1.544
		C113.75,84.472,93.158,73.924,83.143,69.286z"/>
	<path fill="#00B0FF" d="M116.005,80.445c0,0,16.594,6.914,12.907,11.524C125.224,96.578,116.005,80.445,116.005,80.445z"/>
	<path fill="#00B0FF" d="M85.121,74.913c0,0,34.571,37.798,31.345,40.103C113.239,117.321,85.121,74.913,85.121,74.913z"/>
	<path fill="#00B0FF" d="M78.667,72.148c0,0,14.555,24.242,11.585,26.599C87.282,101.103,78.667,72.148,78.667,72.148z"/>
	<path fill="#3F3D56" d="M95.142,107.827c-0.182-0.001-0.362-0.031-0.534-0.09c-5.336-1.753-16.091-33.241-17.3-36.826l-1.075-3.188
		l1.893,2.781c0.056,0.083,5.714,8.41,10.734,17.025c9.281,15.926,8.512,19.057,7.126,20.027
		C95.74,107.734,95.445,107.828,95.142,107.827z M79.355,74.013c3.923,11.136,11.821,31.627,15.541,32.849
		c0.185,0.078,0.398,0.055,0.562-0.06c0.762-0.533,1.566-3.433-7.392-18.804C84.888,82.545,81.453,77.205,79.355,74.013
		L79.355,74.013z"/>
	<path fill="#00B0FF" d="M72.51,71.226c0,0-13.1,38.654-5.061,38.256C75.487,109.083,72.51,71.226,72.51,71.226z"/>
	<path fill="#3F3D56" d="M64.187,115.942c-1.411,0-2.496-0.551-3.227-1.641c-5.186-7.73,10.177-41.818,10.833-43.266l0.701-1.545
		l0.177,1.687c0.145,1.38,3.472,33.91-4.064,42.601c-1.192,1.373-2.609,2.1-4.213,2.159
		C64.325,115.94,64.256,115.942,64.187,115.942z M71.917,73.041c-3.037,6.984-14.48,34.355-10.191,40.747
		c0.584,0.871,1.446,1.275,2.634,1.229c1.358-0.05,2.519-0.653,3.551-1.842C74.212,105.91,72.51,80.06,71.917,73.041z"/>
	<path fill="#00B0FF" d="M67.985,73.147c0,0-21.99,25.151-19.977,27.8S67.985,73.147,67.985,73.147z"/>
	<path fill="#3F3D56" d="M41.392,110.116c-0.291,0.005-0.575-0.089-0.806-0.267c-0.317-0.258-0.508-0.64-0.523-1.048
		c-0.552-6.248,28.719-38.805,29.965-40.188l2.947-3.269l-2.205,3.809c-0.94,1.623-23.085,39.768-29.048,40.93
		C41.613,110.104,41.503,110.115,41.392,110.116z M67.603,72.724c-9.698,11.014-27.005,31.658-26.622,35.996
		c-0.007,0.153,0.056,0.301,0.171,0.402c0.115,0.079,0.26,0.099,0.393,0.056C45.666,108.374,60.062,85.415,67.603,72.724
		L67.603,72.724z"/>
	<path fill="#00B0FF" d="M61.385,56.211c0,0-19.171-22.646-36.899-20.451S61.385,56.211,61.385,56.211z"/>
	<path fill="#3F3D56" d="M63.94,57.27l-1.509-0.345c-0.121-0.028-12.238-2.807-24.217-6.352
		c-24.53-7.259-24.61-10.597-24.635-11.694c-0.032-1.323,1.316-2.347,4.119-3.129c10.402-2.904,22.148,2.816,30.167,8.127
		c5.385,3.599,10.409,7.712,15.001,12.279L63.94,57.27z M23.651,35.883c-1.927-0.01-3.847,0.244-5.706,0.754
		c-2.241,0.625-3.464,1.413-3.445,2.219c0.105,4.426,27.309,12.317,46.548,16.802C56.5,51.297,39.319,35.883,23.651,35.883
		L23.651,35.883z"/>
	<path fill="#00B0FF" d="M46.401,54.632c0,0-25.352-1.844-23.509,2.766C24.736,62.007,46.401,54.632,46.401,54.632z"/>
	<path fill="#00B0FF" d="M52.854,37.576c0,0-1.383-6.453-3.688-5.07S52.854,37.576,52.854,37.576z"/>
	<path fill="#00B0FF" d="M76.209,42.142c0,0,6.325-26.579,3.458-26.677C76.8,15.368,76.209,42.142,76.209,42.142z"/>
	<path fill="#3F3D56" d="M75.032,48.027l-0.052-3.53c-0.017-1.134-0.368-27.808,3.1-31.328c0.268-0.299,0.647-0.475,1.049-0.485
		c0.391,0.002,0.758,0.189,0.988,0.506c2.668,3.418-3.514,28.557-4.228,31.412L75.032,48.027z M79.128,13.607
		c-0.046,0-0.185,0-0.392,0.21c-2.29,2.325-2.822,17.789-2.853,26.883c2.539-10.837,5.126-24.867,3.506-26.942
		C79.334,13.666,79.236,13.609,79.128,13.607z"/>
	<path fill="#00B0FF" d="M105.403,45.873c0,0,2.766-6.914,5.531-5.07C113.7,42.647,105.403,45.873,105.403,45.873z"/>
	<path fill="#00B0FF" d="M79.128,107.18c0,0-3.688,27.196,3.227,26.735C89.269,133.454,79.128,107.18,79.128,107.18z"/>
	<path opacity="0.1" enable-background="new    " d="M100.626,86.127l-1.619-2.503c0,0-7.655-1.178-6.772,1.472
		s4.416,1.472,4.416,1.472l2.061,2.061L100.626,86.127z"/>
</g>
<g>
	<rect x="871.538" y="235.829" fill="#F2F2F2" width="70.497" height="70.497"/>
	<rect x="881.329" y="225.385" fill="#00B0FF" width="70.497" height="70.497"/>
	<path fill="#3F3D56" d="M986.422,281.522h-92.691v-92.691h92.691V281.522z M895.037,280.216h90.08v-90.08h-90.08V280.216z"/>
</g>
<g>
	<circle fill="#F2F2F2" cx="727.839" cy="127.684" r="51.843"/>
	<circle fill="#00B0FF" cx="736.269" cy="120.097" r="51.843"/>
	<rect x="748.432" y="227.439" fill="#3F3D56" width="66.769" height="0.79"/>
	<path fill="#3F3D56" d="M781.789,228.419c-35.558,0-64.487-28.929-64.487-64.487s28.929-64.487,64.487-64.487
		s64.487,28.929,64.487,64.487S817.348,228.419,781.789,228.419z M781.789,100.287c-35.094,0-63.644,28.551-63.644,63.644
		s28.551,63.644,63.644,63.644s63.644-28.551,63.644-63.644S816.883,100.287,781.789,100.287L781.789,100.287z"/>
</g>
<g>
	<path fill="#00B0FF" d="M381.279,498.131c-16.159-2.405-35.733-1.846-56.789,0c8.779-16.097,8.779-30.24,0-42.429
		c18.861,2.29,37.929,2.29,56.789,0C373.192,469.166,373.905,483.369,381.279,498.131z"/>
	<rect x="344.072" y="468.757" fill="#D0CDE1" width="18.277" height="18.277"/>
</g>
<g>
	<linearGradient id="SVGID_4_" gradientUnits="userSpaceOnUse" x1="156.9795" y1="183.9152" x2="231.6953" y2="183.9152">
		<stop  offset="0" style="stop-color:#FFFFFF;stop-opacity:0"/>
		<stop  offset="1" style="stop-color:#8ED8F8"/>
	</linearGradient>
	<polygon fill="url(#SVGID_4_)" points="231.695,261.093 216.58,266.724 156.979,106.737 172.095,101.106 	"/>
	<path fill="#3F3D56" d="M196.622,269.113c-42.074,0-76.181-34.108-76.181-76.181c0-42.074,34.108-76.181,76.181-76.181
		c42.074,0,76.181,34.108,76.181,76.181c0,20.204-8.026,39.581-22.313,53.868C236.235,261.133,216.838,269.168,196.622,269.113z
		 M196.622,117.246c-41.733,0-75.685,33.952-75.685,75.685s33.952,75.685,75.685,75.685s75.685-33.952,75.685-75.685
		S238.355,117.246,196.622,117.246L196.622,117.246z"/>
	<path fill="#3F3D56" d="M313.238,244.322c-21.164,22.427-56.5,23.452-78.928,2.29s-23.452-56.501-2.288-78.928
		c21.163-22.427,56.498-23.452,78.926-2.29C333.375,186.558,334.4,221.895,313.238,244.322z"/>
	<rect x="217.044" y="292.11" fill="#575A89" width="111.418" height="0.496"/>
	<rect x="217.044" y="279.703" fill="#575A89" width="111.418" height="0.496"/>
	<path fill="#00B0FF" d="M313.238,244.322c-10.537,11.195-25.235,17.534-40.609,17.514V150.17
		c14.251-0.02,27.967,5.429,38.319,15.224C333.375,186.558,334.4,221.895,313.238,244.322z"/>
	<circle fill="#00B0FF" cx="300.669" cy="138.011" r="3.722"/>
	<circle fill="#3F3D56" cx="222.751" cy="261.836" r="6.7"/>
	<circle fill="#3F3D56" cx="211.833" cy="160.096" r="4.219"/>
	<path fill="#00B0FF" d="M239.873,229.081c0,18.09,32.756,32.756,32.756,32.756v-65.511
		C272.629,196.325,239.873,210.991,239.873,229.081z"/>
	<path fill="#3F3D56" d="M272.629,196.325v65.511c0,0,32.756-14.665,32.756-32.756S272.629,196.325,272.629,196.325z"/>
</g>
<g>
	<path fill="#00B0FF" d="M160.223,342.025c0,0-7.975,3.975-10.983,3.324c-3.008-0.651-4.918-3.618-4.267-6.626
		s3.618-4.919,6.626-4.268C154.606,335.107,160.223,342.025,160.223,342.025z"/>
	<path fill="#00B0FF" d="M152.402,460.148c0,0-8.732-1.778-10.701-4.143l0,0c-1.969-2.365-1.648-5.879,0.717-7.849
		c2.365-1.97,5.879-1.648,7.849,0.717C152.236,451.239,152.402,460.148,152.402,460.148z"/>
	<path fill="#2F2E41" d="M62.744,438.362c26.237-14.627,25.496-37.842,20.253-54.742c-2.348-7.527-5.868-14.638-10.431-21.069
		c-10.837-15.34-18.263-29.63-22.071-42.474c-3.06-10.32-3.807-19.742-2.219-28.006c2.753-14.334,11.718-20.304,11.808-20.363
		l0.377,0.58c-0.088,0.057-8.823,5.892-11.511,19.94c-2.452,12.813-0.247,35.344,24.182,69.922
		c4.605,6.49,8.157,13.666,10.527,21.263c3.196,10.304,3.783,19.813,1.742,28.264c-2.748,11.382-10.257,20.562-22.32,27.287
		L62.744,438.362z"/>
	<path fill="#2F2E41" d="M84.775,374.334c9.105-5.075,8.845-13.138,7.024-19.008c-0.819-2.627-2.048-5.109-3.641-7.353
		c-6.983-9.885-9.873-18.29-8.588-24.981c0.987-5.139,4.122-7.227,4.254-7.313l0.377,0.58c-0.03,0.02-3.02,2.012-3.952,6.864
		c-0.858,4.468-0.085,12.338,8.473,24.452c1.635,2.304,2.895,4.851,3.736,7.548c1.897,6.114,2.161,14.515-7.348,19.816
		L84.775,374.334z"/>
	<path fill="#2F2E41" d="M34.978,278.347c0.841-2.697,2.102-5.244,3.736-7.548c8.545-12.096,9.327-19.958,8.479-24.424
		c-0.922-4.853-3.928-6.872-3.958-6.892l0.377-0.58c0.133,0.086,3.268,2.175,4.255,7.313c1.285,6.691-1.604,15.096-8.588,24.981
		c-1.593,2.244-2.821,4.726-3.641,7.353c-1.821,5.87-2.08,13.932,7.024,19.008l-0.337,0.604
		C32.817,292.862,33.081,284.461,34.978,278.347z"/>
	<path fill="#00B0FF" d="M20.508,242.443c0,0,15.762,5.173,18.893,9.972c0.001,0.001,0.002,0.003,0.003,0.005
		c3.13,4.8,1.776,11.228-3.024,14.357s-11.228,1.776-14.357-3.024C18.892,258.954,20.508,242.443,20.508,242.443z"/>
	<path fill="#00B0FF" d="M24.312,210.281c0,0,15.762,5.173,18.893,9.972c0.001,0.002,0.002,0.003,0.003,0.005
		c3.13,4.8,1.776,11.228-3.024,14.357c-4.8,3.13-11.228,1.776-14.357-3.024C22.696,226.791,24.312,210.281,24.312,210.281z"/>
	<path fill="#2F2E41" d="M37.955,348.379L37.955,348.379c-5.223-2.488-12.263-16.945-12.56-17.56l-0.188-0.388l0.42-0.099
		c0.664-0.156,16.327-3.799,21.549-1.311c3.738,1.781,6.117,5.555,6.11,9.696c-0.01,5.921-4.817,10.713-10.738,10.703
		C40.959,349.42,39.389,349.065,37.955,348.379z M26.21,330.909c1.18,2.363,7.499,14.681,12.042,16.846l0,0
		c5.001,2.382,10.985,0.259,13.368-4.741c2.382-5.001,0.259-10.985-4.741-13.368c-1.216-0.58-3.078-0.799-5.202-0.799
		C35.868,328.847,28.098,330.49,26.21,330.909z"/>
	<path fill="#00B0FF" d="M84.481,249.317c0,0-2.575,16.388-6.809,20.249c-0.003,0.003-0.006,0.005-0.008,0.008
		c-4.236,3.858-10.798,3.552-14.656-0.684s-3.552-10.798,0.684-14.656C67.925,250.373,84.481,249.317,84.481,249.317z"/>
	<path fill="#00B0FF" d="M108.689,292.892c0,0-2.575,16.388-6.809,20.249c-4.234,3.861-10.796,3.558-14.657-0.676
		s-3.558-10.796,0.676-14.657C92.133,293.947,108.689,292.892,108.689,292.892z"/>
	<path fill="#2F2E41" d="M59.942,303.842L59.942,303.842c-3.195-0.692-5.224-3.842-4.533-7.037c0.692-3.195,3.842-5.224,7.037-4.533
		l0,0c3.091,0.669,8.588,7.403,8.82,7.689l0.272,0.335l-0.386,0.193c-0.304,0.151-6.925,3.431-10.388,3.431
		C60.488,303.922,60.213,303.896,59.942,303.842z M62.3,292.948c-2.82-0.609-5.6,1.181-6.212,4.001
		c-0.612,2.821,1.179,5.604,4,6.217c2.485,0.539,8.731-2.326,10.362-3.105C69.287,298.677,64.786,293.486,62.3,292.948z"/>
	<path fill="#00B0FF" d="M97.994,456.101c0,0-8.275-3.307-9.791-5.986c-1.511-2.677-0.57-6.071,2.104-7.588
		c2.677-1.518,6.078-0.579,7.597,2.098C99.42,447.305,97.994,456.101,97.994,456.101z"/>
	<path fill="#2F2E41" d="M111.432,384.545c-2.845-1.609-3.848-5.22-2.239-8.065s5.22-3.848,8.065-2.239l0,0
		c2.753,1.557,6.003,9.618,6.14,9.961l0.16,0.401l-0.426,0.069c-2.358,0.371-4.74,0.576-7.127,0.614
		C114.163,385.286,112.421,385.105,111.432,384.545z M116.917,374.843L116.917,374.843c-2.513-1.421-5.702-0.535-7.123,1.978
		s-0.535,5.702,1.978,7.123c2.214,1.251,9.028,0.369,10.816,0.11C121.888,382.388,119.13,376.094,116.917,374.843z"/>
</g>
</svg>
